<svg width="24" height="24" fill="none" xmlns="http://www.w3.org/2000/svg"><path d="M23.528 13.285a29.919 29.919 0 00-4.566-1.493l.552-2.94a5.586 5.586 0 00-2.387-5.726c-1.147-.767-2.655-.828-3.934-.16a2.626 2.626 0 01-2.386 0c-1.28-.668-2.787-.607-3.935.16a5.584 5.584 0 00-2.387 5.722l.553 2.944c-1.536.369-3.04.859-4.498 1.465l-.067.028a.445.445 0 10.341.822l.068-.028a29.037 29.037 0 014.32-1.41l1.422 7.575a1.53 1.53 0 002.602.788 4.85 4.85 0 001.383-3.402v-1.378c-.002-.922.29-1.82.834-2.565a.69.69 0 011.114 0c.543.744.836 1.643.834 2.565v1.378a4.85 4.85 0 001.383 3.402 1.53 1.53 0 002.601-.787l1.422-7.576c1.498.362 2.965.843 4.387 1.438a.444.444 0 10.344-.822zM16.5 20.081a.64.64 0 01-1.088.33 3.965 3.965 0 01-1.13-2.781v-1.378a5.217 5.217 0 00-1.005-3.089 1.563 1.563 0 00-1.277-.65 1.563 1.563 0 00-1.277.65 5.217 5.217 0 00-1.005 3.089v1.378a3.965 3.965 0 01-1.13 2.78.64.64 0 01-1.088-.33L5.36 8.68a4.697 4.697 0 012.007-4.813c.877-.586 2.036-.629 3.027-.111a3.517 3.517 0 003.211 0c.99-.518 2.15-.475 3.027.11a4.698 4.698 0 012.007 4.818l-2.14 11.397z"/><path d="M15.607 6.188a.992.992 0 00-.554-.16 1.29 1.29 0 00-.594.15 5.36 5.36 0 01-4.919 0 1.291 1.291 0 00-.594-.15.992.992 0 00-.554.16 2.858 2.858 0 00-1.223 2.928l.804 4.284a.445.445 0 00.825.139c.132-.232.277-.456.434-.672a3.422 3.422 0 015.535 0c.157.216.302.44.434.671a.446.446 0 00.825-.138l.8-4.268.004-.016a2.857 2.857 0 00-1.222-2.928zm.349 2.758l-.605 3.22a4.313 4.313 0 00-6.703 0l-.6-3.198-.004-.022a1.97 1.97 0 01.843-2.018.13.13 0 01.06-.01.405.405 0 01.18.05 6.25 6.25 0 005.745 0 .405.405 0 01.181-.05.13.13 0 01.06.01 1.97 1.97 0 01.843 2.018z"/></svg>