<svg width="24" height="24" fill="none" xmlns="http://www.w3.org/2000/svg"><path d="M19.628 19.517h-1.184a.437.437 0 100 .875h1.184a.438.438 0 000-.875zm2.965 0h-1.184a.437.437 0 100 .875h1.184a.437.437 0 000-.875zm-2.075-2.075a.438.438 0 00-.438.438v1.183a.438.438 0 10.875 0V17.88a.438.438 0 00-.437-.438zm0 2.965a.437.437 0 00-.438.438v1.183a.438.438 0 00.875 0v-1.183a.437.437 0 00-.437-.438zM.76 4.483h1.184a.438.438 0 000-.875H.761a.437.437 0 100 .875zm2.966 0h1.183a.438.438 0 000-.875H3.726a.437.437 0 100 .875zm-.891-.891a.438.438 0 00.437-.437V1.97a.437.437 0 10-.875 0v1.184a.437.437 0 00.438.437zm0 2.966a.437.437 0 00.437-.438V4.937a.437.437 0 10-.875 0V6.12a.437.437 0 00.438.438z" fill="#313943" fill-opacity=".8"/><path d="M23.326 13.263a29.39 29.39 0 00-4.486-1.467l.542-2.89a5.487 5.487 0 00-2.345-5.624c-1.127-.754-2.608-.814-3.865-.157a2.58 2.58 0 01-2.345 0c-1.256-.657-2.738-.597-3.865.157a5.486 5.486 0 00-2.345 5.621l.543 2.893a29.402 29.402 0 00-4.419 1.439l-.066.027a.438.438 0 10.336.808l.066-.027a28.532 28.532 0 014.245-1.386l1.397 7.442a1.504 1.504 0 002.555.775 4.766 4.766 0 001.36-3.343v-1.354a4.256 4.256 0 01.819-2.52.676.676 0 011.094 0c.534.732.821 1.615.82 2.52v1.354a4.765 4.765 0 001.358 3.343 1.504 1.504 0 002.556-.774l1.397-7.443c1.472.356 2.913.828 4.31 1.413a.439.439 0 00.61-.402.436.436 0 00-.272-.405zm-4.804-4.521l-2.101 11.197a.63.63 0 01-1.069.324 3.895 3.895 0 01-1.11-2.732v-1.354a5.126 5.126 0 00-.988-3.034A1.535 1.535 0 0012 12.504a1.537 1.537 0 00-1.255.639 5.125 5.125 0 00-.987 3.034v1.354a3.895 3.895 0 01-1.11 2.732.628.628 0 01-1.07-.324l-2.102-11.2a4.615 4.615 0 011.972-4.73c.862-.575 2.001-.617 2.974-.108a3.455 3.455 0 003.155 0c.973-.509 2.113-.467 2.974.109a4.616 4.616 0 011.971 4.732z" fill="#313943" fill-opacity=".8"/><path d="M15.544 6.29A.974.974 0 0015 6.133a1.268 1.268 0 00-.584.148 5.266 5.266 0 01-4.832 0A1.269 1.269 0 009 6.133a.974.974 0 00-.545.157 2.807 2.807 0 00-1.2 2.876l.79 4.21a.438.438 0 00.81.136c.13-.228.272-.448.426-.66a3.362 3.362 0 015.438 0c.154.212.296.432.426.66a.437.437 0 00.81-.136l.787-4.193.003-.016a2.808 2.808 0 00-1.2-2.877zM15.886 9l-.593 3.163a4.238 4.238 0 00-6.586 0l-.59-3.142-.004-.022a1.935 1.935 0 01.829-1.982.127.127 0 01.058-.01.398.398 0 01.178.05 6.14 6.14 0 005.643 0 .398.398 0 01.179-.05c.02 0 .04.003.058.01A1.934 1.934 0 0115.887 9z" fill="#313943" fill-opacity=".8"/></svg>