<svg width="24" height="24" fill="none" xmlns="http://www.w3.org/2000/svg"><path d="M20.85 9.054h-.188a9.231 9.231 0 00-3.144-4.35 9.149 9.149 0 00-11.036 0 9.23 9.23 0 00-3.143 4.35H3.15a2.946 2.946 0 000 5.892h.189a9.23 9.23 0 003.143 4.35 9.149 9.149 0 0011.036 0 9.232 9.232 0 003.144-4.35h.188a2.947 2.947 0 000-5.892zm0 4.95h-.532a.472.472 0 00-.452.337 8.27 8.27 0 01-2.917 4.204 8.206 8.206 0 01-9.898 0 8.27 8.27 0 01-2.917-4.204.471.471 0 00-.451-.337H3.15a2.004 2.004 0 010-4.008h.533a.471.471 0 00.451-.337 8.27 8.27 0 012.917-4.204 8.125 8.125 0 014.76-1.658.47.47 0 00.19.04 1.523 1.523 0 11-1.524 1.522.471.471 0 00-.942 0 2.465 2.465 0 104.56-1.296 8.135 8.135 0 012.854 1.392 8.27 8.27 0 012.917 4.204.471.471 0 00.452.337h.532a2.004 2.004 0 010 4.008z" fill="#313943" fill-opacity=".8"/><path d="M17.826 12.748a17.685 17.685 0 00-5.825-.958 17.682 17.682 0 00-5.826.958.471.471 0 00-.306.544 6.275 6.275 0 0012.263 0 .472.472 0 00-.306-.544zm-4.843.011v1.351h-1.965v-1.35a18.161 18.161 0 011.965 0zM12 17.294a5.365 5.365 0 01-5.105-3.793 16.37 16.37 0 013.18-.665v1.745a.47.47 0 00.471.471h2.907a.471.471 0 00.471-.47v-1.746a16.37 16.37 0 013.18.665A5.365 5.365 0 0112 17.294z" fill="#313943" fill-opacity=".8"/></svg>