<svg width="24" height="24" fill="none" xmlns="http://www.w3.org/2000/svg"><path fill-rule="evenodd" clip-rule="evenodd" d="M20.686 17.546a1.88 1.88 0 001.267-.502l.002-.002a1.96 1.96 0 00.583-1.886 1.985 1.985 0 00-1.145-1.341c-.843-.35-1.605-.614-2.352-.873l-.531-.184V1.005a.446.446 0 00-.446-.445h-2.537a.446.446 0 00-.24.07l-.002.002-2.083 1.326-.218-.149a3.406 3.406 0 00-2.05-.59 3.355 3.355 0 00-2.358 1.103l-.003.003-.283.309a.446.446 0 00.032.615l4.37 3.99a.447.447 0 00.477.077.445.445 0 00.15-.109l.006-.006.284-.301a3.456 3.456 0 00.838-1.732.445.445 0 00-.877-.148c-.05.31-.16.606-.325.872l-.253.411-3.785-3.45.405-.288a2.54 2.54 0 013.22.229.446.446 0 00.604-.001l.13-.12.153.012 1.937-1.234h1.962v11.005l-.543-.21-.19-.07c-.155-.059-.326-.122-.498-.196a5.74 5.74 0 00-2.179-.426H9.131a1.61 1.61 0 01-1.44-.91L5.762 6.728a2.29 2.29 0 00-1.339-1.173l-.003-.002a2.23 2.23 0 00-1.742.13 2.357 2.357 0 00-1.034 3.13l1.245 2.533 1.504 3.076c.244.502.649.907 1.151 1.15l.15.074 1.46 4.317-.504.047a2.983 2.983 0 00-2.707 2.983v.002a.446.446 0 00.445.445H17.92a.446.446 0 00.446-.445 2.984 2.984 0 00-2.424-2.923l-.23-.044-1.41-4.258.613.06c.364.037.722.11 1.07.22l.01.003 4.067 1.387c.2.069.412.105.624.106zm-5.751 5.003h2.604l-.346-.6a2.092 2.092 0 00-1.81-1.046H6.925a2.092 2.092 0 00-1.809 1.046l-.346.6h10.165zM3.685 10.954l1.51 3.072a1.593 1.593 0 001.433.911h7.795c.621-.005 1.24.09 1.831.284h.002l4.068 1.385a1 1 0 00.981-.171l.008-.007a1.043 1.043 0 00.32-1.057 1.033 1.033 0 00-.615-.73c-.787-.333-1.567-.603-2.245-.838l-.315-.109-.472-.162a26.873 26.873 0 01-1.946-.724l-.01-.004a5.036 5.036 0 00-1.837-.358H9.116A2.475 2.475 0 016.88 11.04L4.961 7.125a1.381 1.381 0 00-1.879-.65l-.006.003a1.466 1.466 0 00-.628 1.942l1.237 2.533zM6.7 15.829l1.39 4.183h6.671l-1.39-4.183H6.7z" fill="#313943" fill-opacity=".8"/></svg>