<svg width="24" height="24" fill="none" xmlns="http://www.w3.org/2000/svg"><path d="M17.883.853c-1.322-.887-3.04-.962-4.484-.196a3.042 3.042 0 01-2.797 0C9.158-.11 7.439-.033 6.118.853a6.388 6.388 0 00-2.72 6.534l.929 5.367a.483.483 0 00.476.4h1.655l.516 2.184a.483.483 0 00.47.372h1.287l.771 5.997v.007a2.508 2.508 0 004.966-.006l.771-5.998h1.287a.483.483 0 00.47-.372l.516-2.183h1.686a.483.483 0 00.476-.4l.928-5.368a6.389 6.389 0 00-2.72-6.534zM13.51 21.581a1.542 1.542 0 01-3.051 0l-.755-5.871h4.56l-.754 5.87zm2.633-6.838H7.826l-.375-1.588h9.068l-.375 1.588zM8.967 9.967h6.037l-.286 2.222H9.252l-.285-2.222zm10.686-2.76l-.002.01-.86 4.972h-3.099l.34-2.643a.485.485 0 00-.48-.545H8.419a.483.483 0 00-.48.545l.34 2.643H5.21l-.86-4.972-.002-.01a5.424 5.424 0 012.308-5.551C7.682.967 9.02.912 10.15 1.51a4.008 4.008 0 003.703 0c1.128-.598 2.467-.543 3.492.146a5.424 5.424 0 012.309 5.55z"/></svg>