<svg width="24" height="24" fill="none" xmlns="http://www.w3.org/2000/svg"><path d="M19.364 10.075a5.731 5.731 0 00-1.893-2.456.43.43 0 00-.515 0l-1.665.815c-.419.205-.78.511-1.052.89-.596.836-1.392 1.297-2.24 1.297-.847 0-1.642-.46-2.239-1.297a2.818 2.818 0 00-1.052-.89L7.043 7.62a.43.43 0 00-.515 0 5.73 5.73 0 00-1.893 2.456 5.67 5.67 0 00-.301 3.209l1.735 8.906a2.084 2.084 0 004.04.208l1.068-3.513a.86.86 0 011.646 0l1.068 3.513a2.084 2.084 0 004.04-.208l1.735-8.906a5.67 5.67 0 00-.302-3.21zm-.543 3.044l-1.736 8.906a1.223 1.223 0 01-2.37.122l-1.069-3.513a1.721 1.721 0 00-3.293 0l-1.069 3.513a1.223 1.223 0 01-2.37-.122L5.18 13.12a4.802 4.802 0 011.654-4.645l1.497.734c.29.142.541.354.73.617.75 1.053 1.823 1.657 2.94 1.657s2.189-.604 2.94-1.657c.189-.263.44-.475.73-.617l1.497-.733a4.801 4.801 0 011.654 4.644z"/><path d="M6.422 5.882a.43.43 0 00.18.166l1.727.845c.291.143.542.355.73.617.752 1.054 1.823 1.658 2.94 1.658 1.118 0 2.19-.604 2.94-1.658.19-.263.44-.474.73-.617l1.727-.845a.43.43 0 00.18-.166l.013-.02a.43.43 0 00-.112-.566 5.565 5.565 0 00-.243-.173c-.988-.66-2.225-.813-3.396-.419a4.197 4.197 0 00-.605.257 2.713 2.713 0 01-2.466 0 4.176 4.176 0 00-.469-.21c-.002 0-.004 0-.007-.002l-.089-.031c-1.184-.411-2.436-.264-3.437.405-.075.05-.153.106-.243.173a.43.43 0 00-.112.565l.012.02zm3.494-.352l.083.03c.126.047.25.102.369.164a3.575 3.575 0 003.263 0 3.33 3.33 0 01.46-.197 3.042 3.042 0 012.246.08l-1.046.513c-.42.205-.78.511-1.052.89-.597.836-1.392 1.296-2.24 1.296-.847 0-1.642-.46-2.239-1.296a2.818 2.818 0 00-1.052-.89l-1.047-.512a3.038 3.038 0 012.255-.078zm1.76-1.647a.432.432 0 00.648 0l1.165-1.332a.43.43 0 10-.648-.567l-.41.47V.555a.43.43 0 00-.861 0v1.899l-.411-.47a.43.43 0 10-.648.567l1.165 1.332z"/></svg>