<svg width="24" height="24" fill="none" xmlns="http://www.w3.org/2000/svg"><path d="M21.782 12.36l.896-5.438a.484.484 0 00-.218-.488C19.594 4.606 15.88 3.6 12 3.6c-3.88 0-7.594 1.007-10.46 2.835a.485.485 0 00-.217.488l.896 5.439-.894 4.705a.485.485 0 00.216.5C4.406 19.395 8.12 20.4 12 20.4c3.879 0 7.593-1.006 10.459-2.835a.485.485 0 00.216-.5l-.894-4.705zM12 19.43c-3.572 0-6.987-.889-9.66-2.51l.383-2.014a2.352 2.352 0 003.794.906 3.024 3.024 0 005.36.544 3.023 3.023 0 005.37-.567 2.352 2.352 0 003.942-1.35l.471 2.482c-2.672 1.62-6.088 2.51-9.66 2.51zm.397-9.537a2.056 2.056 0 014.11 0v1.873a.055.055 0 01-.052.053H12.45a.055.055 0 01-.053-.053V9.893zm5.081.637a1.386 1.386 0 011.384-1.386 1.384 1.384 0 011.384 1.386v1.289h-2.768V10.53zm-6.086 4.186a2.056 2.056 0 11-4.111 0v-1.874a.054.054 0 01.053-.053h4.005a.054.054 0 01.053.053v1.873zm-5.082-.638a1.384 1.384 0 01-2.767 0v-1.289H6.31v1.289zm6.053-1.236a.054.054 0 01.053-.053h4.005a.054.054 0 01.053.053v1.873a2.055 2.055 0 11-4.111 0v-1.873zm5.115-.053h2.768v1.289a1.384 1.384 0 01-2.768 0v-1.289zm-6.052-1.023a.054.054 0 01-.053.053H7.368a.054.054 0 01-.053-.053V9.893a2.056 2.056 0 014.111 0v1.873zm-5.116.053H3.543V10.53a1.384 1.384 0 112.767 0v1.289zm14.863-1.736a2.353 2.353 0 00-3.901-1.287 3.023 3.023 0 00-5.36-.544 3.023 3.023 0 00-5.37.567 2.352 2.352 0 00-3.79.81l-.419-2.545C5.007 5.46 8.425 4.57 12 4.57s6.994.891 9.667 2.515l-.494 3z"/></svg>