<svg width="24" height="24" fill="none" xmlns="http://www.w3.org/2000/svg"><path d="M10.685 9.345v2.127a1.259 1.259 0 01-.856-.105 2.278 2.278 0 00-2.341.104 3.242 3.242 0 00-1.38 3.318l.927 4.754a1.315 1.315 0 002.549.131l.57-1.875a.256.256 0 01.49 0l.571 1.875a1.315 1.315 0 002.55-.13l.926-4.755c.023-.116.039-.234.049-.353h1.036a.433.433 0 00.433-.432v-1.312h1.311a.432.432 0 00.433-.432V9.345a.432.432 0 00-.433-.433h-1.31V7.601a.433.433 0 00-.434-.433h-2.914a.433.433 0 00-.433.433v1.311h-1.311a.433.433 0 00-.433.433zm3.156 5.279l-.926 4.754a.45.45 0 01-.872.045l-.57-1.876a1.121 1.121 0 00-2.146 0l-.57 1.876a.45.45 0 01-.873-.045l-.926-4.755A2.378 2.378 0 017.97 12.19a1.415 1.415 0 011.454-.059 2.11 2.11 0 001.952 0 1.414 1.414 0 011.453.059 2.377 2.377 0 011.012 2.434zm-.98-4.846a.433.433 0 00.434-.433V8.034h2.049v1.311a.432.432 0 00.433.433h1.31v2.049h-1.31a.433.433 0 00-.433.433v1.311h-.648a3.245 3.245 0 00-1.384-2.1 2.256 2.256 0 00-1.761-.32V9.778h1.31z" fill="#313943" fill-opacity=".8"/><path d="M23.443 10.022L12.283.427a.433.433 0 00-.565 0L.558 10.022a.86.86 0 00.548 1.524H3.18v11.036a1.097 1.097 0 001.096 1.095h15.45a1.097 1.097 0 001.094-1.095V11.546h2.075a.86.86 0 00.548-1.524zm-3.055.66a.433.433 0 00-.433.432v11.468a.23.23 0 01-.23.23H4.275a.23.23 0 01-.23-.23V11.114a.433.433 0 00-.432-.433H1.119L12 1.326l10.882 9.355h-2.494z" fill="#313943" fill-opacity=".8"/></svg>