<svg width="24" height="24" fill="none" xmlns="http://www.w3.org/2000/svg"><path d="M10.238 12.406a.467.467 0 00-.65-.114l-.593.415-2.433-3.474a2.919 2.919 0 10-.764.535l2.433 3.474-.594.416a.465.465 0 00-.114.65l6.339 9.052a1.226 1.226 0 001.013.526c.253 0 .5-.078.706-.223l.692-.485a1.235 1.235 0 00.303-1.72l-6.338-9.052zM2.89 8.278a1.994 1.994 0 013.265-2.287A1.993 1.993 0 012.89 8.278zm6.257 5.46l.593-.415.601.859-1.187.83-.6-.858.593-.415zm6.715 8.481a.3.3 0 01-.125.195l-.692.485a.302.302 0 01-.42-.074L9.69 15.777l1.187-.832 4.936 7.049a.3.3 0 01.05.225z"/><path d="M5.87 6.192a.466.466 0 10-.764.535.712.712 0 01-.175.99.466.466 0 00.535.764 1.645 1.645 0 00.404-2.29zm16.309 11.344L15.84 8.483a.466.466 0 00-.65-.114l-.593.416-3.55-5.07a.466.466 0 00-.65-.115l-.605.424a1.053 1.053 0 11-1.208-1.726L10.492.962a.466.466 0 10-.535-.764L8.049 1.534a1.986 1.986 0 102.278 3.254l.224-.157 3.282 4.688-.593.416a.465.465 0 00-.115.65l1.136 1.621 5.203 7.43a1.236 1.236 0 001.72.304l.692-.485a1.236 1.236 0 00.303-1.719zm-7.43-7.72h.001l.594-.416.6.859-1.186.831-.601-.859.593-.415zm6.592 8.675l-.693.485a.302.302 0 01-.42-.074l-4.935-7.048 1.187-.831 4.935 7.048a.302.302 0 01-.074.42z"/></svg>