<svg width="24" height="24" fill="none" xmlns="http://www.w3.org/2000/svg"><path d="M23.326 13.963a29.411 29.411 0 00-4.14-1.381l.636-1.65a5.488 5.488 0 00-1.282-5.958c-.971-.946-2.417-1.275-3.772-.857a2.58 2.58 0 01-2.306-.427c-1.117-.874-2.584-1.084-3.83-.548a5.486 5.486 0 00-3.328 5.1l.012 4.217a29.38 29.38 0 00-4.574 1.476l-.066.027a.438.438 0 00.336.809l.066-.028a28.533 28.533 0 014.24-1.385l.017 6.276a1.504 1.504 0 002.372 1.226 4.765 4.765 0 001.944-3.04l.246-1.33a4.256 4.256 0 011.264-2.33.676.676 0 011.076.2c.393.816.514 1.736.348 2.627l-.246 1.33a4.765 4.765 0 00.728 3.535 1.497 1.497 0 001.417.659 1.498 1.498 0 001.237-.955l3.146-8.152a28.52 28.52 0 014.122 1.366.44.44 0 00.606-.402.437.437 0 00-.268-.405zm-8.422 7.278a.629.629 0 01-1.11.125 3.895 3.895 0 01-.595-2.89l.246-1.33c.2-1.072.054-2.18-.418-3.164a1.536 1.536 0 00-1.118-.856 1.533 1.533 0 00-1.35.4 5.125 5.125 0 00-1.522 2.805l-.246 1.33a3.895 3.895 0 01-1.59 2.485.628.628 0 01-.991-.513L6.18 8.237a4.615 4.615 0 012.798-4.291c.952-.41 2.08-.244 2.945.433a3.455 3.455 0 003.102.574c1.05-.323 2.162-.075 2.904.648a4.615 4.615 0 011.078 5.012l-4.103 10.628z" fill="#313943" fill-opacity=".8"/><path d="M19.467 17.517a.437.437 0 00-.872-.076v.014a8.351 8.351 0 01-1.69 4.362.436.436 0 00.568.645.437.437 0 00.128-.114 9.225 9.225 0 001.865-4.818l.001-.013zm1.165 1.23a.435.435 0 00-.473.398v.007a4.152 4.152 0 01-.84 2.168.435.435 0 00-.034.488.439.439 0 00.729.044 5.025 5.025 0 001.016-2.625v-.007a.437.437 0 00-.398-.473zM3.125 5.766a.438.438 0 00.804.346l.005-.011a8.352 8.352 0 012.978-3.608.437.437 0 10-.492-.723 9.225 9.225 0 00-3.29 3.985l-.005.011zm-.45-1.656a.437.437 0 00.575-.227l.003-.007A3.697 3.697 0 014.57 2.28a.437.437 0 10-.492-.723 4.569 4.569 0 00-1.63 1.973l-.002.006a.437.437 0 00.228.575z" fill="#313943" fill-opacity=".8"/></svg>