<svg width="24" height="24" fill="none" xmlns="http://www.w3.org/2000/svg"><path fill-rule="evenodd" clip-rule="evenodd" d="M21.33 7.005c.022.543.015 1.091-.058 1.46l-.001.009a9.196 9.196 0 01-1.381 3.678l-.103.158.039.185a11.01 11.01 0 01-.085 4.91 10.405 10.405 0 01-2.3 4.327l-.002.001-.005.006a1.829 1.829 0 01-.712.512l-.008.004-.012.005a1.766 1.766 0 01-.583.154 1.677 1.677 0 01-.988-.335l-.005-.004a1.971 1.971 0 01-.81-1.661 5.405 5.405 0 00-.924-3.62l-.014-.022-.026-.028a3.484 3.484 0 00-.466-.44c-.198-.148-.487-.313-.833-.313h-.04l-.04.007c-.486.086-.923.35-1.225.74l-.005.006-.007.01a5.405 5.405 0 00-.973 3.62 1.97 1.97 0 01-.838 1.66l-.01.008a1.686 1.686 0 01-2.303-.275l-.006-.006a10.377 10.377 0 01-1.6-2.46l-.001-.002L5 19.287l-.02-.047c-.016-.042-.04-.103-.068-.18a16.743 16.743 0 01-.226-.64 12.605 12.605 0 01-.481-1.884 11.11 11.11 0 01.094-4.024l.039-.186-.104-.158a8.444 8.444 0 01-.735-1.393v-.003A9.444 9.444 0 012.76 7.54v-.118a5.512 5.512 0 012.38-4.928 4.346 4.346 0 014.3-.34l.39.2c.356.188.698.401 1.025.638a1.989 1.989 0 002.384.001c.33-.233.674-.447 1.03-.641l.388-.199a4.337 4.337 0 013.729.003h.002a5.173 5.173 0 012.826 3.47c.04.318.092.842.114 1.38zm-7.4 9.1a5.832 5.832 0 011.218 4.253l-.001.008-.001.014a1.125 1.125 0 00.431.957.85.85 0 00.827.132l.006-.002a.992.992 0 00.38-.265 9.472 9.472 0 002.114-4.002c.399-1.6.399-3.273 0-4.873a.432.432 0 01.07-.353l.003-.004a8.324 8.324 0 001.195-2.514l.166-.583h-2.569v2.238a.432.432 0 01-.43.431h-3.56a.431.431 0 01-.431-.431V8.873h-2.696v2.238a.432.432 0 01-.431.431H6.66a.431.431 0 01-.43-.431V8.873H3.768l.165.583c.091.32.201.635.33.942l.001.003c.24.564.543 1.1.902 1.597a.432.432 0 01.063.352l-.001.005a10.325 10.325 0 00-.168 4.05c.106.674.289 1.306.444 1.769a11.804 11.804 0 00.263.705l.016.04.005.011.001.003.001.002c.37.815.86 1.57 1.454 2.24a.93.93 0 00.393.284l.013.005a.867.867 0 00.811-.132h.001a1.125 1.125 0 00.436-.961v-.007l-.002-.01a5.877 5.877 0 011.245-4.224 2.71 2.71 0 011.91-1.001 2.726 2.726 0 011.878.976zm5.628-11.954a4.342 4.342 0 00-1.484-1.192l-.002-.001a3.457 3.457 0 00-3.016 0l-.338.173-.008.005a8.954 8.954 0 00-.938.58l-.007.006a2.843 2.843 0 01-3.379 0l-.007-.005a8.953 8.953 0 00-.938-.582l-.337-.173-.01-.005a3.51 3.51 0 00-3.51.266l-.004.004a4.676 4.676 0 00-1.976 4.14c-.003.073-.003.145.003.217l.03.426H6.23V6.662a.431.431 0 01.432-.431h3.558a.432.432 0 01.432.431V8.01h2.696V6.662a.431.431 0 01.431-.431h3.56a.431.431 0 01.43.431V8.01h2.695l.008-.082c.028-.271.124-1.28-.082-2.068-.186-.715-.432-1.207-.832-1.709zM7.093 10.68H9.79V7.093H7.093v3.586zm7.118 0h2.696V7.093H14.21v3.586z" fill="#313943" fill-opacity=".8"/></svg>