<svg width="24" height="24" fill="none" xmlns="http://www.w3.org/2000/svg"><path d="M21.054 10.666l.74-2.19c.143-.426.442-.781.835-.996l1.098-.6a.454.454 0 000-.797l-1.098-.6a1.781 1.781 0 01-.835-.996l-.74-2.191a.454.454 0 00-.86 0l-.74 2.191a1.78 1.78 0 01-.41.67 6.013 6.013 0 00-.591-.455c-1.242-.834-2.856-.905-4.214-.185a2.859 2.859 0 01-2.628 0c-1.357-.72-2.972-.649-4.214.185a6.003 6.003 0 00-2.555 6.144l1.83 9.39a2.197 2.197 0 004.259.22l1.127-3.704a.906.906 0 011.735 0l1.126 3.704a2.196 2.196 0 004.259-.22l1.876-9.57zm-2.767 9.397a1.29 1.29 0 01-2.5.128l-1.126-3.703a1.815 1.815 0 00-3.472 0l-1.127 3.703a1.289 1.289 0 01-2.498-.128l-1.83-9.39a5.097 5.097 0 012.17-5.217c.963-.647 2.22-.7 3.281-.137a3.767 3.767 0 003.48 0c1.06-.562 2.318-.51 3.282.137.106.071.209.147.308.225l-.735.402a.454.454 0 000 .796l1.099.601c.393.215.691.57.834.995l.69 2.043-1.856 9.545zm3.907-13.38a2.687 2.687 0 00-1.26 1.502l-.31.918-.31-.918a2.686 2.686 0 00-1.26-1.501l-.37-.203.37-.202a2.686 2.686 0 001.26-1.501l.31-.919.31.919a2.687 2.687 0 001.26 1.5l.37.203-.37.203zM5.4 16.229l-.892-.489a1.364 1.364 0 01-.64-.762l-.601-1.781a.454.454 0 00-.86 0l-.602 1.781c-.11.326-.338.598-.64.762l-.893.489a.454.454 0 000 .796l.893.489c.302.164.53.436.64.762l.601 1.781a.454.454 0 00.86 0l.603-1.782a1.36 1.36 0 01.639-.761l.893-.489a.454.454 0 000-.796zm-1.328.488a2.27 2.27 0 00-1.063 1.268l-.172.509-.172-.51A2.27 2.27 0 001.6 16.718l-.165-.09.165-.09a2.27 2.27 0 001.064-1.268l.172-.509.171.509a2.27 2.27 0 001.064 1.268l.165.09-.165.09z" fill="#313943" fill-opacity=".8"/></svg>