<svg width="24" height="24" fill="none" xmlns="http://www.w3.org/2000/svg"><path d="M17.019.8H6.982A6.189 6.189 0 00.801 6.98v10.037A6.188 6.188 0 006.982 23.2H17.02a6.189 6.189 0 006.182-6.182V6.981A6.188 6.188 0 0017.019.8zm4.194 16.218a4.199 4.199 0 01-4.194 4.194H6.982a4.199 4.199 0 01-4.194-4.194V6.981a4.199 4.199 0 014.194-4.194H17.02a4.199 4.199 0 014.194 4.194v10.037z"/><path d="M12 6.229A5.778 5.778 0 006.23 12 5.778 5.778 0 0012 17.772 5.778 5.778 0 0017.772 12 5.778 5.778 0 0012 6.23zm0 9.555A3.789 3.789 0 018.216 12 3.789 3.789 0 0112 8.216 3.789 3.789 0 0115.785 12 3.789 3.789 0 0112 15.784zm6.014-11.241A1.463 1.463 0 0016.557 6c0 .383.156.76.428 1.031.27.27.646.427 1.03.427a1.47 1.47 0 001.03-.427 1.46 1.46 0 000-2.061 1.464 1.464 0 00-1.03-.427z"/></svg>