<svg width="18" height="18" fill="none" xmlns="http://www.w3.org/2000/svg"><path d="M12.453 8.887l-1.861-4.695-1.57 2.745-1.568-2.745-1.86 4.697h-.539v.706h2.802v-.706h-.414l.403-1.166L9.023 9.65 10.2 7.723l.403 1.166h-.415v.706h2.814v-.706l-.55-.002zm4-1.434A7.45 7.45 0 009 0a7.457 7.457 0 00-7.453 7.454c0 2.062.84 3.922 2.185 5.267a.603.603 0 001.032-.426.62.62 0 00-.18-.437A6.227 6.227 0 012.77 7.453C2.77 4.014 5.56 1.21 9 1.21a6.252 6.252 0 015.771 8.634 6.217 6.217 0 01-1.355 2.026l-5.268 5.267L9 18l5.28-5.28a7.42 7.42 0 002.174-5.267z" fill="#fff"/></svg>