<svg width="24" height="24" fill="none" xmlns="http://www.w3.org/2000/svg"><path d="M21.16 7.195c.015.21.015.42.015.628 0 6.39-4.863 13.753-13.752 13.753-2.738 0-5.282-.793-7.423-2.17.389.044.763.06 1.168.06a9.685 9.685 0 006-2.066 4.844 4.844 0 01-4.52-3.351c.3.044.6.074.914.074.433 0 .868-.06 1.273-.164A4.832 4.832 0 01.959 9.215v-.06a4.877 4.877 0 002.184.613A4.826 4.826 0 01.988 5.743c0-.897.238-1.72.657-2.438a13.749 13.749 0 009.967 5.058 5.493 5.493 0 01-.12-1.108 4.832 4.832 0 014.834-4.833 4.82 4.82 0 013.532 1.526 9.548 9.548 0 003.067-1.167A4.824 4.824 0 0120.8 5.445a9.688 9.688 0 002.782-.75 10.374 10.374 0 01-2.422 2.5z"/></svg>