<svg width="24" height="24" fill="none" xmlns="http://www.w3.org/2000/svg"><path clip-rule="evenodd" d="M20.768 13.722c.77.726 1.581 1.408 2.272 2.207.305.355.593.721.814 1.133.313.585.03 1.23-.514 1.264h-3.38c-.872.069-1.567-.27-2.152-.845-.468-.46-.901-.95-1.351-1.426a3.17 3.17 0 00-.608-.522c-.462-.29-.862-.2-1.126.264-.268.472-.33.996-.356 1.522-.036.769-.276.97-1.076 1.006-1.708.078-3.33-.172-4.836-1.004-1.328-.734-2.358-1.77-3.254-2.942C3.456 12.096 2.119 9.588.918 7.01c-.27-.581-.073-.893.591-.904a93.646 93.646 0 013.31-.002c.447.006.744.255.917.663.597 1.417 1.327 2.764 2.243 4.013.244.332.493.665.847.899.392.26.69.173.875-.248.117-.268.168-.556.194-.842.088-.985.1-1.968-.054-2.95-.094-.612-.451-1.009-1.085-1.125-.323-.059-.274-.175-.118-.353.272-.307.527-.498 1.036-.498h3.82c.601.115.735.376.817.96l.004 4.096c-.007.226.117.898.539 1.047.337.107.56-.154.762-.36.915-.938 1.568-2.045 2.15-3.192.26-.505.482-1.028.698-1.552.16-.388.41-.579.863-.57l3.676.003c.11 0 .22.001.325.019.62.102.79.359.598.943-.301.916-.888 1.68-1.461 2.447-.613.82-1.269 1.61-1.877 2.434-.559.753-.514 1.132.18 1.785z"/></svg>