<svg width="230" height="33" viewBox="0 0 230 33" fill="none" xmlns="http://www.w3.org/2000/svg">
  <g>
    <path fill-rule="evenodd" clip-rule="evenodd" d="M18.3289 5.99211C22.3825 6.33947 20.0913 0.868421 23.2638 0.434211C19.9151 7.55526 23.5281 13.2868 25.7312 19.0184C23.44 20.1474 22.03 14.6763 19.7389 15.8053C18.5933 18.15 21.7657 20.4079 21.7657 23.1868C14.0109 22.4921 11.8959 7.90263 15.8615 0C17.1833 1.56316 15.3327 6.07895 18.3289 5.99211Z" fill="#2164B4"/>
    <path fill-rule="evenodd" clip-rule="evenodd" d="M19.8284 0.955184C20.5334 1.73676 20.5334 4.34203 19.8284 5.12361C15.4222 6.07887 16.5678 0.347289 19.8284 0.955184Z" fill="#2164B4"/>
    <path fill-rule="evenodd" clip-rule="evenodd" d="M0 28.7448V28.3105C1.58621 22.4921 7.49042 19.1053 4.49425 11.6369C6.69732 12.5053 5.81609 16.3263 7.93103 17.1948C12.0728 17.3684 10.6628 12.3316 10.9272 8.85791C15.1571 17.5421 11.1916 31.6105 4.49425 33C4.31801 30.0474 7.66667 28.3974 5.99234 25.5316C2.11494 24.8369 3.43678 29.0053 0 28.7448" fill="#8BB87B"/>
    <path fill-rule="evenodd" clip-rule="evenodd" d="M8.45906 11.6367C10.3978 11.8972 10.8384 14.1551 9.95714 15.8051C8.28282 16.1525 7.8422 15.2841 6.96098 14.8499C6.60849 13.0262 7.57783 12.3315 8.45906 11.6367Z" fill="#8BB87B"/>
    <path d="M36.0416 11.2027C35.7772 11.2895 35.3366 11.3764 34.7198 11.3764C32.4286 11.3764 31.3711 9.46585 31.3711 6.94743C31.3711 3.56058 33.2217 2.25795 34.9841 2.25795C35.601 2.25795 36.0416 2.34479 36.2178 2.51848L35.9535 3.99479C35.7772 3.90795 35.5129 3.82111 35.1604 3.82111C34.191 3.82111 33.3098 4.68953 33.3098 6.86058C33.3098 9.03164 34.1029 9.81322 35.1604 9.81322C35.4247 9.81322 35.7772 9.72637 35.9535 9.63953L36.0416 11.2027ZM38.1565 3.99479H36.5703V2.43164H41.4171V4.08164H39.8309V11.4632H38.0684V3.99479H38.1565ZM47.145 6.6869C47.145 10.0737 45.9994 11.4632 44.3251 11.4632C42.2983 11.4632 41.5052 9.29216 41.5052 6.86058C41.5052 4.42901 42.4745 2.25795 44.4132 2.25795C46.5282 2.25795 47.145 4.68953 47.145 6.6869ZM43.2676 6.86058C43.2676 8.85795 43.6201 9.90006 44.3251 9.90006C45.0301 9.90006 45.2945 8.59743 45.2945 6.77374C45.2945 5.21058 45.0301 3.73427 44.237 3.73427C43.6201 3.82111 43.2676 4.95006 43.2676 6.86058ZM53.4899 8.25006C53.4017 7.38164 53.4017 6.25269 53.4017 5.29743C53.2255 6.25269 53.0493 7.38164 52.873 8.07637L51.9918 11.2027H50.7581L50.0531 8.07637C49.8768 7.38164 49.6125 6.25269 49.5244 5.29743C49.5244 6.25269 49.4362 7.38164 49.3481 8.3369L49.1719 11.4632H47.6738L48.2906 2.51848H50.1412L50.8462 5.73164C51.1106 6.86058 51.2868 7.90269 51.4631 8.85795C51.5512 7.90269 51.8155 6.86058 51.9918 5.73164L52.6968 2.51848H54.6355L55.1642 11.4632H53.6661L53.4899 8.25006ZM57.6316 9.29216L57.2791 11.3764H55.6048L57.5435 2.43164H59.5703L61.3328 11.3764H59.6584L59.306 9.29216H57.6316ZM59.1297 7.98953L58.7772 6.07901C58.6891 5.55795 58.601 4.60269 58.5129 4.08164C58.4247 4.60269 58.2485 5.55795 58.1604 6.07901L57.8079 7.98953H59.1297ZM62.4784 3.99479H60.8922V2.43164H65.7389V4.08164H64.1527V11.4632H62.4784V3.99479ZM71.4669 6.6869C71.4669 10.0737 70.3213 11.4632 68.647 11.4632C66.6201 11.4632 65.827 9.29216 65.827 6.86058C65.827 4.42901 66.7964 2.25795 68.7351 2.25795C70.85 2.25795 71.4669 4.68953 71.4669 6.6869ZM67.5895 6.86058C67.5895 8.85795 67.942 9.90006 68.647 9.90006C69.3519 9.90006 69.6163 8.59743 69.6163 6.77374C69.6163 5.21058 69.3519 3.73427 68.5588 3.73427C67.942 3.82111 67.5895 4.95006 67.5895 6.86058ZM77.283 2.43164V11.3764H75.5205V3.90795H74.1987V6.25269C74.1987 8.3369 74.1106 10.1606 72.965 11.029C72.6125 11.2895 72.26 11.4632 71.7313 11.4632L71.3788 9.9869C71.555 9.90006 71.8194 9.81322 71.9956 9.63953C72.5243 9.11848 72.6125 8.07637 72.6125 6.33953V2.43164H77.283ZM83.8922 6.6869C83.8922 10.0737 82.7466 11.4632 81.0722 11.4632C79.0454 11.4632 78.2523 9.29216 78.2523 6.86058C78.2523 4.42901 79.2217 2.25795 81.1604 2.25795C83.2753 2.25795 83.8922 4.68953 83.8922 6.6869ZM80.0148 6.86058C80.0148 8.85795 80.3673 9.90006 81.0722 9.90006C81.7772 9.90006 82.0416 8.59743 82.0416 6.77374C82.0416 5.21058 81.7772 3.73427 80.9841 3.73427C80.3673 3.82111 80.0148 4.95006 80.0148 6.86058ZM88.9152 2.43164V3.99479H86.5358V11.4632H84.7734V2.43164H88.9152ZM91.2063 2.43164V4.34216C91.2063 5.99216 91.1182 7.55532 91.0301 8.51058C91.2945 7.729 91.7351 6.51322 91.9995 5.90532L93.3213 2.43164H94.9075V11.3764H93.4094V9.379C93.4094 7.55532 93.4975 6.25269 93.4975 5.29743C93.3213 6.07901 92.8807 7.20795 92.6163 7.90269L91.2945 11.2895H89.7083V2.43164H91.2063ZM97.8155 2.43164V5.47111C97.8155 6.16585 98.0799 6.6869 98.7849 6.6869C99.0493 6.6869 99.3136 6.60006 99.4899 6.51322V2.43164H101.164V11.5501H99.4899V7.81585H99.4017C98.9611 7.98953 98.6086 8.16321 98.168 8.16321C96.6699 8.16321 96.0531 7.12111 96.0531 5.64479V2.43164H97.8155ZM106.275 7.46848H104.248V9.90006H106.54V11.4632H102.574V2.43164H106.452V3.99479H104.337V6.07901H106.363V7.46848H106.275ZM111.827 11.2027C111.563 11.2895 111.122 11.3764 110.505 11.3764C108.214 11.3764 107.157 9.46585 107.157 6.94743C107.157 3.56058 109.007 2.25795 110.77 2.25795C111.386 2.25795 111.827 2.34479 112.003 2.51848L111.739 3.99479C111.563 3.90795 111.298 3.82111 110.946 3.82111C109.976 3.82111 109.095 4.68953 109.095 6.86058C109.095 9.03164 109.888 9.81322 110.946 9.81322C111.21 9.81322 111.563 9.72637 111.739 9.63953L111.827 11.2027ZM114.294 2.43164V6.33953H114.471L115.881 2.43164H117.731L115.704 6.60006C116.586 6.94743 116.938 7.81585 117.203 8.85795C117.379 9.72637 117.555 10.5948 117.819 11.3764H116.145C115.881 10.7685 115.793 9.9869 115.616 9.29216C115.352 8.25006 115.176 7.55532 114.471 7.55532H114.294V11.3764H112.62V2.43164H114.294ZM120.022 2.43164V4.34216C120.022 5.99216 119.934 7.55532 119.846 8.51058C120.111 7.729 120.551 6.51322 120.816 5.90532L122.137 2.43164H123.724V11.3764H122.226V9.379C122.226 7.55532 122.314 6.25269 122.314 5.29743C122.137 6.07901 121.697 7.20795 121.432 7.90269L120.111 11.2895H118.524V2.43164H120.022ZM126.544 2.43164V4.34216C126.544 5.99216 126.455 7.55532 126.367 8.51058C126.632 7.729 127.072 6.51322 127.337 5.90532L128.658 2.43164H130.245V11.3764H128.747V9.379C128.747 7.55532 128.835 6.25269 128.835 5.29743C128.658 6.07901 128.218 7.20795 127.953 7.90269L126.632 11.2895H125.045V2.43164H126.544ZM127.072 0.521111C127.072 1.04216 127.248 1.30269 127.689 1.30269C128.042 1.30269 128.218 1.04216 128.306 0.521111H129.363C129.187 1.65006 128.658 2.08427 127.689 2.08427C126.808 2.08427 126.103 1.7369 126.015 0.521111H127.072ZM33.9267 17.0211V28.7448H37.8922V17.0211H39.6546V28.7448H40.624L40.5358 32.7395H39.214L39.1259 30.0474H32.2523V17.0211H33.9267ZM47.6738 23.8816H43.9726V28.7448H48.2025V30.0474H42.2983V17.0211H47.9381V18.3237H43.9726V22.579H47.6738V23.8816ZM51.5512 17.0211V22.579H55.6929V17.0211H57.3673V30.0474H55.6929V23.9685H51.5512V30.0474H49.8768V17.0211H51.5512ZM61.3328 18.3237H58.601V17.0211H65.7389V18.3237H63.0071V30.0474H61.3328V18.3237ZM67.237 17.1948C67.942 17.0211 68.7351 16.9343 69.7044 16.9343C71.0263 16.9343 72.26 17.1948 72.965 17.8895C73.6699 18.4974 74.0224 19.4527 74.0224 20.5816C74.0224 21.7974 73.6699 22.579 73.1412 23.2737C72.3481 24.229 70.9381 24.7501 69.6163 24.7501H68.9113V30.0474H67.237V17.1948ZM68.9113 23.4474H69.6163C71.2906 23.4474 72.3481 22.4922 72.3481 20.6685C72.3481 19.3658 71.7313 18.1501 69.8807 18.1501C69.5282 18.1501 69.1757 18.1501 68.9113 18.2369V23.4474ZM84.7734 17.0211V18.3237H80.6316V30.0474H78.9573V17.0211H84.7734ZM93.2332 23.4474C93.2332 28.3106 91.3826 30.2211 88.9152 30.2211C86.4477 30.2211 84.7734 27.8764 84.7734 23.5343C84.7734 19.1922 86.5358 16.8474 89.0914 16.8474C91.647 16.8474 93.2332 19.279 93.2332 23.4474ZM86.5358 23.5343C86.5358 26.2264 87.1527 28.9185 89.0033 28.9185C90.8539 28.9185 91.3826 26.0527 91.3826 23.5343C91.3826 21.1027 90.8539 18.2369 89.0033 18.2369C87.1527 18.1501 86.5358 20.8422 86.5358 23.5343ZM94.9956 17.1948C95.7006 17.0211 96.4937 16.9343 97.4631 16.9343C98.7849 16.9343 100.019 17.1948 100.724 17.8895C101.429 18.4974 101.781 19.4527 101.781 20.5816C101.781 21.7974 101.429 22.579 100.9 23.2737C100.107 24.229 98.6968 24.7501 97.3749 24.7501H96.6699V30.0474H94.9956V17.1948ZM96.6699 23.4474H97.3749C99.0493 23.4474 100.107 22.4922 100.107 20.6685C100.107 19.3658 99.4899 18.1501 97.6393 18.1501C97.2868 18.1501 96.9343 18.1501 96.6699 18.2369V23.4474ZM111.298 23.4474C111.298 28.3106 109.448 30.2211 106.98 30.2211C104.513 30.2211 102.839 27.8764 102.839 23.5343C102.839 19.1922 104.601 16.8474 107.157 16.8474C109.8 16.8474 111.298 19.279 111.298 23.4474ZM104.689 23.5343C104.689 26.2264 105.306 28.9185 107.157 28.9185C109.007 28.9185 109.536 26.0527 109.536 23.5343C109.536 21.1027 109.007 18.2369 107.157 18.2369C105.306 18.1501 104.689 20.8422 104.689 23.5343ZM120.111 17.0211V28.7448H121.08L120.992 32.6527H119.67L119.582 29.9606H113.061L112.973 32.6527H111.651L111.563 28.7448H112.532C113.061 27.529 113.501 26.4001 113.766 25.2711C114.118 23.6211 114.206 21.8843 114.206 19.9737V17.0211H120.111ZM115.704 20.2343C115.704 22.058 115.616 23.7948 115.264 25.4448C114.999 26.5737 114.647 27.7027 114.206 28.7448H118.436V18.3237H115.704V20.2343ZM124.693 26.1395L123.724 30.0474H122.049L125.398 17.0211H127.248L130.509 30.0474H128.835L127.865 26.1395H124.693ZM127.689 24.9237L126.896 21.6237C126.72 20.6685 126.455 19.6264 126.279 18.6711H126.191C126.015 19.6264 125.75 20.7553 125.574 21.6237L124.781 24.9237H127.689ZM228.325 21.6237H199.597C199.245 21.6237 198.804 21.7974 198.54 21.9711C198.363 22.058 198.187 22.2316 198.099 22.4922C198.011 22.6658 197.923 22.8395 197.923 23.0132L197.57 24.0553L194.134 2.08427C194.045 1.65006 193.869 1.30269 193.517 1.04216C193.34 0.781637 193.076 0.607953 192.812 0.521111C191.93 0.260584 190.961 0.868479 190.697 1.91058L186.731 17.8895L183.647 4.34216C183.383 3.64743 182.766 3.21322 182.061 3.30006C181.356 3.30006 180.651 3.73427 180.475 4.34216L176.685 21.6237H140.467C139.586 21.6237 138.793 22.3185 138.793 23.2737C138.793 24.229 139.498 24.9237 140.467 24.9237H178.36C178.8 24.9237 179.241 24.9237 179.593 24.7501C179.946 24.5764 180.21 24.229 180.386 23.8816L182.766 13.9816L185.409 23.8816C185.498 24.1422 185.674 24.4027 185.85 24.5764H185.938C186.026 24.5764 186.026 24.6632 186.026 24.6632C186.114 24.6632 186.114 24.7501 186.203 24.7501C186.291 24.7501 186.291 24.8369 186.379 24.8369C186.467 24.8369 186.643 24.9237 186.731 24.9237C186.996 24.9237 187.172 24.9237 187.436 24.8369C188.053 24.6632 188.406 24.1422 188.494 23.5343L191.666 12.7658L195.015 31.0027C195.015 31.2632 195.103 31.5237 195.191 31.7843C195.455 32.2185 195.984 32.5658 196.513 32.5658C197.306 32.7395 197.923 32.3922 198.187 31.8711L200.743 24.9237H228.237C229.206 24.9237 229.911 24.229 229.911 23.2737C229.999 22.4053 229.294 21.6237 228.325 21.6237Z" fill="#2164B4"/>
    <path d="M145.138 18.3236H140.203V3.38672H147.517C151.835 3.38672 153.95 5.38409 153.95 8.42356C153.95 11.6367 152.012 13.6341 147.694 13.6341H145.226V18.3236H145.138ZM145.138 10.1604H147.165C148.31 10.1604 149.192 9.72619 149.192 8.42356C149.192 7.03409 147.605 6.8604 146.548 6.8604H145.138V10.1604ZM159.59 18.3236H154.655V3.38672H161.793C166.816 3.38672 168.49 4.77619 168.49 7.64198C168.49 9.37882 167.697 10.7683 165.935 11.2894C167.521 11.8972 168.49 12.2446 168.49 15.1972C168.49 17.3683 168.579 17.8025 169.019 17.8025V18.2367H163.996C163.908 17.8893 163.732 16.9341 163.732 15.6315C163.732 13.7209 163.379 13.0262 161.088 13.0262H159.59V18.3236ZM159.59 9.81303H161.529C163.027 9.81303 163.908 9.46567 163.908 8.42356C163.908 7.38146 163.027 6.8604 161.881 6.8604H159.59V9.81303ZM169.9 3.38672H174.835V18.3236H169.9V3.38672Z" fill="#8BB87B"/>
    <path d="M212.023 3.38672V6.8604H204.268V9.03146H210.789V12.592H204.268V14.9367H212.287V18.4104H199.157V3.38672H212.023ZM220.483 3.38672H213.521V9.29198H218.104V5.99198H221.54V9.29198H224.977V12.5051H221.54V15.8051H218.104V12.5051H213.521V18.4104H220.307C225.33 18.4104 228.678 16.2393 228.678 10.5946C228.678 5.64461 225.506 3.38672 220.483 3.38672ZM142.759 32.4788C142.582 32.5657 142.318 32.5657 142.054 32.5657C140.82 32.5657 140.203 31.6104 140.203 30.2209C140.203 28.4841 141.172 27.7894 142.142 27.7894C142.494 27.7894 142.671 27.8762 142.759 27.8762L142.582 28.6578C142.494 28.5709 142.318 28.5709 142.142 28.5709C141.613 28.5709 141.172 29.0051 141.172 30.2209C141.172 31.3499 141.613 31.7841 142.142 31.7841C142.318 31.7841 142.494 31.7841 142.582 31.6972L142.759 32.4788ZM143.816 28.7446H142.935V27.8762H145.579V28.7446H144.697V32.6525H143.728V28.7446H143.816ZM148.663 30.1341C148.663 31.8709 148.046 32.6525 147.077 32.6525C146.019 32.6525 145.579 31.5236 145.579 30.2209C145.579 28.9183 146.107 27.7894 147.165 27.7894C148.31 27.7894 148.663 29.092 148.663 30.1341ZM146.548 30.2209C146.548 31.263 146.724 31.8709 147.165 31.8709C147.517 31.8709 147.694 31.1762 147.694 30.2209C147.694 29.3525 147.605 28.6578 147.165 28.6578C146.812 28.5709 146.548 29.1788 146.548 30.2209ZM152.012 30.9157C152.012 30.4815 151.923 29.8736 152.012 29.3525C151.923 29.8736 151.835 30.4815 151.747 30.8288L151.307 32.4788H150.602L150.161 30.8288C150.073 30.4815 149.985 29.8736 149.897 29.3525C149.897 29.8736 149.897 30.4815 149.808 30.9157L149.72 32.5657H148.927L149.28 27.8762H150.249L150.602 29.613C150.778 30.2209 150.866 30.742 150.954 31.263C151.042 30.742 151.13 30.2209 151.218 29.613L151.571 27.8762H152.54L152.805 32.5657H152.012V30.9157ZM154.215 31.5236L154.038 32.5657H153.157L154.215 27.8762H155.36L156.33 32.5657H155.448L155.272 31.5236H154.215ZM155.008 30.8288L154.831 29.8736C154.743 29.613 154.743 29.092 154.655 28.8315C154.567 29.1788 154.567 29.613 154.479 29.8736L154.303 30.8288H155.008ZM156.77 28.7446H155.889V27.8762H158.533V28.7446H157.651V32.6525H156.682V28.7446H156.77ZM161.529 30.1341C161.529 31.8709 160.912 32.6525 159.943 32.6525C158.885 32.6525 158.444 31.5236 158.444 30.2209C158.444 28.9183 158.973 27.7894 160.031 27.7894C161.176 27.7894 161.529 29.092 161.529 30.1341ZM159.414 30.2209C159.414 31.263 159.59 31.8709 160.031 31.8709C160.383 31.8709 160.559 31.1762 160.559 30.2209C160.559 29.3525 160.471 28.6578 160.031 28.6578C159.678 28.5709 159.414 29.1788 159.414 30.2209ZM164.613 27.8762V32.5657H163.644V28.6578H162.939V29.8736C162.939 31.0025 162.851 31.8709 162.234 32.392C162.058 32.5657 161.793 32.6525 161.617 32.6525L161.441 31.8709C161.529 31.8709 161.705 31.7841 161.793 31.6972C162.058 31.4367 162.146 30.9157 162.146 29.9604V27.7894H164.613V27.8762ZM168.138 30.1341C168.138 31.8709 167.521 32.6525 166.552 32.6525C165.494 32.6525 165.054 31.5236 165.054 30.2209C165.054 28.9183 165.582 27.7894 166.64 27.7894C167.785 27.7894 168.138 29.092 168.138 30.1341ZM166.023 30.2209C166.023 31.263 166.199 31.8709 166.64 31.8709C166.992 31.8709 167.169 31.1762 167.169 30.2209C167.169 29.3525 167.081 28.6578 166.64 28.6578C166.199 28.5709 166.023 29.1788 166.023 30.2209ZM170.782 27.8762V28.6578H169.46V32.5657H168.49V27.8762H170.782ZM171.927 27.8762V28.9183C171.927 29.7867 171.839 30.5683 171.839 31.0893C172.015 30.6551 172.192 30.0472 172.368 29.6999L173.073 27.8762H173.954V32.5657H173.161V31.5236C173.161 30.5683 173.161 29.8736 173.249 29.4394C173.161 29.8736 172.897 30.3946 172.808 30.8288L172.104 32.6525H171.222V27.963H171.927V27.8762ZM175.452 27.8762V29.4394C175.452 29.7867 175.628 30.1341 175.981 30.1341C176.157 30.1341 176.245 30.1341 176.333 30.0472V27.8762H177.215V32.5657H176.333V30.6551C176.157 30.742 175.893 30.8288 175.628 30.8288C174.835 30.8288 174.483 30.3078 174.483 29.5262V27.8762H175.452ZM179.946 30.4815H178.889V31.7841H180.123V32.5657H177.92V27.8762H180.035V28.6578H178.889V29.7867H179.946V30.4815ZM182.943 32.4788C182.766 32.5657 182.502 32.5657 182.238 32.5657C181.004 32.5657 180.475 31.6104 180.475 30.2209C180.475 28.4841 181.444 27.7894 182.414 27.7894C182.766 27.7894 182.943 27.8762 183.031 27.8762L182.854 28.6578C182.766 28.5709 182.59 28.5709 182.414 28.5709C181.885 28.5709 181.444 29.0051 181.444 30.2209C181.444 31.3499 181.885 31.7841 182.414 31.7841C182.59 31.7841 182.766 31.7841 182.854 31.6972L182.943 32.4788ZM184.176 27.8762V29.9604H184.264L185.058 27.8762H186.115L184.969 30.0472C185.498 30.2209 185.586 30.6551 185.763 31.263C185.851 31.6972 185.939 32.1315 186.115 32.5657H185.146C185.058 32.2183 184.969 31.8709 184.881 31.4367C184.793 30.9157 184.617 30.5683 184.264 30.5683H184.176V32.5657H183.295V27.8762H184.176ZM187.172 27.8762V28.9183C187.172 29.7867 187.084 30.5683 187.084 31.0893C187.261 30.6551 187.437 30.0472 187.613 29.6999L188.318 27.8762H189.199V32.5657H188.406V31.5236C188.406 30.5683 188.406 29.8736 188.494 29.4394C188.406 29.8736 188.142 30.3946 188.054 30.8288L187.349 32.6525H186.467V27.963H187.172V27.8762ZM191.843 30.4815H190.785V31.7841H192.019V32.5657H189.816V27.8762H191.931V28.6578H190.785V29.7867H191.843V30.4815ZM204.621 27.8762V29.9604H204.709L205.502 27.8762H206.559L205.414 30.0472C205.943 30.2209 206.031 30.6551 206.207 31.263C206.295 31.6972 206.383 32.1315 206.559 32.5657H205.59C205.502 32.2183 205.414 31.8709 205.326 31.4367C205.238 30.9157 205.061 30.5683 204.709 30.5683H204.621V32.5657H203.74V27.8762H204.621ZM209.908 27.8762V32.5657H208.939V28.6578H208.234V29.8736C208.234 30.9157 208.146 31.8709 207.529 32.392C207.353 32.5657 207.088 32.6525 206.912 32.6525L206.736 31.8709C206.824 31.8709 207 31.7841 207.088 31.6972C207.353 31.4367 207.441 30.9157 207.441 29.9604V27.7894H209.908V27.8762ZM211.759 27.8762V28.9183C211.759 29.7867 211.671 30.5683 211.671 31.0893C211.847 30.6551 212.023 30.0472 212.199 29.6999L212.904 27.8762H213.785V32.5657H212.992V31.5236C212.992 30.5683 212.992 29.8736 213.081 29.4394C212.992 29.8736 212.728 30.3946 212.64 30.8288L211.935 32.6525H211.054V27.963H211.759V27.8762ZM215.636 27.8762V29.7867H216.605V27.8762H217.575V32.5657H216.605V30.5683H215.636V32.5657H214.667V27.8762H215.636ZM219.337 27.8762V28.9183C219.337 29.7867 219.249 30.5683 219.249 31.0893C219.425 30.6551 219.602 30.0472 219.778 29.6999L220.483 27.8762H221.364V32.5657H220.571V31.5236C220.571 30.5683 220.571 29.8736 220.659 29.4394C220.571 29.8736 220.307 30.3946 220.218 30.8288L219.513 32.6525H218.632V27.963H219.337V27.8762ZM223.215 27.8762V29.9604H223.303L224.096 27.8762H225.153L224.008 30.0472C224.536 30.2209 224.625 30.6551 224.801 31.263C224.889 31.6972 224.977 32.1315 225.153 32.5657H224.184C224.096 32.2183 224.008 31.8709 223.92 31.4367C223.831 30.9157 223.655 30.5683 223.303 30.5683H223.215V32.5657H222.333V27.8762H223.215ZM226.475 27.8762V28.9183C226.475 29.7867 226.387 30.5683 226.387 31.0893C226.563 30.6551 226.74 30.0472 226.916 29.6999L227.621 27.8762H228.502V32.5657H227.709V31.5236C227.709 30.5683 227.709 29.8736 227.797 29.4394C227.709 29.8736 227.444 30.3946 227.356 30.8288L226.651 32.6525H225.77V27.963H226.475V27.8762Z" fill="#2164B4"/>
  </g>
</svg>
