<svg width="31" height="40" viewBox="0 0 31 40" fill="none" xmlns="http://www.w3.org/2000/svg">
  <g>
    <path fill-rule="evenodd" clip-rule="evenodd" d="M21.6855 7.26316C26.4813 7.68421 23.7707 1.05263 27.5239 0.526316C23.5621 9.15789 27.8367 16.1053 30.4431 23.0526C27.7324 24.4211 26.0643 17.7895 23.3536 19.1579C21.9983 22 25.7515 24.7368 25.7515 28.1053C16.5769 27.2632 14.0747 9.57895 18.7663 0C20.3302 1.89474 18.1408 7.36842 21.6855 7.26316Z" fill="#2164B4"/>
    <path fill-rule="evenodd" clip-rule="evenodd" d="M23.4573 1.1579C24.2913 2.10527 24.2913 5.26317 23.4573 6.21053C18.2444 7.36843 19.5998 0.421061 23.4573 1.1579Z" fill="#2164B4"/>
    <path fill-rule="evenodd" clip-rule="evenodd" d="M0 34.8423V34.316C1.87663 27.2634 8.86186 23.1581 5.31711 14.1055C7.92354 15.1581 6.88097 19.7897 9.38314 20.8423C14.2832 21.0528 12.6151 14.9476 12.9279 10.7371C17.9322 21.2634 13.2407 38.316 5.31711 40.0002C5.1086 36.4213 9.07037 34.4213 7.08948 30.9476C2.50217 30.1055 4.06603 35.1581 0 34.8423" fill="#8BB87B"/>
    <path fill-rule="evenodd" clip-rule="evenodd" d="M10.0087 14.1052C12.3023 14.421 12.8236 17.1579 11.781 19.1579C9.80015 19.5789 9.27886 18.5263 8.23629 18C7.81926 15.7894 8.96609 14.9473 10.0087 14.1052Z" fill="#8BB87B"/>
  </g>
</svg>
