<svg width="30" height="30" xmlns="http://www.w3.org/2000/svg"><g fill="#4283D0"><path d="M25.8 13.4l.9-2.6c.2-.5.5-.9 1-1.2l1.3-.7c.1 0 .2-.1.2-.2s.1-.2.1-.3c0-.1 0-.2-.1-.3 0-.1-.1-.2-.2-.2l-1.3-.7c-.5-.3-.8-.7-1-1.2l-.9-2.6c0-.1-.1-.2-.2-.3s-.2-.1-.3-.1c-.1 0-.2 0-.3.1s-.2.2-.2.3L23.9 6c-.1.3-.3.6-.5.8-.2-.2-.5-.4-.7-.5-1.5-1-3.4-1.1-5-.2-.5.3-1 .4-1.6.4-.5 0-1.1-.1-1.6-.4-1.6-.9-3.5-.8-5 .2-1.2.8-2.1 1.9-2.6 3.2-.5 1.3-.7 2.7-.4 4.1l2.2 11.2c.1.6.4 1.1.9 1.5.4.4 1 .6 1.6.6.6 0 1.2-.1 1.6-.5.5-.3.8-.8 1-1.4l1.3-4.4c.1-.2.2-.4.4-.6.2-.1.4-.2.6-.2.2 0 .5.1.6.2.2.1.3.3.4.6l1.3 4.4c.2.6.5 1 1 1.4.5.3 1.1.5 1.6.5.6 0 1.1-.3 1.6-.6s.7-.9.9-1.5l2.3-11.4zm-3.3 11.2c-.1.3-.2.6-.5.9-.3.2-.6.4-.9.4-.3 0-.7-.1-1-.3-.3-.2-.5-.5-.6-.8l-1.3-4.4c-.1-.4-.4-.8-.8-1.1-.4-.3-.8-.4-1.3-.4s-.9.1-1.3.4c-.4.3-.6.7-.8 1.1l-1.3 4.4c-.1.3-.3.6-.6.8-.3.2-.6.3-1 .3-.3 0-.7-.1-.9-.4-.3-.2-.4-.5-.5-.9L7.5 13.4c-.2-1.2-.1-2.4.4-3.5s1.2-2.1 2.2-2.7c1.2-.8 2.7-.8 3.9-.2.6.3 1.4.5 2.1.5.7 0 1.4-.2 2.1-.5 1.3-.7 2.8-.6 3.9.2.1.1.2.2.4.3l-.9.5c-.1 0-.2.1-.2.2s-.1.2-.1.3c0 .1 0 .2.1.3 0 .1.1.2.2.2l1.3.7c.5.3.8.7 1 1.2l.8 2.4-2.2 11.3zm4.6-15.9c-.7.4-1.2 1-1.5 1.8l-.4 1.1-.4-1.1c-.3-.8-.8-1.4-1.5-1.8l-.3-.3.4-.2c.7-.4 1.2-1 1.5-1.8l.4-1.1.4 1.1c.3.8.8 1.4 1.5 1.8l.4.2-.5.3z"/><path d="M21 27.1c-.6 0-1.1-.2-1.6-.5-.5-.4-.9-.9-1.1-1.5L17 20.7c-.1-.2-.2-.4-.3-.5-.3-.2-.8-.2-1.1 0-.2.1-.3.3-.3.5L14 25.1c-.2.6-.6 1.1-1.1 1.5-.5.4-1.1.5-1.7.5-.6 0-1.2-.3-1.7-.7-.5-.4-.8-1-.9-1.6L6.3 13.7c-.3-1.5-.1-2.9.4-4.3.6-1.3 1.5-2.4 2.7-3.2 1.5-1 3.5-1.1 5.2-.2.9.5 2.1.5 3 0 1.7-.9 3.6-.8 5.2.2.2.1.4.3.6.5.2-.2.3-.4.4-.6l.9-2.6c0-.1.1-.3.3-.3.2-.2.6-.2.8 0l.3.3.7 2.5c.2.5.5.9.9 1.1l1.3.7c.1.1.2.1.3.3.1.1.1.2.1.4s0 .2-.1.4c-.1 0-.1.1-.3.1l-1.3.7c-.4.2-.8.6-.9 1.1l-.9 2.6-2.2 11.4c-.1.6-.4 1.2-.9 1.6-.5.4-1.1.6-1.7.7H21zm-4.9-7.4c.3 0 .5.1.7.2.2.2.4.4.4.6l1.3 4.4c.2.5.5 1 .9 1.3.4.3 1 .5 1.5.4.5 0 1.1-.2 1.5-.6s.7-.9.8-1.4l2.2-11.4.9-2.6c.2-.5.6-1 1.1-1.3l1.3-.7c.3.1.3.1.3 0s.1-.1.1-.2 0-.1-.1-.2c0-.1-.1-.1-.1-.1l-1.3-.7c-.5-.3-.9-.7-1.1-1.3l-.9-2.6c0-.1-.1-.1-.1-.2-.1-.1-.3-.1-.5 0-.1 0-.1.1-.1.2L24 6.1c-.1.3-.3.6-.5.9l-.1.1-.1-.1c-.2-.2-.4-.4-.7-.5-1.4-1-3.3-1-4.9-.2-1 .5-2.3.5-3.3 0-1.5-.9-3.4-.8-4.8.1-1.2.8-2 1.9-2.6 3.2-.5 1.3-.7 2.7-.4 4l2.2 11.2c.1.5.4 1 .8 1.4.4.4.9.6 1.5.6s1.1-.1 1.5-.4c.4-.3.8-.8.9-1.3l1.3-4.4c.1-.3.2-.5.4-.6.4-.3.6-.4.9-.4zM21 26c-.3 0-.7-.1-1-.3-.3-.2-.5-.5-.6-.9L18 20.4c-.1-.4-.4-.8-.7-1-.7-.5-1.7-.5-2.4 0-.3.3-.6.6-.7 1l-1.3 4.4c-.1.4-.3.7-.6.9-.3.2-.7.3-1.1.3-.4 0-.7-.2-1-.4s-.5-.6-.5-1L7.4 13.4c-.2-1.2-.1-2.4.3-3.5C8.2 8.7 9 7.8 10 7.1c1.2-.8 2.8-.9 4.1-.2 1.2.6 2.8.6 4 0 1.3-.7 2.9-.6 4.1.2.1.1.3.2.4.3l.2.1-1.1.6c-.1 0-.1.1-.1.1 0 .1-.1.1-.1.2s0 .1.1.2c0 .1.1.1.1.1l1.3.8c.5.3.9.7 1.1 1.3l.8 2.5-2.2 11.4c-.1.4-.3.7-.5 1-.4.1-.8.3-1.2.3zm-4.9-7.3c.5 0 1 .2 1.4.5.4.3.7.7.8 1.2l1.3 4.4c.1.3.3.6.5.7.3.2.6.3.9.3.3 0 .6-.1.8-.3.2-.2.4-.5.5-.8l2.2-11.3-.8-2.4c-.2-.5-.5-.9-.9-1.1L21.5 9c-.1-.1-.2-.1-.3-.3-.1-.1-.1-.2-.1-.4s0-.2.1-.4l.3-.3.7-.4c-.1 0-.1-.1-.2-.1-1.1-.7-2.5-.8-3.8-.2-1.3.7-3 .7-4.3 0-1.2-.6-2.7-.6-3.8.2C9.2 8 8.5 8.9 8 10c-.5 1.1-.6 2.3-.3 3.4l2.2 11.2c.1.3.2.6.5.8.2.2.5.3.8.3.3 0 .6-.1.9-.3.3-.2.4-.4.5-.7l1.3-4.4c.1-.5.4-.9.8-1.2.4-.3.9-.4 1.4-.4zm9.2-6.7l-.5-1.5c-.2-.7-.8-1.3-1.4-1.7l-.7-.4.7-.4c.7-.4 1.2-1 1.4-1.7l.5-1.5.5 1.5c.2.7.8 1.3 1.4 1.7l.7.4-.7.4c-.7.4-1.2 1-1.4 1.7l-.5 1.5zm-2-3.6l.2.1c.7.4 1.3 1.1 1.6 1.9l.2.7.2-.7c.3-.8.8-1.5 1.6-1.9l.2-.1-.2-.1c-.7-.4-1.3-1.1-1.6-1.9l-.2-.7-.3.7c-.3.8-.8 1.5-1.6 1.9l-.1.1zM7.1 20L6 19.4c-.4-.2-.6-.5-.8-.9l-.7-2.1c0-.1-.1-.2-.2-.3-.1-.1-.2-.1-.3-.1-.1 0-.2 0-.3.1-.1.1-.2.2-.2.3l-.7 2.1c-.1.4-.4.7-.8.9L1 20c-.1 0-.2.1-.2.2s-.1.2-.1.3 0 .2.1.3c0 .1.1.2.2.2l1.1.6c.4.2.6.5.8.9l.7 2.1c0 .1.1.2.2.3s.2.1.3.1c.1 0 .2 0 .3-.1s.2-.2.2-.3l.7-2.1c.1-.4.4-.7.8-.9l1-.6c.1 0 .2-.1.2-.2s.1-.2.1-.3c0-.1 0-.2-.1-.3l-.2-.2zm-1.5.6c-.6.3-1.1.9-1.3 1.5l-.2.6-.2-.6c-.2-.6-.7-1.2-1.3-1.5l-.2-.1.2-.1c.6-.3 1.1-.9 1.3-1.5l.2-.6.2.6c.2.6.7 1.2 1.3 1.5l.2.1-.2.1z"/><path d="M4.1 25.1c-.1 0-.3 0-.4-.1l-.3-.3-.7-2.1c-.1-.4-.4-.6-.7-.8l-1-.7c-.1-.1-.2-.1-.3-.3-.1-.1-.1-.2-.1-.4 0-.1 0-.2.1-.4.1.1.1 0 .3-.1l1-.6c.3-.2.6-.5.7-.8l.7-2.1c0-.1.1-.3.3-.3.2-.2.6-.2.8 0l.3.3.7 2.1c.1.4.4.6.7.8l1.1.6c.1.1.2.1.3.3.1.1.1.2.1.4 0 .1 0 .2-.1.4l-.3.3-1.1.6c-.3.2-.6.5-.7.8l-.7 2.1c0 .1-.1.3-.3.3h-.4zm0-8.9c-.1 0-.2 0-.2.1-.1 0-.1.1-.1.2L3 18.6c-.1.4-.4.8-.8 1l-1.1.6c-.1 0-.1.1-.1.1 0 .1-.1.1-.1.2s0 .1.1.2c0 .1.1.1.1.1l1.1.6c.4.2.7.6.8 1l.7 2.1c0 .1.1.1.1.2.1.1.3.1.5 0 .1 0 .1-.1.1-.2l.7-2.1c.1-.4.4-.8.8-1l1.1-.6c.1 0 .1-.1.1-.1 0-.1.1-.1.1-.2s0-.1-.1-.2c0-.1-.1-.1-.1-.1l-1-.6c-.4-.2-.7-.6-.8-1l-.7-2.1c0-.1-.1-.1-.1-.2-.2-.1-.2-.1-.3-.1zm0 7l-.3-1c-.2-.6-.6-1.1-1.2-1.4l-.4-.2.4-.2c.6-.3 1-.8 1.2-1.4l.3-1 .3 1c.2.6.6 1.1 1.2 1.4l.4.2-.4.2c-.6.3-1 .8-1.2 1.4l-.3 1zm-1.4-2.7c.6.3 1.1.9 1.3 1.6l.1.2.1-.2c.2-.7.7-1.2 1.3-1.6-.6-.3-1.1-.9-1.3-1.6l-.1-.2-.1.2c-.2.7-.7 1.3-1.3 1.6z"/></g></svg>