<svg width="70" height="70" fill="none" xmlns="http://www.w3.org/2000/svg"><path d="M65.488 58.178l-8.71-17.422c2.8-4.2 4.51-9.178 4.51-14.623C61.288 11.823 49.622 0 35.155 0 20.688 0 8.866 11.822 8.866 26.289c0 5.444 1.711 10.422 4.511 14.622L4.666 58.178c-.311.622-.311 1.4.156 2.022.31.622 1.088.933 1.71.933h9.956l5.911 7.934c.467.466.934.777 1.711.777.778 0 1.556-.466 1.867-1.088l8.245-16.334h1.866l8.245 16.49c.31.621.933 1.088 1.866 1.088.623 0 1.245-.311 1.712-.778l5.91-7.933h9.956c.778 0 1.4-.311 1.711-.933.311-.778.311-1.4 0-2.178zM23.8 64.088l-4.666-6.066c-.311-.466-.934-.778-1.711-.778H9.955l6.378-12.755c3.578 3.733 8.4 6.378 13.689 7.467l-6.223 12.133zm11.356-15.71c-12.133 0-22.089-9.956-22.089-22.09 0-12.288 9.8-22.244 22.089-22.244 12.289 0 22.089 9.956 22.089 22.245 0 12.133-9.956 22.089-22.09 22.089zm17.578 8.71c-.622 0-1.245.312-1.711.779l-4.667 6.066-5.911-11.977c5.289-1.09 9.955-3.734 13.689-7.467l6.377 12.755-7.777-.155z" fill="#4283D0"/><path d="M47.756 19.134H42.31v-5.29c0-2.022-1.711-3.733-3.733-3.733h-6.845c-2.022 0-3.733 1.711-3.733 3.734v5.289h-5.444c-2.023 0-3.734 1.71-3.734 3.733v4.822h6.067c.933-.933 2.178-2.489 2.8-3.733.778-1.867 1.555-3.734 1.711-4.511.311-4.045 1.867-4.978 3.267-4.978h.155c.934 0 1.867.467 2.49 1.244 1.088 1.245 1.555 3.267 1.244 5.6-.156.467-.156 1.09-.311 1.556 0 .466-.156.933-.156 1.4h3.89c2.178.155 4.355 1.867 4.355 4.666v4.356h3.423c2.022 0 3.733-1.711 3.733-3.733V22.71c0-2.022-1.711-3.577-3.733-3.577z" fill="#4283D0"/><path d="M18.822 30.022h7s2.956-2.644 4.045-5.133a114.333 114.333 0 002.022-4.978s.155-3.111 1.089-3.111c.933 0 1.866 1.555 1.4 4.2-.467 2.489-.934 5.133-.622 5.755h6.066S42 27.067 42 28.933v10.889s.311 2.333-1.867 2.333H30.49s-2.645 0-2.645-3.266v-5.445h-6.222c-.155.311-2.8 0-2.8-3.422z" fill="#4283D0"/></svg>