<svg width="30" height="30" fill="none" xmlns="http://www.w3.org/2000/svg"><path d="M15.5 2.9C8.552 2.9 2.9 8.552 2.9 15.5c0 6.948 5.652 12.6 12.6 12.6 6.948 0 12.6-5.652 12.6-12.6 0-6.948-5.652-12.6-12.6-12.6zm0 23.438c-5.976 0-10.837-4.862-10.837-10.838 0-5.976 4.861-10.837 10.837-10.837S26.337 9.524 26.337 15.5 21.476 26.337 15.5 26.337z" fill="#4283D0" stroke="#4283D0" stroke-width=".2"/><path d="M16.381 7.688v-.1H14.62v8.275l.029.03 4.916 4.917.071.07.07-.07 1.106-1.105.07-.07-.07-.072-4.43-4.429V7.688z" fill="#4283D0" stroke="#4283D0" stroke-width=".2"/></svg>