<svg width="70" height="70" fill="none" xmlns="http://www.w3.org/2000/svg"><path d="M38.807 22.518l4.542-6.057a2.05 2.05 0 00-1.64-3.281H29.627a2.051 2.051 0 000 4.101h7.98l-4.129 5.506a2.051 2.051 0 001.641 3.281h.551a5.092 5.092 0 015.087 5.088 5.095 5.095 0 01-5.091 5.089 5.092 5.092 0 01-5.086-5.087 2.051 2.051 0 00-4.101 0c0 5.066 4.12 9.188 9.19 9.188 5.066 0 9.19-4.122 9.19-9.192 0-3.965-2.526-7.351-6.052-8.636z" fill="#4283D0"/><path d="M65.509 58.245L56.83 40.887a26.063 26.063 0 004.502-14.673C61.332 11.759 49.572 0 35.12 0 20.664 0 8.905 11.76 8.905 26.214a26.064 26.064 0 004.503 14.674l-8.68 17.357a2.052 2.052 0 001.835 2.969h9.957l5.974 7.966a2.052 2.052 0 003.476-.314l8.229-16.457c.305.01.611.018.92.018.308 0 .614-.007.92-.018l8.229 16.457a2.05 2.05 0 003.474.314l5.975-7.966h9.958a2.05 2.05 0 001.834-2.969zm-41.724 5.819l-4.599-6.131a2.05 2.05 0 00-1.64-.82H9.88l6.363-12.727a26.203 26.203 0 0013.624 7.513l-6.082 12.165zM35.12 48.326c-12.193 0-22.112-9.92-22.112-22.112 0-12.193 9.92-22.112 22.112-22.112 12.192 0 22.112 9.92 22.112 22.112 0 12.192-9.92 22.112-22.112 22.112zm17.572 8.786a2.05 2.05 0 00-1.64.82l-4.6 6.132-6.082-12.165a26.201 26.201 0 0013.624-7.514l6.363 12.727h-7.665z" fill="#4283D0"/></svg>