<svg width="30" height="30" viewBox="0 0 30 30" fill="none" xmlns="http://www.w3.org/2000/svg">
<mask id="path-1-outside-1" maskUnits="userSpaceOnUse" x="2.09375" y="4.63654" width="26" height="21" fill="black">
<rect fill="white" x="2.09375" y="4.63654" width="26" height="21"/>
<path d="M25.9026 15.4022L26.9011 9.34075C26.9184 9.2363 26.9045 9.12909 26.8614 9.03242C26.8183 8.93574 26.7477 8.85386 26.6584 8.79692C23.4648 6.7589 19.3247 5.63654 15.0011 5.63654C10.6774 5.63654 6.53736 6.7589 3.34366 8.79692C3.25442 8.85386 3.18384 8.93574 3.1407 9.03242C3.09755 9.12909 3.08373 9.2363 3.10095 9.34075L4.09952 15.4022L3.10328 20.6463C3.0831 20.7525 3.09522 20.8623 3.13807 20.9616C3.18092 21.0608 3.25253 21.145 3.34366 21.2031C6.53736 23.2412 10.6774 24.3635 15.0011 24.3635C19.3247 24.3635 23.4648 23.2412 26.6585 21.2031C26.7496 21.145 26.8212 21.0608 26.864 20.9616C26.9069 20.8623 26.919 20.7525 26.8988 20.6463L25.9026 15.4022ZM15.0011 23.2818C11.0202 23.2818 7.21377 22.2903 4.23518 20.4839L4.66165 18.239C4.81242 18.6408 5.05955 18.9996 5.38135 19.2836C5.70315 19.5676 6.08978 19.7683 6.50727 19.868C6.92475 19.9677 7.36034 19.9634 7.77576 19.8554C8.19118 19.7474 8.57373 19.5391 8.88981 19.2487C9.11471 19.8279 9.49538 20.3338 9.98978 20.7102C10.4842 21.0867 11.073 21.3191 11.6913 21.3819C12.3095 21.4446 12.933 21.3352 13.493 21.0657C14.0529 20.7962 14.5274 20.3771 14.8641 19.8548C15.2021 20.3791 15.6789 20.7994 16.2416 21.0687C16.8042 21.3381 17.4306 21.446 18.051 21.3804C18.6713 21.3149 19.2613 21.0784 19.7553 20.6974C20.2492 20.3164 20.6277 19.8058 20.8487 19.2225C21.196 19.5511 21.6267 19.7785 22.094 19.88C22.5613 19.9815 23.0474 19.9532 23.4999 19.7983C23.9523 19.6434 24.3537 19.3677 24.6607 19.001C24.9677 18.6344 25.1685 18.1908 25.2415 17.7182L25.7669 20.4839C22.7883 22.2903 18.9819 23.2818 15.0011 23.2818ZM15.4428 12.6513C15.4453 12.0454 15.6878 11.4651 16.1171 11.0376C16.5465 10.61 17.1277 10.37 17.7337 10.37C18.3396 10.37 18.9208 10.61 19.3502 11.0376C19.7795 11.4651 20.022 12.0454 20.0246 12.6513V14.739C20.0242 14.7545 20.0178 14.7693 20.0069 14.7803C19.9959 14.7912 19.9811 14.7976 19.9656 14.798H15.5017C15.4862 14.7976 15.4714 14.7912 15.4605 14.7803C15.4495 14.7693 15.4431 14.7545 15.4428 14.739V12.6513ZM21.1063 13.3619C21.1059 13.1591 21.1454 12.9582 21.2228 12.7707C21.3001 12.5833 21.4136 12.4129 21.5568 12.2693C21.7001 12.1258 21.8702 12.0119 22.0576 11.9342C22.2449 11.8565 22.4457 11.8165 22.6485 11.8165C22.8513 11.8165 23.0521 11.8565 23.2394 11.9342C23.4267 12.0119 23.5969 12.1258 23.7401 12.2693C23.8833 12.4129 23.9969 12.5833 24.0742 12.7707C24.1515 12.9582 24.1911 13.1591 24.1906 13.3619V14.798H21.1063V13.3619H21.1063ZM14.3232 18.0264C14.3244 18.3281 14.2661 18.627 14.1516 18.9061C14.037 19.1851 13.8684 19.4388 13.6556 19.6526C13.4427 19.8663 13.1898 20.0359 12.9112 20.1517C12.6326 20.2674 12.3339 20.327 12.0323 20.327C11.7306 20.327 11.4319 20.2674 11.1533 20.1517C10.8748 20.0359 10.6218 19.8663 10.4089 19.6526C10.1961 19.4388 10.0275 19.1851 9.91297 18.9061C9.79841 18.627 9.74009 18.3281 9.74136 18.0264V15.9387C9.74175 15.9232 9.74809 15.9084 9.75906 15.8974C9.77004 15.8865 9.78481 15.8801 9.80032 15.8798H14.2642C14.2798 15.8801 14.2945 15.8865 14.3055 15.8974C14.3165 15.9084 14.3228 15.9232 14.3232 15.9387L14.3232 18.0264ZM8.65963 17.3158C8.65877 17.7243 8.49591 18.1157 8.20679 18.4042C7.91767 18.6927 7.5259 18.8548 7.11745 18.8548C6.70899 18.8548 6.31722 18.6927 6.0281 18.4042C5.73898 18.1157 5.57612 17.7243 5.57527 17.3158V15.8797H8.65963V17.3158ZM15.4049 15.9386C15.4053 15.9231 15.4116 15.9084 15.4226 15.8974C15.4336 15.8864 15.4483 15.8801 15.4639 15.8797H19.9279C19.9434 15.8801 19.9581 15.8864 19.9691 15.8974C19.98 15.9084 19.9864 15.9231 19.9868 15.9386V18.0264C19.9873 18.3276 19.9284 18.6259 19.8135 18.9043C19.6986 19.1827 19.5299 19.4357 19.3172 19.6488C19.1044 19.862 18.8517 20.0311 18.5734 20.1465C18.2952 20.2618 17.997 20.3212 17.6958 20.3212C17.3947 20.3212 17.0964 20.2618 16.8182 20.1465C16.54 20.0311 16.2873 19.862 16.0745 19.6488C15.8617 19.4357 15.6931 19.1827 15.5782 18.9043C15.4633 18.6259 15.4044 18.3276 15.4049 18.0264L15.4049 15.9386ZM21.1063 15.8797H24.1906V17.3158C24.1898 17.7242 24.0269 18.1157 23.7378 18.4042C23.4487 18.6927 23.0569 18.8547 22.6485 18.8547C22.24 18.8547 21.8482 18.6927 21.5591 18.4042C21.27 18.1157 21.1071 17.7242 21.1063 17.3158V15.8797ZM14.361 14.739C14.3606 14.7545 14.3543 14.7693 14.3433 14.7803C14.3323 14.7913 14.3176 14.7976 14.3021 14.798H9.83808C9.82256 14.7976 9.80779 14.7913 9.79682 14.7803C9.78584 14.7693 9.77951 14.7545 9.77912 14.739V12.6513C9.78016 12.0444 10.022 11.4627 10.4515 11.0339C10.881 10.6051 11.4632 10.3643 12.0701 10.3643C12.677 10.3643 13.2591 10.6051 13.6886 11.0339C14.1182 11.4627 14.36 12.0444 14.361 12.6513V14.739ZM8.65963 14.798H5.57526V13.3619C5.57484 13.1591 5.61441 12.9582 5.69172 12.7707C5.76903 12.5833 5.88256 12.4129 6.02581 12.2693C6.16906 12.1258 6.33921 12.0119 6.52653 11.9342C6.71384 11.8565 6.91465 11.8165 7.11744 11.8165C7.32023 11.8165 7.52104 11.8565 7.70835 11.9342C7.89567 12.0119 8.06582 12.1258 8.20907 12.2693C8.35232 12.4129 8.46585 12.5833 8.54316 12.7707C8.62047 12.9582 8.66004 13.1591 8.65962 13.3619L8.65963 14.798ZM25.2244 12.864C25.1362 12.4057 24.9272 11.9793 24.619 11.6287C24.3109 11.2782 23.9148 11.0163 23.4715 10.87C23.0283 10.7237 22.5541 10.6984 22.0979 10.7967C21.6416 10.895 21.2198 11.1133 20.8761 11.429C20.6512 10.8497 20.2706 10.3439 19.7762 9.96745C19.2818 9.59099 18.6929 9.35855 18.0747 9.29582C17.4565 9.23309 16.8329 9.34252 16.273 9.612C15.7131 9.88149 15.2386 10.3005 14.9019 10.8229C14.5639 10.2985 14.087 9.87832 13.5244 9.60898C12.9617 9.33963 12.3353 9.23172 11.715 9.29727C11.0946 9.36281 10.5046 9.59924 10.0107 9.98023C9.51673 10.3612 9.13821 10.8718 8.91725 11.4552C8.60858 11.1631 8.23352 10.9504 7.82438 10.8356C7.41525 10.7207 6.98431 10.707 6.56871 10.7957C6.15311 10.8844 5.76532 11.0728 5.43875 11.3448C5.11217 11.6167 4.85662 11.9639 4.6941 12.3566L4.227 9.5211C7.20684 7.71143 11.0165 6.71824 15.001 6.71824C18.9856 6.71824 22.7953 7.7114 25.7751 9.5211L25.2244 12.864Z"/>
</mask>
<path d="M25.9026 15.4022L26.9011 9.34075C26.9184 9.2363 26.9045 9.12909 26.8614 9.03242C26.8183 8.93574 26.7477 8.85386 26.6584 8.79692C23.4648 6.7589 19.3247 5.63654 15.0011 5.63654C10.6774 5.63654 6.53736 6.7589 3.34366 8.79692C3.25442 8.85386 3.18384 8.93574 3.1407 9.03242C3.09755 9.12909 3.08373 9.2363 3.10095 9.34075L4.09952 15.4022L3.10328 20.6463C3.0831 20.7525 3.09522 20.8623 3.13807 20.9616C3.18092 21.0608 3.25253 21.145 3.34366 21.2031C6.53736 23.2412 10.6774 24.3635 15.0011 24.3635C19.3247 24.3635 23.4648 23.2412 26.6585 21.2031C26.7496 21.145 26.8212 21.0608 26.864 20.9616C26.9069 20.8623 26.919 20.7525 26.8988 20.6463L25.9026 15.4022ZM15.0011 23.2818C11.0202 23.2818 7.21377 22.2903 4.23518 20.4839L4.66165 18.239C4.81242 18.6408 5.05955 18.9996 5.38135 19.2836C5.70315 19.5676 6.08978 19.7683 6.50727 19.868C6.92475 19.9677 7.36034 19.9634 7.77576 19.8554C8.19118 19.7474 8.57373 19.5391 8.88981 19.2487C9.11471 19.8279 9.49538 20.3338 9.98978 20.7102C10.4842 21.0867 11.073 21.3191 11.6913 21.3819C12.3095 21.4446 12.933 21.3352 13.493 21.0657C14.0529 20.7962 14.5274 20.3771 14.8641 19.8548C15.2021 20.3791 15.6789 20.7994 16.2416 21.0687C16.8042 21.3381 17.4306 21.446 18.051 21.3804C18.6713 21.3149 19.2613 21.0784 19.7553 20.6974C20.2492 20.3164 20.6277 19.8058 20.8487 19.2225C21.196 19.5511 21.6267 19.7785 22.094 19.88C22.5613 19.9815 23.0474 19.9532 23.4999 19.7983C23.9523 19.6434 24.3537 19.3677 24.6607 19.001C24.9677 18.6344 25.1685 18.1908 25.2415 17.7182L25.7669 20.4839C22.7883 22.2903 18.9819 23.2818 15.0011 23.2818ZM15.4428 12.6513C15.4453 12.0454 15.6878 11.4651 16.1171 11.0376C16.5465 10.61 17.1277 10.37 17.7337 10.37C18.3396 10.37 18.9208 10.61 19.3502 11.0376C19.7795 11.4651 20.022 12.0454 20.0246 12.6513V14.739C20.0242 14.7545 20.0178 14.7693 20.0069 14.7803C19.9959 14.7912 19.9811 14.7976 19.9656 14.798H15.5017C15.4862 14.7976 15.4714 14.7912 15.4605 14.7803C15.4495 14.7693 15.4431 14.7545 15.4428 14.739V12.6513ZM21.1063 13.3619C21.1059 13.1591 21.1454 12.9582 21.2228 12.7707C21.3001 12.5833 21.4136 12.4129 21.5568 12.2693C21.7001 12.1258 21.8702 12.0119 22.0576 11.9342C22.2449 11.8565 22.4457 11.8165 22.6485 11.8165C22.8513 11.8165 23.0521 11.8565 23.2394 11.9342C23.4267 12.0119 23.5969 12.1258 23.7401 12.2693C23.8833 12.4129 23.9969 12.5833 24.0742 12.7707C24.1515 12.9582 24.1911 13.1591 24.1906 13.3619V14.798H21.1063V13.3619H21.1063ZM14.3232 18.0264C14.3244 18.3281 14.2661 18.627 14.1516 18.9061C14.037 19.1851 13.8684 19.4388 13.6556 19.6526C13.4427 19.8663 13.1898 20.0359 12.9112 20.1517C12.6326 20.2674 12.3339 20.327 12.0323 20.327C11.7306 20.327 11.4319 20.2674 11.1533 20.1517C10.8748 20.0359 10.6218 19.8663 10.4089 19.6526C10.1961 19.4388 10.0275 19.1851 9.91297 18.9061C9.79841 18.627 9.74009 18.3281 9.74136 18.0264V15.9387C9.74175 15.9232 9.74809 15.9084 9.75906 15.8974C9.77004 15.8865 9.78481 15.8801 9.80032 15.8798H14.2642C14.2798 15.8801 14.2945 15.8865 14.3055 15.8974C14.3165 15.9084 14.3228 15.9232 14.3232 15.9387L14.3232 18.0264ZM8.65963 17.3158C8.65877 17.7243 8.49591 18.1157 8.20679 18.4042C7.91767 18.6927 7.5259 18.8548 7.11745 18.8548C6.70899 18.8548 6.31722 18.6927 6.0281 18.4042C5.73898 18.1157 5.57612 17.7243 5.57527 17.3158V15.8797H8.65963V17.3158ZM15.4049 15.9386C15.4053 15.9231 15.4116 15.9084 15.4226 15.8974C15.4336 15.8864 15.4483 15.8801 15.4639 15.8797H19.9279C19.9434 15.8801 19.9581 15.8864 19.9691 15.8974C19.98 15.9084 19.9864 15.9231 19.9868 15.9386V18.0264C19.9873 18.3276 19.9284 18.6259 19.8135 18.9043C19.6986 19.1827 19.5299 19.4357 19.3172 19.6488C19.1044 19.862 18.8517 20.0311 18.5734 20.1465C18.2952 20.2618 17.997 20.3212 17.6958 20.3212C17.3947 20.3212 17.0964 20.2618 16.8182 20.1465C16.54 20.0311 16.2873 19.862 16.0745 19.6488C15.8617 19.4357 15.6931 19.1827 15.5782 18.9043C15.4633 18.6259 15.4044 18.3276 15.4049 18.0264L15.4049 15.9386ZM21.1063 15.8797H24.1906V17.3158C24.1898 17.7242 24.0269 18.1157 23.7378 18.4042C23.4487 18.6927 23.0569 18.8547 22.6485 18.8547C22.24 18.8547 21.8482 18.6927 21.5591 18.4042C21.27 18.1157 21.1071 17.7242 21.1063 17.3158V15.8797ZM14.361 14.739C14.3606 14.7545 14.3543 14.7693 14.3433 14.7803C14.3323 14.7913 14.3176 14.7976 14.3021 14.798H9.83808C9.82256 14.7976 9.80779 14.7913 9.79682 14.7803C9.78584 14.7693 9.77951 14.7545 9.77912 14.739V12.6513C9.78016 12.0444 10.022 11.4627 10.4515 11.0339C10.881 10.6051 11.4632 10.3643 12.0701 10.3643C12.677 10.3643 13.2591 10.6051 13.6886 11.0339C14.1182 11.4627 14.36 12.0444 14.361 12.6513V14.739ZM8.65963 14.798H5.57526V13.3619C5.57484 13.1591 5.61441 12.9582 5.69172 12.7707C5.76903 12.5833 5.88256 12.4129 6.02581 12.2693C6.16906 12.1258 6.33921 12.0119 6.52653 11.9342C6.71384 11.8565 6.91465 11.8165 7.11744 11.8165C7.32023 11.8165 7.52104 11.8565 7.70835 11.9342C7.89567 12.0119 8.06582 12.1258 8.20907 12.2693C8.35232 12.4129 8.46585 12.5833 8.54316 12.7707C8.62047 12.9582 8.66004 13.1591 8.65962 13.3619L8.65963 14.798ZM25.2244 12.864C25.1362 12.4057 24.9272 11.9793 24.619 11.6287C24.3109 11.2782 23.9148 11.0163 23.4715 10.87C23.0283 10.7237 22.5541 10.6984 22.0979 10.7967C21.6416 10.895 21.2198 11.1133 20.8761 11.429C20.6512 10.8497 20.2706 10.3439 19.7762 9.96745C19.2818 9.59099 18.6929 9.35855 18.0747 9.29582C17.4565 9.23309 16.8329 9.34252 16.273 9.612C15.7131 9.88149 15.2386 10.3005 14.9019 10.8229C14.5639 10.2985 14.087 9.87832 13.5244 9.60898C12.9617 9.33963 12.3353 9.23172 11.715 9.29727C11.0946 9.36281 10.5046 9.59924 10.0107 9.98023C9.51673 10.3612 9.13821 10.8718 8.91725 11.4552C8.60858 11.1631 8.23352 10.9504 7.82438 10.8356C7.41525 10.7207 6.98431 10.707 6.56871 10.7957C6.15311 10.8844 5.76532 11.0728 5.43875 11.3448C5.11217 11.6167 4.85662 11.9639 4.6941 12.3566L4.227 9.5211C7.20684 7.71143 11.0165 6.71824 15.001 6.71824C18.9856 6.71824 22.7953 7.7114 25.7751 9.5211L25.2244 12.864Z" fill="#4283D0"/>
<path d="M25.9026 15.4022L26.9011 9.34075C26.9184 9.2363 26.9045 9.12909 26.8614 9.03242C26.8183 8.93574 26.7477 8.85386 26.6584 8.79692C23.4648 6.7589 19.3247 5.63654 15.0011 5.63654C10.6774 5.63654 6.53736 6.7589 3.34366 8.79692C3.25442 8.85386 3.18384 8.93574 3.1407 9.03242C3.09755 9.12909 3.08373 9.2363 3.10095 9.34075L4.09952 15.4022L3.10328 20.6463C3.0831 20.7525 3.09522 20.8623 3.13807 20.9616C3.18092 21.0608 3.25253 21.145 3.34366 21.2031C6.53736 23.2412 10.6774 24.3635 15.0011 24.3635C19.3247 24.3635 23.4648 23.2412 26.6585 21.2031C26.7496 21.145 26.8212 21.0608 26.864 20.9616C26.9069 20.8623 26.919 20.7525 26.8988 20.6463L25.9026 15.4022ZM15.0011 23.2818C11.0202 23.2818 7.21377 22.2903 4.23518 20.4839L4.66165 18.239C4.81242 18.6408 5.05955 18.9996 5.38135 19.2836C5.70315 19.5676 6.08978 19.7683 6.50727 19.868C6.92475 19.9677 7.36034 19.9634 7.77576 19.8554C8.19118 19.7474 8.57373 19.5391 8.88981 19.2487C9.11471 19.8279 9.49538 20.3338 9.98978 20.7102C10.4842 21.0867 11.073 21.3191 11.6913 21.3819C12.3095 21.4446 12.933 21.3352 13.493 21.0657C14.0529 20.7962 14.5274 20.3771 14.8641 19.8548C15.2021 20.3791 15.6789 20.7994 16.2416 21.0687C16.8042 21.3381 17.4306 21.446 18.051 21.3804C18.6713 21.3149 19.2613 21.0784 19.7553 20.6974C20.2492 20.3164 20.6277 19.8058 20.8487 19.2225C21.196 19.5511 21.6267 19.7785 22.094 19.88C22.5613 19.9815 23.0474 19.9532 23.4999 19.7983C23.9523 19.6434 24.3537 19.3677 24.6607 19.001C24.9677 18.6344 25.1685 18.1908 25.2415 17.7182L25.7669 20.4839C22.7883 22.2903 18.9819 23.2818 15.0011 23.2818ZM15.4428 12.6513C15.4453 12.0454 15.6878 11.4651 16.1171 11.0376C16.5465 10.61 17.1277 10.37 17.7337 10.37C18.3396 10.37 18.9208 10.61 19.3502 11.0376C19.7795 11.4651 20.022 12.0454 20.0246 12.6513V14.739C20.0242 14.7545 20.0178 14.7693 20.0069 14.7803C19.9959 14.7912 19.9811 14.7976 19.9656 14.798H15.5017C15.4862 14.7976 15.4714 14.7912 15.4605 14.7803C15.4495 14.7693 15.4431 14.7545 15.4428 14.739V12.6513ZM21.1063 13.3619C21.1059 13.1591 21.1454 12.9582 21.2228 12.7707C21.3001 12.5833 21.4136 12.4129 21.5568 12.2693C21.7001 12.1258 21.8702 12.0119 22.0576 11.9342C22.2449 11.8565 22.4457 11.8165 22.6485 11.8165C22.8513 11.8165 23.0521 11.8565 23.2394 11.9342C23.4267 12.0119 23.5969 12.1258 23.7401 12.2693C23.8833 12.4129 23.9969 12.5833 24.0742 12.7707C24.1515 12.9582 24.1911 13.1591 24.1906 13.3619V14.798H21.1063V13.3619H21.1063ZM14.3232 18.0264C14.3244 18.3281 14.2661 18.627 14.1516 18.9061C14.037 19.1851 13.8684 19.4388 13.6556 19.6526C13.4427 19.8663 13.1898 20.0359 12.9112 20.1517C12.6326 20.2674 12.3339 20.327 12.0323 20.327C11.7306 20.327 11.4319 20.2674 11.1533 20.1517C10.8748 20.0359 10.6218 19.8663 10.4089 19.6526C10.1961 19.4388 10.0275 19.1851 9.91297 18.9061C9.79841 18.627 9.74009 18.3281 9.74136 18.0264V15.9387C9.74175 15.9232 9.74809 15.9084 9.75906 15.8974C9.77004 15.8865 9.78481 15.8801 9.80032 15.8798H14.2642C14.2798 15.8801 14.2945 15.8865 14.3055 15.8974C14.3165 15.9084 14.3228 15.9232 14.3232 15.9387L14.3232 18.0264ZM8.65963 17.3158C8.65877 17.7243 8.49591 18.1157 8.20679 18.4042C7.91767 18.6927 7.5259 18.8548 7.11745 18.8548C6.70899 18.8548 6.31722 18.6927 6.0281 18.4042C5.73898 18.1157 5.57612 17.7243 5.57527 17.3158V15.8797H8.65963V17.3158ZM15.4049 15.9386C15.4053 15.9231 15.4116 15.9084 15.4226 15.8974C15.4336 15.8864 15.4483 15.8801 15.4639 15.8797H19.9279C19.9434 15.8801 19.9581 15.8864 19.9691 15.8974C19.98 15.9084 19.9864 15.9231 19.9868 15.9386V18.0264C19.9873 18.3276 19.9284 18.6259 19.8135 18.9043C19.6986 19.1827 19.5299 19.4357 19.3172 19.6488C19.1044 19.862 18.8517 20.0311 18.5734 20.1465C18.2952 20.2618 17.997 20.3212 17.6958 20.3212C17.3947 20.3212 17.0964 20.2618 16.8182 20.1465C16.54 20.0311 16.2873 19.862 16.0745 19.6488C15.8617 19.4357 15.6931 19.1827 15.5782 18.9043C15.4633 18.6259 15.4044 18.3276 15.4049 18.0264L15.4049 15.9386ZM21.1063 15.8797H24.1906V17.3158C24.1898 17.7242 24.0269 18.1157 23.7378 18.4042C23.4487 18.6927 23.0569 18.8547 22.6485 18.8547C22.24 18.8547 21.8482 18.6927 21.5591 18.4042C21.27 18.1157 21.1071 17.7242 21.1063 17.3158V15.8797ZM14.361 14.739C14.3606 14.7545 14.3543 14.7693 14.3433 14.7803C14.3323 14.7913 14.3176 14.7976 14.3021 14.798H9.83808C9.82256 14.7976 9.80779 14.7913 9.79682 14.7803C9.78584 14.7693 9.77951 14.7545 9.77912 14.739V12.6513C9.78016 12.0444 10.022 11.4627 10.4515 11.0339C10.881 10.6051 11.4632 10.3643 12.0701 10.3643C12.677 10.3643 13.2591 10.6051 13.6886 11.0339C14.1182 11.4627 14.36 12.0444 14.361 12.6513V14.739ZM8.65963 14.798H5.57526V13.3619C5.57484 13.1591 5.61441 12.9582 5.69172 12.7707C5.76903 12.5833 5.88256 12.4129 6.02581 12.2693C6.16906 12.1258 6.33921 12.0119 6.52653 11.9342C6.71384 11.8565 6.91465 11.8165 7.11744 11.8165C7.32023 11.8165 7.52104 11.8565 7.70835 11.9342C7.89567 12.0119 8.06582 12.1258 8.20907 12.2693C8.35232 12.4129 8.46585 12.5833 8.54316 12.7707C8.62047 12.9582 8.66004 13.1591 8.65962 13.3619L8.65963 14.798ZM25.2244 12.864C25.1362 12.4057 24.9272 11.9793 24.619 11.6287C24.3109 11.2782 23.9148 11.0163 23.4715 10.87C23.0283 10.7237 22.5541 10.6984 22.0979 10.7967C21.6416 10.895 21.2198 11.1133 20.8761 11.429C20.6512 10.8497 20.2706 10.3439 19.7762 9.96745C19.2818 9.59099 18.6929 9.35855 18.0747 9.29582C17.4565 9.23309 16.8329 9.34252 16.273 9.612C15.7131 9.88149 15.2386 10.3005 14.9019 10.8229C14.5639 10.2985 14.087 9.87832 13.5244 9.60898C12.9617 9.33963 12.3353 9.23172 11.715 9.29727C11.0946 9.36281 10.5046 9.59924 10.0107 9.98023C9.51673 10.3612 9.13821 10.8718 8.91725 11.4552C8.60858 11.1631 8.23352 10.9504 7.82438 10.8356C7.41525 10.7207 6.98431 10.707 6.56871 10.7957C6.15311 10.8844 5.76532 11.0728 5.43875 11.3448C5.11217 11.6167 4.85662 11.9639 4.6941 12.3566L4.227 9.5211C7.20684 7.71143 11.0165 6.71824 15.001 6.71824C18.9856 6.71824 22.7953 7.7114 25.7751 9.5211L25.2244 12.864Z" stroke="#4283D0" stroke-width="0.6" mask="url(#path-1-outside-1)"/>
</svg>
