<svg width="70" height="70" fill="none" xmlns="http://www.w3.org/2000/svg"><path d="M65.4 58.1l-8.7-17.3c2.8-4.2 4.5-9.2 4.5-14.6C61.2 11.7 49.5 0 35.1 0 20.7 0 8.9 11.7 8.9 26.2a26 26 0 004.5 14.6L4.7 58.1c-.3.6-.3 1.4.1 2 .4.6 1 1 1.7 1h9.9l6 8c.4.5 1 .8 1.6.8.8 0 1.5-.5 1.8-1.1L34 52.4h1.8L44 68.8c.3.6 1 1.1 1.8 1.1.6 0 1.2-.3 1.6-.8l6-8h9.9c.7 0 1.4-.4 1.7-1 .7-.6.7-1.3.4-2zm-41.7 5.8l-4.6-6.1c-.4-.5-1-.8-1.6-.8H9.9l6.4-12.7c3.6 3.7 8.3 6.4 13.6 7.5l-6.2 12.1zM13 26.2C13 14 22.9 4.1 35.1 4.1c12.2 0 22 9.9 22 22.1 0 12.2-9.9 22.1-22.1 22.1-12.2 0-22-10-22-22.1zM52.6 57c-.6 0-1.3.3-1.6.8l-4.6 6.1-6.1-12.1c5.3-1.1 10-3.8 13.6-7.5L60.2 57h-7.6z" fill="#4283D0"/><path d="M45.5 29.6l5.7-6.8c.5-.5.6-1.3.4-1.9-.2-.7-.8-1.2-1.4-1.4l-8.6-2.2-4.7-7.5c-.4-.6-1-1-1.7-1s-1.4.4-1.7 1l-4.7 7.5-8.8 2.1c-.7.2-1.2.7-1.5 1.4-.2.7-.1 1.4.4 1.9l5.7 6.8-.6 8.9c0 .7.3 1.4.8 1.8.9.6 1.7.3 2 .2l8.3-3.3 8.3 3.3c.7.3 1.4.2 2-.2.6-.4.9-1.1.8-1.8l-.7-8.8zm-3.7-2c-.3.4-.5.9-.5 1.5l.4 6.4-6-2.4c-.7-.3-1.2-.1-1.5 0l-6 2.4.4-6.4c0-.5-.1-1.1-.5-1.5L24 22.7l6.3-1.6c.5-.1 1-.5 1.2-.9l3.4-5.5 3.4 5.5c.3.4.7.8 1.2.9l6.3 1.6-4 4.9z" fill="#4283D0"/></svg>