<svg width="30" height="30" fill="none" xmlns="http://www.w3.org/2000/svg"><mask id="a" maskUnits="userSpaceOnUse" x="2.094" y="4.637" width="26" height="21" fill="#000"><path fill="#fff" d="M2.094 4.637h26v21h-26z"/><path d="M25.903 15.402l.998-6.061a.54.54 0 00-.243-.544c-3.193-2.038-7.333-3.16-11.657-3.16S6.537 6.759 3.344 8.797a.54.54 0 00-.243.544l.999 6.061-.997 5.244a.54.54 0 00.24.557c3.194 2.038 7.334 3.16 11.658 3.16s8.464-1.122 11.658-3.16a.54.54 0 00.24-.557l-.996-5.244zM15 23.282c-3.98 0-7.787-.992-10.766-2.798l.427-2.245a2.622 2.622 0 004.228 1.01 3.37 3.37 0 005.974.606 3.37 3.37 0 005.985-.633 2.622 2.622 0 004.392-1.504l.526 2.766C22.788 22.29 18.982 23.282 15 23.282zm.442-10.63a2.29 2.29 0 014.582 0v2.087a.061.061 0 01-.059.059h-4.464a.06.06 0 01-.06-.059v-2.088zm5.663.71a1.541 1.541 0 113.085 0v1.436h-3.085v-1.436zm-6.783 4.664a2.294 2.294 0 01-2.29 2.301 2.292 2.292 0 01-2.292-2.3v-2.088a.06.06 0 01.06-.06h4.463a.06.06 0 01.06.06v2.087zm-5.663-.71a1.542 1.542 0 01-3.085 0V15.88H8.66v1.436zm6.745-1.377a.06.06 0 01.059-.06h4.464a.06.06 0 01.059.06v2.087a2.291 2.291 0 11-4.582 0V15.94zm5.701-.06h3.085v1.437a1.542 1.542 0 01-3.085 0V15.88zm-6.745-1.14a.06.06 0 01-.059.059H9.838a.06.06 0 01-.059-.059v-2.088a2.291 2.291 0 014.582 0v2.088zm-5.701.059H5.575v-1.436a1.543 1.543 0 113.085 0v1.436zm16.564-1.934a2.621 2.621 0 00-4.348-1.435 3.37 3.37 0 00-5.974-.606 3.37 3.37 0 00-5.985.632 2.62 2.62 0 00-4.223.902L4.227 9.52c2.98-1.81 6.79-2.803 10.774-2.803 3.985 0 7.794.993 10.774 2.803l-.55 3.343z"/></mask><path d="M25.903 15.402l.998-6.061a.54.54 0 00-.243-.544c-3.193-2.038-7.333-3.16-11.657-3.16S6.537 6.759 3.344 8.797a.54.54 0 00-.243.544l.999 6.061-.997 5.244a.54.54 0 00.24.557c3.194 2.038 7.334 3.16 11.658 3.16s8.464-1.122 11.658-3.16a.54.54 0 00.24-.557l-.996-5.244zM15 23.282c-3.98 0-7.787-.992-10.766-2.798l.427-2.245a2.622 2.622 0 004.228 1.01 3.37 3.37 0 005.974.606 3.37 3.37 0 005.985-.633 2.622 2.622 0 004.392-1.504l.526 2.766C22.788 22.29 18.982 23.282 15 23.282zm.442-10.63a2.29 2.29 0 014.582 0v2.087a.061.061 0 01-.059.059h-4.464a.06.06 0 01-.06-.059v-2.088zm5.663.71a1.541 1.541 0 113.085 0v1.436h-3.085v-1.436zm-6.783 4.664a2.294 2.294 0 01-2.29 2.301 2.292 2.292 0 01-2.292-2.3v-2.088a.06.06 0 01.06-.06h4.463a.06.06 0 01.06.06v2.087zm-5.663-.71a1.542 1.542 0 01-3.085 0V15.88H8.66v1.436zm6.745-1.377a.06.06 0 01.059-.06h4.464a.06.06 0 01.059.06v2.087a2.291 2.291 0 11-4.582 0V15.94zm5.701-.06h3.085v1.437a1.542 1.542 0 01-3.085 0V15.88zm-6.745-1.14a.06.06 0 01-.059.059H9.838a.06.06 0 01-.059-.059v-2.088a2.291 2.291 0 014.582 0v2.088zm-5.701.059H5.575v-1.436a1.543 1.543 0 113.085 0v1.436zm16.564-1.934a2.621 2.621 0 00-4.348-1.435 3.37 3.37 0 00-5.974-.606 3.37 3.37 0 00-5.985.632 2.62 2.62 0 00-4.223.902L4.227 9.52c2.98-1.81 6.79-2.803 10.774-2.803 3.985 0 7.794.993 10.774 2.803l-.55 3.343z" fill="#4283D0"/><path d="M25.903 15.402l.998-6.061a.54.54 0 00-.243-.544c-3.193-2.038-7.333-3.16-11.657-3.16S6.537 6.759 3.344 8.797a.54.54 0 00-.243.544l.999 6.061-.997 5.244a.54.54 0 00.24.557c3.194 2.038 7.334 3.16 11.658 3.16s8.464-1.122 11.658-3.16a.54.54 0 00.24-.557l-.996-5.244zM15 23.282c-3.98 0-7.787-.992-10.766-2.798l.427-2.245a2.622 2.622 0 004.228 1.01 3.37 3.37 0 005.974.606 3.37 3.37 0 005.985-.633 2.622 2.622 0 004.392-1.504l.526 2.766C22.788 22.29 18.982 23.282 15 23.282zm.442-10.63a2.29 2.29 0 014.582 0v2.087a.061.061 0 01-.059.059h-4.464a.06.06 0 01-.06-.059v-2.088zm5.663.71a1.541 1.541 0 113.085 0v1.436h-3.085v-1.436h0zm-6.783 4.664a2.294 2.294 0 01-2.29 2.301 2.292 2.292 0 01-2.292-2.3v-2.088a.06.06 0 01.06-.06h4.463a.06.06 0 01.06.06v2.087zm-5.663-.71a1.542 1.542 0 01-3.085 0V15.88H8.66v1.436zm6.745-1.377a.06.06 0 01.059-.06h4.464a.06.06 0 01.059.06v2.087a2.291 2.291 0 11-4.582 0V15.94zm5.701-.06h3.085v1.437a1.542 1.542 0 01-3.085 0V15.88zm-6.745-1.14a.06.06 0 01-.059.059H9.838a.06.06 0 01-.059-.059v-2.088a2.291 2.291 0 014.582 0v2.088zm-5.701.059H5.575v-1.436a1.543 1.543 0 113.085 0v1.436zm16.564-1.934a2.621 2.621 0 00-4.348-1.435 3.37 3.37 0 00-5.974-.606 3.37 3.37 0 00-5.985.632 2.62 2.62 0 00-4.223.902L4.227 9.52c2.98-1.81 6.79-2.803 10.774-2.803 3.985 0 7.794.993 10.774 2.803l-.55 3.343z" stroke="#4283D0" stroke-width=".6" mask="url(#a)"/></svg>