<svg width="30" height="30" fill="none" xmlns="http://www.w3.org/2000/svg"><path d="M29.121 12.363h-4.453c-.415 0-.813.072-1.183.205.69-2.569 1.47-3.443 1.092-5.661-.411-2.417-2.323-4.44-4.76-4.954A6.1 6.1 0 0015 2.94a6.1 6.1 0 00-4.816-.987c-2.395.504-4.342 2.494-4.761 4.954-.38 2.226.414 3.134 1.092 5.661a3.5 3.5 0 00-1.183-.205H.88a.879.879 0 00-.879.879v14.062a.88.88 0 00.879.879h28.24a.879.879 0 00.879-.879V13.242a.879.879 0 00-.879-.88zM7.155 7.203c.293-1.72 1.688-3.171 3.391-3.53a4.373 4.373 0 013.866 1.043.879.879 0 001.176 0 4.373 4.373 0 013.866-1.043c1.703.359 3.098 1.81 3.39 3.53.395 2.313-1.234 3.566-1.632 8.036-.064.348-.067.26-.06 3.237a2.68 2.68 0 01-1.758 2.514c-.029-3.307-1.087-6.87-4.394-6.87-3.307 0-4.365 3.563-4.394 6.87a2.68 2.68 0 01-1.758-2.514c0-2.825.02-2.809-.06-3.237-.398-4.471-2.027-5.722-1.633-8.037zm21.087 19.222H1.758V14.12h3.574a1.76 1.76 0 011.713 1.366c.07.852.035 1.274.045 2.99a4.439 4.439 0 004.434 4.434.88.88 0 00.878-.923c-.015-.29-.039-.567-.039-.835 0-3.352.961-5.274 2.637-5.274 1.676 0 2.637 1.922 2.637 5.274 0 .267-.024.545-.038.835a.879.879 0 00.877.923 4.439 4.439 0 004.434-4.434c.01-1.706-.026-2.136.045-2.99a1.76 1.76 0 011.713-1.366h3.574v12.305z" fill="#4283D0"/></svg>