<svg width="30" height="30" fill="none" xmlns="http://www.w3.org/2000/svg"><path d="M28.974 7.95a.54.54 0 010 .949m0-.95L26.671 10.8c.17-.506.526-.93.995-1.186l1.308-.715m0-.95l-1.308-.715 1.308.716zm0 .95l.072.131a.691.691 0 000-1.212h0l-1.308-.716h0A1.972 1.972 0 0126.813 6h0l-.882-2.61a.69.69 0 00-.252-.34m3.295 5.849l.072.131-1.308.716h0a1.972 1.972 0 00-.925 1.102h0l-.879 2.602m-.255-10.4l.257 10.39-.002.01m-.255-10.4a.69.69 0 00-.805 0m.805 0h-.805m1.06 10.4l-2.233 11.392m2.233-11.392l-2.233 11.392m0 0s0 0 0 0h0zm1.173-21.793a.691.691 0 00-.252.34L23.74 6h0c-.079.234-.2.45-.358.638a7.325 7.325 0 00-.608-.458h0c-1.528-1.025-3.51-1.111-5.174-.229a3.257 3.257 0 01-2.993 0c-1.664-.882-3.646-.796-5.173.229a7.302 7.302 0 00-3.108 7.474L24.874 3.05s0 0 0 0zM7.682 13.39h0l2.18 11.189a1.386 1.386 0 002.687.138l1.342-4.413a2.312 2.312 0 014.425 0l1.342 4.413a1.385 1.385 0 002.686-.139l2.206-11.332-.81-2.397h0a1.972 1.972 0 00-.925-1.102h0l-1.308-.716h0l.071-.131a.541.541 0 010-.95L7.682 13.39zm0 0a5.923 5.923 0 012.521-6.062h0c1.1-.739 2.54-.8 3.757-.155h.001a4.638 4.638 0 004.285 0h0c1.218-.645 2.657-.584 3.757.155.06.04.118.081.176.123l-.672.368M7.682 13.39l13.825-5.57m0 0s0 0 0 0h0zm3.77 3.26l.227-.673-.228.673zm0 0l-.228-.673a3.35 3.35 0 00-1.571-1.872m1.798 2.545l-1.798-2.545m0 0l-.2-.11.2-.11s0 0 0 0 0 0 0 0a3.35 3.35 0 001.57-1.872l.228-.673.228.673c.27.8.83 1.469 1.57 1.873l-3.596.219zm3.597 0a3.35 3.35 0 00-1.571 1.872l1.57-1.872zm.2-.11l-.2.11v-.22l.2.11zm-23.705 8l-.717 2.123a1.62 1.62 0 01-.762.908l-1.064.582 4.285-1.49-.717-2.123a.54.54 0 00-1.025 0zm0 0l-.142-.048-.717 2.123h0a1.475 1.475 0 01-.691.824h0l-1.065.582h0a.69.69 0 00-.262.254l.129.077m2.748-3.812l-.142-.048a.691.691 0 011.31 0l.717 2.123h0c.118.352.365.647.69.824h.001l.695.38m-6.02.533l6.109-.313-.09-.22m-6.018.533l-.13-.077a.69.69 0 00.263.959h0l1.064.582h0c.327.178.573.472.692.824h0l.717 2.123.142-.048-.142.048a.691.691 0 001.31 0l.717-2.123h0c.118-.352.365-.646.69-.824h.001l1.064-.582h0a.69.69 0 000-1.213l-.37-.201h0m-6.018.532l6.019-.532m-1.401.808a2.854 2.854 0 01-1.295-1.57l-.062-.186-.063.185 1.42 1.57zm0 0c-.61.346-1.07.904-1.295 1.57l1.295-1.57zm-1.357 1.755l.062-.185-.062.185zm0 0l-.063-.185m.063.185l-.063-.185m0 0a2.854 2.854 0 00-1.294-1.57m1.294 1.57l-1.294-1.57m0 0a2.854 2.854 0 001.294-1.57l-1.294 1.57zm-.635 1.056c.36.196.632.52.762.908l-.762-.908z" fill="#4283D0" stroke="#4283D0" stroke-width=".3"/></svg>