<svg width="30" height="30" fill="none" xmlns="http://www.w3.org/2000/svg"><path d="M29.08 11.229c-.035-.003-3.503-.379-7.185-3.8-1.658-1.541-4.244-1.204-5.474-.368l-.02.014a2.5 2.5 0 01-2.801 0l-.022-.015c-1.23-.835-3.815-1.172-5.473.37-1.907 1.77-3.758 2.71-4.975 3.183-1.323.517-2.205.614-2.21.615l-.921.09.137.914c.018.118.455 2.913 2.509 5.721a13.217 13.217 0 004.528 3.925c2.221 1.173 4.854 1.768 7.826 1.768 2.972 0 5.605-.595 7.826-1.768a13.217 13.217 0 004.528-3.925c2.053-2.808 2.491-5.603 2.509-5.72l.137-.915-.92-.09zm-7.116 9.118c-1.957 1.024-4.3 1.543-6.964 1.543-2.664 0-5.007-.52-6.964-1.543a11.47 11.47 0 01-3.929-3.37 12.629 12.629 0 01-1.103-1.79c.394.265.84.54 1.34.816 2.138 1.177 5.721 2.58 10.656 2.58 4.935 0 8.518-1.403 10.656-2.58.5-.275.946-.551 1.34-.816a12.633 12.633 0 01-1.103 1.79 11.468 11.468 0 01-3.93 3.37zM12.59 8.514l.028.018a4.25 4.25 0 004.762 0l.03-.019c.618-.42 2.293-.722 3.289.203 1.698 1.578 3.366 2.564 4.671 3.168H4.631c2.044-.945 3.641-2.213 4.67-3.168.995-.925 2.67-.624 3.29-.202zm13.555 5.126c-.402.277-.873.572-1.413.866-1.946 1.059-5.215 2.321-9.733 2.321-4.518 0-7.787-1.262-9.732-2.321a16.021 16.021 0 01-1.414-.866h22.292z" fill="#4283D0"/></svg>