<svg width="30" height="30" fill="none" xmlns="http://www.w3.org/2000/svg"><path d="M15.628 27.214v-.15h-1.782a3.988 3.988 0 010-7.975h6.924A4.09 4.09 0 0024.858 15v-.526h.526a2.935 2.935 0 002.935-2.935v-1.154c0-2.476-.566-4.692-1.453-6.27-.898-1.595-2.055-2.435-3.213-2.435-1.462 0-2.925 1.357-3.834 3.791l-.493 1.319-.493-1.319C17.924 3.037 16.462 1.68 15 1.68c-1.461 0-2.925 1.357-3.834 3.791l-.493 1.32-.493-1.32C9.271 3.037 7.808 1.68 6.346 1.68c-1.158 0-2.315.84-3.212 2.435-.888 1.578-1.454 3.794-1.454 6.27v1.154a2.935 2.935 0 002.936 2.935h.526V15a2.834 2.834 0 01-2.834 2.834H1.68v1.255h.628A4.09 4.09 0 006.397 15v-.526h1.68a2.91 2.91 0 002.2-1.014l.396-.452.396.453a2.913 2.913 0 002.2 1.013h3.462a2.91 2.91 0 002.2-1.014l.396-.452.396.453a2.912 2.912 0 002.2 1.013h1.68V15a2.834 2.834 0 01-2.834 2.834h-6.923a5.243 5.243 0 000 10.486h1.782v-1.106zM9.643 8.597l-.596.027a4.078 4.078 0 00-3.905 4.068v.526h-.526c-.927 0-1.68-.753-1.68-1.68v-1.153c0-2.222.482-4.034 1.116-5.307.316-.635.676-1.15 1.045-1.513.352-.347.787-.63 1.25-.63.38 0 .735.194 1.028.437.304.252.6.605.873 1.035.547.863 1.033 2.09 1.294 3.602l.101.588zm-.005 3.562a1.682 1.682 0 01-1.56 1.06h-1.68v-.527A2.834 2.834 0 019.23 9.858h.536a15.054 15.054 0 01.026.85c.001.269-.007.556-.03.816a2.464 2.464 0 01-.125.635zm11.665.94a1.682 1.682 0 01-1.06-1.56v-1.68h.527a2.833 2.833 0 012.833 2.833v.536a13.836 13.836 0 01-.85.027 8.85 8.85 0 01-.815-.031 2.464 2.464 0 01-.635-.124zm4.082.12h-.526v-.527c0-2.192-1.733-3.97-3.906-4.069l-.596-.027.101-.588c.262-1.512.747-2.738 1.294-3.6.272-.43.569-.784.873-1.036.293-.243.648-.436 1.029-.436.463 0 .898.282 1.25.629.369.364.729.879 1.045 1.513.633 1.273 1.116 3.085 1.116 5.307v1.154c0 .926-.753 1.68-1.68 1.68zm-6.974-1.68c0 .926-.753 1.68-1.68 1.68h-3.462c-.926 0-1.68-.754-1.68-1.68v-1.154c0-2.222.483-4.034 1.117-5.307.316-.635.676-1.15 1.045-1.513.352-.347.787-.63 1.25-.63.462 0 .896.283 1.248.63.37.364.73.879 1.046 1.513.633 1.273 1.116 3.085 1.116 5.307v1.154z" fill="#4283D0" stroke="#4283D0" stroke-width=".3"/></svg>