<svg width="30" height="30" viewBox="0 0 30 30" fill="none" xmlns="http://www.w3.org/2000/svg">
<path d="M15.5 2.9C8.55239 2.9 2.9 8.55239 2.9 15.5C2.9 22.4476 8.55239 28.1 15.5 28.1C22.4476 28.1 28.1 22.4476 28.1 15.5C28.1 8.55239 22.4476 2.9 15.5 2.9ZM15.5 26.3375C9.52419 26.3375 4.66251 21.4758 4.66251 15.5C4.66251 9.52419 9.52419 4.66251 15.5 4.66251C21.4758 4.66251 26.3375 9.52419 26.3375 15.5C26.3375 21.4758 21.4758 26.3375 15.5 26.3375Z" fill="#4283D0" stroke="#4283D0" stroke-width="0.2"/>
<path d="M16.3813 7.6875V7.5875H16.2813H14.7188H14.6187V7.6875V15.8235V15.8649L14.648 15.8942L19.5644 20.8106L19.6351 20.8813L19.7058 20.8106L20.8106 19.7058L20.8813 19.6351L20.8106 19.5644L16.3813 15.1351V7.6875Z" fill="#4283D0" stroke="#4283D0" stroke-width="0.2"/>
</svg>
