<svg width="220" height="129" viewBox="0 0 220 129" fill="none" xmlns="http://www.w3.org/2000/svg">
<g>
<path d="M209.107 73.7896C209.107 73.7896 215.929 74.2625 218.281 66.9329C220.633 59.6033 219.222 47.3085 219.222 47.3085C219.222 47.3085 218.987 43.2891 215.929 44.9441L210.834 47.701" stroke="white" stroke-opacity="0.8" stroke-width="2" stroke-linecap="round" stroke-linejoin="round"/>
<path d="M206.911 73.3971C206.911 73.3971 211.931 69.0608 211.695 58.894C211.505 52.5188 210.824 46.1681 209.658 39.8985C209.503 38.5603 209.188 36.4324 206.365 37.851C204.769 38.6721 203.085 39.3067 201.346 39.7425" stroke="white" stroke-opacity="0.8" stroke-width="2" stroke-linecap="round" stroke-linejoin="round"/>
<path d="M198.758 70.5599C198.758 70.5599 203.462 62.2041 202.051 47.0721C200.64 31.9401 197.111 26.2656 197.111 26.2656C197.111 26.2656 194.976 21.8584 190.525 24.6105C184.409 28.3935 178.059 37.1417 178.059 37.1417" stroke="white" stroke-opacity="0.8" stroke-width="2" stroke-linecap="round" stroke-linejoin="round"/>
<path d="M151.367 37.6713C151.367 37.6713 159.76 26.6344 164.262 25.0834C169.752 23.1919 174.837 26.6202 178.53 39.5061C182.529 53.4559 180.412 62.677 180.412 62.677" stroke="white" stroke-opacity="0.8" stroke-width="2" stroke-linecap="round" stroke-linejoin="round"/>
<path d="M108.434 71.5056C107.97 68.4285 107.812 65.3126 107.964 62.2041C108.279 57.5557 109.375 40.9247 109.61 35.2502C109.846 29.5757 112.198 23.6647 118.784 22.2461C123.126 21.3004 130.3 20.3546 133.838 20.3546C140.424 20.3546 146.775 23.1919 149.833 32.1765C153.855 43.9984 154.772 63.3863 154.772 63.3863L155.008 67.6422" stroke="white" stroke-opacity="0.8" stroke-width="2" stroke-linecap="round" stroke-linejoin="round"/>
<path d="M109.219 42.2629C107.861 39.0787 107.193 35.6405 107.258 32.1765C107.441 27.4478 104.383 22.9176 97.1434 22.0097C91.4981 21.3004 83.2655 21.0639 75.0328 24.3741C67.9245 27.2113 66.0945 31.7036 65.1536 35.2502C64.1516 39.0332 58.6098 55.2812 62.8014 69.0892" stroke="white" stroke-opacity="0.8" stroke-width="2" stroke-linecap="round" stroke-linejoin="round"/>
<path d="M64.4479 37.6145C64.4479 37.6145 56.6622 26.1378 48.9235 25.5562C42.3374 25.0833 39.9852 28.157 37.1625 42.5797C34.3399 57.0024 36.8097 65.396 38.2822 68.5311" stroke="white" stroke-opacity="0.8" stroke-width="2" stroke-linecap="round" stroke-linejoin="round"/>
<path d="M38.5893 36.3142C38.5893 36.3142 24.876 29.1029 22.0534 28.5874C19.2308 28.072 17.5654 28.4598 16.5399 31.8077C15.5143 35.1557 13.3362 61.3105 20.7738 70.8484" stroke="white" stroke-opacity="0.8" stroke-width="2" stroke-linecap="round" stroke-linejoin="round"/>
<path d="M15.3865 42.8872C14.1048 42.2777 13.0013 41.3461 12.1828 40.1823C11.1573 38.636 9.23319 39.2791 8.5934 41.2132C7.9536 43.1473 7.05507 44.1781 5.2627 44.3058C3.47033 44.4335 2.05902 42.1164 1.2875 48.5617C0.515988 55.007 -1.91617 68.6589 6.28825 73.1513" stroke="white" stroke-opacity="0.8" stroke-width="2" stroke-linecap="round" stroke-linejoin="round"/>
<path d="M5.26367 50.7464C6.41624 50.8741 6.28923 54.3544 6.28923 58.7333C6.28923 63.1121 7.82756 70.2005 11.29 72.2623" stroke="white" stroke-opacity="0.8" stroke-width="2" stroke-linecap="round" stroke-linejoin="round"/>
<path d="M203.148 75.6006C204.187 74.5441 205.486 73.7823 206.912 73.3923C212.675 72.1061 213.743 91.6642 213.498 92.9363C213.225 94.3549 212.087 93.882 210.675 95.7735C209.363 97.5326 209.109 98.9276 208.168 99.5566C207.227 100.185 205.698 99.0837 205.698 99.0837" stroke="white" stroke-opacity="0.8" stroke-width="2" stroke-linecap="round" stroke-linejoin="round"/>
<path d="M190.291 73.5531C190.291 73.5531 195.616 69.2973 198.759 70.5362C201.901 71.7751 203.463 76.8633 204.719 80.6463C205.975 84.4293 207.226 96.7241 204.719 102.082C202.212 107.439 200.015 105.865 196.251 102.711C192.488 99.5566 190.291 99.1783 187.783 98.8662" stroke="white" stroke-opacity="0.8" stroke-width="2" stroke-linecap="round" stroke-linejoin="round"/>
<path d="M166.832 74.8536C166.832 74.8536 169.593 63.9396 176.179 62.9938C182.765 62.0481 185.588 64.2564 187.785 68.0394C189.982 71.8224 192.423 80.6463 193.115 87.2666C193.882 94.5961 187.766 98.7433 186.195 99.9302C185.136 100.729 180.549 102.399 177.12 99.5613C173.691 96.7241 169.828 93.7402 168.008 93.1208C167.557 93.0198 167.099 92.9519 166.639 92.9174" stroke="white" stroke-opacity="0.8" stroke-width="2" stroke-linecap="round" stroke-linejoin="round"/>
<path d="M138.857 83.3276C139.102 86.8696 139.545 90.395 140.184 93.8869C140.81 97.041 142.066 100.171 146.77 102.715C151.108 105.08 156.339 104.801 159.905 102.446C163.278 100.219 165.08 98.086 166.331 93.9862C167.582 89.8863 167.404 77.2653 166.213 71.1888C165.174 65.8879 159.312 67.089 159.312 67.089C159.312 67.089 145.905 68.588 144.649 68.8434C143.392 69.0987 140.066 69.1933 139.243 72.7588" stroke="white" stroke-opacity="0.8" stroke-width="2" stroke-linecap="round" stroke-linejoin="round"/>
<path d="M78.2659 86.9733C78.0983 89.8363 77.7114 92.682 77.1086 95.4851C76.4829 98.6392 75.2269 101.77 70.5225 104.314C66.1851 106.678 60.9538 106.399 57.3879 104.044C54.0148 101.817 52.2131 99.6843 50.9617 95.5844C49.7103 91.4846 49.8891 78.8635 51.0793 72.787C52.119 67.4861 57.9806 68.6872 57.9806 68.6872C57.9806 68.6872 71.3881 70.1862 72.6442 70.4416C73.6885 70.6544 76.4077 70.7631 77.6308 73.1748" stroke="white" stroke-opacity="0.8" stroke-width="2" stroke-linecap="round" stroke-linejoin="round"/>
<path d="M106.426 75.7521C106.384 72.7209 108.308 71.2266 110.006 70.8767C112.293 70.4038 117.308 70.5835 123.804 70.5599C129.864 70.5599 135.316 70.3849 137.024 70.6308C138.731 70.8767 139.305 72.3946 139.305 73.5059C139.305 74.6172 139.004 99.0412 132.87 104.716C127.944 109.26 123.066 109.038 119.698 108.078C116.329 107.118 112.138 105.557 109.456 96.5728C106.775 87.5882 106.426 75.7521 106.426 75.7521Z" stroke="white" stroke-opacity="0.8" stroke-width="2" stroke-linecap="round" stroke-linejoin="round"/>
<path d="M106.943 72.4513C105.743 70.2808 103.734 70.7584 101.349 70.5267C98.9641 70.295 82.1507 70.6118 82.1507 70.6118C78.5472 70.853 77.404 72.7918 77.4887 75.7803C77.5734 78.7689 78.9424 95.8161 79.6245 99.1593C80.4572 103.264 86.1494 109.052 93.3283 108.617C100.507 108.182 104.845 105.203 106.162 100.829C107.479 96.4545 107.931 95.7073 107.931 95.7073L108.57 94.2887" stroke="white" stroke-opacity="0.8" stroke-width="2" stroke-linecap="round" stroke-linejoin="round"/>
<path d="M52.2313 98.6912C52.2313 98.6912 48.9994 99.7174 44.6102 102.715C41.7546 104.664 36.4575 109.492 32.8493 104.924C29.241 100.356 25.9527 89.002 28.7753 81.1192C31.5979 73.2363 35.2814 70.0397 38.2828 68.5312C41.1054 67.1126 45.918 67.1788 48.8488 69.1412C49.8 69.8295 50.7052 70.5798 51.5586 71.3874" stroke="white" stroke-opacity="0.8" stroke-width="2" stroke-linecap="round" stroke-linejoin="round"/>
<path d="M31.4394 74.9718C31.4394 74.9718 26.5798 69.9262 23.442 70.087C20.3042 70.2477 17.3263 73.241 15.7597 77.4969C14.1932 81.7528 10.4438 92.6289 15.2893 103.032C18.7376 110.442 22.661 104.924 22.661 104.924C22.661 104.924 25.7612 100.157 29.9952 99.6842" stroke="white" stroke-opacity="0.8" stroke-width="2" stroke-linecap="round" stroke-linejoin="round"/>
<path d="M16.6056 75.3879C16.6056 75.3879 13.4066 72.6074 10.8945 72.1345C8.38235 71.6616 3.52273 72.1345 1.48574 83.4835C-0.551257 94.8326 3.28281 95.2014 4.7788 95.9344C5.83427 96.5168 6.8247 97.2112 7.73314 98.0056C8.89042 98.8946 11.5766 99.6133 13.3784 97.5327" stroke="white" stroke-opacity="0.8" stroke-width="2" stroke-linecap="round" stroke-linejoin="round"/>
</g>
</svg>
