<svg width="220" height="129" fill="none" xmlns="http://www.w3.org/2000/svg"><mask id="a" maskUnits="userSpaceOnUse" x="15.477" y="32.198" width="26" height="51" fill="#000"><path fill="#fff" d="M15.477 32.198h26v51h-26z"/><path d="M30.425 81.673c-.931 0-1.863-.429-2.832-1.3-6.932-6.134-8.022-11.247-10.156-25.132-2.115-13.745-.284-18.988 1.151-19.92.238-.266 2.227-2.275 5.972-.177l.806.466c4.7 2.614 11.8 6.58 14.316 9.843a.2.2 0 11-.313.243c-2.483-3.198-9.526-7.14-14.194-9.75l-.806-.467c-3.694-2.07-5.478.084-5.492.107a.201.201 0 01-.051.042c-1.263.788-3.094 5.887-.997 19.534 2.115 13.792 3.219 18.844 10.03 24.903 1.015.9 1.942 1.286 2.841 1.189 1.603-.173 2.87-1.911 3.983-3.44.387-.531.755-1.035 1.123-1.46 2.05-2.362 3.936-2.544 4.015-2.553a.199.199 0 01.033.396s-1.817.186-3.727 2.419c-.359.41-.717.909-1.104 1.43-1.165 1.6-2.488 3.408-4.262 3.599a2.92 2.92 0 01-.336.028z"/></mask><path d="M30.425 81.673c-.931 0-1.863-.429-2.832-1.3-6.932-6.134-8.022-11.247-10.156-25.132-2.115-13.745-.284-18.988 1.151-19.92.238-.266 2.227-2.275 5.972-.177l.806.466c4.7 2.614 11.8 6.58 14.316 9.843a.2.2 0 11-.313.243c-2.483-3.198-9.526-7.14-14.194-9.75l-.806-.467c-3.694-2.07-5.478.084-5.492.107a.201.201 0 01-.051.042c-1.263.788-3.094 5.887-.997 19.534 2.115 13.792 3.219 18.844 10.03 24.903 1.015.9 1.942 1.286 2.841 1.189 1.603-.173 2.87-1.911 3.983-3.44.387-.531.755-1.035 1.123-1.46 2.05-2.362 3.936-2.544 4.015-2.553a.199.199 0 01.033.396s-1.817.186-3.727 2.419c-.359.41-.717.909-1.104 1.43-1.165 1.6-2.488 3.408-4.262 3.599a2.92 2.92 0 01-.336.028z" fill="#fff" fill-opacity=".8"/><path d="M27.593 80.373l.669-.744-.006-.005-.663.749zM17.437 55.24l.989-.152-.989.152zm1.151-19.92l.545.838.112-.072.088-.1-.745-.666zm5.972-.177l.5-.866-.011-.007-.489.873zm.806.466l-.5.865.007.005.007.004.486-.874zm14.316 9.843l-.792.611.051.067.063.058.678-.736zm-.313.243l.881-.474-.04-.074-.05-.066-.79.614zm-14.194-9.75l-.5.865.006.004.006.003.488-.873zm-.806-.467l.5-.866-.011-.006-.489.872zm-5.492.107l.753.659.058-.068.047-.076-.858-.515zm-.051.042l-.497-.868-.017.01-.016.01.53.848zm-.997 19.534l.988-.152-.988.152zm10.03 24.903l-.665.747.001.002.663-.749zm2.841 1.189l-.107-.995h-.001l.108.995zm3.983-3.44l.808.589-.808-.59zm1.123-1.46l.755.656-.755-.655zm4.015-2.553l-.082-.997-.017.002-.018.002.117.993zm.033.396l-.082-.997-.01.001-.01.001.102.995zm-3.727 2.419l.753.658.007-.008-.76-.65zm-1.104 1.43l-.804-.594-.004.006.808.589zm-4.262 3.599l-.107-.994-.017.002-.017.002.14.99zm-.336-.972c-.6 0-1.304-.27-2.163-1.044l-1.338 1.487c1.079.97 2.238 1.557 3.501 1.557v-2zm-2.17-1.05c-3.361-2.974-5.262-5.653-6.602-9.258-1.363-3.666-2.157-8.308-3.227-15.276l-1.977.304c1.063 6.917 1.881 11.775 3.33 15.67 1.47 3.956 3.581 6.9 7.151 10.058l1.326-1.497zm-9.83-24.534c-1.049-6.82-1.109-11.47-.75-14.495.179-1.513.46-2.593.757-3.324.308-.757.591-1.04.7-1.11l-1.089-1.678c-.608.395-1.09 1.117-1.464 2.035-.384.944-.697 2.21-.89 3.841-.387 3.266-.306 8.11.76 15.035l1.977-.304zm.908-19.102c.043-.047.444-.472 1.19-.677.714-.196 1.878-.23 3.549.706l.977-1.745c-2.075-1.162-3.779-1.24-5.055-.89-1.244.342-1.956 1.055-2.151 1.273l1.49 1.333zm4.727.022l.805.466 1.002-1.731-.806-.466-1.002 1.731zm.82.474c2.354 1.31 5.276 2.94 7.921 4.646 2.677 1.726 4.947 3.454 6.089 4.935l1.583-1.221c-1.373-1.782-3.911-3.669-6.588-5.395-2.708-1.746-5.686-3.407-8.033-4.712l-.972 1.748zm14.124 9.706a.8.8 0 01-.197-.283l1.848-.764a1.201 1.201 0 00-.296-.424l-1.355 1.47zm-.197-.283a.8.8 0 01-.06-.339l1.998.084a1.2 1.2 0 00-.09-.509l-1.848.764zm-.06-.339a.799.799 0 01.088-.333l1.777.917a1.2 1.2 0 00.133-.5l-1.998-.084zm.088-.333a.799.799 0 01.22-.265l1.227 1.58c.138-.107.25-.243.33-.398l-1.777-.917zm.22-.265a.8.8 0 01.312-.148l.448 1.95a1.2 1.2 0 00.467-.222l-1.227-1.58zm.312-.148a.8.8 0 01.345-.002l-.415 1.956a1.2 1.2 0 00.518-.004l-.448-1.95zm.345-.002a.8.8 0 01.313.142l-1.199 1.6c.14.105.3.178.471.214l.415-1.956zm.313.142c.093.07.17.159.225.261l-1.761.947a1.2 1.2 0 00.337.392l1.2-1.6zm.134.121c-1.357-1.747-3.872-3.611-6.526-5.322-2.685-1.732-5.64-3.385-7.97-4.688l-.976 1.746c2.338 1.307 5.239 2.93 7.863 4.623 2.656 1.712 4.904 3.418 6.03 4.868l1.58-1.227zM25.676 35.08l-.806-.466-1.002 1.73.806.467 1.002-1.731zm-.818-.473c-2.056-1.152-3.708-1.188-4.912-.814a4.305 4.305 0 00-1.33.68 3.579 3.579 0 00-.462.42 1.954 1.954 0 00-.062.073l-.018.024s-.027.035-.055.082l1.716 1.029a.99.99 0 01-.038.057l-.016.023a1.125 1.125 0 01-.034.043 1.58 1.58 0 01.18-.16c.15-.114.388-.26.713-.361.615-.191 1.702-.27 3.34.649l.978-1.745zm-6.734.32a.798.798 0 01.205-.167l.993 1.736a1.2 1.2 0 00.308-.251l-1.506-1.317zm.172-.147c-.59.368-1.041 1.078-1.384 1.947-.357.906-.654 2.134-.838 3.732-.367 3.196-.29 7.978.766 14.855l1.977-.304c-1.04-6.77-1.096-11.361-.756-14.323.17-1.482.436-2.529.712-3.226.137-.349.27-.594.384-.759a1.347 1.347 0 01.183-.214.143.143 0 01.015-.011l-1.059-1.697zM16.84 55.314c1.054 6.871 1.871 11.69 3.305 15.548 1.457 3.919 3.54 6.829 7.049 9.95l1.329-1.494c-3.302-2.938-5.176-5.584-6.503-9.153-1.35-3.63-2.142-8.235-3.203-15.155l-1.977.304zm10.355 25.5c1.122.993 2.32 1.575 3.613 1.434l-.216-1.989c-.505.055-1.161-.137-2.07-.943l-1.327 1.498zm3.612 1.434c1.131-.122 2.05-.783 2.77-1.494.725-.715 1.368-1.602 1.914-2.352l-1.616-1.177c-.568.779-1.115 1.526-1.702 2.105-.592.584-1.109.879-1.58.93l.214 1.988zm4.685-3.846c.391-.538.734-1.006 1.069-1.392l-1.51-1.31c-.402.462-.795 1.001-1.177 1.525l1.618 1.177zm1.07-1.392c.93-1.073 1.799-1.624 2.411-1.907.308-.143.555-.22.72-.262.158-.04.242-.047.245-.047l-.234-1.986-.047.005-.11.017a4.253 4.253 0 00-.342.072 6.093 6.093 0 00-1.073.386c-.864.4-1.962 1.121-3.082 2.412l1.511 1.31zm3.341-2.213a.801.801 0 01-.584-.187l1.294-1.525a1.198 1.198 0 00-.874-.28l.164 1.992zm-.584-.187a.802.802 0 01-.28-.545l1.993-.165a1.199 1.199 0 00-.42-.815L39.32 74.61zm-.28-.545a.801.801 0 01.187-.584l1.526 1.293a1.2 1.2 0 00.28-.874l-1.993.165zm.187-.584a.801.801 0 01.546-.28l.164 1.993c.317-.026.61-.178.816-.42l-1.526-1.293zm.628.716a90.462 90.462 0 00-.103-.995h-.004l-.005.001-.013.002c-.01 0-.02.002-.033.004a3.954 3.954 0 00-.408.084c-.256.067-.6.18-1.007.371-.815.384-1.863 1.073-2.914 2.302l1.52 1.3c.859-1.004 1.675-1.524 2.245-1.792a3.89 3.89 0 01.661-.246 2.02 2.02 0 01.153-.034l.024-.004h-.002a.077.077 0 00-.008.001h-.003l-.103-.994zm-4.48 1.76c-.393.45-.784.994-1.155 1.495l1.608 1.19c.402-.543.728-.997 1.053-1.368l-1.506-1.316zm-1.16 1.501c-.592.814-1.164 1.592-1.789 2.197-.624.604-1.2.934-1.771.996l.214 1.988c1.203-.13 2.176-.799 2.948-1.547.771-.746 1.443-1.671 2.015-2.456l-1.616-1.178zm-3.594 3.197c-.073.01-.147.016-.22.018l.05 2c.151-.004.302-.017.45-.038l-.28-1.98z" fill="#fff" fill-opacity=".8" mask="url(#a)"/><path d="M57.17 83.207a23.666 23.666 0 01-12.63-3.752c-6.987-4.605-7.071-11.7-6.61-24.876.466-13.017 6.2-18.49 9.955-18.988 2.33-.308 4.388-.186 6.965 1.426 1.914 1.198 4.76 3.524 7.276 5.593l1.752 1.426a12.161 12.161 0 003.824 2.15.2.2 0 01.137.233.201.201 0 01-.044.088c-.219.247-2.501-.816-4.169-2.163l-1.752-1.426c-2.506-2.046-5.343-4.367-7.234-5.551a9.16 9.16 0 00-6.704-1.37c-6.559.862-9.372 11.866-9.61 18.596-.466 13.05-.373 20.042 6.433 24.53 6.806 4.489 16.584 4.974 20.619 1.091a.197.197 0 11.275.285c-1.892 1.822-5.008 2.708-8.484 2.708z" fill="#fff" fill-opacity=".8"/><path d="M57.17 83.707h-.004a24.166 24.166 0 01-12.896-3.832l-.005-.003h0c-3.617-2.384-5.452-5.43-6.313-9.538-.851-4.067-.752-9.2-.522-15.772h0c.236-6.578 1.804-11.293 3.823-14.441 2.013-3.138 4.498-4.751 6.566-5.026h0c2.412-.318 4.596-.191 7.296 1.498 1.948 1.22 4.823 3.57 7.328 5.63v.001l1.75 1.425.004.003h0c1.086.903 2.327 1.6 3.662 2.059a.7.7 0 01.284.175s0 0 0 0l-.357.35-10.617 37.47zm0 0c3.538 0 6.806-.9 8.83-2.848v-.001a.698.698 0 00-.97-1.004l-7.86 3.853zm10.505-37.664c.001 0 0 0 0 0s0 0 0 0z" stroke="#fff" stroke-opacity=".8"/><path d="M17.377 72.868a5.01 5.01 0 01-1.323-.177c-2.6-.718-4.132-3.323-4.817-4.815l-.126-.28c-.675-1.49-1.253-2.796-5.865-6.17-8.12-5.962-4.598-24.358-3.81-27.966.237-1.09 1.216-2.33 2.39-2.433.703-.065 1.7.233 2.496 2.06l.42.975c1.188 2.759 1.472 3.416 2.748 4.055l.61.303c2.563 1.235 6.02 2.96 6.755 6.222a.201.201 0 01-.227.268.2.2 0 01-.16-.18c-.694-3.066-4.076-4.735-6.545-5.956l-.615-.303c-1.397-.709-1.728-1.46-2.934-4.256l-.42-.97c-.554-1.271-1.276-1.9-2.096-1.821-.964.093-1.83 1.16-2.036 2.097-.782 3.612-4.271 21.794 3.653 27.606 4.695 3.45 5.296 4.782 5.995 6.325l.126.275c.652 1.426 2.115 3.924 4.56 4.596 1.505.415 3.112.042 4.775-1.105a.2.2 0 01.224.326 6.692 6.692 0 01-3.778 1.324z" fill="#fff" fill-opacity=".8"/><path d="M17.386 73.368h-.008a5.454 5.454 0 01-1.457-.195h0c-1.427-.394-2.54-1.3-3.373-2.274-.835-.975-1.412-2.044-1.765-2.814l-.002-.004-.125-.278v-.001l-.008-.016c-.33-.728-.62-1.37-1.372-2.242-.769-.893-2.031-2.037-4.325-3.715h0c-2.146-1.576-3.496-3.953-4.315-6.635-.818-2.682-1.117-5.706-1.135-8.63-.037-5.85 1.05-11.392 1.446-13.21l16.439 40.014zm0 0h.008a7.191 7.191 0 004.06-1.423l.024-.018.022-.021a.7.7 0 00.213-.434l-.497-.052.497.052a.7.7 0 00-.994-.706l-.038.017-.034.023c-1.58 1.09-3.035 1.4-4.358 1.035h0c-1.094-.3-1.99-1.016-2.704-1.857-.713-.84-1.22-1.776-1.535-2.465h0l-.125-.273m5.46 6.122l-5.46-6.122m0 0v-.002l-.003-.005c-.353-.78-.702-1.55-1.572-2.56-.86-1-2.22-2.221-4.58-3.955h0c-1.863-1.367-3.084-3.482-3.84-5.998C1.174 52.21.894 49.332.883 46.497c-.02-5.669 1.04-11.076 1.428-12.87.082-.373.304-.796.613-1.133.313-.341.664-.542.982-.573l8.02 35.325zm-6.43-33.8c-.535-1.23-1.116-1.57-1.589-1.525l1.59 1.524zm0 0h.001l.419.968h0l.002.005c.594 1.377.997 2.31 1.434 2.98.462.709.965 1.13 1.731 1.518h0l.005.002.615.303s0 0 0 0c1.242.614 2.66 1.316 3.855 2.234 1.186.912 2.103 1.998 2.419 3.362L5.496 33.445zm11.842 11.06a.701.701 0 01-.05.537h0a.7.7 0 01-.193.227h0a.7.7 0 01-.839.009l.295-.404-.295.404a.7.7 0 01-.197-.222l1.28-.55zm0 0c-.408-1.772-1.546-3.102-2.867-4.13-1.324-1.03-2.873-1.79-4.15-2.406l-.606-.3s0 0 0 0c-.57-.286-.887-.553-1.21-1.056-.352-.546-.701-1.352-1.303-2.75l-.42-.974h0v-.002c-.424-.972-.924-1.591-1.462-1.955a2.32 2.32 0 00-1.538-.404c-.75.066-1.395.488-1.87 1.006a4.058 4.058 0 00-.964 1.819l16.39 11.153z" stroke="#fff" stroke-opacity=".8"/><mask id="b" maskUnits="userSpaceOnUse" x="63.119" y="32.898" width="51" height="57" fill="#000"><path fill="#fff" d="M63.119 32.898h51v57h-51z"/><path d="M84.868 88.828h-2.795c-3.993-.09-10.105-1.37-12.834-3.137-6.718-4.349-5.241-17.353-4.263-25.957.107-.96.21-1.864.293-2.661.802-8.021 2.241-13.489 7.212-17.688 6.056-5.127 18.634-5.481 18.755-5.486.466 0 10.863-.126 15.177 2.675 2.949 1.916 4.095 5.328 4.584 6.782 1.239 3.7 1.253 9.173 1.253 9.228 0 .229-.158 22.81-1.556 30.487-.34 3.556-2.301 4.638-5.357 5.22-1.836.331-14.166.537-20.47.537zm6.643-54.533h-.252c-.121 0-12.578.378-18.508 5.393-4.873 4.11-6.28 9.503-7.072 17.422-.079.807-.181 1.706-.293 2.666-.932 7.989-2.427 21.361 4.085 25.58 2.68 1.733 8.693 2.987 12.63 3.075 4.225.094 21.009-.116 23.175-.531 3.438-.657 4.757-1.934 5.041-4.885 1.397-7.657 1.551-30.202 1.551-30.435 0-.103 0-5.481-1.23-9.103-.466-1.398-1.588-4.735-4.425-6.576-3.872-2.513-13.081-2.624-14.726-2.624l.024.018z"/></mask><path d="M84.868 88.828h-2.795c-3.993-.09-10.105-1.37-12.834-3.137-6.718-4.349-5.241-17.353-4.263-25.957.107-.96.21-1.864.293-2.661.802-8.021 2.241-13.489 7.212-17.688 6.056-5.127 18.634-5.481 18.755-5.486.466 0 10.863-.126 15.177 2.675 2.949 1.916 4.095 5.328 4.584 6.782 1.239 3.7 1.253 9.173 1.253 9.228 0 .229-.158 22.81-1.556 30.487-.34 3.556-2.301 4.638-5.357 5.22-1.836.331-14.166.537-20.47.537zm6.643-54.533h-.252c-.121 0-12.578.378-18.508 5.393-4.873 4.11-6.28 9.503-7.072 17.422-.079.807-.181 1.706-.293 2.666-.932 7.989-2.427 21.361 4.085 25.58 2.68 1.733 8.693 2.987 12.63 3.075 4.225.094 21.009-.116 23.175-.531 3.438-.657 4.757-1.934 5.041-4.885 1.397-7.657 1.551-30.202 1.551-30.435 0-.103 0-5.481-1.23-9.103-.466-1.398-1.588-4.735-4.425-6.576-3.872-2.513-13.081-2.624-14.726-2.624l.024.018z" fill="#fff" fill-opacity=".8"/><path d="M82.073 88.828l-.023 1h.023v-1zM69.239 85.69l-.544.84.544-.84zm-4.263-25.957l.994.113v-.002l-.994-.11zm.293-2.661l.995.105v-.006l-.995-.099zm7.212-17.688l.645.764-.645-.764zm18.755-5.486v-1h-.039l.039 1zm15.177 2.675l.545-.838-.545.839zm4.584 6.782l.948-.318-.948.318zm-.303 39.715l-.984-.179-.007.042-.004.042.995.095zm-5.357 5.22l.177.985.01-.002-.187-.983zM91.511 34.295v1h2.849l-2.224-1.78-.625.78zm-18.76 5.393l.645.764-.645-.764zM65.679 57.11l-.995-.1v.003l.996.097zm-.293 2.666l.993.116-.993-.116zm4.085 25.58l-.543.838.543-.839zm12.63 3.075l-.023 1 .022-1zm23.175-.531l-.187-.982h-.001l.188.982zm5.041-4.885l-.984-.18-.008.042-.004.043.996.095zm.321-39.538l-.949.316.002.006.947-.322zm-4.425-6.576l-.545.839.545-.84zm-14.726-2.624v-1h-2.849l2.224 1.78.625-.78zm-6.62 53.55h-2.794v2h2.795v-2zm-2.772 0c-1.915-.042-4.372-.373-6.686-.913-2.337-.545-4.41-1.276-5.627-2.063l-1.087 1.68c1.514.978 3.86 1.772 6.26 2.331 2.422.565 5.018.92 7.095.965l.045-2zm-12.313-2.976c-2.935-1.9-4.219-5.8-4.563-10.614-.34-4.761.26-10.07.75-14.39l-1.987-.226c-.487 4.284-1.114 9.78-.758 14.759.352 4.925 1.69 9.702 5.471 12.15l1.087-1.679zM65.97 59.845c.107-.957.21-1.866.294-2.667l-1.989-.21c-.083.793-.185 1.692-.293 2.655l1.988.222zm.295-2.673c.796-7.972 2.206-13.09 6.861-17.023l-1.29-1.528c-5.287 4.466-6.755 10.282-7.561 18.353l1.99.198zm6.862-17.024c2.818-2.386 7.255-3.72 11.14-4.444 3.843-.716 6.96-.804 7.007-.806l-.077-1.998-.166.006a47.892 47.892 0 00-2.013.135 54.44 54.44 0 00-5.117.697c-3.949.736-8.828 2.143-12.066 4.884l1.292 1.526zM91.236 34.9c.233 0 2.904-.03 6.046.282 1.572.157 3.242.398 4.771.766 1.543.371 2.875.856 3.815 1.466l1.09-1.677c-1.217-.79-2.803-1.34-4.437-1.734-1.648-.396-3.415-.649-5.04-.81-3.252-.325-6.013-.293-6.245-.293v2zm14.632 2.514c2.623 1.704 3.684 4.783 4.181 6.262l1.896-.638c-.481-1.43-1.712-5.174-4.987-7.301l-1.09 1.677zm4.181 6.26c.581 1.737.886 3.935 1.043 5.75a45.685 45.685 0 01.158 3.099v.063h2c0-.039-.007-5.67-1.305-9.547l-1.896.636zm1.201 8.911v.079l-.002.209-.007.762c-.008.653-.019 1.582-.037 2.715-.037 2.265-.1 5.344-.207 8.654-.215 6.652-.604 14.138-1.287 17.89l1.968.357c.715-3.925 1.104-11.568 1.318-18.183.214-6.644.254-12.357.254-12.482h-2zm-1.551 30.392c-.153 1.595-.648 2.486-1.318 3.063-.71.611-1.749.987-3.231 1.27l.374 1.965c1.573-.3 3.043-.756 4.162-1.72 1.16-.998 1.816-2.426 2.004-4.388l-1.991-.19zm-4.54 4.331c-.377.068-1.415.142-2.952.209-1.503.065-3.405.122-5.452.168a579.45 579.45 0 01-11.887.144v2c3.16 0 7.825-.052 11.932-.145 2.053-.046 3.972-.103 5.494-.17 1.488-.064 2.68-.14 3.22-.237l-.355-1.969zM91.511 33.295h-.252v2h.252v-2zm-.252 0c-.118 0-3.323.1-7.259.833-3.9.727-8.72 2.11-11.895 4.796l1.292 1.528c2.754-2.33 7.129-3.642 10.97-4.358a52.31 52.31 0 014.872-.665c1.264-.113 2.032-.134 2.02-.134v-2zm-19.153 5.629c-5.19 4.379-6.625 10.123-7.422 18.087l1.99.199c.788-7.874 2.167-12.915 6.722-16.758l-1.29-1.528zm-7.422 18.089c-.078.796-.18 1.688-.291 2.648l1.986.23c.112-.96.215-1.867.296-2.683l-1.99-.195zm-.291 2.647c-.465 3.982-1.084 9.412-.754 14.386.326 4.903 1.598 9.758 5.289 12.148l1.087-1.678c-2.821-1.828-4.059-5.768-4.38-10.603-.317-4.763.277-10.014.744-14.02l-1.986-.233zm4.535 26.535c1.488.963 3.8 1.74 6.16 2.29 2.385.553 4.941.9 6.99.946l.045-2c-1.888-.042-4.306-.366-6.583-.895-2.3-.534-4.335-1.25-5.525-2.02l-1.087 1.679zm13.15 3.236c2.135.047 7.405.018 12.401-.075a345.62 345.62 0 006.896-.186c1.911-.075 3.456-.167 4.089-.288l-.376-1.964c-.45.086-1.815.176-3.792.254-1.934.076-4.36.138-6.854.184-4.994.093-10.229.122-12.32.076l-.043 1.999zm23.386-.549c1.787-.342 3.207-.874 4.211-1.846 1.029-.998 1.483-2.32 1.637-3.925l-1.991-.192c-.129 1.346-.477 2.137-1.038 2.68-.586.568-1.544 1.003-3.194 1.319l.375 1.964zm5.837-5.687c.714-3.916 1.102-11.546 1.315-18.15a538.65 538.65 0 00.252-12.465h-2v.079l-.002.209-.007.762a545.6 545.6 0 01-.242 11.351c-.214 6.642-.601 14.113-1.284 17.855l1.968.359zm1.567-30.615c0-.08.008-5.622-1.283-9.424l-1.894.643c1.169 3.44 1.177 8.656 1.177 8.78h2zm-1.281-9.419c-.458-1.373-1.665-5.045-4.83-7.1l-1.089 1.679c2.509 1.628 3.547 4.63 4.021 6.053l1.898-.632zm-4.83-7.1c-2.153-1.396-5.64-2.066-8.629-2.408a62.1 62.1 0 00-6.64-.376v2c.804 0 3.475.027 6.413.363 2.996.343 6.049.985 7.767 2.1l1.089-1.678zm-15.895-1.004l.024.019 1.25-1.561-.024-.019-1.25 1.561z" fill="#fff" fill-opacity=".8" mask="url(#b)"/><path d="M129.394 91.68c-1.821 0-3.47 0-4.323-.076-4.215-.28-14.115-1.57-14.907-7.48a.201.201 0 01.037-.147.195.195 0 01.131-.077.194.194 0 01.147.037.207.207 0 01.052.058.21.21 0 01.025.073c.764 5.62 10.43 6.865 14.553 7.14 2.515.168 12.154 0 12.251 0 2.503.139 5.014.015 7.491-.368 3.62-.578 8.385-2.046 10.51-5.747 4.281-7.457.34-29.923-.955-37.287-1.482-8.445-5.004-11.237-10.584-13.209-4.938-1.743-15.28-2.913-23.549 1.012-3.978 1.887-5.949 6.395-6.899 9.839a33.102 33.102 0 00-1.132 7.117.184.184 0 01-.014.077.205.205 0 01-.043.065.19.19 0 01-.143.054.197.197 0 01-.196-.2 33.535 33.535 0 011.132-7.234c1.398-5.062 3.853-8.553 7.114-10.1 8.385-3.976 18.852-2.797 23.851-1.026 5.72 2.018 9.317 4.88 10.845 13.517 1.299 7.42 5.259 29.997.908 37.576-4.193 7.327-17.781 6.357-18.354 6.315-.056-.004-4.337.07-7.948.07z" fill="#fff" fill-opacity=".8"/><path d="M111.051 84.001c.341 2.504 2.682 4.13 5.685 5.17 2.964 1.026 6.359 1.402 8.406 1.538 2.269.152 10.416.027 11.965.003l.253-.004h.014l.014.001c2.468.136 4.943.015 7.386-.363 1.782-.285 3.828-.786 5.679-1.66 1.852-.875 3.479-2.109 4.474-3.842l.339.195-.339-.195c1.011-1.761 1.563-4.468 1.774-7.72.21-3.236.08-6.946-.225-10.668-.61-7.444-1.915-14.88-2.563-18.563h0c-.731-4.168-1.955-6.88-3.637-8.788-1.682-1.908-3.866-3.063-6.621-4.036-2.41-.851-6.174-1.572-10.361-1.591-4.186-.02-8.759.661-12.806 2.582h0c-3.767 1.788-5.688 6.098-6.632 9.52a32.62 32.62 0 00-1.114 6.997.688.688 0 01-.208.487h0a.693.693 0 01-.504.197.691.691 0 01-.486-.21s0 0 0 0l.358-.35a.176.176 0 01-.042-.064l-.466.183a.698.698 0 01-.048-.272v-.01h.001a33.965 33.965 0 011.148-7.342l.001-.002c1.418-5.136 3.938-8.785 7.381-10.42h0c4.28-2.028 9.072-2.735 13.412-2.715 4.339.02 8.262.764 10.82 1.67 2.897 1.023 5.317 2.279 7.203 4.418 1.887 2.139 3.194 5.11 3.968 9.484h0l.004.024c.651 3.718 1.966 11.222 2.575 18.751.306 3.772.435 7.564.212 10.896-.221 3.317-.795 6.243-1.941 8.24l-45.079-1.54zm0 0a.684.684 0 00-.272-.464.696.696 0 00-.518-.132l.79.596zm0 0s0 0 0 0l-.392.053v-.006.006l-.103.014.495-.067zm34.193 7.707c4.021-.673 8.67-2.294 10.886-6.165l-45.871-1.618-.253-.431s0 0 0 0a.701.701 0 00-.205.183h0a.696.696 0 00-.132.516c.438 3.255 3.369 5.147 6.498 6.254 3.163 1.118 6.743 1.515 8.866 1.656.876.076 2.535.076 4.325.076h.036c1.809 0 3.784-.019 5.313-.037l1.884-.024h.004l.543-.007.149-.002h.034c.395.028 3.934.267 7.923-.401zm-35.184-7.575v.002-.002zm27.245 7.975h.001-.006.005z" stroke="#fff" stroke-opacity=".8"/><mask id="c" maskUnits="userSpaceOnUse" x="153.4" y="33.665" width="31" height="51" fill="#000"><path fill="#fff" d="M153.4 33.665h31v51h-31z"/><path d="M165.926 82.913c-2.329 0-4.905-.145-6.35-.68-2.441-.905-2.669-1.8-2.687-1.898a.195.195 0 01.033-.146.198.198 0 01.202-.08.194.194 0 01.151.156s.214.774 2.437 1.6c3.009 1.113 11.362.465 11.445.465.084 0 11.251-.76 11.698-6.693.433-5.733-.34-25.57-1.16-29.895-.559-2.931-3.024-7.051-6.652-9.256a8.603 8.603 0 00-7.072-1.077c-6.834 2.051-13.141 12.356-13.202 12.459a.201.201 0 01-.273.068.202.202 0 01-.09-.122.202.202 0 01.023-.151 47.455 47.455 0 014.043-5.528c2.26-2.643 5.716-6.022 9.373-7.122a8.987 8.987 0 017.398 1.119c3.727 2.265 6.261 6.525 6.838 9.522.825 4.344 1.603 24.236 1.17 29.997-.196 2.61-2.357 4.661-6.252 5.929-1.89.592-3.84.972-5.814 1.132-.191.014-2.594.2-5.259.2z"/></mask><path d="M165.926 82.913c-2.329 0-4.905-.145-6.35-.68-2.441-.905-2.669-1.8-2.687-1.898a.195.195 0 01.033-.146.198.198 0 01.202-.08.194.194 0 01.151.156s.214.774 2.437 1.6c3.009 1.113 11.362.465 11.445.465.084 0 11.251-.76 11.698-6.693.433-5.733-.34-25.57-1.16-29.895-.559-2.931-3.024-7.051-6.652-9.256a8.603 8.603 0 00-7.072-1.077c-6.834 2.051-13.141 12.356-13.202 12.459a.201.201 0 01-.273.068.202.202 0 01-.09-.122.202.202 0 01.023-.151 47.455 47.455 0 014.043-5.528c2.26-2.643 5.716-6.022 9.373-7.122a8.987 8.987 0 017.398 1.119c3.727 2.265 6.261 6.525 6.838 9.522.825 4.344 1.603 24.236 1.17 29.997-.196 2.61-2.357 4.661-6.252 5.929-1.89.592-3.84.972-5.814 1.132-.191.014-2.594.2-5.259.2z" fill="#fff" fill-opacity=".8"/><path d="M159.576 82.232l.348-.937-.348.937zm-2.687-1.897l-.988.16.003.013.002.014.983-.187zm.158-.228l-.182-.983-.007.001-.008.001.197.981zm.228.158h1v-.087l-.015-.086-.985.173zm2.437 1.6l-.348.937.348-.938zm23.143-6.228l-.997-.075.997.075zm-1.16-29.895l.982-.186-.982.186zm-6.652-9.256l-.549.836.015.01.014.008.52-.854zm-7.072-1.077l-.274-.961-.013.003.287.958zm-13.202 12.459l.857.516.004-.008-.861-.508zm-.34-.205l-.848-.53-.004.006-.005.008.857.516zm4.043-5.528l-.76-.65-.002.003.762.647zm9.373-7.122l-.275-.961-.013.003.288.958zm7.398 1.119l-.548.837.014.009.014.008.52-.854zm6.838 9.522l.983-.187-.001-.002-.982.189zm1.17 29.997l-.997-.075.997.075zm-6.252 5.929l.299.954.011-.003-.31-.951zm-5.814 1.132l.073.998h.009l-.082-.998zm-5.259-.8c-1.147 0-2.34-.035-3.415-.134-1.091-.101-1.991-.262-2.587-.483l-.695 1.875c.848.315 1.958.494 3.098.6 1.157.106 2.417.143 3.599.143v-2zm-6.002-.617c-2.277-.844-2.127-1.536-2.053-1.147l-1.965.374c.112.585.718 1.683 3.323 2.648l.695-1.875zm-2.048-1.119a.798.798 0 01-.133.583l-1.643-1.14a1.202 1.202 0 00-.199.875l1.975-.318zm-.133.583a.795.795 0 01-.499.328l-.394-1.96a1.202 1.202 0 00-.75.492l1.643 1.14zm-.514.331a.806.806 0 01-.316-.004l.421-1.956a1.192 1.192 0 00-.469-.006l.364 1.966zm-.316-.004a.801.801 0 01-.289-.126l1.14-1.643a1.185 1.185 0 00-.43-.186l-.421 1.955zm-.289-.126a.806.806 0 01-.219-.227l1.685-1.078a1.193 1.193 0 00-.326-.338l-1.14 1.643zm-.219-.227a.82.82 0 01-.115-.294l1.97-.347a1.189 1.189 0 00-.17-.437l-1.685 1.078zm.87-.468c-.964.267-.963.269-.963.27l.001.002.001.004a1.067 1.067 0 01.009.03l.014.042a1.756 1.756 0 00.165.326c.108.168.265.359.491.562.45.402 1.179.858 2.371 1.3l.696-1.874c-1.031-.383-1.52-.726-1.733-.917-.105-.094-.14-.148-.142-.15a.317.317 0 01.034.076l.01.029.005.016a.026.026 0 01.002.009l.002.004v.002c.001.001.001.003-.963.27zm2.089 2.537c.888.328 2.088.504 3.315.602 1.248.099 2.609.122 3.862.11a78.793 78.793 0 004.288-.16l.286-.019c.105-.007.082-.005.042-.005v-2c-.05 0-.148.008-.176.01l-.28.018a81.237 81.237 0 01-4.179.157 42.997 42.997 0 01-3.685-.105c-1.189-.094-2.161-.255-2.778-.484l-.695 1.876zm11.793.528c.141 0 3.059-.204 6.023-1.17 1.487-.485 3.057-1.184 4.302-2.199 1.26-1.027 2.232-2.42 2.37-4.249l-1.994-.15c-.086 1.138-.678 2.065-1.64 2.849-.977.796-2.287 1.4-3.658 1.847-2.752.897-5.459 1.072-5.403 1.072v2zm12.695-7.617c.221-2.932.133-9.38-.108-15.59-.241-6.193-.64-12.316-1.067-14.567l-1.965.373c.393 2.074.791 8.032 1.033 14.272.242 6.223.324 12.56.113 15.36l1.994.152zm-1.175-30.158c-.61-3.197-3.234-7.566-7.115-9.924l-1.039 1.71c3.377 2.05 5.681 5.923 6.19 8.589l1.964-.375zm-7.086-9.905a9.6 9.6 0 00-3.817-1.462l-.301 1.978a7.591 7.591 0 013.021 1.156l1.097-1.672zm-3.817-1.462a9.59 9.59 0 00-4.077.26l.548 1.923c1.049-.3 2.15-.37 3.228-.205l.301-1.978zm-4.09.263c-3.714 1.115-7.159 4.404-9.613 7.267-2.487 2.901-4.112 5.554-4.163 5.641l1.722 1.017s.391-.641 1.086-1.637a48.182 48.182 0 012.873-3.72c2.424-2.827 5.549-5.715 8.669-6.652l-.574-1.916zm-13.772 12.9a.81.81 0 01.211-.23l1.188 1.609c.126-.094.233-.211.315-.346l-1.714-1.032zm.211-.23a.807.807 0 01.283-.134l.481 1.942c.153-.038.297-.106.424-.2l-1.188-1.608zm.283-.134a.804.804 0 01.313-.014l-.299 1.977c.156.024.315.017.467-.021l-.481-1.942zm.313-.014a.8.8 0 01.294.106l-1.033 1.713c.135.081.284.135.44.158l.299-1.977zm.294.106a.8.8 0 01.231.21l-1.61 1.188c.094.126.211.233.346.315l1.033-1.713zm.231.21a.808.808 0 01.133.283l-1.941.481c.037.153.105.297.198.424l1.61-1.187zm.133.283a.8.8 0 01.014.313l-1.977-.298a1.18 1.18 0 00.022.466l1.941-.48zm.014.313a.774.774 0 01-.106.294l-1.713-1.032a1.19 1.19 0 00-.158.44l1.977.298zm-.114.308a46.393 46.393 0 013.958-5.411l-1.525-1.294a48.543 48.543 0 00-4.129 5.644l1.696 1.061zm3.956-5.408c2.25-2.632 5.544-5.805 8.9-6.814l-.576-1.916c-3.957 1.19-7.576 4.777-9.845 7.43l1.521 1.3zm8.888-6.81a7.983 7.983 0 013.395-.22l.299-1.978a9.983 9.983 0 00-4.245.275l.551 1.922zm3.395-.22a7.982 7.982 0 013.179 1.213l1.095-1.673a9.98 9.98 0 00-3.975-1.518l-.299 1.978zm3.207 1.231c3.473 2.111 5.849 6.122 6.377 8.857l1.963-.378c-.628-3.26-3.32-7.768-7.301-10.188l-1.039 1.71zm6.376 8.854c.395 2.084.795 8.06 1.04 14.32.243 6.243.326 12.601.115 15.416l1.994.15c.221-2.946.132-9.414-.111-15.644-.242-6.213-.644-12.354-1.073-14.615l-1.965.373zm1.155 29.736c-.15 1.998-1.809 3.83-5.564 5.053l.619 1.902c4.033-1.313 6.697-3.583 6.939-6.805l-1.994-.15zm-5.554 5.05c-1.819.57-3.696.935-5.596 1.09l.163 1.993a27.726 27.726 0 006.031-1.175l-.598-1.909zm-5.588 1.09c-.188.013-2.561.197-5.186.197v2c2.704 0 5.139-.19 5.332-.203l-.146-1.995z" fill="#fff" fill-opacity=".8" mask="url(#c)"/><mask id="d" maskUnits="userSpaceOnUse" x="180.312" y="29.364" width="26" height="55" fill="#000"><path fill="#fff" d="M180.312 29.364h26v55h-26z"/><path d="M192.111 82.913a10.059 10.059 0 01-4.756-1.278c-2.096-1.165-4.817-3.765-4.933-3.873a.196.196 0 01.21-.326.19.19 0 01.064.042c.028.028 2.795 2.675 4.85 3.817 1.104.615 4.015 1.92 7.16.77 2.949-1.082 5.343-4.009 7.118-8.707 4.714-12.468 1.398-31.088-.354-36.458-.932-2.931-1.966-4.409-3.387-4.945-1.421-.536-3.261-.093-5.641 1.329-5.59 3.318-10.715 11.009-10.766 11.083a.2.2 0 01-.126.085.197.197 0 01-.204-.083.202.202 0 01-.001-.22c.052-.08 5.213-7.845 10.892-11.187 2.511-1.487 4.467-1.93 5.981-1.356 1.514.573 2.632 2.14 3.625 5.197 1.756 5.406 5.101 24.148.344 36.718-1.816 4.81-4.29 7.816-7.351 8.935a7.943 7.943 0 01-2.725.457z"/></mask><path d="M192.111 82.913a10.059 10.059 0 01-4.756-1.278c-2.096-1.165-4.817-3.765-4.933-3.873a.196.196 0 01.21-.326.19.19 0 01.064.042c.028.028 2.795 2.675 4.85 3.817 1.104.615 4.015 1.92 7.16.77 2.949-1.082 5.343-4.009 7.118-8.707 4.714-12.468 1.398-31.088-.354-36.458-.932-2.931-1.966-4.409-3.387-4.945-1.421-.536-3.261-.093-5.641 1.329-5.59 3.318-10.715 11.009-10.766 11.083a.2.2 0 01-.126.085.197.197 0 01-.204-.083.202.202 0 01-.001-.22c.052-.08 5.213-7.845 10.892-11.187 2.511-1.487 4.467-1.93 5.981-1.356 1.514.573 2.632 2.14 3.625 5.197 1.756 5.406 5.101 24.148.344 36.718-1.816 4.81-4.29 7.816-7.351 8.935a7.943 7.943 0 01-2.725.457z" fill="#fff" fill-opacity=".8"/><path d="M192.111 82.913l-.015 1h.006l.009-1zm-4.756-1.278l.488-.872-.002-.002-.486.874zm-4.933-3.873l-.696.719.009.009.009.008.678-.736zm.274-.284l.708-.707-.006-.006-.006-.006-.696.719zm4.85 3.817l.487-.873h-.001l-.486.873zm7.16.77l.344.938-.344-.939zm7.118-8.707l-.935-.354.935.354zM201.47 36.9l-.953.303.002.008.951-.31zm-9.028-3.616l.51.86.003-.002-.513-.858zm-10.766 11.083l-.824-.566-.005.007-.005.007.834.552zm-.331-.219l.834.552.006-.009-.84-.543zm10.892-11.186l.507.862.002-.002-.509-.86zm9.606 3.84l-.952.31h.001l.951-.31zm.344 36.719l-.935-.354.935.354zm-7.351 8.935l.335.942.009-.003-.344-.94zm-2.71-.543a9.058 9.058 0 01-4.283-1.15l-.976 1.745c1.6.894 3.397 1.377 5.229 1.404l.03-2zm-4.285-1.151c-1.967-1.094-4.584-3.59-4.742-3.735l-1.355 1.471.012.01.032.031.111.104.374.345c.311.283.737.663 1.227 1.078.966.817 2.231 1.811 3.369 2.444l.972-1.749zm-4.724-3.718a.79.79 0 01.178.257l-1.835.796c.063.144.153.275.266.384l1.391-1.437zm.178.257c.042.097.064.2.066.306l-2 .033c.003.157.037.313.099.457l1.835-.796zm.066.306a.79.79 0 01-.056.308l-1.86-.735a1.204 1.204 0 00-.084.46l2-.033zm-.056.308a.794.794 0 01-.169.263l-1.438-1.39a1.208 1.208 0 00-.253.392l1.86.735zm-.169.263a.806.806 0 01-.257.178l-.797-1.834a1.196 1.196 0 00-.384.266l1.438 1.39zm-.257.178a.806.806 0 01-.307.066l-.033-2a1.197 1.197 0 00-.457.1l.797 1.834zm-.307.066a.8.8 0 01-.308-.056l.735-1.86a1.198 1.198 0 00-.46-.083l.033 2zm-.308-.056a.807.807 0 01-.263-.17l1.391-1.437a1.203 1.203 0 00-.393-.253l-.735 1.86zm-.275-.181c.037.037.757.725 1.725 1.546.96.815 2.228 1.817 3.346 2.438l.972-1.748c-.936-.52-2.079-1.413-3.024-2.215-.936-.794-1.614-1.444-1.604-1.435l-1.415 1.414zm5.07 3.984c1.178.656 4.425 2.14 7.991.834l-.688-1.878c-2.724.998-5.299-.129-6.329-.703l-.974 1.747zm7.991.834c3.349-1.228 5.892-4.482 7.709-9.292l-1.87-.707c-1.733 4.587-3.979 7.187-6.527 8.121l.688 1.878zm7.709-9.291c2.432-6.432 2.773-14.372 2.311-21.311-.464-6.949-1.743-13.03-2.649-15.81l-1.902.62c.845 2.59 2.1 8.502 2.555 15.323.455 6.83.097 14.434-2.185 20.47l1.87.707zm-.336-37.114c-.943-2.969-2.099-4.866-3.987-5.578l-.706 1.871c.954.36 1.867 1.418 2.787 4.312l1.906-.605zm-3.987-5.578c-1.875-.708-4.074-.048-6.507 1.405l1.026 1.717c2.327-1.39 3.808-1.616 4.775-1.251l.706-1.871zm-6.505 1.404c-2.941 1.746-5.706 4.601-7.712 6.972a56.82 56.82 0 00-3.115 4.038c-.157.225-.256.373-.252.367l1.648 1.133c.024-.035 1.294-1.94 3.245-4.246 1.966-2.323 4.558-4.972 7.207-6.544l-1.021-1.72zm-11.089 11.391a.805.805 0 01.22-.222l1.119 1.658c.131-.088.242-.2.329-.332l-1.668-1.104zm.22-.222a.81.81 0 01.289-.12l.399 1.96c.154-.032.301-.094.431-.182l-1.119-1.658zm.289-.12a.802.802 0 01.313-.002l-.382 1.963c.155.03.314.03.468-.002l-.399-1.96zm.313-.002c.103.02.202.06.29.118l-1.105 1.668c.131.087.278.147.433.177l.382-1.963zm.29.118a.816.816 0 01.222.22l-1.659 1.119c.088.13.201.242.332.329l1.105-1.668zm.222.22a.815.815 0 01.12.289l-1.959.398c.031.155.092.301.18.432l1.659-1.118zm.12.289c.021.103.022.21.002.313l-1.963-.382c-.031.155-.03.313.002.467l1.959-.398zm.002.313a.8.8 0 01-.119.289l-1.668-1.104a1.208 1.208 0 00-.176.433l1.963.382zm-.113.28s.321-.483.892-1.263a54.84 54.84 0 012.367-3.003c1.986-2.344 4.609-5.017 7.3-6.601L191.73 32.1c-2.987 1.758-5.785 4.639-7.812 7.032-2.039 2.408-3.368 4.405-3.412 4.473l1.679 1.086zm10.561-10.869c2.448-1.449 4.05-1.686 5.118-1.281l.709-1.87c-1.96-.742-4.271-.094-6.846 1.43l1.019 1.721zm5.118-1.281c1.056.4 2.05 1.559 3.027 4.57l1.903-.617c-1.007-3.103-2.25-5.077-4.221-5.823l-.709 1.87zm3.028 4.57c.847 2.61 2.111 8.563 2.567 15.43.458 6.878.097 14.538-2.207 20.626l1.871.708c2.452-6.483 2.797-14.478 2.332-21.466-.465-6.997-1.753-13.118-2.661-15.915l-1.902.618zm.36 36.057c-1.773 4.693-4.097 7.375-6.759 8.349l.687 1.878c3.458-1.264 6.082-4.594 7.943-9.52l-1.871-.707zm-6.75 8.345a6.951 6.951 0 01-2.382.4l-.018 2a8.955 8.955 0 003.069-.515l-.669-1.885z" fill="#fff" fill-opacity=".8" mask="url(#d)"/><path d="M202.494 72.687a.202.202 0 01-.125-.055.201.201 0 01.079-.337c.07 0 7.015-1.757 9.517-13.479 2.446-11.456 1.542-18.205-.121-20.704a1.796 1.796 0 00-1.002-.848c-1.458-.27-6.088 3.407-7.751 4.847a.204.204 0 01-.152.072.2.2 0 01-.193-.144.205.205 0 01-.007-.085.226.226 0 01.03-.08.209.209 0 01.061-.06c.629-.546 6.182-5.295 8.087-4.941.537.16.989.528 1.258 1.02 1.705 2.564 2.65 9.43.177 21.007-1.337 6.25-3.923 9.662-5.856 11.424-2.11 1.92-3.885 2.33-3.96 2.363h-.042z" fill="#fff" fill-opacity=".8"/><path d="M201.92 72.105h0a.699.699 0 00.543 1.08l.016.002h.162l.073-.032a.97.97 0 01.015-.005l.057-.017a8.533 8.533 0 001.184-.47c.756-.365 1.768-.974 2.863-1.97h0c2.012-1.834 4.649-5.339 6.008-11.688h0c1.243-5.82 1.631-10.473 1.489-14.009-.141-3.503-.806-5.964-1.727-7.362a2.63 2.63 0 00-1.542-1.24l-.026-.008-.027-.005c-.348-.065-.731-.007-1.099.1a7.087 7.087 0 00-1.197.491c-.83.42-1.746 1.014-2.607 1.626a52.219 52.219 0 00-3.584 2.82.7.7 0 00-.277.465l.495.07-.495-.07a.698.698 0 00.167.56h0a.695.695 0 00.824.173.691.691 0 00.203-.144 49.179 49.179 0 013.889-3.014c.765-.527 1.51-.99 2.145-1.305.317-.157.595-.27.825-.337.209-.06.346-.071.424-.064.292.11.534.322.683.597l.011.021.013.02c.755 1.134 1.391 3.335 1.518 6.734.126 3.38-.253 7.89-1.47 13.588h0c-1.231 5.768-3.545 9.043-5.521 10.873-.991.916-1.903 1.476-2.565 1.805a7.025 7.025 0 01-.782.335 3.425 3.425 0 01-.206.067l-.013.003h-.017l-.072.023a.701.701 0 00-.38.287z" stroke="#fff" stroke-opacity=".8"/><mask id="e" maskUnits="userSpaceOnUse" x="209.211" y="32.4" width="12" height="34" fill="#000"><path fill="#fff" d="M209.211 32.4h12v34h-12z"/><path d="M210.809 64.558a3.24 3.24 0 01-.424-.028.198.198 0 01-.132-.076.196.196 0 01-.04-.147.2.2 0 01.223-.172c1.267.162 3.089-.546 4.659-1.81 1.462-1.192 3.969-3.942 4.337-8.962.582-7.924-.247-15.847-1.398-18.91-.154-.41-.359-.624-.638-.652-1.323-.14-3.848 3.482-4.715 4.88a.187.187 0 01-.123.088.197.197 0 01-.212-.298c.331-.536 3.308-5.243 5.092-5.066a1.19 1.19 0 01.969.909c1.155 3.113 1.994 11.102 1.397 19.077-.382 5.169-2.972 8.012-4.481 9.242-1.51 1.23-3.182 1.925-4.514 1.925z"/></mask><path d="M210.809 64.558a3.24 3.24 0 01-.424-.028.198.198 0 01-.132-.076.196.196 0 01-.04-.147.2.2 0 01.223-.172c1.267.162 3.089-.546 4.659-1.81 1.462-1.192 3.969-3.942 4.337-8.962.582-7.924-.247-15.847-1.398-18.91-.154-.41-.359-.624-.638-.652-1.323-.14-3.848 3.482-4.715 4.88a.187.187 0 01-.123.088.197.197 0 01-.212-.298c.331-.536 3.308-5.243 5.092-5.066a1.19 1.19 0 01.969.909c1.155 3.113 1.994 11.102 1.397 19.077-.382 5.169-2.972 8.012-4.481 9.242-1.51 1.23-3.182 1.925-4.514 1.925z" fill="#fff" fill-opacity=".8"/><path d="M210.809 64.558l-.001 1h.001v-1zm-.424-.028l-.132.992h.001l.131-.992zm-.172-.223l-.992-.132-.001.007.993.125zm.223-.173l.128-.992h-.003l-.125.992zm4.659-1.808l.626.779.006-.004-.632-.775zm4.337-8.963l-.998-.073.998.073zm-1.398-18.91l-.936.352.936-.351zm-.638-.652l-.105.995h.005l.1-.995zm-4.715 4.88l.849.53.002-.003-.851-.527zm-.335-.21l.848.53.003-.004-.851-.526zm5.092-5.066l.162-.987-.032-.005-.031-.003-.099.995zm.969.909l-.975.225.015.063.022.06.938-.348zm1.397 19.077l-.997-.075v.001l.997.074zm-8.995 10.167c-.098 0-.196-.006-.293-.02l-.262 1.984c.184.024.369.036.554.036l.001-2zm-.292-.019a.8.8 0 01.528.305l-1.585 1.22c.194.251.479.416.793.458l.264-1.983zm.528.305a.8.8 0 01.16.587l-1.985-.25c-.039.315.047.632.24.883l1.585-1.22zm.159.594a.798.798 0 01-.305.528l-1.221-1.584a1.202 1.202 0 00-.457.793l1.983.263zm-.305.528a.798.798 0 01-.588.16l.25-1.984a1.201 1.201 0 00-.883.24l1.221 1.584zm-.591.16c.857.11 1.805-.08 2.706-.43.914-.354 1.85-.901 2.707-1.591l-1.253-1.558a8.428 8.428 0 01-2.178 1.286c-.72.279-1.316.362-1.726.31l-.256 1.983zm5.419-2.025c1.617-1.32 4.309-4.304 4.702-9.665l-1.995-.146c-.343 4.679-2.664 7.194-3.972 8.26l1.265 1.55zm4.702-9.665a75.032 75.032 0 00-.05-11.433c-.28-3.376-.783-6.236-1.409-7.901l-1.872.704c.525 1.396 1.012 4.03 1.288 7.362a73.15 73.15 0 01.048 11.122l1.995.146zm-1.459-19.333c-.199-.533-.619-1.211-1.475-1.297l-.199 1.99a.44.44 0 01-.251-.115c-.015-.015-.014-.019-.002.002a.93.93 0 01.055.122l1.872-.702zm-1.469-1.296c-.402-.043-.77.063-1.061.194a4.081 4.081 0 00-.834.52c-.512.401-1.029.942-1.5 1.495a28.275 28.275 0 00-2.275 3.138l1.701 1.054a25.984 25.984 0 012.097-2.895c.433-.51.85-.936 1.211-1.218.179-.14.319-.225.418-.269.103-.046.104-.023.033-.03l.21-1.99zm-5.668 5.344a.805.805 0 01.215-.228l1.161 1.628c.129-.091.237-.207.321-.34l-1.697-1.06zm.215-.228a.806.806 0 01.285-.128l.45 1.948c.154-.035.298-.1.426-.192l-1.161-1.628zm.285-.128a.803.803 0 01.313-.01l-.33 1.973c.155.026.314.02.467-.015l-.45-1.948zm.313-.01a.802.802 0 01.293.111l-1.06 1.696c.133.083.282.14.437.166l.33-1.973zm.293.111c.09.056.167.129.228.215l-1.629 1.16a1.2 1.2 0 00.341.321l1.06-1.696zm.228.215a.792.792 0 01.128.285l-1.948.45c.035.153.1.298.191.426l1.629-1.161zm.128.285a.803.803 0 01.01.313l-1.973-.33c-.025.154-.021.313.015.467l1.948-.45zm.01.313a.794.794 0 01-.111.292l-1.696-1.06c-.083.134-.14.283-.166.438l1.973.33zm-.108.288c.157-.254.956-1.52 1.921-2.69.485-.587.984-1.115 1.44-1.477.227-.18.418-.3.57-.367.154-.069.217-.062.211-.063l.198-1.99c-.864-.086-1.659.406-2.223.853-.614.488-1.215 1.137-1.738 1.771a28.653 28.653 0 00-2.081 2.912l1.702 1.05zm4.079-4.605a.193.193 0 01.1.05l1.369-1.46a2.197 2.197 0 00-1.145-.564l-.324 1.974zm.1.05c.028.026.048.06.056.097l1.949-.45a2.195 2.195 0 00-.636-1.106l-1.369 1.458zm.093.22c.529 1.425 1.019 4.089 1.297 7.45a73.25 73.25 0 01.041 11.204l1.994.15a75.175 75.175 0 00-.042-11.519c-.281-3.406-.788-6.292-1.415-7.981l-1.875.696zm1.338 18.655c-.357 4.828-2.761 7.437-4.116 8.541l1.264 1.55c1.664-1.356 4.439-4.434 4.847-9.943l-1.995-.148zm-4.116 8.541c-1.4 1.142-2.856 1.7-3.882 1.7v2c1.638 0 3.527-.83 5.146-2.15l-1.264-1.55z" fill="#fff" fill-opacity=".8" mask="url(#e)"/><path d="M6.453 78.243a.2.2 0 01-.135-.056c-2.641-2.485-.097-9.686 2.45-13.764a.198.198 0 11.336.21c-2.58 4.13-4.887 11.037-2.515 13.27a.196.196 0 01-.136.34z" fill="#fff" fill-opacity=".8"/><path d="M5.974 78.55c-.781-.736-1.145-1.788-1.244-2.946-.099-1.16.062-2.477.381-3.817.639-2.68 1.935-5.55 3.234-7.629L5.974 78.55zm0 0a.7.7 0 00.47.193h.001a.695.695 0 00.658-.44l-.465-.184.465.185a.696.696 0 00-.173-.767c-.466-.44-.741-1.147-.813-2.107-.072-.956.064-2.102.359-3.335.588-2.464 1.787-5.173 3.052-7.197h0a.698.698 0 00-1.183-.74L5.974 78.55z" stroke="#fff" stroke-opacity=".8"/><path d="M14.06 89.27c-2.287 0-2.706-1.785-2.986-2.969-.102-.438-.219-.932-.382-.932h-.186a3.675 3.675 0 01-2.86-.932c-.983-.983-1.45-2.736-1.398-5.21.168-6.428 4.267-12.585 4.309-12.655a.2.2 0 01.203-.085.197.197 0 01.157.232.2.2 0 01-.03.072c-.041.06-4.075 6.134-4.243 12.444-.06 2.363.363 4.018 1.267 4.918a3.261 3.261 0 002.572.815h.2c.466 0 .61.573.768 1.235.27 1.147.643 2.713 2.702 2.662 3.261-.08 4.845-1.78 4.86-1.795a.198.198 0 11.293.266c-.07.075-1.71 1.841-5.125 1.925l-.12.01z" fill="#fff" fill-opacity=".8"/><path d="M14.08 89.77h-.02c-1.302 0-2.131-.521-2.652-1.25-.483-.673-.677-1.495-.813-2.07l-.008-.034h0a7.219 7.219 0 00-.14-.54 4.174 4.174 0 01-3.137-1.069L7.3 84.8l-.008-.009c-1.132-1.132-1.596-3.063-1.544-5.574v-.003h0c.086-3.307 1.181-6.522 2.245-8.902a33.076 33.076 0 011.463-2.884c.392-.688.68-1.125.672-1.112l.006-.01.006-.01a.698.698 0 01.192-.193l3.747 23.668zm0 0l.019-.001.108-.009-.128.01zm-3.32-23.284l.096-.49c.09.017.175.052.252.103l-.348.387zm0 0l.096-.49m-.096.49l.096-.49m-.273 0a.698.698 0 00-.251.106l.251-.105zm0 0a.696.696 0 01.273 0m-.273 0h.273m7.79 20.734a3.01 3.01 0 01-.255.227c-.18.145-.456.344-.83.547-.743.403-1.877.823-3.42.86h0c-.874.023-1.322-.286-1.605-.675-.315-.433-.458-1.009-.598-1.6v-.002l-.003-.013c-.075-.31-.162-.677-.306-.962-.155-.307-.443-.644-.946-.644h-.23l-.03.004a2.759 2.759 0 01-2.168-.682c-.745-.75-1.17-2.218-1.111-4.542.081-3.062 1.103-6.088 2.125-8.375a31.535 31.535 0 011.396-2.751 24.406 24.406 0 01.633-1.045v-.002h.001l.006-.008a.699.699 0 00-.004-.776l7.345 20.439zM10.97 66.85l.002-.001v-.002s0 0 0 0h.001s0 0 0 0l-.001.002-.002.002z" stroke="#fff" stroke-opacity=".8"/><mask id="f" maskUnits="userSpaceOnUse" x="17.939" y="70.169" width="18" height="28" fill="#000"><path fill="#fff" d="M17.939 70.169h18v28h-18z"/><path d="M25.367 96.471a3.57 3.57 0 01-.932-.13c-2.287-.63-4.067-3.43-4.747-5.77-2.203-7.537 1.155-19.143 1.188-19.26a.2.2 0 01.247-.134.2.2 0 01.135.247c-.033.116-3.354 11.61-1.188 19.035.652 2.237 2.33 4.912 4.472 5.5 1.197.33 2.385-.047 3.531-1.124a74.086 74.086 0 001.696-1.659c1.43-1.44 2.562-2.577 3.969-3.044a.2.2 0 01.26.282.203.203 0 01-.134.096c-1.319.438-2.418 1.547-3.815 2.95-.532.532-1.077 1.082-1.706 1.669a4.35 4.35 0 01-2.976 1.342z"/></mask><path d="M25.367 96.471a3.57 3.57 0 01-.932-.13c-2.287-.63-4.067-3.43-4.747-5.77-2.203-7.537 1.155-19.143 1.188-19.26a.2.2 0 01.247-.134.2.2 0 01.135.247c-.033.116-3.354 11.61-1.188 19.035.652 2.237 2.33 4.912 4.472 5.5 1.197.33 2.385-.047 3.531-1.124a74.086 74.086 0 001.696-1.659c1.43-1.44 2.562-2.577 3.969-3.044a.2.2 0 01.26.282.203.203 0 01-.134.096c-1.319.438-2.418 1.547-3.815 2.95-.532.532-1.077 1.082-1.706 1.669a4.35 4.35 0 01-2.976 1.342z" fill="#fff" fill-opacity=".8"/><path d="M24.435 96.34l.268-.963H24.7l-.265.964zm-4.747-5.77l.96-.278v-.002l-.96.28zm1.188-19.258l-.96-.28-.003.01.963.27zm.382.112l-.96-.281-.003.011.963.27zM20.07 90.459l.96-.28-.96.28zm4.472 5.5l.267-.964h-.003l-.264.964zm3.531-1.124l.685.73v-.001l-.685-.729zm1.696-1.659l.707.707.003-.002-.71-.705zm3.969-3.044l.315.95.058-.02.055-.026-.428-.904zm.126.378l-.2-.98-.06.012-.056.019.316.949zm-3.815 2.95l.707.707h.001l-.709-.707zm-1.706 1.669l-.682-.73-.02.019-.02.02.723.69zm-2.97.342a2.571 2.571 0 01-.67-.094l-.536 1.927c.388.108.79.165 1.193.167l.014-2zm-.673-.094c-.851-.235-1.7-.907-2.445-1.886a10.142 10.142 0 01-1.607-3.2l-1.92.559a12.139 12.139 0 001.935 3.853c.887 1.165 2.071 2.207 3.507 2.602l.53-1.928zm-4.052-5.087c-1.038-3.552-.779-8.158-.215-11.986.559-3.794 1.393-6.676 1.406-6.723l-1.926-.539-.044.155-.11.411c-.093.352-.221.854-.366 1.475a61.346 61.346 0 00-.939 4.93c-.573 3.888-.89 8.853.274 12.838l1.92-.561zm1.188-18.697a.801.801 0 01-.145.277l-1.558-1.254a1.2 1.2 0 00-.217.415l1.92.562zm-.145.277a.801.801 0 01-.24.2l-.96-1.754a1.2 1.2 0 00-.358.3l1.558 1.254zm-.24.2a.8.8 0 01-.298.094l-.215-1.988a1.198 1.198 0 00-.447.14l.96 1.754zm-.298.094a.8.8 0 01-.311-.028l.562-1.919a1.198 1.198 0 00-.466-.041l.215 1.988zm-.311-.028a.802.802 0 01-.277-.144l1.254-1.558a1.2 1.2 0 00-.415-.217l-.562 1.92zm-.277-.144a.802.802 0 01-.2-.24l1.754-.96a1.201 1.201 0 00-.3-.358l-1.254 1.558zm-.2-.24a.802.802 0 01-.094-.298l1.988-.215a1.2 1.2 0 00-.14-.447l-1.755.96zm-.094-.298a.801.801 0 01.027-.311l1.92.561a1.2 1.2 0 00.041-.465l-1.988.215zm.024-.3l-.043.154a52.101 52.101 0 00-.472 1.868 61 61 0 00-.93 4.879c-.568 3.845-.886 8.754.26 12.684l1.92-.56c-1.02-3.496-.76-8.046-.201-11.832.554-3.753 1.379-6.607 1.392-6.654l-1.926-.539zM19.11 90.74a11.82 11.82 0 001.838 3.69c.837 1.112 1.96 2.119 3.33 2.494l.529-1.929c-.774-.212-1.56-.837-2.26-1.768a9.825 9.825 0 01-1.517-3.047l-1.92.56zm5.166 6.183c1.624.45 3.16-.115 4.482-1.358l-1.37-1.457c-.968.91-1.81 1.1-2.58.888l-.532 1.927zm4.482-1.358a75.166 75.166 0 001.718-1.681l-1.414-1.414a73.209 73.209 0 01-1.674 1.638l1.37 1.457zm1.72-1.683c1.483-1.493 2.44-2.424 3.575-2.8l-.63-1.898c-1.68.557-2.985 1.9-4.364 3.288l1.42 1.41zm3.688-2.845a.8.8 0 01-.327.077l-.038-2a1.2 1.2 0 00-.49.116l.855 1.807zm-.327.077a.8.8 0 01-.33-.064l.786-1.84a1.2 1.2 0 00-.494-.096l.038 2zm-.33-.064a.8.8 0 01-.274-.194l1.472-1.355a1.2 1.2 0 00-.412-.29l-.786 1.839zm-.274-.194a.8.8 0 01-.17-.289l1.897-.632a1.201 1.201 0 00-.255-.433l-1.472 1.354zm-.17-.289a.8.8 0 01-.037-.333l1.99.202a1.2 1.2 0 00-.056-.5l-1.897.631zm-.037-.333a.8.8 0 01.103-.319l1.732 1c.085-.147.138-.31.155-.48l-1.99-.2zm.103-.319a.8.8 0 01.225-.249l1.17 1.622a1.2 1.2 0 00.337-.373l-1.732-1zm.225-.249a.8.8 0 01.307-.135l.401 1.96c.167-.034.324-.103.462-.203l-1.17-1.622zm.192-.104c-1.592.53-2.87 1.85-4.208 3.194l1.417 1.411c1.457-1.462 2.378-2.36 3.422-2.707l-.63-1.898zm-4.207 3.192c-.535.536-1.066 1.072-1.68 1.645l1.365 1.462c.644-.602 1.203-1.165 1.73-1.693l-1.415-1.414zm-1.72 1.685a3.35 3.35 0 01-2.293 1.034l.078 1.999a5.35 5.35 0 003.66-1.651l-1.446-1.382z" fill="#fff" fill-opacity=".8" mask="url(#f)"/><path d="M42.164 97.352c-1.57 0-3.344-.648-5.264-2.54a16.408 16.408 0 01-4.868-14.006.198.198 0 11.387.08 16.008 16.008 0 004.76 13.628c4.431 4.38 7.948 1.818 10.044.284.243-.177.466-.336.653-.466 2.254-1.505 7.272-4.39 10.113-4.54a.198.198 0 010 .396c-2.758.145-7.69 2.988-9.918 4.475-.19.126-.405.284-.638.466-1.188.89-3.014 2.223-5.269 2.223z" fill="#fff" fill-opacity=".8"/><path d="M36.551 95.17a16.907 16.907 0 01-5.014-14.43l.002-.018.003-.016a.697.697 0 01.824-.544M36.55 95.17l-4.185-15.008M36.55 95.17c1.993 1.964 3.888 2.682 5.613 2.682 2.442 0 4.392-1.44 5.569-2.323h0l.008-.006c.228-.178.43-.327.605-.443l.003-.001a44.31 44.31 0 014.703-2.708c1.851-.912 3.688-1.614 4.955-1.683a.698.698 0 00.476-.204l-.354-.354.354.354a.698.698 0 000-.987l-.354.353.354-.353a.698.698 0 00-.494-.205h-.026c-1.532.081-3.578.884-5.47 1.813a45.46 45.46 0 00-4.895 2.811h0l-.01.006a39.88 39.88 0 00-.66.472h0c-1.06.776-2.373 1.724-3.934 1.987-1.51.254-3.342-.126-5.462-2.223h0l-.005-.004a15.502 15.502 0 01-4.614-13.191M36.55 95.17l-3.638-14.207m-.547-.8a.697.697 0 01.547.8m-.547-.8l.547.8M48.136 94.76l.022-.015-.64.457a37.706 37.706 0 01.618-.442z" stroke="#fff" stroke-opacity=".8"/><path d="M68.903 95.856a14.202 14.202 0 01-6.801-1.636c-6.242-3.435-6.159-11.055-6.159-11.13a.196.196 0 01.2-.196.195.195 0 01.196.2c0 .075-.079 7.458 5.954 10.777 3.321 1.827 7.873 2.097 11.87.699 3.312-1.156 5.762-3.29 6.899-6.008a.2.2 0 01.363.154c-1.178 2.82-3.727 5.033-7.137 6.227a16.432 16.432 0 01-5.385.913z" fill="#fff" fill-opacity=".8"/><path d="M56.84 83.101c-.001.122 0 1.882.69 4.011.71 2.195 2.136 4.743 5.004 6.32 3.182 1.75 7.584 2.023 11.464.666h0c3.206-1.12 5.531-3.168 6.602-5.73l.018-.04.024-.038a.7.7 0 01.86-.264l-.194.46.195-.46a.7.7 0 01.41.802l-.01.041-.017.04c-1.243 2.975-3.917 5.275-7.432 6.505h-.001c-1.784.622-3.658.94-5.546.942-2.45.03-4.87-.551-7.038-1.694l-.008-.004h0c-3.27-1.799-4.871-4.69-5.655-7.109a16.239 16.239 0 01-.675-3.114 13.921 13.921 0 01-.087-1.238v-.107a.695.695 0 01.706-.696.695.695 0 01.641.441m.048.266l-.048-.266m.048.266a.694.694 0 00-.048-.266m.048.266l-.048-.266m-.847.334s0 0 0 0v-.076.076z" stroke="#fff" stroke-opacity=".8"/><mask id="g" maskUnits="userSpaceOnUse" x="82.207" y="85.965" width="28" height="13" fill="#000"><path fill="#fff" d="M82.207 85.965h28v13h-28z"/><path d="M95.206 97.208h-.718c-9.694-.313-10.276-8.39-10.281-8.474a.2.2 0 01.396 0 9.045 9.045 0 001.398 3.943c1.714 2.629 4.57 4.027 8.487 4.153 9.489.308 13.393-5.62 13.696-9.68a.2.2 0 01.287-.164.201.201 0 01.109.191c-.293 4.074-4.118 10.03-13.374 10.03z"/></mask><path d="M95.206 97.208h-.718c-9.694-.313-10.276-8.39-10.281-8.474a.2.2 0 01.396 0 9.045 9.045 0 001.398 3.943c1.714 2.629 4.57 4.027 8.487 4.153 9.489.308 13.393-5.62 13.696-9.68a.2.2 0 01.287-.164.201.201 0 01.109.191c-.293 4.074-4.118 10.03-13.374 10.03z" fill="#fff" fill-opacity=".8"/><path d="M94.488 97.208l-.032 1h.032v-1zm-10.281-8.474l-.988-.152-.016.103.006.105.998-.056zm.396 0l.994-.107-.002-.022-.004-.023-.988.152zm1.398 3.943l-.84.543.002.004.838-.547zm8.487 4.153l.033-1-.033 1zm13.696-9.68l.997.074.001-.004-.998-.07zm.396.027l.997.072.001-.001-.998-.07zm-13.374 9.03h-.718v2h.718v-2zm-.686.001c-4.516-.145-6.787-2.07-7.97-3.871-1.223-1.863-1.347-3.705-1.344-3.658l-1.997.11c.007.131.176 2.37 1.669 4.645 1.533 2.336 4.4 4.606 9.578 4.773l.064-1.999zm-9.325-7.322a.8.8 0 01-.27.485l-1.302-1.517a1.2 1.2 0 00-.404.728l1.976.304zm-.27.485a.8.8 0 01-.52.193v-2a1.2 1.2 0 00-.782.29l1.303 1.517zm-.52.193a.8.8 0 01-.52-.193l1.302-1.517a1.2 1.2 0 00-.782-.29v2zm-.52-.193a.8.8 0 01-.27-.485l1.976-.304a1.2 1.2 0 00-.404-.728l-1.303 1.517zm-.276-.53c.168 1.561.7 3.061 1.552 4.38l1.68-1.087a8.045 8.045 0 01-1.244-3.507l-1.988.214zm1.554 4.383c1.937 2.97 5.14 4.472 9.293 4.606l.064-2c-3.682-.118-6.19-1.412-7.682-3.699l-1.675 1.093zm9.293 4.606c10.013.324 14.382-6 14.725-10.606l-1.994-.149c-.262 3.513-3.701 9.046-12.666 8.756l-.065 1.999zm14.726-10.61a.814.814 0 01-.083.301l-1.789-.893a1.185 1.185 0 00-.123.451l1.995.14zm-.083.301a.807.807 0 01-.191.248l-1.312-1.51a1.188 1.188 0 00-.286.37l1.789.892zm-.191.248a.808.808 0 01-.272.155l-.634-1.897c-.149.05-.287.128-.406.232l1.312 1.51zm-.272.155a.8.8 0 01-.31.039l.14-1.995a1.201 1.201 0 00-.464.059l.634 1.897zm-.31.039a.798.798 0 01-.302-.083l.894-1.789a1.2 1.2 0 00-.452-.123l-.14 1.995zm-.302-.083a.794.794 0 01-.247-.191l1.51-1.311a1.194 1.194 0 00-.369-.287l-.894 1.79zm-.247-.191a.796.796 0 01-.155-.272l1.897-.633a1.205 1.205 0 00-.232-.406l-1.51 1.31zm-.155-.272a.796.796 0 01-.04-.31l1.996.14a1.197 1.197 0 00-.059-.463l-1.897.633zm-.039-.311c-.256 3.55-3.644 9.102-12.377 9.102v2c9.779 0 14.04-6.361 14.371-10.959l-1.994-.143z" fill="#fff" fill-opacity=".8" mask="url(#g)"/><mask id="h" maskUnits="userSpaceOnUse" x="110.068" y="85.201" width="25" height="14" fill="#000"><path fill="#fff" d="M110.068 85.201h25v14h-25z"/><path d="M122.82 97.995h-1.006c-8.967-.405-10.109-7.793-10.542-10.57a6.57 6.57 0 00-.182-.933.19.19 0 01-.021-.08.195.195 0 01.059-.153.202.202 0 01.298.019c.018.022.03.047.037.075.094.332.161.672.2 1.016.415 2.694 1.524 9.843 10.165 10.254 5.208.237 8.082-1.427 9.578-2.862a7.3 7.3 0 002.017-3.202.2.2 0 01.387.088c-.028.024-1.589 6.348-10.99 6.348z"/></mask><path d="M122.82 97.995h-1.006c-8.967-.405-10.109-7.793-10.542-10.57a6.57 6.57 0 00-.182-.933.19.19 0 01-.021-.08.195.195 0 01.059-.153.202.202 0 01.298.019c.018.022.03.047.037.075.094.332.161.672.2 1.016.415 2.694 1.524 9.843 10.165 10.254 5.208.237 8.082-1.427 9.578-2.862a7.3 7.3 0 002.017-3.202.2.2 0 01.387.088c-.028.024-1.589 6.348-10.99 6.348z" fill="#fff" fill-opacity=".8"/><path d="M121.814 97.995l-.045 1h.045v-1zm-10.542-10.57l-.993.12.002.017.003.017.988-.154zm-.182-.933l.966-.261-.028-.1-.047-.094-.891.455zm.373-.14l-.97.243.004.015.004.015.962-.272zm.2 1.017l-.993.113.002.02.003.019.988-.152zm10.165 10.254l-.047.998h.001l.046-.998zm9.578-2.862l-.679-.734-.007.006-.007.006.693.722zm2.017-3.202l-.934-.358-.012.03-.009.032.955.296zm.387.088l.64.768.321-.267.035-.417-.996-.084zm-10.99 5.348h-1.006v2h1.006v-2zm-.961.001c-4.156-.188-6.39-1.963-7.678-3.942-1.331-2.045-1.703-4.387-1.921-5.784l-1.976.309c.215 1.381.63 4.122 2.22 6.566 1.634 2.51 4.454 4.632 9.265 4.85l.09-1.999zm-9.594-9.692a7.678 7.678 0 00-.209-1.073l-1.931.523c.07.26.122.524.154.79l1.986-.24zm-.284-1.267c.051.1.08.21.086.323l-1.997.103c.009.169.053.334.13.485l1.781-.91zm.086.323a.792.792 0 01-.053.33l-1.865-.722a1.197 1.197 0 00-.079.495l1.997-.103zm-.053.33a.79.79 0 01-.183.28l-1.407-1.422c-.12.119-.214.262-.275.42l1.865.722zm-.183.28a.798.798 0 01-.281.18l-.703-1.873a1.21 1.21 0 00-.423.27l1.407 1.422zm-.281.18a.802.802 0 01-.331.05l.125-1.997a1.201 1.201 0 00-.497.074l.703 1.873zm-.331.05a.792.792 0 01-.322-.091l.93-1.77a1.2 1.2 0 00-.483-.136l-.125 1.996zm-.322-.091a.79.79 0 01-.257-.214l1.573-1.235a1.204 1.204 0 00-.386-.322l-.93 1.77zm-.257-.214a.79.79 0 01-.147-.3l1.94-.484a1.209 1.209 0 00-.22-.451l-1.573 1.235zm-.139-.27c.079.28.136.567.169.857l1.987-.227a7.454 7.454 0 00-.232-1.174l-1.924.544zm.174.896c.206 1.341.608 4 2.146 6.375 1.581 2.44 4.31 4.505 8.96 4.725l.094-1.997c-3.992-.19-6.137-1.905-7.375-3.816-1.28-1.976-1.64-4.239-1.848-5.592l-1.977.305zm11.107 11.1c5.466.25 8.612-1.503 10.316-3.139l-1.385-1.443c-1.286 1.235-3.889 2.81-8.839 2.585l-.092 1.998zm10.303-3.126a8.299 8.299 0 002.293-3.64l-1.91-.592a6.308 6.308 0 01-1.741 2.764l1.358 1.468zm2.272-3.579a.797.797 0 01-.371.42l-.941-1.765c-.255.136-.452.36-.556.63l1.868.716zm-.371.42a.8.8 0 01-.555.074l.447-1.95a1.2 1.2 0 00-.833.111l.941 1.765zm-.555.074a.803.803 0 01-.467-.308l1.615-1.18a1.198 1.198 0 00-.701-.462l-.447 1.95zm-.467-.308a.803.803 0 01-.151-.539l1.993.168a1.2 1.2 0 00-.227-.808l-1.615 1.179zm.205-1.223c-.157.131-.232.28-.235.285a1.02 1.02 0 00-.043.088c-.014.032-.023.057-.026.065a1.697 1.697 0 00-.032.1 6.057 6.057 0 01-.325.786 7.502 7.502 0 01-1.389 1.924c-1.369 1.383-3.849 2.868-8.299 2.868v2c4.951 0 7.953-1.676 9.72-3.461a9.518 9.518 0 001.758-2.439 7.997 7.997 0 00.439-1.067c.032-.099-.007.022.017-.055.003-.006 0 .002-.005.016l-.022.057a1.188 1.188 0 01-.043.086.974.974 0 01-.234.283l-1.281-1.536z" fill="#fff" fill-opacity=".8" mask="url(#h)"/><path d="M150.166 97.674c-5.125 0-8.567-1.986-10.431-6.031a.199.199 0 01.359-.168c2.129 4.61 6.182 6.4 12.764 5.635 5.064-.587 10.477-2.745 12.252-14.281a.196.196 0 01.079-.13.196.196 0 01.276.043.198.198 0 01.036.147c-1.444 9.388-5.208 13.755-12.577 14.617a23.78 23.78 0 01-2.758.168z" fill="#fff" fill-opacity=".8"/><path d="M150.167 98.174h-.001c-2.626 0-4.859-.509-6.688-1.566-1.834-1.06-3.227-2.65-4.196-4.755a.696.696 0 01.337-.927h0a.698.698 0 01.534-.023h0a.697.697 0 01.394.36l.001.002c1.02 2.21 2.483 3.713 4.46 4.585 1.991.88 4.551 1.14 7.793.763h0c2.484-.288 4.98-.954 7.076-2.904 2.098-1.952 3.862-5.255 4.739-10.956h0a.698.698 0 01.277-.457m-14.726 15.878l14.726-15.878m-14.726 15.878c.941-.003 1.881-.06 2.815-.171l-2.815.17zm14.726-15.878a.698.698 0 01.976.151h0c.109.15.155.336.126.519l-1.102-.67zm-24.911 9.076c.05.018.09.055.112.103l-.454.21.095-.044a.194.194 0 01-.006-.15.196.196 0 01.253-.118z" stroke="#fff" stroke-opacity=".8"/><path d="M178.038 97.86c-2.427 0-3.969-1.244-5.869-2.796a27.785 27.785 0 00-4.626-3.188c-3.638-1.93-3.825-3.137-3.829-3.263a.2.2 0 01.396-.033c0 .033.218 1.147 3.624 2.95a28.076 28.076 0 014.691 3.23c2.115 1.702 3.638 2.932 6.377 2.653 3.685-.382 10.845-5.281 10.715-14.868a.199.199 0 01.055-.142.197.197 0 01.14-.059.187.187 0 01.143.054.192.192 0 01.058.142c.158 9.844-7.24 14.877-11.045 15.269a7.792 7.792 0 01-.83.051z" fill="#fff" fill-opacity=".8"/><path d="M178.042 98.36h-.004c-2.623 0-4.294-1.364-6.174-2.9l-.012-.01-.007-.005h0a27.286 27.286 0 00-4.54-3.13c-3.627-1.924-4.068-3.244-4.091-3.672a.7.7 0 01.64-.743l14.188 10.46zm0 0c.294-.002.588-.02.88-.054m-.88.054l.88-.054m0 0c2.051-.212 4.958-1.645 7.325-4.25 2.383-2.624 4.245-6.462 4.166-11.517 0-.09-.017-.18-.051-.264h0a.695.695 0 00-1.147-.221.696.696 0 00-.15.231s0 0 0 0l.465.183m-10.608 15.838l10.095-15.75v-.005m.513-.083a.216.216 0 00-.013.062v.015m.013-.077a.207.207 0 01.042-.065.197.197 0 01.14-.059.187.187 0 01.143.054c.019.019.034.04.044.065m-.369.005l.369-.005m-.382.082l-.104.001v-.019.019l-.396.005m.5-.006l-.104.002v.001c.002.035.009.07.022.103l.083-.033-.001-.072v-.001zm-.5.006c.063 4.659-1.642 8.16-3.798 10.544-2.171 2.401-4.774 3.644-6.467 3.82-2.511.257-3.885-.832-6.008-2.54a28.586 28.586 0 00-4.77-3.283h0l-.006-.003c-1.672-.886-2.529-1.585-2.96-2.041a2.373 2.373 0 01-.371-.483.717.717 0 01-.035-.075.7.7 0 00-.748-.59l25.163-5.349zm.896-.011l.104-.002s0 0 0 0v-.005.005h0l-.104.002zm0 0s0 0 0 0m0 0h0m-.014-.077a.198.198 0 01.014.072m-.014-.072l.014.072m0 0v.004m0-.004v.004m-26.301 6.088l-.001-.005h0l.001.005zm25.823-5.976l.083-.033v.15a.303.303 0 01-.083-.117z" stroke="#fff" stroke-opacity=".8"/><path d="M195.414 95.32c-.983 0-1.994-.578-3.084-1.757a26.67 26.67 0 00-4.155-3.542.187.187 0 01-.055-.055.202.202 0 01.053-.275.198.198 0 01.221-.001 27.066 27.066 0 014.23 3.603c1.052 1.141 1.984 1.673 2.897 1.626.815-.042 1.617-.582 2.39-1.612.219-.29.466-.574.671-.858 1.728-2.163 3.512-4.4 3.172-11.596a37.057 37.057 0 00-.615-5.407.2.2 0 01.295-.188.2.2 0 01.092.104c.341 1.806.55 3.635.624 5.472.35 7.346-1.565 9.746-3.261 11.862-.223.284-.466.564-.666.848-.843 1.128-1.747 1.725-2.683 1.771l-.126.005z" fill="#fff" fill-opacity=".8"/><path d="M195.423 95.82h-.009c-1.189 0-2.323-.698-3.448-1.915a26.16 26.16 0 00-4.072-3.47l7.529 5.385zm0 0h.01l.125-.005h.007c1.147-.057 2.172-.785 3.059-1.971h0l.008-.012c.125-.177.259-.343.406-.523.078-.095.158-.195.243-.302m-3.858 2.813l3.858-2.813m0 0c.85-1.061 1.799-2.245 2.476-4.11.675-1.862 1.069-4.369.893-8.085a38.224 38.224 0 00-.633-5.543l-.008-.045-.017-.043a.7.7 0 00-1.352.293l.002.033.006.032c.332 1.76.535 3.543.607 5.334v.003c.168 3.557-.191 5.845-.782 7.494-.589 1.644-1.419 2.688-2.282 3.767l-.008.01-.007.01c-.094.13-.2.263-.314.406l-.047.058c-.099.123-.204.253-.303.384l-.001.001c-.735.98-1.416 1.383-2.015 1.414l3.785-1.413zM187.6 89.994c.018.09.054.175.105.252l7.79 4.174c-.684.035-1.481-.357-2.504-1.466h0l-.006-.007a27.543 27.543 0 00-4.308-3.67h0l-.007-.004a.7.7 0 00-.968.197.694.694 0 00-.102.525l.49-.1-.49.1z" stroke="#fff" stroke-opacity=".8"/><path d="M202.02 88.78a2.836 2.836 0 01-.932-.144.197.197 0 11.14-.368c.079.028 1.863.685 3.018-1.31a10.23 10.23 0 011.743-2.083c1.164-1.165 2.268-2.265 2.268-4.195 0-.806-.037-7.989-1.304-11.032a.2.2 0 01.258-.248.2.2 0 01.11.094c1.3 3.114 1.337 10.366 1.337 11.186 0 2.088-1.211 3.3-2.385 4.47a9.77 9.77 0 00-1.677 2 2.887 2.887 0 01-2.576 1.63z" fill="#fff" fill-opacity=".8"/><path d="M205.643 84.514a10.7 10.7 0 00-1.819 2.178l-.006.008-.004.008c-.498.86-1.095 1.107-1.548 1.168a1.954 1.954 0 01-.867-.078.696.696 0 00-.877.94l.456-.205-.456.205a.7.7 0 00.388.366l.01.004.01.003a3.387 3.387 0 004.103-1.717 9.24 9.24 0 011.577-1.875l.008-.007.008-.008.026-.026c1.158-1.154 2.506-2.497 2.506-4.798 0-.416-.01-2.448-.183-4.77-.171-2.3-.508-4.968-1.193-6.608l-.009-.022-.011-.021a.699.699 0 00-1.252.033l-.867 15.222zm0 0c1.174-1.176 2.114-2.14 2.114-3.834 0-.397-.009-2.38-.175-4.64-.169-2.283-.492-4.763-1.091-6.2l-.009-.022-.007-.022a.702.702 0 01.035-.504l-.867 15.222z" stroke="#fff" stroke-opacity=".8"/></svg>