<svg xmlns="http://www.w3.org/2000/svg" viewBox="0 0 220 129" width="220" height="129">
	<g>
		<path fill="#fff" fill-opacity="0.8" d="M31.1,81.9L31.1,81.9c-1.1,0-2.1-0.5-3.1-1.4c-7-6.2-8.1-11.3-10.2-25.2c-2-12.9-0.5-18.9,1.3-20.2
			c0.4-0.4,2.6-2.4,6.5-0.2l0.8,0.5c4.7,2.6,11.8,6.5,14.3,9.9l0.1,0.2c0,0.1,0.1,0.2,0.1,0.3l0,0.1l-0.1,0.2c0,0.1-0.1,0.2-0.2,0.2
			l-0.1,0.1l-0.2,0.1c-0.1,0-0.2,0-0.3,0l-0.1,0l-0.2-0.1c-0.1-0.1-0.1-0.1-0.2-0.2c-2.4-3-9.3-6.9-13.9-9.5L24.9,36
			c-3.2-1.8-4.7-0.1-4.8,0L20,36.1l-0.1,0.1C19,36.7,17,41.3,19.1,55c2.1,13.5,3.1,18.5,9.8,24.4c0.9,0.8,1.7,1.1,2.4,1.1
			c1.4-0.1,2.6-1.8,3.6-3.2c0.4-0.5,0.8-1,1.1-1.5c2-2.3,3.9-2.7,4.3-2.7c0.2,0,0.4,0,0.5,0.2c0.1,0.1,0.2,0.3,0.2,0.5
			c0,0.2,0,0.4-0.2,0.5c-0.1,0.1-0.3,0.2-0.5,0.2c0,0-1.6,0.2-3.4,2.2c-0.3,0.3-0.6,0.7-0.9,1.2l-0.2,0.2c-1.2,1.7-2.6,3.6-4.6,3.8
			C31.4,81.9,31.3,81.9,31.1,81.9L31.1,81.9z M40.4,73.5C40.4,73.5,40.4,73.5,40.4,73.5C40.4,73.5,40.4,73.5,40.4,73.5z M39.9,45.8
			C39.9,45.8,39.9,45.8,39.9,45.8C39.9,45.8,39.9,45.8,39.9,45.8z"/>
		<path fill="#fff" fill-opacity="0.8" d="M57.6,83.4L57.6,83.4c-4.5,0-9-1.3-12.8-3.8c-7.2-4.7-7.2-11.8-6.8-25.1c0.5-13.2,6.4-18.8,10.3-19.3
			c2.4-0.3,4.6-0.2,7.2,1.5c1.9,1.2,4.5,3.3,7.3,5.6l1.7,1.4c1.1,0.9,2.3,1.6,3.6,2l0.1,0l0.2,0.1c0.1,0.1,0.1,0.2,0.2,0.3l0,0.1
			l0,0.2c0,0.1-0.1,0.2-0.2,0.3c-0.8,0.9-4.3-1.7-4.8-2.1l-1.8-1.5c-2.4-2-5.2-4.2-7-5.4c-1.9-1.2-4.1-1.7-6.3-1.3
			c-6.2,0.8-8.9,11.4-9.1,18c-0.5,12.7-0.4,19.6,6.2,23.9c6.5,4.3,16,4.8,19.8,1.1c0.1-0.1,0.3-0.2,0.5-0.2c0.2,0,0.4,0.1,0.5,0.2
			c0.1,0.1,0.2,0.3,0.2,0.5s-0.1,0.4-0.2,0.5C64.5,82.4,61.4,83.4,57.6,83.4z M66.1,80.3C66.1,80.3,66.1,80.3,66.1,80.3
			C66.1,80.3,66.1,80.3,66.1,80.3z M67.9,46.7C67.9,46.7,67.9,46.7,67.9,46.7C67.9,46.7,67.9,46.7,67.9,46.7z"/>
		<path fill="#fff" fill-opacity="0.8" d="M18.2,73.1c-0.5,0-1-0.1-1.4-0.2c-2.8-0.8-4.4-3.5-5.1-5l-0.1-0.3c-0.7-1.4-1.2-2.7-5.7-5.9c-8.3-6.1-4.8-24.6-4-28.2
			c0.3-1.3,1.4-2.7,2.8-2.8c0.9-0.1,2.1,0.3,3,2.3l0.4,1c1.2,2.8,1.4,3.2,2.5,3.8l0.6,0.3c2.5,1.2,6.2,3,7,6.5l0,0.2
			c0,0.1,0,0.2-0.1,0.3l-0.1,0.1l-0.1,0.1c-0.1,0.1-0.2,0.1-0.3,0.1l-0.1,0l-0.2,0c-0.1,0-0.2-0.1-0.3-0.1L17,45.2l-0.1-0.2
			c0-0.1-0.1-0.2-0.1-0.3c-0.6-2.7-3.8-4.3-6.2-5.5L10,39c-1.6-0.8-1.9-1.6-3.1-4.5l-0.4-1c-0.3-0.7-0.9-1.6-1.6-1.5
			c-0.7,0.1-1.4,0.9-1.6,1.7C2.5,37.3-0.9,55,6.7,60.6c4.8,3.5,5.4,4.9,6.1,6.5l0.1,0.3c0.6,1.3,2,3.7,4.2,4.3c1.3,0.4,2.8,0,4.3-1
			c0.2-0.1,0.4-0.1,0.6-0.1c0.2,0,0.3,0.1,0.4,0.3c0.1,0.1,0.1,0.3,0.1,0.5c0,0.2-0.1,0.3-0.2,0.4C21.1,72.6,19.7,73.1,18.2,73.1
			L18.2,73.1C18.2,73.1,18.2,73.1,18.2,73.1z M17.2,44.8C17.2,44.8,17.2,44.8,17.2,44.8C17.2,44.8,17.2,44.8,17.2,44.8z"/>
		<path fill="#fff" fill-opacity="0.8" d="M85.1,89h-2.8c-4-0.1-10.2-1.4-13-3.2c-6.9-4.5-5.4-17.5-4.4-26.2l0.1-0.6c0.1-0.7,0.2-1.4,0.2-2.1
			c0.8-8.1,2.3-13.6,7.3-17.9c5.9-5,17.6-5.5,18.9-5.6c2.6,0,11.4,0.1,15.3,2.7c3.1,2,4.2,5.5,4.7,7c1.3,3.7,1.3,9.3,1.3,9.3
			c0,0.2-0.2,22.7-1.5,30.3c-0.4,3.8-2.5,5-5.7,5.6C103.5,88.8,91,89,85.1,89z M91.4,34.9c-0.1,0-12.3,0.4-18,5.2
			c-4.7,4-6.1,9.2-6.8,16.9c-0.1,0.8-0.2,1.7-0.3,2.7c-0.8,7.3-2.4,20.8,3.8,24.9c2.6,1.7,8.4,2.9,12.3,3c4.1,0.1,20.8-0.1,22.9-0.5
			c3.2-0.6,4.3-1.7,4.6-4.4c1.4-7.5,1.5-29.9,1.5-30.1c0-0.2,0-5.4-1.2-8.9c-0.5-1.4-1.5-4.5-4.2-6.3c-3.3-2.1-10.6-2.5-13.5-2.5
			L91.4,34.9z"/>
		<path fill="#fff" fill-opacity="0.8" d="M139.2,91.8c-1.1,0-1.9,0-2.2-0.1c0,0-0.3,0-0.7,0c-1.4,0-4.4,0.1-7.1,0.1c-1.9,0-3.5,0-4.3-0.1
			c-4.3-0.3-14.4-1.6-15.2-7.8l0-0.1l0-0.2c0-0.1,0.1-0.2,0.1-0.2l0.1-0.1l0.2-0.1c0,0,0.1-0.1,0.2-0.1l0.1,0l0.2,0
			c0.1,0,0.2,0.1,0.2,0.1l0.2,0.2c0.1,0.1,0.1,0.2,0.1,0.3c0.7,5.2,10,6.4,14,6.7c2.1,0.1,9,0,11.9,0l0.2,0c2.5,0.1,4.9,0,7.3-0.4
			c3.5-0.6,8-2,10.1-5.5c4.2-7.2,0.3-29.4-1-36.6c-1.4-8.1-4.8-10.8-10.2-12.7c-4.8-1.7-14.9-2.8-23,1c-3.8,1.8-5.7,6.1-6.6,9.4
			c-0.6,2.3-1,4.6-1.1,6.9l0,0.2c0,0.1-0.1,0.2-0.1,0.2l-0.1,0.1l-0.2,0.1c-0.1,0-0.2,0.1-0.3,0l-0.2-0.1c-0.1,0-0.2-0.1-0.2-0.2
			l-0.1-0.1l-0.1-0.2c0-0.1,0-0.2,0-0.3c0.1-2.5,0.5-4.9,1.1-7.3c1.4-5.2,4-8.7,7.3-10.3c8.5-4,19-2.8,24-1c5.8,2.1,9.5,5,11.1,13.8
			c1.3,7.4,5.2,29.9,0.8,37.6C152.4,91.1,143.5,91.8,139.2,91.8z M110.6,83.7C110.6,83.7,110.6,83.7,110.6,83.7
			C110.6,83.7,110.6,83.7,110.6,83.7z M111.7,52.5C111.7,52.5,111.7,52.5,111.7,52.5C111.7,52.5,111.7,52.5,111.7,52.5z"/>
		<path fill="#fff" fill-opacity="0.8" d="M165.4,83.1c-3,0-5.2-0.2-6.5-0.7c-2.6-0.9-2.9-2-3-2.3c0-0.2,0-0.4,0.1-0.5c0.1-0.1,0.3-0.2,0.4-0.3l0.1,0l0.2,0
			c0.1,0,0.2,0.1,0.3,0.1l0.1,0.1l0.1,0.1c0,0.1,0.1,0.2,0.1,0.3c0,0,0.3,0.5,2.1,1.2c2.5,0.9,9.1,0.6,11,0.4l0.1,0
			c0.1,0,10.7-0.8,11.1-6.2c0.4-5.6-0.3-25.2-1.1-29.5c-0.5-2.8-2.9-6.7-6.4-8.8c-1-0.6-2.1-1.1-3.2-1.2c-1.1-0.2-2.3-0.1-3.4,0.2
			c-6.5,2-12.7,12-12.8,12.1l0,0.1l-0.1,0.1c-0.1,0.1-0.2,0.1-0.2,0.1l-0.1,0l-0.2,0c-0.1,0-0.2,0-0.2-0.1l-0.1,0l-0.1-0.1
			c-0.1-0.1-0.1-0.2-0.1-0.3l0-0.1l0-0.2c0-0.1,0-0.2,0.1-0.3c1.2-1.9,2.6-3.8,4.1-5.5c2.3-2.7,5.8-6.1,9.5-7.2
			c1.3-0.4,2.7-0.5,4-0.3c1.3,0.2,2.6,0.7,3.7,1.4c3.8,2.3,6.4,6.7,7,9.8c0.8,4.3,1.6,24.1,1.2,29.9c-0.2,2.8-2.5,5-6.5,6.3
			c-1.9,0.6-3.9,1-5.9,1.1C169.8,83,167.7,83.1,165.4,83.1z"/>
		<path fill="#fff" fill-opacity="0.8" d="M191.4,83.1C191.4,83.1,191.4,83.1,191.4,83.1L191.4,83.1c-1.8,0-3.5-0.5-5-1.3c-1.9-1-4.3-3.2-5-3.9
			c-0.1-0.1-0.2-0.2-0.2-0.3l-0.1-0.2c0-0.1,0-0.2,0.1-0.3l0.1-0.2c0.1-0.1,0.1-0.1,0.2-0.2l0.1,0l0.2,0c0.1,0,0.2,0,0.3,0l0.1,0
			l0.1,0.1c0,0,2.7,2.6,4.7,3.7c1,0.6,3.8,1.8,6.7,0.7c2.8-1,5.1-3.8,6.8-8.3c4.6-12.3,1.4-30.5-0.4-35.8c-0.9-2.7-1.8-4.1-3.1-4.6
			c-1.2-0.5-2.9-0.1-5.2,1.3c-5.2,3.1-10,10-10.5,10.8l-0.2,0.2c-0.1,0.1-0.2,0.1-0.3,0.1l-0.1,0l-0.2,0c-0.1,0-0.2-0.1-0.3-0.1
			l-0.2-0.2c-0.1-0.1-0.1-0.2-0.1-0.3l0-0.1l0-0.2c0-0.1,0-0.2,0.1-0.2c0.1-0.1,5.2-7.9,11-11.2c2.6-1.6,4.7-2,6.4-1.4
			c1.7,0.6,2.9,2.3,3.9,5.5c1.8,5.4,5.1,24.1,0.3,36.7c-1.9,4.9-4.4,8-7.6,9.1C193.3,82.9,192.4,83.1,191.4,83.1z M180.6,44.1
			C180.6,44.1,180.6,44.1,180.6,44.1C180.6,44.1,180.6,44.1,180.6,44.1z"/>
		<path fill="#fff" fill-opacity="0.8" d="M201.8,73l-0.2,0c-0.2,0-0.3-0.1-0.4-0.2c-0.1-0.1-0.2-0.3-0.2-0.4c0-0.2,0-0.3,0.1-0.5c0.1-0.1,0.2-0.2,0.4-0.3l0.1,0
			c0,0,6.6-1.8,8.9-13c2.4-11.2,1.5-17.7,0-20.1c-0.2-0.3-0.4-0.5-0.7-0.6c-0.8-0.1-4.4,2.3-7.2,4.7l-0.2,0.1
			c-0.1,0-0.2,0.1-0.3,0.1H202l-0.2-0.1c-0.1,0-0.2-0.1-0.2-0.2l-0.1-0.1l-0.1-0.2c0-0.1,0-0.2,0-0.3l0-0.1l0.1-0.2
			c0.1-0.1,0.1-0.2,0.2-0.2c1.4-1.2,6.3-5.3,8.4-5c0.7,0.2,1.3,0.7,1.6,1.3c1.7,2.6,2.7,9.5,0.2,21.2c-1.4,6.3-4,9.8-6,11.6
			C204.2,72.1,202.7,72.7,201.8,73L201.8,73z M201.7,72.5L201.7,72.5C201.8,72.5,201.8,72.5,201.7,72.5
			C201.8,72.5,201.8,72.5,201.7,72.5z M201.9,41.8C201.9,41.8,201.9,41.8,201.9,41.8C201.9,41.8,201.9,41.8,201.9,41.8z"/>
		<path fill="#fff" fill-opacity="0.8" d="M209.9,64.9L209.9,64.9c-0.2,0-0.3,0-0.5,0c-0.2,0-0.3-0.1-0.5-0.3c-0.1-0.1-0.2-0.3-0.1-0.5c0-0.2,0.1-0.3,0.3-0.5
			c0.1-0.1,0.3-0.2,0.5-0.1c1.1,0.1,2.8-0.5,4.2-1.7c1.4-1.1,3.8-3.7,4.1-8.5c0.6-7.8-0.2-15.6-1.4-18.5c-0.1-0.2-0.2-0.3-0.2-0.3
			c-0.7-0.1-2.6,2-4.2,4.6l-0.1,0.1l-0.1,0.1c-0.1,0-0.2,0.1-0.2,0.1l-0.1,0l-0.2,0c-0.1,0-0.2,0-0.3-0.1l-0.1-0.1l-0.1-0.1
			c-0.1-0.1-0.1-0.2-0.1-0.2l0-0.1l0-0.2c0-0.1,0-0.2,0.1-0.2c0.8-1.3,3.5-5.4,5.5-5.3c0.4,0.1,0.7,0.2,0.9,0.4
			c0.2,0.2,0.4,0.5,0.5,0.8c1.1,3.1,2,11.1,1.4,19.1c-0.4,5.3-3.1,8.2-4.6,9.5C213.1,64.2,211.4,64.9,209.9,64.9z M209.5,64.5
			C209.5,64.5,209.5,64.5,209.5,64.5C209.5,64.5,209.5,64.5,209.5,64.5z M209.5,63.9C209.5,63.9,209.5,63.9,209.5,63.9
			C209.5,63.9,209.5,63.9,209.5,63.9z M211.3,38.5C211.3,38.5,211.3,38.5,211.3,38.5C211.3,38.5,211.3,38.5,211.3,38.5z"/>
		<path fill="#fff" fill-opacity="0.8" d="M7.4,78.5C7.4,78.5,7.4,78.5,7.4,78.5L7.4,78.5c-0.2,0-0.4-0.1-0.5-0.2C4,75.6,6.6,68.3,9.2,64c0.1-0.2,0.3-0.3,0.4-0.3
			c0.2,0,0.4,0,0.5,0.1c0.2,0.1,0.3,0.3,0.3,0.4c0,0.2,0,0.4-0.1,0.5c-2.8,4.5-4.5,10.7-2.6,12.5C8,77.4,8,77.5,8.1,77.6
			c0,0.1,0,0.3,0,0.4c-0.1,0.1-0.1,0.2-0.3,0.3C7.6,78.4,7.5,78.5,7.4,78.5z M7.2,78C7.2,78,7.2,78,7.2,78C7.2,78,7.2,78,7.2,78z
			 M7.6,77.5C7.6,77.5,7.6,77.5,7.6,77.5C7.6,77.5,7.6,77.5,7.6,77.5z"/>
		<path fill="#fff" fill-opacity="0.8" d="M14.9,89.4L14.9,89.4c-2.7,0-3.2-2.2-3.5-3.3c0-0.1-0.1-0.4-0.1-0.5c-0.5,0-1.1,0-1.6-0.2c-0.6-0.2-1.1-0.5-1.5-0.9
			c-1.1-1.1-1.6-2.9-1.5-5.5c0.2-6,3.6-11.7,4.3-12.8c0.1-0.1,0.1-0.2,0.2-0.2l0.1-0.1l0.2,0c0.1,0,0.2,0,0.3,0l0.2,0.1
			c0.1,0.1,0.1,0.1,0.2,0.2l0.1,0.1l0.1,0.2c0,0.1,0,0.2,0,0.3l0,0.1l-0.1,0.2c0,0.1-4,5.9-4.1,12.1c-0.1,2.2,0.3,3.7,1.1,4.5
			c0.3,0.2,0.6,0.4,1,0.6c0.4,0.1,0.8,0.2,1.2,0.1l0.3,0c0.9,0,1.1,0.9,1.2,1.6c0.3,1.3,0.6,2.3,2.2,2.3c2.9-0.1,4.4-1.6,4.5-1.6
			c0.1-0.1,0.3-0.2,0.5-0.2c0.2,0,0.4,0.1,0.5,0.2c0.1,0.1,0.2,0.3,0.2,0.5c0,0.2-0.1,0.4-0.2,0.5c-0.2,0.2-2,2-5.4,2.1L14.9,89.4z
			 M20.2,87.1C20.2,87.1,20.2,87.1,20.2,87.1C20.2,87.1,20.2,87.1,20.2,87.1z"/>
		<path fill="#fff" fill-opacity="0.8" d="M26.1,96.5L26.1,96.5c-0.4,0-0.7-0.1-1.1-0.1c-2.5-0.7-4.3-3.6-5.1-6.1C17.9,83,20.8,72.2,21.2,71l0-0.1l0.1-0.2
			c0.1-0.1,0.1-0.1,0.2-0.2l0.2-0.1c0.1,0,0.2,0,0.3,0l0.1,0l0.1,0.1c0.1,0.1,0.1,0.1,0.2,0.2l0.1,0.3c0,0.1,0,0.2,0,0.3
			c-0.1,0.5-3.2,11.5-1.2,18.6c0.6,2.2,2.2,4.6,4.1,5.1c1,0.3,2,0,3-1c0.6-0.6,1.1-1.1,1.6-1.6c1.5-1.5,2.7-2.7,4.2-3.2l0.2,0
			c0.1,0,0.2,0,0.3,0.1l0.1,0l0.1,0.1c0.1,0.1,0.1,0.2,0.1,0.2l0,0.1l0,0.2c0,0.1,0,0.2-0.1,0.3l-0.1,0.1l-0.1,0.1
			c-0.1,0.1-0.2,0.1-0.3,0.1c-1.1,0.4-2.2,1.4-3.5,2.8L31,93.6c-0.5,0.5-1,1-1.6,1.5C28.6,96,27.4,96.5,26.1,96.5L26.1,96.5z
			 M34.6,90.2C34.6,90.2,34.6,90.2,34.6,90.2C34.6,90.2,34.6,90.2,34.6,90.2z"/>
		<path fill="#fff" fill-opacity="0.8" d="M42.8,97.4c-1.9,0-3.8-0.9-5.6-2.7c-1.9-1.8-3.3-4.1-4.2-6.6c-0.9-2.5-1.1-5.2-0.8-7.7c0-0.2,0.1-0.4,0.3-0.5
			c0.2-0.1,0.3-0.1,0.5-0.1c0.2,0,0.3,0.1,0.4,0.3c0.1,0.2,0.1,0.3,0.1,0.5c-0.3,2.3-0.1,4.8,0.7,7c0.8,2.3,2.1,4.3,3.8,6
			c4.1,4,7.2,1.8,9.3,0.2c0.2-0.2,0.5-0.3,0.7-0.5c2.3-1.5,7.4-4.4,10.3-4.6c0.3,0,0.4,0.1,0.5,0.2c0.1,0.1,0.2,0.3,0.2,0.5
			c0,0.2-0.1,0.4-0.2,0.5c-0.1,0.1-0.3,0.2-0.5,0.2c-2.4,0.1-7,2.7-9.6,4.4c-0.2,0.1-0.4,0.3-0.6,0.4C47.1,96,45.2,97.4,42.8,97.4z
			 M58.4,89.3C58.4,89.3,58.4,89.3,58.4,89.3C58.4,89.3,58.4,89.3,58.4,89.3C58.4,89.3,58.4,89.3,58.4,89.3z M32.6,80.5
			C32.6,80.5,32.6,80.5,32.6,80.5C32.6,80.5,32.6,80.5,32.6,80.5z"/>
		<path fill="#fff" fill-opacity="0.8" d="M69.1,95.9c-2.4,0-4.7-0.6-6.8-1.7c-6.3-3.5-6.4-11.1-6.4-11.5l0-0.1l0.1-0.2c0-0.1,0.1-0.2,0.2-0.2l0.2-0.1
			c0.1,0,0.2-0.1,0.3-0.1h0.1l0.2,0.1c0.1,0,0.2,0.1,0.2,0.2l0.1,0.1l0.1,0.2c0,0.1,0.1,0.2,0,0.3c0,0.3,0,7.1,5.6,10.2
			c3.2,1.7,7.5,2,11.4,0.7c3.1-1.1,5.5-3.1,6.5-5.7c0.1-0.2,0.3-0.3,0.4-0.4c0.2,0,0.3,0,0.5,0c0.1,0.1,0.3,0.2,0.3,0.3
			c0.1,0.1,0.1,0.3,0.1,0.5c-1.2,3-3.9,5.3-7.4,6.5c-1.8,0.6-3.6,0.9-5.5,0.9C69.2,95.9,69.1,95.9,69.1,95.9z M56.9,82.8
			C56.9,82.8,56.9,82.8,56.9,82.8C56.9,82.8,56.9,82.8,56.9,82.8z"/>
		<path fill="#fff" fill-opacity="0.8" d="M95.3,97.3h-0.7c-10.1-0.3-10.7-8.8-10.7-8.9l0-0.1l0-0.1c0-0.2,0.1-0.3,0.2-0.4c0.3-0.2,0.7-0.2,0.9,0
			c0.1,0.1,0.2,0.3,0.2,0.4c0.1,1.3,0.6,2.6,1.3,3.7c1.6,2.5,4.3,3.8,8,3.9c9.1,0.3,12.8-5.3,13.1-9.1l0-0.1l0.1-0.2
			c0-0.1,0.1-0.2,0.2-0.2l0.2-0.1c0.1,0,0.2,0,0.3,0l0.2,0.1c0.1,0,0.2,0.1,0.2,0.2l0.1,0.1l0.1,0.2c0,0.1,0,0.2,0,0.3
			C108.8,91,104.9,97.3,95.3,97.3z"/>
		<path fill="#fff" fill-opacity="0.8" d="M122.7,98h-1c-9.3-0.4-10.5-8-10.9-10.9c0-0.3-0.1-0.6-0.2-0.9l0-0.2c0-0.1,0-0.2,0-0.3l0-0.1l0.1-0.1
			c0.1-0.1,0.2-0.1,0.2-0.2l0.1,0l0.2,0c0.1,0,0.2,0,0.3,0.1l0.1,0.1l0.1,0.1c0,0.1,0.1,0.1,0.1,0.3c0.1,0.3,0.2,0.7,0.2,1.1
			c0.4,2.5,1.4,9.3,9.6,9.7c5,0.2,7.7-1.3,9.1-2.7c0.9-0.8,1.5-1.8,1.9-3c0.1-0.2,0.2-0.3,0.3-0.4c0.1-0.1,0.3-0.1,0.5-0.1
			c0.2,0,0.3,0.1,0.4,0.3c0.1,0.1,0.1,0.3,0.1,0.5l-0.1,0.3C133.5,92.9,131.2,98,122.7,98z M111.5,85.9c0,0,0,0.1,0,0.1
			C111.5,86,111.5,86,111.5,85.9z"/>
		<path fill="#fff" fill-opacity="0.8" d="M149.8,97.7L149.8,97.7c-5.2,0-8.9-2.1-10.8-6.3c-0.1-0.2-0.1-0.4,0-0.5c0.1-0.2,0.2-0.3,0.4-0.4c0.2-0.1,0.4-0.1,0.5,0
			c0.2,0.1,0.3,0.2,0.4,0.4c2,4.3,5.9,6,12.1,5.3c4.8-0.6,10-2.6,11.7-13.7c0-0.2,0.1-0.4,0.3-0.5c0.1-0.1,0.3-0.2,0.5-0.1
			c0.2,0,0.3,0.1,0.5,0.3c0.1,0.2,0.2,0.3,0.1,0.5c-1.5,9.6-5.3,14-12.9,14.9C151.7,97.7,150.7,97.7,149.8,97.7z M139.4,91.3
			C139.4,91.3,139.4,91.3,139.4,91.3C139.4,91.3,139.4,91.3,139.4,91.3z"/>
		<path fill="#fff" fill-opacity="0.8" d="M177.4,97.9L177.4,97.9c-2.6,0-4.2-1.3-6.1-2.9c-1.4-1.2-2.9-2.2-4.5-3.1c-3.7-2-4-3.3-4.1-3.7c0-0.2,0-0.3,0.2-0.5
			c0.1-0.1,0.3-0.2,0.5-0.2c0.2,0,0.4,0,0.5,0.2c0.1,0.1,0.2,0.3,0.2,0.5c0,0,0,0,0,0c0,0,0.4,1,3.3,2.5c1.7,0.9,3.3,2,4.7,3.3
			c2.1,1.7,3.4,2.8,5.9,2.5c3.5-0.4,10.3-5,10.2-14.2l0-0.1l0-0.2c0-0.1,0.1-0.2,0.1-0.2l0.1-0.1l0.2-0.1c0.1,0,0.2-0.1,0.3-0.1h0.1
			l0.2,0.1c0.1,0,0.1,0.1,0.2,0.1l0.1,0.1l0.1,0.2c0,0.1,0,0.2,0,0.3c0.2,10.1-7.5,15.2-11.4,15.6C178,97.9,177.7,97.9,177.4,97.9
			L177.4,97.9z M189.3,82.2C189.3,82.2,189.3,82.2,189.3,82.2C189.3,82.2,189.3,82.2,189.3,82.2z"/>
		<path fill="#fff" fill-opacity="0.8" d="M194.6,95.4L194.6,95.4c-1.1,0-2.2-0.6-3.4-1.9c-1.2-1.3-2.6-2.4-4-3.4l-0.2-0.2c-0.1-0.1-0.1-0.2-0.1-0.3l0-0.1l0-0.2
			c0-0.1,0-0.2,0.1-0.2L187,89l0.1-0.1c0.1-0.1,0.2-0.1,0.3-0.1l0.1,0l0.2,0c0.1,0,0.2,0,0.2,0.1c1.6,1.1,3,2.3,4.3,3.6
			c0.9,1,1.7,1.5,2.5,1.5c0.7,0,1.3-0.5,2-1.4c0.1-0.1,0.2-0.3,0.3-0.4c0.1-0.2,0.2-0.3,0.4-0.5c1.7-2.1,3.4-4.2,3.1-11.2
			c-0.1-1.8-0.3-3.5-0.6-5.3c0-0.2,0-0.4,0.1-0.5c0.1-0.1,0.2-0.2,0.4-0.3c0.2,0,0.3,0,0.5,0.1c0.1,0.1,0.3,0.2,0.3,0.4
			c0.4,1.9,0.6,3.7,0.7,5.6c0.4,7.5-1.6,9.9-3.3,12.1l-0.2,0.3c-0.1,0.2-0.3,0.3-0.4,0.5c-0.9,1.3-2,1.9-3,2L194.6,95.4z
			 M187.7,89.2C187.7,89.2,187.7,89.2,187.7,89.2C187.7,89.2,187.7,89.2,187.7,89.2z"/>
		<path fill="#fff" fill-opacity="0.8" d="M201.1,88.9c-0.4,0-0.7-0.1-1-0.2c-0.2-0.1-0.3-0.2-0.4-0.4c-0.1-0.2-0.1-0.4,0-0.5c0.1-0.2,0.2-0.3,0.4-0.4
			c0.2-0.1,0.4-0.1,0.5,0c0.2,0.1,1.5,0.4,2.4-1.1c0.5-0.8,1.1-1.5,1.8-2.2c1.1-1.1,2.1-2.1,2.1-3.8c0-0.8,0-7.8-1.3-10.7
			c-0.1-0.2-0.1-0.4,0-0.6c0.1-0.2,0.2-0.3,0.4-0.3c0.2-0.1,0.3-0.1,0.5,0c0.2,0.1,0.3,0.2,0.4,0.3c1.3,3.2,1.4,10.5,1.4,11.3
			c0,2.3-1.3,3.6-2.5,4.8c-0.6,0.6-1.2,1.2-1.6,1.9c-0.2,0.5-0.7,1-1.2,1.3C202.4,88.7,201.8,88.9,201.1,88.9L201.1,88.9
			C201.2,88.9,201.2,88.9,201.1,88.9z M200.2,88.4C200.2,88.4,200.2,88.4,200.2,88.4C200.2,88.4,200.2,88.4,200.2,88.4z"/>
	</g>
</svg>
