<svg xmlns="http://www.w3.org/2000/svg" viewBox="0 0 220 129" width="220" height="129">
<g>
	<path fill="#fff" fill-opacity="0.8" d="M6.3,116.1l-1.9,0l-0.8-0.1c-0.3,0-0.5-0.1-0.8-0.2c-1.1-0.2-2.4-1-2.8-3.4c-0.7-4.7,2.7-12.8,6.7-15.7l1.1-0.8l-0.3,1.4
		c0,0,0,0.1,0,0.1l0,0.2l-0.2,0.2c-3.6,2.8-6.7,10.2-6,14.3c0.2,1.4,0.8,2.2,1.8,2.4c0.8,0.2,1.7,0.3,2.6,0.3c1,0,2.1-0.2,3-0.6
		l0.4-0.2l0.7,1.1l-1.9,0.7L6.3,116.1z"/>
	<path fill="#fff" fill-opacity="0.8" d="M13.9,117.1c0,0-0.1,0-0.1,0c-0.1,0-0.1,0-0.2,0c0,0-0.1,0-0.1,0h-0.2c-0.3,0-0.5-0.1-0.7-0.1c-1.1-0.3-2.1-0.9-3-1.7
		L9.4,115l0-0.2H9.2l-0.1-0.1c-3.3-3.8-3-11.3-2.1-16.9c0.1-0.4,0.1-0.7,0.2-1.1l0.1-0.4h0.1l-0.1-0.1l0.1-0.1c0.4-1.1,1-2.1,1.9-3
		s1.9-1.4,3-1.8c0.2-0.1,0.3-0.1,0.5-0.2l2.3-0.4l1.1,0H17L16.4,92l-0.3,0c-1.2,0-2.3,0.2-3.4,0.6c-1.2,0.4-2.3,1.1-3.1,2
		c-0.8,1-1.3,2.1-1.4,3.4c-1.1,7.2-1.2,16.1,4.7,17.7c0.3,0.1,0.6,0.1,1,0.1c0.5,0,1-0.2,1.4-0.4c0.4-0.3,0.8-0.6,1-1.1l0.3-0.6
		l0.5,0.6l0.4,0.3l-0.5,0.8l-0.2,0.3c-0.1,0.1-0.1,0.1-0.2,0.2l-1,0.7l-0.4,0.2c-0.1,0-0.2,0.1-0.3,0.1l-0.1,0
		c-0.2,0-0.3,0.1-0.5,0.1l-0.3,0C14,117.1,13.9,117.1,13.9,117.1z"/>
	<path fill="#fff" fill-opacity="0.8" d="M23.3,116.8h-1.4c-0.3,0-0.5,0-0.8-0.1c-1.4-0.2-2.7-0.8-3.8-1.7l-0.2-0.2l0-0.2c0,0,0,0,0,0l-0.2,0l-0.1-0.1
		c-0.3-0.3-0.6-0.7-0.8-1.1c-3.1-4.6-2.6-13-0.8-18.9c0.3-1.1,0.7-2.2,1.2-3.2l0.1-0.2l0.1,0l-0.1-0.2l0.1-0.2
		c1.5-3,3.4-5.2,5.6-6.2c0.2-0.1,0.4-0.2,0.7-0.3l0.3-0.1c0.1,0,0.2-0.1,0.4-0.1l0.2-0.1c0.2,0,0.3-0.1,0.5-0.1l0.2,0
		c0.1,0,0.3,0,0.4,0l0.9,0.1l0.5,0.1c0.2,0,0.4,0.1,0.5,0.2c2.1,0.8,4.4,1.3,6.7,1.6l0.9,0.1L33.5,87l-0.3,0
		c-2.3-0.2-4.6-0.8-6.8-1.6C26,85.1,25.5,85,25,85c-0.8,0-1.6,0.2-2.3,0.6c-2.8,1.3-5.1,4.7-6.5,9.3c-1.7,5.6-2.2,13.5,0.7,17.8
		c0.3,0.4,0.6,0.8,0.9,1.1c0,0,0,0,0.1,0.1c0.3,0.3,0.6,0.5,0.9,0.7c0.7,0.5,1.6,0.8,2.5,0.9c0.4,0.1,0.9,0.1,1.3,0.1
		c5.8,0,9.5-4.4,10.2-5.3l0.3-0.4l1,0.7l-2.4,2.6l-0.3,0.2c-0.3,0.3-0.6,0.5-0.8,0.7l-2.5,1.5l-2.2,0.8l-1.9,0.4L23.3,116.8z"/>
	<path fill="#fff" fill-opacity="0.8" d="M39.8,111.9h-1.7c-1.4-0.2-2.8-0.5-4-1.1l-0.2-0.1l-0.1-0.2l-0.1,0l-0.1,0c-3.6-1.8-5.6-5.2-5.7-9.8
		c-0.1-6.1,3.1-11.3,5.9-14.5l0.2-0.3c2.1-2.4,4.5-4.5,7.2-6.3c0.2-0.1,0.4-0.2,0.6-0.4l0.2-0.1c0.2-0.1,0.3-0.1,0.5-0.2l0.2-0.1
		c0.2-0.1,0.4-0.2,0.6-0.2c0.2-0.1,0.4-0.1,0.6-0.2l1.1-0.2c0.2,0,0.3-0.1,0.5-0.1l0.1,0c0.2,0,0.3,0,0.5,0l2.6,0.1l2.2,0.4
		l2.2,0.8l0.5,0.2l-0.5,1.1l-0.5-0.2c-1.9-0.8-3.9-1.2-5.9-1.3c-1.7,0-3.4,0.4-4.8,1.3c-4.8,3.1-13,10.8-12.8,20.1
		c0.1,4,1.7,8.9,9.1,10l0,0c0.1,0,0.4,0,0.8,0c2.9,0,5.7-0.8,8.2-2.3l0.2-0.1c4-2.2,4.8-2.7,7.4-3.4c0.6-0.2,1.2-0.4,1.7-0.6
		l0.4-0.2l0.8,1l-0.6,0.3c-0.6,0.3-1.3,0.6-2,0.7c-2.4,0.7-3.2,1.1-7.1,3.3l-0.2,0.1c-0.3,0.2-0.6,0.3-0.9,0.4l-1.1,0.5
		c-0.3,0.1-0.5,0.2-0.8,0.3c-0.3,0.1-0.5,0.2-0.8,0.3l-1,0.3c-0.2,0.1-0.5,0.1-0.7,0.2l-2,0.3L39.8,111.9z"/>
	<path fill="#fff" fill-opacity="0.8" d="M69.9,108.5h-2c-0.3,0-0.6,0-0.9-0.1l-0.1,0c-0.3,0-0.7-0.1-1-0.1l-1.3-0.2c-0.3-0.1-0.6-0.1-0.9-0.2l-0.1,0
		c-0.3-0.1-0.7-0.2-1.1-0.3l-0.3-0.1c-0.3-0.1-0.5-0.2-0.8-0.3l-0.3-0.1c-0.4-0.1-0.7-0.3-1.1-0.4c-0.9-0.4-1.8-0.9-2.5-1.5
		l-0.2-0.2l0-0.2h-0.1l-0.2-0.1c-4.2-3.9-5.8-11.7-4.6-22.5l0-0.1c0.1-0.8,0.3-1.5,0.6-2.2l0.1-0.1l0.1-0.1l0-0.1l0,0
		c0.3-0.5,0.6-1,1-1.3c0.1-0.1,0.2-0.2,0.4-0.3l0.1-0.1c0.1-0.1,0.2-0.1,0.3-0.2l1-0.4l0.6-0.1c0.1,0,0.3,0,0.4,0h0.4
		c0.2,0,0.4,0,0.6,0c2.8,0.4,5.6,0.6,8.4,0.6c5.7,0,11.6,0.1,13.6,1.1l0.4,0.2l-0.1,0.4c0,0,0,0.1,0,0.1v0.9l-0.8-0.4
		c-1.8-1-9.1-1-13-1c-2.9,0-5.8-0.2-8.6-0.6c-0.2,0-0.3,0-0.5,0c-0.8,0-1.6,0.3-2.2,0.9c-0.8,0.8-1.3,1.9-1.4,3.1l0,0.2
		c-1.5,12.5,1,20.8,6.9,23.2c2.7,1.2,5.6,1.7,8.5,1.8c4.6,0,7.5-1.6,7.9-1.7c0.1-0.1,3.1-1.5,3.5-5.8l0,0c0.5-4.7,0.9-6.3,1-6.8
		l0.5-1.6l0.6,2.2l0,0.1c-0.2,0.7-0.5,2.3-0.9,6.3c-0.5,5-4.1,6.7-4.1,6.7l-0.3,0.1l-0.3,0.2l-1.7,0.6l-2,0.5l-2.1,0.3L69.9,108.5z
		 M57.3,104.8L57.3,104.8L57.3,104.8L57.3,104.8z"/>
	<path fill="#fff" fill-opacity="0.8" d="M96.3,106.9h-2l-1.8-0.4L91,106l-0.9-0.5c-0.2-0.1-0.3-0.2-0.5-0.3l-1.6-1.3c-0.1-0.1-0.3-0.3-0.4-0.4l-0.1-0.1
		c-0.2-0.1-0.3-0.3-0.5-0.5l-1.1-1.4c-0.1-0.1-0.2-0.3-0.3-0.5l-0.1-0.2c-0.2-0.2-0.3-0.5-0.5-0.7l-0.1-0.2
		c-0.1-0.2-0.2-0.4-0.4-0.6l-0.2-0.3c-0.1-0.2-0.2-0.4-0.3-0.6l-0.2-0.3c-0.1-0.2-0.2-0.3-0.2-0.5l-0.2-0.4
		c-0.1-0.3-0.3-0.6-0.4-0.9L83,96.3c-0.3-0.9-0.6-1.7-0.8-2.6l0-0.1l0-0.1c0-0.1,0-0.1,0.1-0.2l-0.1,0l-0.2-0.3
		c-1-4-2.1-10.3-2.2-11.9c0-0.5,0-1.1,0-1.6l0-0.2l0.1-0.1l-0.1-0.2l0-0.1c0.2-1,0.7-1.9,1.6-2.6c4.1-3.7,20.4-5.5,25-5.6h0.1
		c3.7,0,4.5,3.1,4.5,3.9l0.7,8.5l-0.2,0.4l0.2,0.1l0,0.2l1,11c0,0.3,0.1,0.7,0.1,1l0,0.3l-0.1,0.1l0.2,0.1l0,0.2
		c-0.1,1.7-0.7,3.3-1.8,4.5c-2,2.3-5.3,4.7-14,5.7L96.3,106.9l0-0.2c0,0,0,0,0,0V106.9z M83.2,93.1c0.3,1.1,0.6,2.1,0.8,2.7
		l0.1,0.1c2.9,6.5,6.7,9.9,11.3,9.9c0.5,0,1,0,1.5-0.1c8.4-1,11.4-3.2,13.2-5.3l0.1-0.1c1.6-1.9,1.4-4.5,1.4-5.1l0,0l-1.8-20.4
		c0-0.3-0.3-2.8-3.3-2.8h-0.1c-4.8,0.1-20.5,2.1-24.2,5.3c-1.1,0.9-1.3,1.6-1.2,3.7c0,1.4,1.1,7.7,2.2,11.8c0,0,0,0.1,0,0.1
		C83.2,93,83.2,93.1,83.2,93.1z"/>
	<path fill="#fff" fill-opacity="0.8" d="M131.9,105.9l-1.9-0.1l-2.8-0.7l-4-1.9l-6.1-4.4c-1.2-1.1-2.6-1.9-4.2-2.2l-0.4-0.1v-1.3l0.6,0.1c1.8,0.4,3.5,1.3,4.8,2.5
		c1.3,1.1,8,6.9,14.1,6.9h0.4c5.6-0.2,9.1-5.8,10.4-8.2c0.4-0.9,4.3-8.7,3.4-15.4c-0.4-3.2-3-5.5-8-6.9c-1.7-0.5-5.3-1-8.1-1.5
		c-2.1-0.3-4.5-0.7-6.3-1c-1-0.2-1.9-0.3-2.9-0.3c-1.9,0-3,0.6-3.8,2.3c-0.5,1.1-4.2,9.4-4.6,10.3l-0.8,1.8l-0.2-2.5l0.1-0.1
		c0.2-0.4,3.9-8.8,4.5-9.9c0.1-0.2,0.2-0.4,0.4-0.6l0.1-0.1c0.1-0.2,0.2-0.3,0.3-0.5l0.1-0.1c0.1-0.2,0.3-0.3,0.5-0.5l0.1-0.1
		c0.1-0.1,0.3-0.2,0.4-0.3l0.1-0.1c0.2-0.1,0.4-0.2,0.6-0.3l0.1-0.1c0.2-0.1,0.3-0.1,0.5-0.2l0.2,0c0.2-0.1,0.5-0.1,0.7-0.1l0.1,0
		c0.1,0,0.4,0,0.6,0l1.6,0.1l0.8,0.1c0.3,0,0.6,0.1,0.8,0.2c1.8,0.4,4.1,0.7,6.2,1c3.2,0.5,6.6,1,8.3,1.5c5.2,1.6,8.1,4,8.8,7.5
		l0,0.2l-0.1,0.2c-0.1,0.1-0.1,0.2-0.1,0.2l0.3,0.1l0,0.2c0.7,6.1-2.1,12.6-3,14.5l-0.1,0.3l-0.2,0v0.4l-0.2,0.5
		c-1.3,2.6-5.2,8.7-11.5,8.9H131.9z"/>
	<path fill="#fff" fill-opacity="0.8" d="M159.8,110.9h-1.1c-0.2,0-0.4,0-0.7,0c-0.2,0-0.5,0-0.7,0c-2.5-0.2-4.9-1-7.1-2.2c-2.1-1.2-4.8-3.4-5.7-6.9
		c-0.4-1.7-0.7-3.4-0.7-5.2l0-0.2l0.2-0.5l1,0.2c0,1.8,0.2,3.6,0.6,5.3c0.9,3.1,3.3,5.1,5.2,6.1c2,1.1,4.2,1.8,6.5,2
		c0.5,0,1,0,1.4,0c5.7,0,9.9-1.6,12.1-4.6c3.9-5.1,3.9-19.1,3.9-19.3c-0.2-1.8-0.8-2.7-1.7-3.2c0,0-0.1,0-0.1,0
		c-0.1,0-0.1-0.1-0.2-0.1c-0.7-0.3-1.5-0.4-2.5-0.6l-0.2,0c-2.9-0.5-17.7-2.1-19.3-2.2l-0.3,0c-1.6,0-2.4,1.5-2.5,1.8l-1-0.2l0-0.1
		c0-0.1,0-0.2,0-0.3v-0.1l1-1.2l0.8-0.5l0.8-0.3l0.4-0.1l0.5,0c0.1,0,0.3,0,0.4,0c1.6,0.2,16.5,1.7,19.4,2.2l0.2,0
		c0.9,0.1,1.7,0.3,2.6,0.6l0.3,0.1l0,0.2l0.2-0.1l0.2,0.2c1.3,0.8,2,2.1,2.2,4.2c0,0.5,0,12-3.1,18.2l-0.1,0.2l-0.2,0.1v0.3
		c-0.2,0.5-0.5,0.9-0.9,1.4c-0.2,0.2-0.3,0.4-0.5,0.6l-0.2,0.2c-0.1,0.1-0.2,0.3-0.4,0.4l-0.2,0.2c-0.2,0.2-0.3,0.2-0.4,0.3
		l-0.3,0.2c-0.1,0.1-0.3,0.2-0.4,0.3l-1,0.7l-1.6,0.8l-1.8,0.6l-1,0.2c-0.2,0-0.5,0.1-0.7,0.1l-0.3,0.1c-0.3,0-0.6,0.1-0.9,0.1
		l-0.2,0c-0.3,0-0.7,0.1-1,0.1l-0.5,0C160.2,110.9,160,110.9,159.8,110.9z"/>
	<path fill="#fff" fill-opacity="0.8" d="M186.4,110.7l-1.7,0c-0.2,0-0.5,0-0.7-0.1l-0.1,0c-0.3,0-0.5-0.1-0.8-0.1l-0.1,0c-0.2,0-0.4-0.1-0.7-0.2
		c-3.6-1.2-8.3-4.6-9.6-5.6l-0.3-0.2l0.5-1.1l0.5,0.4c0.9,0.7,5.7,4.3,9.3,5.5c0.9,0.3,1.9,0.4,2.9,0.4c3.4,0,7.9-1.1,10.9-2.7
		c0.1-0.1,0.2-0.2,0.3-0.3c0.1,0,0.2-0.1,0.3-0.1c0.7-0.5,1.4-1,1.8-1.5c1.1-1.4,1-4.2-0.1-8.1c-1.2-3.9-2.9-7.7-5-11.2
		c-1.4-2.5-4.1-5.8-10.9-5.8c-0.7,0-1.5,0-2.4,0.1c-2.2,0.2-4.3,1-6.1,2.2l-0.3,0.2l-1.1-0.7l0.6-0.4c2-1.4,4.4-2.3,6.8-2.5
		c0.4,0,0.8-0.1,1.2-0.1l0.2,0c0.4,0,0.8,0,1.2,0l1.7,0c0.3,0,0.5,0,0.8,0.1l0,0c0.3,0,0.5,0.1,0.8,0.1c0.3,0,0.5,0.1,0.8,0.1
		l0.1,0c0.2,0.1,0.5,0.1,0.7,0.2l0.3,0.1c0.1,0,0.3,0.1,0.4,0.1l0.2,0.1c0.2,0.1,0.4,0.2,0.6,0.3l0.1,0.1c0.2,0.1,0.5,0.2,0.7,0.3
		l0.1,0.1c0.2,0.1,0.4,0.2,0.5,0.3h0l0.2,0.1c0.2,0.2,0.4,0.3,0.6,0.5l0.1,0.1c0.2,0.2,0.4,0.3,0.6,0.5l0.1,0.1
		c0.2,0.2,0.4,0.4,0.6,0.6c0.2,0.2,0.4,0.4,0.6,0.7l0.1,0.2c0.2,0.2,0.4,0.5,0.5,0.7l0.1,0.1c0.2,0.3,0.4,0.5,0.5,0.8
		c0.4,0.7,0.7,1.3,1.1,2l0.1,0.3l-0.1,0.1l0.2,0l0.1,0.3c2.1,4.1,6.6,14,3.5,18c-0.1,0.1-0.2,0.2-0.3,0.3l-0.8,0.7
		c-0.1,0.1-0.3,0.2-0.4,0.3l-0.6,0.4l-0.4,0c0,0-0.1,0-0.1,0.1l0.2,0.6l-0.6-0.1l-2.2,1l-2.5,0.8l-2.6,0.6l-2.6,0.3L186.4,110.7z
		 M195.9,87.5L195.9,87.5L195.9,87.5z"/>
	<path fill="#fff" fill-opacity="0.8" d="M214.8,111.8H214c-0.2,0-0.5,0-0.7-0.1l-0.1,0l-1.7-0.3l-2.4-0.6l-0.8-0.2l-4.8-2c-0.2-0.1-0.4-0.2-0.6-0.3l-0.2-0.1
		c-0.2-0.1-0.3-0.1-0.5-0.2l-0.2-0.1c-0.2-0.1-0.4-0.1-0.6-0.2l-1.3-0.2l-0.1,0l-0.6-0.1l-2.5,0l1.6-1.2l0.2,0
		c1.9,0,3.7,0.4,5.4,1.2c1.7,0.8,6.9,3,10.7,3c0.9,0,1.8-0.1,2.6-0.5c0.3-0.2,0.6-0.5,0.8-0.9c0.2-0.4,0.3-0.8,0.3-1.2
		c0.5-6.6-8.4-16.9-11.1-20c-2.8-3.1-4.7-4.2-6.5-3.8c-1.1,0.2-2.8,2-4,3.4l-0.5,0.6l-0.6-1.2l0.2-0.3c0.8-1,2.9-3.5,4.7-3.8
		c0.2,0,0.3-0.1,0.5-0.1h0.8c0.1,0,0.2,0,0.2,0c0,0,0.1,0,0.1,0c0.2,0,0.4,0.1,0.5,0.1l1,0.4l0.9,0.5c0.2,0.1,0.3,0.2,0.5,0.3
		c0.2,0.1,0.3,0.2,0.4,0.3l1.6,1.5l1,1.1c2.8,3.1,11.9,13.8,11.4,20.8c0,0.6-0.2,1.2-0.5,1.7c-0.3,0.5-0.8,1-1.3,1.3
		c-0.2,0.1-0.4,0.2-0.7,0.3c-0.3,0.1-0.5,0.2-0.8,0.2l-0.2,0c-0.2,0-0.5,0.1-0.7,0.1h-0.1C215.3,111.8,215,111.8,214.8,111.8z"/>
	<path fill="#fff" fill-opacity="0.8" d="M29.9,75.3c-0.3,0-0.4,0-0.6,0l-0.1,0c-0.2,0-0.3,0-0.5-0.1L27.9,75c-0.1,0-0.3-0.1-0.4-0.2l-0.1,0
		c-0.2-0.1-0.3-0.2-0.5-0.2l-1.6-1l-2.1-1.8c-0.1-0.1-0.2-0.2-0.3-0.3l-0.1-0.1c-0.1-0.1-0.2-0.1-0.2-0.2l-0.2-0.1
		c-0.1-0.1-0.2-0.1-0.2-0.1l-1.5-0.4l-0.3,0l-1.8,0.1l-0.2,0.1l-1.2,0.4c-0.3,0.1-0.6,0.3-0.9,0.5l-2.5,1.1
		c-0.2,0.1-0.3,0.1-0.5,0.2l-0.1,0c-0.1,0-0.3,0.1-0.5,0.1l-0.2,0c-0.2,0-0.3,0-0.5,0.1l-0.2,0c-0.2,0-0.4,0-0.6,0h-0.8l-1.5-0.2
		c-0.3-0.1-0.5-0.1-0.8-0.2c-6.4-1.8-7.4-10.7-7.6-17.3c-0.1-2.8,0.3-4.5,1.2-5c0.2-0.1,0.4-0.2,0.6-0.2c0,0,0.1,0,0.2,0l0.3,0
		L3,50.7l0,0l0.1,0.2c0,0,0,0,0.1,0v-0.3h0.1c0.1-0.1,0.5-0.4,0.6-2.5C4,46.3,4.5,45,5.5,44.3c0.1-0.1,0.3-0.2,0.4-0.2L6.1,44
		c0.1,0,0.2-0.1,0.3-0.1l0.8-0.1h0.9L7.8,45l-0.7,0c-0.3,0-0.6,0.1-0.9,0.3c-0.6,0.4-1,1.5-1.1,3c-0.1,2.1-0.6,3.2-1.4,3.5
		c-0.2,0.1-0.3,0.1-0.5,0.1c-0.4,0-0.8-0.2-1.1-0.4c0,0,0,0-0.1,0c0,0-0.7,0.5-0.6,3.9C1.6,61.6,2.6,70,8.1,71.6
		C9.1,71.8,10,72,10.9,72c1.8,0,3-0.6,4.5-1.4c0.4-0.2,0.7-0.4,1.1-0.5c1.1-0.4,2.2-0.6,3.3-0.6c1.5-0.1,2.9,0.4,4.1,1.4
		c1.6,1.4,3.6,3.3,5.9,3.3c0.5,0,1-0.1,1.5-0.3h0c1.4-0.6,6.1-2.8,7.7-7.2l0.1-0.2l0.2-0.1c0.1-0.1,0.2-0.1,0.3-0.2l1.2-0.7
		l-0.5,1.3c-1.7,5-6.9,7.5-8.5,8.2c-0.2,0.1-0.4,0.1-0.6,0.2l-0.2,0c-0.1,0-0.3,0.1-0.4,0.1l-0.2,0C30.3,75.3,30.1,75.3,29.9,75.3z"/>
	<path fill="#fff" fill-opacity="0.8" d="M37.3,67.2H37c-0.2,0-0.3,0-0.3,0l-0.3,0c-0.1,0-0.2,0-0.3-0.1l-1.3-0.5l-1-0.6l-0.5-0.4c-0.2-0.1-0.4-0.3-0.5-0.4
		c-3.4-2.8-5.2-2.9-7.2-3.1l-2.1,0.1l-1.8,0.5c-2,0.7-4,1.1-6.2,1.2l-1.2-0.1L13,63.2l-1.1-0.9l-1.3-1.6l-0.6-1
		c-0.1-0.2-0.2-0.4-0.3-0.5c-1.4-2.8-2.2-5.8-2.5-8.9l0,0c-0.1-1.9,0-3.8,0.3-5.7l0-0.2l0.2-0.1L7.5,44l0-0.1
		c0.6-3.6,1.9-6.5,3.5-7.6c0.2-0.1,0.3-0.2,0.5-0.3l0.1-0.1c0.1-0.1,0.2-0.1,0.4-0.1l0.2-0.1c0.1,0,0.3-0.1,0.4-0.1l0.2,0
		c0.1,0,0.3,0,0.5,0l0,0l0.1,0c0.1,0,0.2,0,0.4,0h0.1c0.2,0,0.3,0,0.4,0.1l0.2,0c0.2,0,0.4,0.1,0.5,0.1l1,0.4l1.5,0.7
		c0.3,0.2,0.6,0.3,1,0.5l0.3,0.1v1.3l-0.7-0.2c-0.4-0.1-0.8-0.3-1.1-0.5c-1-0.5-2.5-1.2-3.9-1.2c-0.5,0-1,0.2-1.4,0.5
		c-2.2,1.7-3.7,7.6-3.3,13c0.2,3,1,5.8,2.3,8.5c1.3,2.6,3,4,4.6,4c2.1,0,4-0.4,5.9-1.1c1.1-0.4,2.4-0.7,3.6-0.7l0.6,0l0.1,0
		c2.1,0.2,4.3,0.3,7.9,3.4c1.5,1.3,2.6,1.8,3.6,1.8c1,0,1.9-0.5,3.1-1.4c1.3-1,2.5-1.9,3.6-2.7l0.6-0.5c2.8-2,4.6-3.3,5.1-5.1
		l0.1-0.4H51l-0.2,0.6c-0.6,2.2-2.7,3.7-5.6,5.8c-1.3,0.9-2.7,1.9-4.2,3.2c-0.1,0.1-0.2,0.2-0.3,0.2L40.5,66h-0.2l0,0.2l-2.1,1
		l-0.5,0.1L37.3,67.2z"/>
	<path fill="#fff" fill-opacity="0.8" d="M38.7,56.6l-1.8,0c-0.2,0-0.4-0.1-0.5-0.1l-0.1,0c-0.2,0-0.3-0.1-0.5-0.2l-0.1-0.1c-0.1,0-0.2-0.1-0.3-0.1l-0.6-0.4
		c-0.1-0.1-0.2-0.1-0.3-0.2l-0.1-0.1c-0.2-0.1-0.3-0.2-0.5-0.4c-0.3-0.3-0.5-0.5-0.7-0.8L33,54.1l0-0.2h-0.3l-0.1-0.2
		c-4.7-6.4,0.6-17.8,2.9-22.6c0.1-0.2,0.2-0.5,0.4-0.7l0.1-0.2c0.1-0.1,0.2-0.3,0.2-0.4l1.2-2.1l0.2,0l-0.1-0.2l3.5-4l2.3-1.9
		l2.7-1.6l2.1-0.8l2-0.3l0.9,0c0.2,0,0.4,0,0.5,0.1c0.5,0,5.2,0.6,10,7l0.4,0.6l-0.3,1.8l-1.1-1.7c-4.6-6.1-9.1-6.5-9.1-6.5
		C51.2,20,50.9,20,50.6,20c-4.2,0-10.6,4.3-14,11.6c-2.4,5.1-8.1,17.1-2,22.5c0.5,0.4,1,0.8,1.6,1c0.6,0.2,1.2,0.3,1.8,0.3
		c1.3,0,2.6-0.2,3.9-0.4c1.2-0.1,2.3-0.2,3.5-0.2c1.2,0,2.3,0.1,3.3,0.2l0.2,0c0.5,0,0.9,0.1,1.5,0.1c0.1,0,0.1,0,0.2,0l0.2,0
		c0.1,0,0.1,0,0.2,0c0.3,0,0.6,0,1,0l0.2,0c0.7,0,1.3,0,1.9,0c2.4,0,3.8-0.4,5.5-2.4l1.1-1.8l0.8,1l-0.9,1.5
		c-0.2,0.2-0.3,0.4-0.4,0.5l-1,0.9c-0.1,0.1-0.3,0.2-0.4,0.3l-0.2,0.1c-0.1,0.1-0.2,0.1-0.3,0.2l-1.1,0.5c-0.1,0.1-0.3,0.1-0.5,0.1
		l-1,0.2l-3.2,0l-1.9-0.1l0-0.1l-0.1,0.1l-0.3-0.1c-0.6,0-1.1-0.1-1.6-0.1L46.3,56l-2.5,0L43,56.1c-0.2,0-0.5,0.1-0.8,0.1
		L38.7,56.6z"/>
	<path fill="#fff" fill-opacity="0.8" d="M87.2,56.7c-1.4,0-3.1,0-4.8-0.1l-9.6-0.3l-0.6-0.1l-0.1,0l-6.3-1.1l-1.3-0.4c-1.3-0.5-2.5-1.4-3.4-2.5l-0.1-0.2l0-0.2
		l-0.2,0l-0.1-0.1c-2.3-3-2.8-7.5-1.5-13.3l0,0c0.4-1.9,1-5.1,1.6-8.5l0.6-3.3l0.2-0.1l-0.1,0l-0.1-0.2l0-0.2
		c0.2-1.2,0.4-2.2,0.6-3.1c0.9-4.5,3.3-7.6,7.3-9.2c4.3-2,11-3.2,17.9-3.2c7.1,0,12.9,1.3,15.7,3.4c1.6,1.2,3.5,3,4.1,6
		c0.2,0.7,0.3,1.4,0.4,2.1l0,0.1l-0.1,0.5l0.2,0.1l0,0.2c1.4,8.4,1.8,20.7,1.3,25.6c0,0.1,0,0.1,0,0.2c0,0.1,0,0.1,0,0.2v0.3
		l-0.3,0.1c0,0,0,0,0,0.1c0.1,0.1,0.1,0.3,0.1,0.5l0,0.1l0,0.1c-1.1,5.2-4.5,5.6-7.2,5.9l-6.3,0.4l-3.3,0.1
		C90.5,56.7,88.9,56.7,87.2,56.7z M82.3,55.7h9.8c3.9-0.1,7.1-0.3,8.5-0.4l0.9-0.1c3-0.3,5.8-0.6,6.4-6.4c0.6-5.2,0-19.7-1.8-28.2
		c-0.6-2.7-2.4-4.3-3.7-5.3c-2.6-2-8.2-3.1-15-3.1c-6.7,0-13.2,1.2-17.4,3.1c-3.5,1.5-5.7,4.2-6.5,8.3c-0.3,1.4-0.6,3.2-1,5.2
		l-0.3,1.5c-0.6,3.2-1.2,6.6-1.6,8.6c-2.4,10.7,2.3,13.9,4.5,14.8C68.5,55,76.1,55.5,82.3,55.7z"/>
	<path fill="#fff" fill-opacity="0.8" d="M146.3,60.8l-3,0l-0.9-0.1l-0.1,0l-1-0.1l-0.1,0l-2.1-0.2l-0.1,0l-5.9-0.8l-0.1,0l-1.1-0.2l0,0l-2.6-0.5l-15.1-3.4
		c-2.6-1-5.1-2.2-5.7-5.1l0-0.1l0-0.1c0-0.2,0.1-0.4,0.1-0.7l1,0c0.2,2.5,2.1,3.7,5,4.8c2.3,0.9,21.4,5.4,30.6,5.4
		c1.2,0,2.4-0.1,3.6-0.4c5.3-1.9,5.5-5,5.4-9.1c-0.2-4.1-2.7-19.4-4.8-24c-1.8-3.9-4.5-8.2-11.3-10.3c-6.6-2.1-15.2-3.6-19.5-3.2
		c-2.4,0.2-8.1,0.8-9.4,6.7l-0.9,4l-1,0l-0.1-0.7l0.8-3.4c1.4-6.8,7.8-7.4,10.5-7.7c0.2,0,0.5,0,0.7,0l2.7,0l2,0.2l0.1,0l1,0.1
		l0.1,0l1.1,0.1l0.1,0c0.8,0.1,1.5,0.2,2.3,0.4l2.7,0.5l3.7,0.8l3.5,1c7.2,2.3,10.1,6.9,12,11c0.5,1.3,1,2.6,1.3,3.9l0.1,0.2
		l-0.1,0.2l0.2,0.1l0,0.1c1.8,6.7,3.3,16.7,3.4,19.8c0.2,4.4-0.1,8.2-6.2,10.4l-1.6,0.4L146.3,60.8z"/>
	<path fill="#fff" fill-opacity="0.8" d="M160.7,55.2l-2.1,0c-0.1,0-0.2,0-0.3,0l-0.2,0c-1-0.2-2-0.6-2.9-1.3l-0.2-0.1v-1.3l0.7,0.3c0.1,0,0.2,0.1,0.2,0.2
		c0.7,0.5,1.5,0.9,2.3,1c0.5,0.1,1,0.1,1.6,0.1c3.8,0,11.2-1.2,16.2-2c1.3-0.2,2.5-0.4,3.3-0.5c0.5-0.1,0.9-0.3,1.3-0.6
		c0.4-0.3,0.7-0.7,0.8-1.2c1.7-3.9,0.1-12.9-6.4-22.6c-3.7-5.5-7-8.6-9.9-9.1c-0.3,0-0.6-0.1-0.8-0.1c-1.3,0.1-2.5,0.5-3.5,1.4l0,0
		c-3,2.2-6.4,7.9-8.1,11.2l-0.6,1.1l-0.4-1.8l0.1-0.2c2.2-4,5.5-9.2,8.4-11.3l0.9-0.6c0.2-0.1,0.3-0.2,0.4-0.2
		c0.2-0.1,0.3-0.1,0.4-0.2c0.2-0.1,0.4-0.2,0.6-0.2l0.1,0c0.1-0.1,0.3-0.1,0.5-0.1l0.1,0c0.1,0,0.3-0.1,0.5-0.1c0.2,0,0.4,0,0.6,0
		h0.6c0.2,0,0.4,0,0.6,0.1c3.3,0.6,6.9,3.9,10.7,9.7c0.6,1,1.3,1.9,1.8,2.9l0.1,0.1v0.1l0.2,0.1l0,0.1c5.3,9.3,6,16.9,4.5,20.4
		c-0.7,1.4-1.7,2.3-3.1,2.5c-0.8,0.1-1.9,0.3-3.2,0.5l-6.6,1l-0.2-0.1l-0.2,0.1l-7,0.7L160.7,55.2z"/>
	<path fill="#fff" fill-opacity="0.8" d="M189.6,61.7H189c-0.2,0-0.4,0-0.5-0.1c-0.7-0.2-1.3-0.7-1.7-1.3l-0.1-0.1l0-0.2l-0.2-0.1l-0.3-0.5c-0.2-0.4-0.4-0.7-0.6-1
		c-0.1-0.2-0.2-0.3-0.3-0.4l-0.1-0.1c-0.1-0.1-0.2-0.2-0.2-0.3l-0.5-0.5c-0.1-0.1-0.2-0.1-0.2-0.2l-0.2-0.1
		c-0.1-0.1-0.2-0.2-0.4-0.2c-0.2-0.1-0.4-0.2-0.5-0.3l-1.2-0.5l-1.2-0.3c-0.2,0-0.4-0.1-0.6-0.1l-0.1,0l-0.6,0l-2.4,0
		c-0.3,0-0.7,0-1,0.1l-1.9,0.1h-1.8l-0.1-0.1l-0.1,0.1l-0.5-0.1l-0.1,0c-0.2,0-0.4-0.1-0.5-0.1l-0.1,0c-0.1,0-0.3-0.1-0.4-0.1
		l-0.1,0c-0.1,0-0.2-0.1-0.3-0.1h0l-0.3-0.1l-1.2-0.7l1.9-0.3l0.1,0c0.9,0.3,1.8,0.5,2.8,0.4c0.7,0,1.5,0,2.4-0.1
		c0.9-0.1,1.7-0.1,2.4-0.1c3.9,0,6.7,1.2,8.4,3.6c0.2,0.4,0.5,0.8,0.7,1.1c0.5,0.9,0.8,1.5,1.5,1.7c0.2,0,0.3,0.1,0.5,0.1
		c0.9,0,2.1-0.5,3.7-1.4c9.4-5.5,7-20.8,6-27.3l0-0.2c-0.1-0.6-0.2-1.1-0.2-1.6c-0.3-2.7-1-5.4-1.9-8c-0.9-2.4-2-3.8-3.3-4.3
		c-0.2-0.1-0.5-0.1-0.7-0.1c-2.5,0-5.9,4-7.5,5.9l-0.3,0.3c-1.4,1.7-3.8,4-5.3,5.3c-0.5,0.5-0.9,0.9-1.1,1l-0.5,0.5l-0.7-1.1
		l0.3-0.3c1.3-1.2,4.6-4.2,6.3-6.2l2.4-2.8l1.7-1.6c0.1-0.1,0.3-0.3,0.5-0.4c0.2-0.2,0.4-0.3,0.6-0.4c0.2-0.1,0.3-0.2,0.5-0.4
		l0.1-0.1c0.1-0.1,0.3-0.2,0.5-0.3l0.1,0c0.2-0.1,0.3-0.2,0.5-0.3c0.3-0.1,0.4-0.2,0.6-0.2l0.1,0c0.1,0,0.3-0.1,0.5-0.1
		c0.2,0,0.4,0,0.6,0c0.2,0,0.4,0,0.6,0c0.3,0,0.4,0.1,0.6,0.1c1.6,0.6,3,2.3,4,5c1,2.7,1.6,5.4,2,8.2c0,0.4,0.1,0.8,0.2,1.3
		l0.1,0.7c0.2,1.1,0.4,2.3,0.5,3.7l0,0.2l-0.1,0.1l0.1,0.1l0,0.2c1.3,11.1-0.4,18.5-5.3,22.7l-0.1,0.1h-0.2v0.2l-0.2,0.1
		c-0.5,0.4-0.9,0.7-1.4,1l-0.2,0.1c-0.2,0.1-0.3,0.2-0.5,0.3l-0.3,0.1l-1.3,0.6c-0.2,0.1-0.4,0.1-0.6,0.2l-0.1,0
		c-0.1,0-0.3,0.1-0.5,0.1l-0.2,0C189.8,61.7,189.7,61.7,189.6,61.7z"/>
	<path fill="#fff" fill-opacity="0.8" d="M184.2,65.5h-0.7c-0.2,0-0.5,0-0.7,0l0,0c-0.3,0-0.5-0.1-0.7-0.1l-0.1,0c-0.2,0-0.5-0.1-0.7-0.2H181l-0.3-0.3l-0.2,0.1
		l-0.2-0.1c-5.6-2.3-7.6-8-8-9.1l-0.2-0.7h1.3l0.1,0.3c0.5,1.5,1.3,2.9,2.2,4.2l0.2,0.2c1.3,1.7,3,3,4.9,3.8
		c1.3,0.6,2.8,0.8,4.3,0.5c1.4-0.2,2.8-0.9,3.9-1.9c0.5-0.4,1-0.8,1.6-1.1l0.1,0c0.5-0.2,1-0.3,1.5-0.6l0.1,0
		c0.5-0.1,1-0.2,1.5-0.2c1.4,0,2.7,0.5,3.8,1.3l0,0c0,0,2.9,1.8,5.2,1.8c0.7,0,1.3-0.2,1.8-0.6c0.1-0.1,0.3-0.2,0.4-0.4l0.4-0.3
		c2.7-2.2,6.8-5.4,6.4-18.5c0-1-0.1-1.9-0.1-2.8c0,0,0,0,0-0.1c0-0.1,0-0.1,0-0.2c-0.4-5.6-1.5-7.6-2.3-8.2
		c-0.2-0.2-0.5-0.3-0.8-0.2c-0.4,0-0.8,0.1-1.1,0.2l0,0c-1.1,0.4-3.6,2.2-4.9,3.2c-0.5,0.3-0.8,0.6-1,0.7l-0.7,0.4l-0.2-1.3
		l0.2-0.2c1-0.8,4.5-3.6,6.1-4.1l1-0.3l0.8,0l0.4,0.1c0.1,0,0.2,0.1,0.3,0.1l0.1,0c0.2,0.1,0.3,0.2,0.4,0.2c1.5,1.1,2.4,4,2.8,8.9
		l0,0.2l-0.1,0.2l0.2,0.1l0,0.2c0.1,0.8,0.1,1.6,0.1,2.5c0.4,13.7-4,17.2-6.9,19.5c-0.3,0.2-0.6,0.4-0.8,0.6
		c-0.1,0.1-0.2,0.2-0.3,0.2l-1,0.5l-0.7,0.1l-1.2,0l-1.6-0.3l-1.8-0.7l-1.9-1c-0.1-0.1-0.3-0.2-0.4-0.3l-0.1-0.1
		c-0.1-0.1-0.2-0.1-0.3-0.2l-0.2-0.1c-0.1,0-0.2-0.1-0.3-0.1l-0.1,0c-0.1,0-0.2-0.1-0.4-0.1l-0.1,0c-0.2,0-0.3-0.1-0.3-0.1l-1.5,0
		c-0.1,0-0.2,0-0.3,0.1l-0.2,0c-0.1,0-0.3,0.1-0.4,0.1l-0.1,0c-0.1,0-0.3,0.1-0.4,0.2l-1.1,0.6l-0.4,0.3c-0.1,0.1-0.3,0.2-0.4,0.3
		l-0.9,0.7l-0.9,0.5l-1.1,0.5c-0.2,0.1-0.3,0.1-0.5,0.2l-0.1,0c-0.1,0-0.3,0.1-0.5,0.1l-0.9,0.2C184.5,65.5,184.4,65.5,184.2,65.5z"/>
	<path fill="#fff" fill-opacity="0.8" d="M194.6,74.2l-1.9-0.1l-0.3-0.1l-0.1-1c0.1,0,0.3-0.1,0.4-0.1l0.1-0.1l0.1,0c0.4,0.1,0.9,0.1,1.3,0.1c1.3,0,2.7-0.4,3.9-1
		c0.5-0.2,1-0.5,1.4-0.7l0.1-0.1c1.6-1.1,3.5-1.6,5.5-1.5c1.2,0,2.5,0.1,3.7,0.3c1,0.2,2.1,0.2,3.2,0.3c3.8,0,5.7-1.3,6.3-4.2
		c0.6-4,0.8-8.1,0.6-12.2c-0.2-4.4-1.2-10.2-4.2-12.8c-0.1-0.1-0.3-0.2-0.5-0.2c-0.3,0-0.7,0.2-0.9,0.5l-0.8,0.8l-0.1-1.7l0.8-0.6
		l0.4-0.1c0.1,0,0.2,0,0.2-0.1l0.1,0c0.1,0,0.2,0,0.3,0l0.3,0l0.4,0.1c0.1,0,0.2,0.1,0.3,0.1l0.1,0.1c0.1,0.1,0.2,0.1,0.3,0.2
		c3.3,2.9,4.4,9,4.6,13.7c0.2,4.2,0,8.4-0.6,12.5c-0.1,0.3-0.1,0.5-0.2,0.7l-0.1,0.1c-0.1,0.2-0.1,0.4-0.2,0.5l-0.1,0.2
		c0,0.1-0.1,0.2-0.1,0.3c-0.1,0.2-0.1,0.2-0.2,0.3c-0.1,0.2-0.2,0.3-0.3,0.5c-0.2,0.2-0.3,0.4-0.5,0.6l-0.1,0.1
		c-0.1,0.1-0.2,0.2-0.3,0.3l-0.2,0.1c-0.1,0.1-0.2,0.2-0.4,0.3l-0.3,0.2c-0.1,0.1-0.3,0.1-0.4,0.2l-0.1,0.1
		c-0.2,0.1-0.4,0.2-0.7,0.3l-0.2,0.1c-0.2,0-0.3,0.1-0.5,0.1l-1.2,0.2c-0.2,0-0.3,0-0.5,0h-1.2c-0.3,0-0.5,0-0.7,0h-0.3l-1-0.1
		c-0.3,0-0.7-0.1-1-0.1l-1.7-0.2l-0.1,0l-0.7-0.1l-2.6,0.1l-1.2,0.3l-1.3,0.6l-0.7,0.4c-0.5,0.3-1,0.6-1.6,0.8l-2.4,0.9l-1.3,0.2
		L194.6,74.2z"/>
	<path fill="#fff" fill-opacity="0.8" d="M22.5,61.1c-0.3,0-0.5,0-0.8-0.1c-1.4-0.3-2.3-1.5-2.9-3.4c-2.7-9.2,0.3-31.2,0.4-31.5c0.1-0.8,0.4-1.6,0.8-2.3
		c0.4-0.7,1-1.3,1.7-1.7c0.8-0.5,1.7-0.8,2.7-0.9c1-0.1,1.9,0,2.8,0.2c1.4,0.5,5,2.4,10.5,5.4l0.4,0.2l0.1,0.1
		c0.1,0.1,0.1,0.2,0.1,0.2l0,0.1l0,0.2c0,0.1,0,0.2-0.1,0.3l0,0.1l-0.1,0.1c-0.1,0.1-0.2,0.1-0.3,0.1c-0.2,0.1-0.4,0-0.5-0.1
		c-1.5-0.8-8.5-4.8-10.5-5.5c-0.7-0.2-1.5-0.3-2.2-0.2c-0.8,0.1-1.5,0.3-2.1,0.7c-0.5,0.3-1,0.7-1.3,1.2c-0.3,0.5-0.5,1.1-0.6,1.7
		c-0.5,3.5-2.7,22.9-0.4,30.9c0.4,1.4,1,2.2,1.9,2.4c1.7,0.4,4.5-1.7,6.2-3.7c2.6-2.8,4.7-2.8,4.7-2.8c0.2,0,0.3,0.1,0.5,0.2
		c0.1,0.1,0.2,0.3,0.2,0.5c0,0.2-0.1,0.4-0.2,0.5c-0.1,0.1-0.3,0.2-0.5,0.2c0,0-1.7,0.2-3.8,2.4C27.9,58.4,25.1,61.1,22.5,61.1
		C22.5,61.1,22.5,61.1,22.5,61.1z"/>
	<path fill="#fff" fill-opacity="0.8" d="M190.5,73.4c-0.4-0.1-0.8-0.2-1.2-0.3v0.1l-0.7-0.4l-0.2,0.1l-0.1-0.1c-3.1-1.7-6.1-5.5-7.2-7.1l-0.8-1.1L182,65l0.1,0.1
		c1.3,1.8,4.6,6,7.8,7l0.8,0.2L190.5,73.4z"/>
</g>
</svg>
