<svg width="220" height="129" fill="none" xmlns="http://www.w3.org/2000/svg"><path d="M8.873 114.698a7.084 7.084 0 01-3.245.667 12.627 12.627 0 01-2.684-.31c-1.229-.278-1.975-1.204-2.23-2.825-.695-4.423 2.568-11.976 6.226-14.82 0-.115.046-.23.07-.342C3.213 99.847-.236 107.72.482 112.281c.27 1.704 1.085 2.718 2.43 3.015.268.06.528.106.778.148l.246.032.464.065h.273l.399.033H6.43l.39-.037h.088l.426-.07h.107l.287-.065.116-.027.26-.075h.074l.287-.101h.056l.195-.079.07-.033.147-.069.047-.023.055-.028-.162-.269z" fill="#fff" fill-opacity=".8"/><path d="M9.068 114.055l.233.385.162.269.28.463-.484.242-.056.028h0l-.046.023-.011.006h0l-.149.069v.001l-.07.032-.012.006-.012.004-.195.079-.09.037h-.067l-.206.073-.081.028h-.09l-.193.055-.01.003-.01.003-.116.028-.007.001h0l-.287.065-.055.012h-.121l-.387.063-.04.007h-.105l-.366.034-.023.003H5.052l-.02-.002-.38-.031h-.286l-.035-.005-.46-.064h-.003l-.242-.032-.009-.001-.008-.002c-.253-.042-.523-.09-.805-.153 0 0 0 0 0 0l.052-.236s0 0 0 0l6.213-1.493zm0 0l-.407.191a6.608 6.608 0 01-3.016.62v-.001h-.013a12.024 12.024 0 01-2.578-.298m6.014-.512l-6.014.512m0 0c-.51-.115-.902-.358-1.198-.732-.303-.381-.53-.928-.648-1.683l1.846 2.415zM7.44 97.655l-.193.15c-1.736 1.35-3.423 3.863-4.592 6.618-1.17 2.76-1.774 5.651-1.447 7.729L7.44 97.655zm0 0v-.243.243z" stroke="#fff" stroke-opacity=".8"/><mask id="a" maskUnits="userSpaceOnUse" x="5.883" y="90.302" width="13" height="28" fill="#000"><path fill="#fff" d="M5.883 90.302h13v28h-13z"/><path d="M16.726 114.606a3.454 3.454 0 01-2.911 1.773 3.947 3.947 0 01-1.085-.162c-6.24-1.778-6.175-10.924-5.026-18.278a6.888 6.888 0 014.836-5.812 11.381 11.381 0 013.546-.593l.102-.232h-.728l-.324.023h-.07l-.408.047h-.116l-.352.055h-.116l-.463.093h-.093l-.408.102-.14.037c-.166.046-.338.102-.505.157a7.025 7.025 0 00-4.584 4.437.43.43 0 01-.14.602H7.71a9.354 9.354 0 00-.222 1.028c-.928 5.895-1.14 12.925 1.984 16.505a.426.426 0 01.426.463 6.548 6.548 0 002.759 1.565c.188.055.38.096.574.126h.181c.12 0 .237.023.353.027.115.005.231 0 .347 0h.088c.136-.015.27-.038.404-.069l.106-.033c.093-.023.181-.051.27-.083l.129-.056.213-.097.125-.069.186-.111.111-.074.172-.13.092-.074.172-.153.06-.056c.074-.069.14-.143.204-.213l.037-.041.14-.167.055-.07.093-.125.046-.069.07-.102c-.056-.046-.107-.116-.158-.171z"/></mask><path d="M16.726 114.606a3.454 3.454 0 01-2.911 1.773 3.947 3.947 0 01-1.085-.162c-6.24-1.778-6.175-10.924-5.026-18.278a6.888 6.888 0 014.836-5.812 11.381 11.381 0 013.546-.593l.102-.232h-.728l-.324.023h-.07l-.408.047h-.116l-.352.055h-.116l-.463.093h-.093l-.408.102-.14.037c-.166.046-.338.102-.505.157a7.025 7.025 0 00-4.584 4.437.43.43 0 01-.14.602H7.71a9.354 9.354 0 00-.222 1.028c-.928 5.895-1.14 12.925 1.984 16.505a.426.426 0 01.426.463 6.548 6.548 0 002.759 1.565c.188.055.38.096.574.126h.181c.12 0 .237.023.353.027.115.005.231 0 .347 0h.088c.136-.015.27-.038.404-.069l.106-.033c.093-.023.181-.051.27-.083l.129-.056.213-.097.125-.069.186-.111.111-.074.172-.13.092-.074.172-.153.06-.056c.074-.069.14-.143.204-.213l.037-.041.14-.167.055-.07.093-.125.046-.069.07-.102c-.056-.046-.107-.116-.158-.171z" fill="#fff" fill-opacity=".8"/><path d="M16.726 114.606l.737-.676-.938-1.022-.673 1.212.874.486zm-2.911 1.773l-.01 1 .02.001.02-.001-.03-1zm-1.085-.162l.282-.959-.008-.002-.274.961zM7.704 97.939l.988.154.004-.02.002-.021-.994-.113zm4.836-5.812l.292.956.013-.004.013-.004-.318-.948zm3.546-.593l.007 1 .647-.005.261-.592-.915-.403zm.102-.232l.915.403.618-1.403h-1.533v1zm-.728 0v-1h-.035l-.036.003.071.997zm-.324.023v1h.035l.036-.002-.071-.997zm-.07 0v-1h-.056l-.057.007.113.994zm-.408.047v1h.057l.056-.007-.113-.993zm-.116 0v-1h-.078l-.077.012.155.988zm-.352.055v1h.078l.078-.012-.156-.988zm-.116 0v-1h-.099l-.097.02.196.98zm-.463.093v1h.098l.098-.02-.197-.98zm-.093 0v-1h-.123l-.12.03.243.97zm-.408.102l-.242-.97-.008.001-.008.002.258.967zm-.14.037l-.257-.967-.01.003.268.964zm-.505.157l.294.956.011-.003.011-.004-.316-.949zm-4.584 4.437l-.946-.324-.158.459.264.407.84-.542zm-.14.602v1h.28l.238-.144-.517-.856zm-.032 0v-1h-.761l-.203.734.964.266zm-.222 1.028l-.988-.156.988.156zm1.984 16.505l-.754.658.3.344.457-.002-.003-1zm.426.463l-.996-.087-.042.48.349.332.69-.725zm2.759 1.565l.275-.961-.007-.002-.268.963zm.574.126l-.148.988.074.012h.074v-1zm.97.027v1h.054l.054-.006-.109-.994zm.403-.069l.23.973.03-.007.03-.009-.29-.957zm.106-.033l-.242-.97-.024.006-.025.008.291.956zm.27-.083l.345.939.024-.009.024-.011-.394-.919zm.129-.056l.393.92.011-.005.01-.005-.414-.91zm.213-.097l.415.91.036-.016.034-.019-.485-.875zm.125-.069l.486.874.014-.008.014-.009-.514-.857zm.186-.111l.514.857.02-.012.02-.013-.554-.832zm.111-.074l.554.832.025-.017.024-.018-.603-.797zm.172-.13l.603.798.01-.009.01-.008-.623-.781zm.092-.074l.625.781.02-.017.02-.018-.665-.746zm.172-.153l.665.747.006-.006.007-.006-.678-.735zm.06-.056l.678.736.006-.006-.684-.73zm.204-.213l.73.683.01-.009.007-.009-.747-.665zm.037-.041l.747.664.01-.012.011-.012-.768-.64zm.14-.167l.767.641.006-.008.007-.008-.78-.625zm.055-.07l.78.626.012-.015.011-.015-.803-.596zm.093-.125l.803.596.015-.02.013-.02-.831-.556zm.046-.069l-.826-.564-.006.009.832.555zm.07-.102l.825.564.513-.751-.699-.581-.64.768zm-1.032-.657a2.45 2.45 0 01-.868.903l1.04 1.708a4.455 4.455 0 001.576-1.639l-1.748-.972zm-.868.903c-.362.22-.776.344-1.2.357l.062 1.999a4.464 4.464 0 002.179-.648l-1.04-1.708zm-1.16.356a2.942 2.942 0 01-.812-.121l-.565 1.919c.441.129.898.198 1.357.202l.02-2zm-.82-.123c-2.582-.736-3.983-2.997-4.574-6.265-.59-3.263-.307-7.257.262-10.898l-1.976-.309c-.58 3.713-.904 7.97-.254 11.563.649 3.588 2.336 6.79 5.994 7.832l.548-1.923zM8.698 98.052c.13-1.14.59-2.218 1.324-3.101l-1.537-1.28a7.887 7.887 0 00-1.774 4.155l1.987.226zm1.324-3.101a5.899 5.899 0 012.81-1.868l-.585-1.913a7.899 7.899 0 00-3.762 2.502l1.537 1.279zm2.836-1.876a10.384 10.384 0 013.235-.541l-.014-2c-1.312.01-2.614.227-3.858.645l.637 1.895zm4.143-1.138l.102-.232-1.83-.806-.102.232 1.83.806zm-.813-1.635h-.334v2h.334v-2zm-.334 0h-.296v2h.296v-2zm-.296 0h-.098v2h.098v-2zm-.169.003l-.324.023.142 1.995.324-.023-.142-1.995zm-.253.02h-.07v2h.07v-2zm-.183.007l-.408.046.226 1.987.408-.046-.226-1.987zm-.295.04h-.116v2h.116v-2zm-.271.012l-.353.056.312 1.975.352-.055-.311-1.976zm-.197.043h-.116v2h.116v-2zm-.312.02l-.463.092.392 1.962.463-.093-.392-1.961zm-.268.073h-.092v2h.092v-2zm-.335.03l-.407.102.484 1.94.408-.102-.485-1.94zm-.423.106l-.139.037.515 1.932.14-.037-.516-1.932zm-.149.04c-.192.053-.384.115-.553.172l.631 1.897a9.64 9.64 0 01.457-.142l-.535-1.928zm-.53.164a8.025 8.025 0 00-3.229 1.906l1.39 1.437a6.026 6.026 0 012.425-1.43l-.587-1.913zm-3.229 1.906a8.015 8.015 0 00-2.01 3.163l1.893.648c.308-.9.824-1.713 1.508-2.374l-1.391-1.437zm-1.903 4.03a.569.569 0 01-.083-.211l1.97-.345a1.431 1.431 0 00-.207-.53l-1.68 1.086zm-.083-.211a.57.57 0 01.006-.227l1.949.45a1.43 1.43 0 00.015-.568l-1.97.345zm.006-.227a.57.57 0 01.094-.206l1.62 1.174c.112-.155.192-.331.235-.518l-1.949-.45zm.094-.206A.568.568 0 017.224 96l1.035 1.712c.164-.1.306-.23.418-.385l-1.62-1.174zm.684-.297h-.033v2h.033v-2zm-.997.734a10.35 10.35 0 00-.246 1.138l1.975.312c.05-.31.116-.616.199-.918l-1.928-.532zM6.5 97.728c-.47 2.986-.766 6.302-.537 9.351.228 3.025.983 5.936 2.755 7.967l1.507-1.316c-1.352-1.549-2.052-3.942-2.268-6.801-.213-2.835.061-5.982.518-8.89L6.5 97.727zm2.975 17.66a.575.575 0 01-.23-.048l.799-1.833a1.426 1.426 0 00-.576-.119l.007 2zm-.23-.048a.57.57 0 01-.193-.137l1.47-1.355a1.42 1.42 0 00-.478-.341l-.8 1.833zm-.193-.137A.58.58 0 018.93 115l1.893-.646a1.426 1.426 0 00-.301-.506l-1.471 1.355zM8.93 115a.577.577 0 01-.029-.236l1.992.174a1.426 1.426 0 00-.07-.584L8.93 115zm.278.576a7.568 7.568 0 003.179 1.804l.537-1.927a5.559 5.559 0 01-2.338-1.326l-1.378 1.449zm3.172 1.802c.23.066.465.117.702.152l.297-1.977a3.61 3.61 0 01-.448-.098l-.55 1.923zm.85.164h.181v-2h-.18v2zm.181 0h.014l.056.006c.041.004.142.016.243.02l.08-1.998-.107-.01a2.508 2.508 0 00-.286-.018v2zm.313.026c.139.006.328.001.387.001v-2c-.172 0-.215.005-.308.001l-.08 1.998zm.387.001h.088v-2h-.088v2zm.197-.006a4.25 4.25 0 00.525-.09l-.46-1.946a2.234 2.234 0 01-.282.048l.217 1.988zm.585-.106l.107-.033-.582-1.913-.106.032.582 1.914zm.058-.019c.132-.033.255-.072.372-.115l-.69-1.877a1.579 1.579 0 01-.166.051l.484 1.941zm.42-.135l.13-.055-.787-1.839-.13.056.788 1.838zm.152-.065l.213-.097-.83-1.82-.213.098.83 1.819zm.284-.132l.125-.07-.971-1.749-.125.07.97 1.749zm.153-.087l.186-.111-1.028-1.715-.186.111 1.028 1.715zm.226-.136l.111-.074-1.108-1.665-.111.074 1.108 1.665zm.16-.109l.172-.129-1.207-1.596-.171.13 1.206 1.595zm.193-.146l.093-.074-1.249-1.562-.093.074 1.249 1.562zm.133-.109l.172-.152-1.33-1.494-.172.153 1.33 1.493zm.185-.164l.06-.055-1.356-1.471-.06.056 1.356 1.47zm.066-.061c.106-.1.214-.221.25-.26l-1.46-1.365c-.094.099-.116.126-.157.165l1.367 1.46zm.267-.278l.037-.042-1.494-1.329-.037.042 1.494 1.329zm.058-.066l.14-.166-1.537-1.282-.139.167 1.536 1.281zm.152-.182l.055-.069-1.56-1.251-.056.07 1.56 1.25zm.078-.099l.093-.125-1.607-1.191-.092.125 1.606 1.191zm.121-.165l.047-.07-1.664-1.11-.046.069 1.663 1.111zm.04-.061l.07-.102-1.651-1.128-.07.102 1.652 1.128zm-.116-1.434a.558.558 0 01.04.035l-.004-.004-.014-.015a1.989 1.989 0 01-.02-.024l-.062-.071-1.474 1.352.014.016.044.052c.033.038.103.118.197.196l1.28-1.537z" fill="#fff" fill-opacity=".8" mask="url(#a)"/><path d="M33.24 110.521c-.927 1.19-4.798 5.534-10.607 5.534-.464 0-.929-.028-1.39-.083a6.313 6.313 0 01-4.692-2.969c-2.92-4.431-2.434-12.564-.741-18.25 1.39-4.706 3.852-8.202 6.73-9.596a5.716 5.716 0 012.49-.611 4.204 4.204 0 011.567.291c2.152.817 4.4 1.353 6.69 1.594l.176-.213a26.672 26.672 0 01-6.782-1.594 4.179 4.179 0 00-.464-.148l-.144-.032-.32-.065-.171-.023-.32-.028h-.367c-.124 0-.254 0-.38.023l-.231.028c-.125 0-.255.042-.38.07l-.227.05a6.986 6.986 0 00-.413.126l-.223.05a5.755 5.755 0 00-.611.26c-2.1 1.014-3.974 3.121-5.387 5.983a.412.412 0 01.05.218.426.426 0 01-.333.38 24.23 24.23 0 00-1.178 3.158c-1.706 5.733-2.193 13.949.77 18.441.236.354.502.689.793 1a.38.38 0 01.106 0 .422.422 0 01.413.505 6.388 6.388 0 003.523 1.584c.241.027.48.049.714.064h1.543l.464-.037.237-.032.38-.051.255-.046.352-.07.255-.06.334-.083.25-.07.316-.116.24-.083.307-.111.236-.088.297-.12.222-.098.288-.129.213-.102.278-.144.2-.106.273-.153.185-.107.274-.166.171-.107.274-.181.144-.097.296-.208.107-.074c.264-.19.51-.385.742-.579l.06-.051.273-.232.102-.088.214-.19.111-.101.185-.172.102-.102.163-.162.102-.102.148-.148.093-.097.13-.139.083-.093.116-.129.074-.084.102-.115.065-.075.088-.106.056-.065.074-.092.041-.051-.176-.135z" fill="#fff" fill-opacity=".8"/><path d="M33.544 110.124l-.394-.3-.304.39c-.908 1.165-4.648 5.341-10.212 5.341-.445 0-.89-.027-1.332-.08h-.005a5.835 5.835 0 01-3.365-1.558 5.788 5.788 0 01-.955-1.176l-.004-.006-.004-.007c-1.384-2.099-1.987-5.128-2.019-8.384-.03-3.245.506-6.65 1.339-9.449h0c1.372-4.641 3.771-7.981 6.47-9.288h0l.007-.004a5.216 5.216 0 012.27-.557c.471-.003.94.084 1.378.257h0l.006.002a27.229 27.229 0 006.814 1.623l.267.028.171-.207.176-.213.598-.723-.933-.093a26.178 26.178 0 01-6.654-1.563 4.708 4.708 0 00-.518-.165l-.007-.002-.007-.001-.144-.033h0l-.01-.002-.32-.065-.016-.003-.017-.002-.171-.024-.012-.001-.012-.001-.32-.028-.021-.002h-.402c-.113 0-.275 0-.44.028l-.194.024a2.086 2.086 0 00-.412.07l-.04.01h-.002l-.227.052-.01.002-.01.002c-.143.039-.28.08-.418.126l-.2.046-.03.007-.028.01a6.267 6.267 0 00-.662.28c-2.233 1.08-4.172 3.291-5.615 6.212l-.116.234.067.12-.137.03-.103.228a24.738 24.738 0 00-1.202 3.223c-.866 2.91-1.422 6.448-1.386 9.833.035 3.374.66 6.663 2.217 9.025l.002.002a8.4 8.4 0 00.843 1.064l.175.187.2-.025-.037.184.213.19a6.88 6.88 0 003.8 1.708h0c.249.029.495.051.738.067l.017.001h1.58l.02-.001.463-.037.014-.001.014-.002.235-.033h.002l.378-.05.012-.002.011-.002.255-.046h0l.008-.002.352-.069.01-.002.008-.002.255-.06h0l.006-.002.334-.083h0l.013-.004.25-.069.02-.005.019-.007.31-.115.237-.081h0l.007-.003.306-.111.004-.002.236-.087.007-.003.007-.003.297-.12h0l.012-.005.223-.098h0l.005-.002.287-.13h0l.01-.004.213-.102.007-.003.007-.004.278-.144h0l.007-.003.199-.106h0l.008-.005.274-.153h0l.005-.003.185-.106h0l.012-.007.273-.166h0l.004-.003.171-.106h0l.012-.008.273-.18h0l.005-.003.144-.098h0l.007-.005.295-.207.002-.001.104-.073h0l.007-.004c.276-.199.532-.401.771-.602l.001-.001.06-.051.001-.001.273-.231h0l.004-.003.102-.088h0l.006-.005.213-.19h0l.005-.005.112-.102.001-.001.186-.172.007-.006.007-.007.102-.102.162-.162.102-.102.148-.148h0l.009-.009.093-.097h0l.003-.004.13-.139h0l.006-.006.083-.093.002-.001.116-.13v-.001l.075-.083.001-.002.102-.116.001-.001.065-.074.005-.005.004-.006.085-.103.053-.061.006-.007.005-.006.072-.091.04-.049.328-.4-.411-.314-.176-.134z" stroke="#fff" stroke-opacity=".8"/><path d="M56.693 104.668c-.577.268-1.173.491-1.785.666-2.508.737-3.245 1.14-7.273 3.381l-.232.13a17.73 17.73 0 01-8.48 2.315c-.463 0-.76-.028-.764-.028h-.107c-7.658-1.069-9.387-6.275-9.485-10.452-.222-9.521 8.076-17.366 13.018-20.506a9.32 9.32 0 015.1-1.366c2.098.04 4.17.48 6.105 1.296.027-.069.055-.143.088-.213l-.288-.12-.065-.028-.185-.074-.079-.028-.301-.106-.334-.111-.107-.033-.278-.088-.116-.037-.398-.116-.464-.11-.134-.033-.348-.079-.148-.032-.464-.093h-.028l-.519-.079h-.153l-.403-.046h-.167l-.529-.037h-1.386c-.185 0-.375.028-.56.046h-.033c-.2 0-.394.051-.594.084l-.171.032-.464.093-.18.041c-.19.051-.385.102-.575.167-.195.065-.39.14-.584.218l-.167.074a7.755 7.755 0 00-.431.199l-.172.088c-.19.102-.38.208-.566.329a34.021 34.021 0 00-7.12 6.21.422.422 0 01-.227.264c-3.246 3.807-5.902 8.73-5.772 14.194.079 3.335 1.173 7.313 5.387 9.41a.479.479 0 01.092 0 .423.423 0 01.246.075.42.42 0 01.135.166c1.221.524 2.51.877 3.829 1.047h1.84l.464-.037.547-.065.167-.023.463-.07.19-.032.64-.125c.223-.046.464-.102.69-.167l.21-.055.542-.153.222-.07a16.779 16.779 0 001.544-.565l.237-.101.602-.274.246-.116c.273-.134.552-.277.834-.435l.232-.129c4.02-2.233 4.743-2.631 7.228-3.363a12.316 12.316 0 001.905-.717l-.167-.213z" fill="#fff" fill-opacity=".8"/><path d="M56.842 104.047l.245.312.166.213.386.492-.565.268c-.638.303-1.3.553-1.98.747-2.425.714-3.106 1.087-7.123 3.318l-.001.001-.23.129h-.001c-.292.162-.578.31-.858.447l-.007.004h0l-.246.116-.006.003h0l-.603.273-.008.004h0l-.237.102-.007.003v-.001a16.994 16.994 0 01-1.582.58l-.004.001-.222.069-.013.004h0l-.543.153-.007.002h0l-.204.054a10.16 10.16 0 01-.722.174l-.006.002h0l-.64.125-.011.002h0l-.19.032-.01.002h0l-.464.069-.005.001h0l-.167.023-.01.002h0l-.547.064-.01.002h-.01l-.463.037-.02.002h-1.892l-.032-.004a14.89 14.89 0 01-3.962-1.083l-.18-.077-.056-.125-.131.015-.132-.066c-4.453-2.217-5.583-6.424-5.664-9.846l28.974 3.355zm0 0l-.36.167c-.553.258-1.125.471-1.712.64l-.003.001c-2.566.753-3.346 1.181-7.376 3.423v.001l-.232.129-.003.002a17.226 17.226 0 01-8.236 2.25m17.922-6.613L38.92 110.66m0 0a9.612 9.612 0 01-.669-.022l-.037-.003-.011-.001h-.006l-.007-.001h-.008 0l-.023-.001h-.072c-3.694-.523-5.9-2.027-7.206-3.852-1.322-1.845-1.767-4.079-1.814-6.111h0c-.108-4.61 1.848-8.844 4.472-12.335 2.622-3.487 5.883-6.193 8.31-7.736a8.821 8.821 0 014.823-1.29h.003c2.035.038 4.045.465 5.92 1.257l.47.198.189-.473.023-.058c.02-.051.035-.09.054-.129l.22-.472-.48-.2-.284-.12-.004-.001-.06-.026h0l-.012-.005-.185-.074-.01-.004-.01-.003-.078-.028h0l-.302-.107h0l-.008-.003-.334-.11h0l-.012-.005-.105-.031-.273-.087h-.002l-.114-.037h0l-.013-.004-.399-.116-.011-.003-.012-.003-.463-.11h0l-.134-.033h0l-.007-.002-.348-.079h0-.003l-.149-.033h0l-.008-.001-.464-.093-.049-.01h-.04l-.481-.073-.037-.006h-.162l-.375-.043-.029-.003h-.178l-.51-.036h-1.422a4.612 4.612 0 00-.586.045h-.007c-.198 0-.415.042-.565.07l-.109.02h0l-.012.002-.172.033h0-.005l-.464.094h-.007l-.007.002-.18.042-.01.002-.008.002-.045.013a8.762 8.762 0 00-1.172.391l-.008.003-.007.004-.164.072a8.346 8.346 0 00-.455.21h0l-.005.003-.171.088h0l-.008.004a8.245 8.245 0 00-.602.35v.001a34.524 34.524 0 00-7.226 6.301l-.072.083-.02.07-.067.032-.071.083c-3.287 3.856-6.025 8.895-5.891 14.53l11.052 9.968z" stroke="#fff" stroke-opacity=".8"/><path d="M80.795 99.916c-.431 4.511-3.58 6.081-3.709 6.145-.046.024-3.19 1.793-8.103 1.793a22.462 22.462 0 01-8.683-1.806c-6.11-2.557-8.66-10.962-7.181-23.674v-.195a5.388 5.388 0 011.534-3.408 3.738 3.738 0 012.596-.991c.18 0 .36.011.538.032 2.843.392 5.71.585 8.581.579 4.279 0 11.4 0 13.268 1.098 0-.084 0-.172.023-.255-2.068-1.075-9.058-1.075-13.291-1.075a61.721 61.721 0 01-8.558-.578 4.93 4.93 0 00-.524-.033h-.403c-.144 0-.278.033-.417.056l-.116.028-.288.069-.143.046-.246.093-.144.065-.232.115-.134.075a2.518 2.518 0 00-.232.152l-.106.075c-.111.082-.218.17-.32.263-.375.35-.689.76-.927 1.214a.393.393 0 01-.167.338 6.831 6.831 0 00-.524 2v.195c-1.233 10.6.334 18.237 4.422 22.035h.065a.427.427 0 01.367.203c.04.07.06.151.055.232a9.743 9.743 0 002.416 1.454c.37.153.732.292 1.094.426l.315.111c.269.093.535.181.797.264l.302.093a24.1 24.1 0 001.033.282h.056c.325.079.64.148.955.209l.292.055.737.125.264.042c.316.042.63.083.928.111h.102c.275.025.545.043.81.056h2.087l.677-.047h.236l.547-.06.204-.023.691-.102h.088l.57-.106.2-.042.44-.097.176-.042.547-.144h.07l.463-.134.153-.051.325-.106.134-.047.39-.143h.046l.306-.121.102-.041.204-.088.079-.037.185-.158.158-.078h.042l.074-.042h.06c.051-.023 3.398-1.649 3.843-6.33.376-3.937.733-5.655.927-6.364l-.106-.426c-.13.38-.561 1.908-1.02 6.715z" fill="#fff" fill-opacity=".8"/><path d="M63.815 106.932h.054l.058.014c.318.077.625.145.93.203l-1.042-.217zm0 0a25.29 25.29 0 01-.952-.261l-.294-.09-.002-.001a34.8 34.8 0 01-.782-.259l-.001-.001-.308-.108a33.845 33.845 0 01-1.069-.416l-.002-.001-.002-.001a9.204 9.204 0 01-2.139-1.258.934.934 0 00-.09-.217h0l-.007-.01a.93.93 0 00-.647-.431c-3.805-3.665-5.351-11.026-4.138-21.474l.002-.014.001-.016.002-.013v-.029l10.428 24.6zm16.482-7.064c-.405 4.237-3.338 5.698-3.433 5.746h-.001l-.007.004c-.161.088-3.187 1.735-7.872 1.736a21.96 21.96 0 01-8.488-1.766l-.003-.002c-2.88-1.204-4.964-3.799-6.151-7.712-1.19-3.92-1.462-9.124-.727-15.442l.004-.03v-.205A4.888 4.888 0 0155 79.13a3.239 3.239 0 012.24-.85h.007c.159 0 .318.01.476.028 2.864.395 5.753.59 8.645.583 2.141 0 4.977 0 7.51.136 1.267.069 2.447.17 3.42.321.995.154 1.706.35 2.084.572l.753.442v-.873c0-.045 0-.07.002-.094 0-.02.003-.027.003-.027h0l.108-.39-.36-.188c-.595-.31-1.49-.52-2.51-.672-1.034-.154-2.252-.256-3.527-.323-2.549-.136-5.365-.136-7.478-.136h-.007a61.235 61.235 0 01-8.489-.574h0l-.01-.001a5.446 5.446 0 00-.577-.036v0h-.005 0-.001 0-.002 0-.002 0-.002 0-.002 0-.002 0-.002 0-.001 0-.002 0-.002 0-.002 0-.002 0-.002 0-.002 0-.002 0-.001 0-.002 0-.002 0-.002 0-.002 0-.002 0-.002 0-.001 0-.002 0-.002 0-.002 0-.002 0-.002 0-.002 0-.001 0-.002 0-.002 0-.002 0-.002 0-.002 0-.002 0-.001 0-.002 0-.002 0-.002 0-.002 0-.002 0-.001 0-.002 0-.002 0-.002 0-.002 0-.002 0-.001 0-.002 0-.002 0-.002 0-.002 0-.002 0-.001 0-.002 0-.002 0-.002 0-.002 0-.002 0-.001 0-.002 0-.002 0-.002 0-.002 0-.001 0-.002 0-.002 0-.002 0-.002 0-.002 0-.001 0-.002 0-.002 0-.002 0-.002 0-.002 0-.001 0-.002 0-.002 0-.002 0-.002 0-.002 0-.001 0-.002 0-.002 0-.002 0-.002 0-.002 0-.001 0-.002 0-.002 0-.002 0-.002 0-.002 0-.002 0-.001 0-.002 0-.002 0-.002 0-.002 0-.002 0-.001 0-.002 0-.002 0-.002 0-.002 0-.002 0-.002 0-.001 0-.002 0-.002 0-.002 0-.002 0-.002 0-.002 0-.002 0-.001 0-.002 0-.002 0-.002 0-.002 0-.002 0-.002 0-.002 0-.002 0-.001 0-.002 0-.002 0-.002 0-.002 0-.002 0-.002 0-.002 0-.002 0-.002 0-.002 0-.001 0-.002 0-.002 0-.002 0-.002 0-.002 0-.002 0-.002 0-.002 0-.002 0-.002 0-.002 0-.002 0-.002 0-.002 0H57h0-.002 0-.002 0-.002 0-.002 0-.002 0-.002 0-.002 0-.002 0-.002 0-.002 0-.002 0-.002 0-.002 0-.002 0-.002 0-.002 0-.002 0-.002 0-.002 0-.002 0-.002 0-.002 0-.002 0-.002 0-.001 0-.002 0-.002 0-.002 0-.002 0-.002 0-.002 0-.057c-.163 0-.33.031-.438.051a.675.675 0 01-.061.011l-.018.003-.017.005-.116.027h0l-.288.07-.018.004-.018.006-.144.046-.011.004-.012.004-.245.093-.015.006-.015.006-.143.065-.01.004-.008.004-.232.116-.009.005-.009.005-.134.074h0l-.012.007c-.089.052-.181.11-.27.178l-.1.069-.007.004-.006.005a4.488 4.488 0 00-.36.297h0l-.003.003a5.073 5.073 0 00-1.029 1.346l-.063.119.004.076-.068.048-.056.13a7.329 7.329 0 00-.562 2.147l-.003.026v.191c-1.23 10.613.31 18.461 4.582 22.43l.144.134h.179l-.009.161.196.16a10.24 10.24 0 002.54 1.529l.002.001c.378.156.745.297 1.11.433h0l.008.003.316.111.003.001c.273.094.542.183.809.268l.004.001.302.093h0l.006.002c.351.103.706.202 1.055.288l.059.014h.056c.311.075.616.141.921.2h0l.293.055v.001l.01.001.737.125h0l.005.001.264.042h0l.013.002h.005c.311.042.635.084.941.113l.023.002h.105c.273.024.544.043.81.055l.011.001h2.115l.017-.001.66-.046h.247l.027-.003.547-.06h.002l.204-.023.008-.001.008-.001.655-.097h.097l.046-.008.57-.107h0l.01-.002.2-.042h0l.005-.001.44-.097h0l.008-.002.176-.041h0l.012-.003.485-.128h.075l.069-.019.463-.135.01-.002.01-.003.15-.051h.002l.323-.106h0l.007-.003.134-.046h0l.01-.003.306-.113h.052l.088-.035.306-.12h0l.006-.003.102-.041h0l.01-.004.203-.088.007-.003.008-.004.078-.037.06-.028.052-.043.138-.117h.053l.075-.042h.037l.099-.045c.125-.057 3.664-1.799 4.134-6.738.374-3.926.728-5.611.911-6.278l.035-.127-.032-.127-.106-.426-.411-1.642-.547 1.601c-.15.437-.585 2.013-1.045 6.83zM66.37 78.66c2.118 0 4.91 0 7.43.134 1.26.067 2.442.166 3.432.314 1.006.15 1.76.343 2.198.57l.098-.188h.109l.132-.225.121-.206-.107-.06c-.559-.294-1.391-.493-2.33-.638-1.02-.158-2.237-.262-3.52-.331-2.561-.138-5.422-.138-7.558-.138h-.006 0-.001a61.383 61.383 0 01-8.512-.574h0l-.008-.001h-.002l-.004-.001a5.225 5.225 0 00-.552-.035h-.003l9.083 1.38z" stroke="#fff" stroke-opacity=".8"/><path d="M112.318 94.891l-.964-10.98a.43.43 0 01-.195-.565l.121-.278-.737-8.414c0-.148-.269-3.45-4.006-3.45h-.12c-4.39.083-20.671 1.963-24.677 5.506a3.626 3.626 0 00-1.39 2.255.402.402 0 01-.066.496 12.387 12.387 0 000 1.565c.056 1.459 1.104 7.6 2.138 11.763l.092.037a.43.43 0 01.177.57 1.289 1.289 0 00-.065.18c.21.855.481 1.694.81 2.51l.056.12c.144.32.288.63.432.927l.139.282c.102.204.2.403.301.598l.162.305c.1.186.198.366.297.542l.153.273c.116.2.232.394.352.584l.102.167c.149.237.303.467.464.69l.125.176c.111.162.223.319.334.463l.162.218.301.389.167.208.32.375.14.162c.152.171.3.334.463.486l.074.074c.13.13.258.255.385.376l.157.143.302.269.171.143.302.241.157.125.367.264.083.06c.148.102.292.195.44.283l.14.083.3.172.163.088.278.143.158.074.301.134.125.056.413.158.097.032.31.102.144.041.26.07.148.037.26.06.125.028.348.06h.028l.357.047h1.998-.01l.316-.028h.088l.269-.028c8.622-.982 11.766-3.367 13.703-5.557a7.31 7.31 0 001.674-4.256.406.406 0 01-.175-.356.423.423 0 01.06-.196.42.42 0 01.147-.143c.004-.32-.013-.64-.051-.959zm-1.826 5.785c-1.91 2.167-5.012 4.52-13.556 5.492-.513.066-1.03.102-1.548.107-4.775 0-8.715-3.418-11.71-10.152l-.056-.12c-1.214-2.732-3.06-13.023-3.129-14.972-.079-2.121.12-3.061 1.39-4.136 3.95-3.496 20.144-5.358 24.515-5.441h.116c3.519 0 3.765 3.103 3.774 3.242l1.78 20.237c.028.028.496 3.39-1.576 5.747v-.004z" fill="#fff" fill-opacity=".8"/><path d="M111.571 96.873c-.126 1.037-.479 2.295-1.343 3.345l-.111.127c-.919 1.042-2.119 2.126-4.128 3.073-2.019.95-4.873 1.771-9.109 2.253h0l-.007.001c-.494.064-.99.098-1.487.103-4.479-.002-8.288-3.192-11.251-9.855h0l-.003-.006-.054-.117c-.252-.568-.543-1.509-.845-2.674a.937.937 0 00-.076-.297 95.036 95.036 0 01-1.038-4.7c-.623-3.165-1.093-6.185-1.126-7.113h0c-.04-1.057-.004-1.747.167-2.293.163-.52.463-.949 1.047-1.443h0l.008-.007c.902-.799 2.565-1.546 4.7-2.211 2.114-.659 4.623-1.218 7.156-1.672 5.067-.91 10.177-1.392 12.332-1.433h.111c1.579 0 2.365.68 2.781 1.336a3.39 3.39 0 01.494 1.439h0l.001.01 1.78 20.238.016.181.013.013c.009.087.02.21.026.362.015.334.012.802-.054 1.34zm1.298-1.017a8.017 8.017 0 00-.053-1.016l-.964-10.972-.024-.276-.188-.096.099-.229.05-.116-.011-.126-.736-8.403c-.01-.219-.114-1.126-.678-2.016-.621-.981-1.778-1.902-3.827-1.902h-.12v0h-.01c-2.228.042-7.423.537-12.561 1.464-2.572.463-5.142 1.037-7.327 1.722-2.156.675-4.007 1.477-5.095 2.432a4.126 4.126 0 00-1.567 2.555l-.033.184.057.095-.083.08-.013.193c-.034.54-.034 1.082 0 1.623.03.774.313 2.705.709 4.929.4 2.245.922 4.832 1.442 6.928l.062.25.214.085a2.013 2.013 0 00-.067.193l-.037.129.032.13c.216.878.495 1.74.833 2.578l.005.01.005.012.053.116.002.002c.144.322.29.636.436.937l.001.003.14.282v.003l.075.148c.075.152.152.307.231.458l.001.002.163.306h0a29.803 29.803 0 00.302.552l.153.273h0l.004.007c.117.2.235.4.36.596l.1.164h0l.002.003c.154.247.314.486.482.717v.002l.121.169c.112.163.228.327.346.479l.16.214h0l.005.008.301.389h0l.005.006.167.208.005.006.005.006.32.375v.002l.14.162h0l.006.007c.153.171.312.345.489.512l.069.069c.132.133.264.261.393.384h0l.008.007.158.144.004.003.301.269.006.005.006.005.171.144h0l.01.007.3.241.002.001.157.125.01.007.009.007.366.264h0l.083.06h0l.01.007a8.174 8.174 0 00.468.3l.137.082h0l.01.006.302.171h0l.008.005.163.088h0l.009.005.278.143.008.005.008.004.158.074h0l.01.004.3.134h.001l.125.056.013.005.012.005.413.158.01.004.01.003.097.032.002.001.311.102.008.003.008.002.144.042h0l.01.003.26.069h0l.008.002.148.037h0l.008.002.26.06.005.001.125.028.011.003.012.002.348.06.042.007h.038l.325.042.032.005h2.031v-.178l.019-.001.015.177.294-.026h.092l.025-.003.27-.028h.004c4.348-.495 7.346-1.347 9.516-2.37 2.178-1.027 3.501-2.217 4.506-3.353l.005-.006.005-.006a7.809 7.809 0 001.788-4.547l.016-.277-.114-.08.128-.074.003-.286z" stroke="#fff" stroke-opacity=".8"/><mask id="b" maskUnits="userSpaceOnUse" x="109.896" y="69.629" width="39" height="37" fill="#000"><path fill="#fff" d="M109.896 69.629h39v37h-39z"/><path d="M146.972 81.434a.429.429 0 01-.246-.556s.042-.107.125-.269c-.635-3.241-3.398-5.585-8.437-7.108-1.665-.505-5.007-1.015-8.243-1.505-2.225-.338-4.529-.69-6.268-1.038a21.547 21.547 0 00-.816-.148l-.245-.037-.515-.074-.273-.028-.431-.042h-.881c-.214 0-.422 0-.621.033h-.093a5.676 5.676 0 00-.626.102l-.158.037c-.157.04-.311.087-.463.143l-.121.042c-.172.071-.34.155-.5.25l-.112.07a3.61 3.61 0 00-.366.264l-.111.092c-.144.125-.278.26-.404.403l-.06.074c-.108.13-.211.269-.31.417l-.093.144c-.116.18-.223.365-.329.564-.519 1.005-3.663 8.077-4.479 9.916l.042.463c.32-.723 4.08-9.188 4.636-10.286.927-1.792 2.156-2.524 4.251-2.524 1.014.021 2.023.14 3.013.357 1.739.347 4.043.699 6.273 1.037 3.245.491 6.564 1 8.215 1.5 5.169 1.566 7.881 3.974 8.344 7.364.927 7.104-3.245 15.282-3.43 15.648-1.289 2.483-4.924 8.276-10.839 8.489h-.376c-6.374 0-13.17-5.83-14.468-6.998a9.736 9.736 0 00-4.585-2.385v.237a9.51 9.51 0 014.432 2.315l.144.13h.023l.148.13.088.078.116.102.111.093.121.102.139.115.125.102.144.12.144.121.153.125.162.13.171.134.172.134.181.139.185.139.19.144.195.143.204.149.204.148.213.153.218.152.227.153.223.153.236.153.237.153.245.157.241.153.255.157.251.153.259.153.26.153.264.148.264.148.274.148.273.144.278.139.279.139.287.134.283.13.287.13.288.125.292.12.296.12.293.112.301.111.297.102.301.097.297.092.306.088.301.079.31.074.302.065.31.06.297.056.315.046.302.037.315.033.301.023h1.113c6.027-.218 9.735-6.1 11.038-8.614l.176-.352v-.412a.428.428 0 01.376-.398c1.159-2.46 3.569-8.6 2.967-14.208z"/></mask><path d="M146.972 81.434a.429.429 0 01-.246-.556s.042-.107.125-.269c-.635-3.241-3.398-5.585-8.437-7.108-1.665-.505-5.007-1.015-8.243-1.505-2.225-.338-4.529-.69-6.268-1.038a21.547 21.547 0 00-.816-.148l-.245-.037-.515-.074-.273-.028-.431-.042h-.881c-.214 0-.422 0-.621.033h-.093a5.676 5.676 0 00-.626.102l-.158.037c-.157.04-.311.087-.463.143l-.121.042c-.172.071-.34.155-.5.25l-.112.07a3.61 3.61 0 00-.366.264l-.111.092c-.144.125-.278.26-.404.403l-.06.074c-.108.13-.211.269-.31.417l-.093.144c-.116.18-.223.365-.329.564-.519 1.005-3.663 8.077-4.479 9.916l.042.463c.32-.723 4.08-9.188 4.636-10.286.927-1.792 2.156-2.524 4.251-2.524 1.014.021 2.023.14 3.013.357 1.739.347 4.043.699 6.273 1.037 3.245.491 6.564 1 8.215 1.5 5.169 1.566 7.881 3.974 8.344 7.364.927 7.104-3.245 15.282-3.43 15.648-1.289 2.483-4.924 8.276-10.839 8.489h-.376c-6.374 0-13.17-5.83-14.468-6.998a9.736 9.736 0 00-4.585-2.385v.237a9.51 9.51 0 014.432 2.315l.144.13h.023l.148.13.088.078.116.102.111.093.121.102.139.115.125.102.144.12.144.121.153.125.162.13.171.134.172.134.181.139.185.139.19.144.195.143.204.149.204.148.213.153.218.152.227.153.223.153.236.153.237.153.245.157.241.153.255.157.251.153.259.153.26.153.264.148.264.148.274.148.273.144.278.139.279.139.287.134.283.13.287.13.288.125.292.12.296.12.293.112.301.111.297.102.301.097.297.092.306.088.301.079.31.074.302.065.31.06.297.056.315.046.302.037.315.033.301.023h1.113c6.027-.218 9.735-6.1 11.038-8.614l.176-.352v-.412a.428.428 0 01.376-.398c1.159-2.46 3.569-8.6 2.967-14.208z" fill="#fff" fill-opacity=".8"/><path d="M146.972 81.434a.429.429 0 01-.246-.556s.042-.107.125-.269c-.635-3.241-3.398-5.585-8.437-7.108-1.665-.505-5.007-1.015-8.243-1.505-2.225-.338-4.529-.69-6.268-1.038a21.547 21.547 0 00-.816-.148l-.245-.037-.515-.074-.273-.028-.431-.042h-.881c-.214 0-.422 0-.621.033h-.093a5.676 5.676 0 00-.626.102l-.158.037c-.157.04-.311.087-.463.143l-.121.042c-.172.071-.34.155-.5.25l-.112.07a3.61 3.61 0 00-.366.264l-.111.092c-.144.125-.278.26-.404.403l-.06.074c-.108.13-.211.269-.31.417l-.093.144c-.116.18-.223.365-.329.564-.519 1.005-3.663 8.077-4.479 9.916l.042.463c.32-.723 4.08-9.188 4.636-10.286.927-1.792 2.156-2.524 4.251-2.524 1.014.021 2.023.14 3.013.357 1.739.347 4.043.699 6.273 1.037 3.245.491 6.564 1 8.215 1.5 5.169 1.566 7.881 3.974 8.344 7.364.927 7.104-3.245 15.282-3.43 15.648-1.289 2.483-4.924 8.276-10.839 8.489h-.376c-6.374 0-13.17-5.83-14.468-6.998a9.736 9.736 0 00-4.585-2.385v.237a9.51 9.51 0 014.432 2.315l.144.13h.023l.148.13.088.078.116.102.111.093.121.102.139.115.125.102.144.12.144.121.153.125.162.13.171.134.172.134.181.139.185.139.19.144.195.143.204.149.204.148.213.153.218.152.227.153.223.153.236.153.237.153.245.157.241.153.255.157.251.153.259.153.26.153.264.148.264.148.274.148.273.144.278.139.279.139.287.134.283.13.287.13.288.125.292.12.296.12.293.112.301.111.297.102.301.097.297.092.306.088.301.079.31.074.302.065.31.06.297.056.315.046.302.037.315.033.301.023h1.113c6.027-.218 9.735-6.1 11.038-8.614l.176-.352v-.412a.428.428 0 01.376-.398c1.159-2.46 3.569-8.6 2.967-14.208z" stroke="#fff" stroke-opacity=".8" stroke-width="2" mask="url(#b)"/><path d="M173.558 82.036a.424.424 0 01-.195.05.43.43 0 01-.32-.143.43.43 0 01-.093-.213 12.34 12.34 0 00-2.494-.611l-.185-.033c-3.023-.532-18.136-2.111-19.378-2.237a3.713 3.713 0 00-.422 0h-.422l-.176.033-.209.046-.166.051-.19.065-.153.065-.172.083-.139.079-.153.097-.125.088-.139.107-.112.092-.12.116-.097.097-.107.116-.084.097-.092.116-.07.093-.079.115-.055.088-.065.107-.046.074c0 .088.037.176.046.269.009.092 0 .083 0 .12.181-.407 1.034-2.052 2.953-2.052h.352c1.243.126 16.342 1.7 19.36 2.233l.185.032c2.582.463 4.451.783 4.872 4.497 0 .495-.097 14.356-4.01 19.566-2.359 3.14-6.694 4.802-12.516 4.802-.464 0-.979 0-1.479-.032a16.099 16.099 0 01-6.736-2.033c-1.957-1.125-4.488-3.154-5.406-6.456a20.07 20.07 0 01-.621-5.478l-.236.51c.002 1.696.218 3.386.644 5.029.927 3.376 3.514 5.45 5.512 6.594a16.35 16.35 0 006.824 2.135c.464 0 .927.028 1.391.032h1.126c.265 0 .52-.023.775-.041h.329c.361-.028.717-.062 1.066-.102h.139c.297-.037.593-.079.881-.125l.338-.065c.218-.037.431-.079.645-.125l.371-.088.565-.139.376-.111.519-.162.366-.13.464-.18.352-.149.464-.203.338-.167.422-.227.315-.181.399-.254.292-.2c.13-.092.255-.185.38-.282l.264-.208c.125-.102.246-.213.366-.32l.232-.208c.13-.125.246-.25.367-.38l.18-.19c.176-.194.339-.398.496-.607a9.94 9.94 0 00.812-1.296v-.028a.417.417 0 01.044-.275.414.414 0 01.206-.188c2.99-6.201 3.004-17.82 3.004-17.95-.246-2.144-.955-3.214-1.97-3.825z" fill="#fff" fill-opacity=".8"/><path d="M173.816 81.607l-.245-.147-.141.076-.023-.173-.288-.104a12.86 12.86 0 00-2.585-.634l-.176-.031h-.001c-3.047-.537-18.184-2.118-19.414-2.242l-.011-.001h-.011a4.25 4.25 0 00-.464-.002h-.453l-.045.009-.176.032-.009.002-.009.002-.209.046-.019.004-.018.006-.167.05-.008.003-.008.003-.19.065-.017.005-.017.008-.153.064-.011.005-.012.006-.172.083-.014.007-.013.008-.139.079-.012.006-.01.007-.153.097-.01.006-.01.007-.125.088-.008.006-.008.006-.139.107-.008.006-.008.006-.111.093-.014.011-.013.013-.12.115h-.001l-.006.007-.098.097-.007.008-.007.007-.107.116-.006.007-.006.007-.083.097-.006.006-.005.007-.093.115-.004.007-.005.006-.07.093-.007.009-.006.01-.079.115-.005.007-.004.007-.056.088h0l-.004.007-.064.104-.044.072-.076.121v.144c0 .106.021.2.032.245v.002l.006.023a.522.522 0 00.008.033l.002.016.001.006-.002.018-.001.046.957.203c.172-.388.905-1.755 2.496-1.755h.327c1.416.144 16.322 1.7 19.298 2.225h.001l.183.032h.001c1.021.183 1.841.334 2.498.633a.93.93 0 00.283.144c.09.052.178.107.262.167.683.488 1.212 1.333 1.416 3.089a74.11 74.11 0 01-.534 7.926c-.255 2.075-.63 4.286-1.181 6.294-.553 2.017-1.272 3.789-2.194 5.018-2.227 2.962-6.373 4.602-12.117 4.602-.466 0-.964 0-1.445-.031a15.604 15.604 0 01-6.523-1.968c-1.905-1.097-4.302-3.036-5.17-6.151a19.59 19.59 0 01-.604-5.337l-.953-.223-.237.51-.046.1v.11c.002 1.74.224 3.471.66 5.155h0l.002.007c.978 3.56 3.696 5.722 5.745 6.896a16.84 16.84 0 007.032 2.199l.02.002h.021c.223 0 .447.007.679.014l.064.002c.209.007.426.014.643.016h1.131c.242 0 .479-.018.693-.034l.1-.007h.33l.019-.002c.358-.027.71-.061 1.056-.1h.142l.031-.004c.302-.038.604-.08.898-.128l.008-.001.007-.001.333-.064c.224-.038.443-.081.662-.128h0l.009-.003.371-.088h.004l.565-.139.012-.003.011-.004.376-.111h0l.007-.002.519-.162.009-.003.009-.003.366-.13.007-.002.008-.003.463-.181v.001l.013-.006.352-.148h0l.007-.003.464-.204.01-.004.01-.005.338-.167.008-.004.008-.004.422-.227h0l.011-.006.316-.181.01-.006.01-.006.399-.255.006-.004.006-.004.293-.199h0l.008-.007c.135-.095.265-.192.397-.294l.003-.002.264-.209h0l.006-.005c.103-.083.206-.176.298-.258l.084-.074h0l.003-.003.232-.209.006-.005.006-.006c.137-.132.259-.263.374-.387l.01-.01.178-.188h.001l.008-.009c.19-.21.362-.427.524-.641h0l.004-.005c.318-.431.603-.886.852-1.361l-.268-.141.049-.091h.276v0-.001 0-.001 0-.001 0-.001 0-.001 0-.001 0-.001 0-.001 0-.001 0-.001 0-.001 0-.001 0-.001 0-.001 0-.001 0-.001 0-.001 0-.001 0-.001 0-.001 0-.001 0-.001 0-.001 0-.001 0-.001 0-.001 0-.001 0-.001 0-.026l.119-.05.081-.17c1.536-3.185 2.293-7.715 2.671-11.418.379-3.72.383-6.675.383-6.75v-.028l-.003-.028c-.257-2.243-1.019-3.48-2.209-4.197z" stroke="#fff" stroke-opacity=".8"/><mask id="c" maskUnits="userSpaceOnUse" x="171.002" y="78.109" width="31" height="34" fill="#000"><path fill="#fff" d="M171.002 78.109h31v34h-31z"/><path d="M197.22 106.932l.366-.023.111-.074.362-.255h.028a7.38 7.38 0 00.361-.282l.102-.088.232-.209.107-.102.208-.208.088-.093c.093-.101.181-.203.26-.305 2.383-3.103-.199-10.805-3.584-17.418a.422.422 0 01-.343-.657 66.427 66.427 0 00-1.103-2.02 13.194 13.194 0 00-.501-.814l-.092-.14a14.53 14.53 0 00-.51-.708l-.102-.125c-.181-.227-.367-.463-.557-.653-.19-.204-.38-.393-.574-.579l-.102-.097a9.992 9.992 0 00-.589-.5l-.111-.088c-.204-.158-.413-.31-.626-.463h-.023a9.997 9.997 0 00-.636-.385l-.102-.06a9.696 9.696 0 00-.644-.324l-.121-.056c-.222-.102-.463-.194-.672-.278h-.037c-.222-.083-.463-.157-.672-.226l-.102-.033a10.218 10.218 0 00-.686-.18l-.125-.028a17.17 17.17 0 00-.7-.144h-.056a18.835 18.835 0 00-.686-.102h-.102c-.232-.027-.464-.05-.7-.07h-.134l-.71-.036h-.843c-.395 0-.789 0-1.178.028h-.134c-.393.018-.784.043-1.173.074a13.081 13.081 0 00-6.56 2.403l.213.135a12.93 12.93 0 016.365-2.316c.904-.07 1.702-.107 2.448-.107 7.051 0 9.833 3.455 11.311 6.053a56.383 56.383 0 015.021 11.323c1.196 4.043 1.205 6.988.028 8.521-2.17 2.821-8.906 4.789-13.592 4.789a10.134 10.134 0 01-3.083-.394c-3.626-1.185-8.493-4.816-9.462-5.557l-.102.213c1.052.796 5.878 4.381 9.49 5.557.19.06.394.116.607.162l.13.028c.21.043.429.08.658.111h.125c.223.028.464.047.686.06h1.822l.543-.032h.125l.426-.037h.19l.385-.042.19-.023.464-.06h.125l.575-.093.148-.028.436-.083.195-.037.403-.083.19-.042.464-.111.111-.028.575-.148.148-.042.422-.12.195-.06.389-.121.181-.06.463-.157.084-.028.538-.199.148-.056.38-.153.176-.074.353-.153.162-.074.431-.204.06-.027.464-.246.13-.074h.027a.433.433 0 01.208-.518.432.432 0 01.196-.047z"/></mask><path d="M197.22 106.932l.366-.023.111-.074.362-.255h.028a7.38 7.38 0 00.361-.282l.102-.088.232-.209.107-.102.208-.208.088-.093c.093-.101.181-.203.26-.305 2.383-3.103-.199-10.805-3.584-17.418a.422.422 0 01-.343-.657 66.427 66.427 0 00-1.103-2.02 13.194 13.194 0 00-.501-.814l-.092-.14a14.53 14.53 0 00-.51-.708l-.102-.125c-.181-.227-.367-.463-.557-.653-.19-.204-.38-.393-.574-.579l-.102-.097a9.992 9.992 0 00-.589-.5l-.111-.088c-.204-.158-.413-.31-.626-.463h-.023a9.997 9.997 0 00-.636-.385l-.102-.06a9.696 9.696 0 00-.644-.324l-.121-.056c-.222-.102-.463-.194-.672-.278h-.037c-.222-.083-.463-.157-.672-.226l-.102-.033a10.218 10.218 0 00-.686-.18l-.125-.028a17.17 17.17 0 00-.7-.144h-.056a18.835 18.835 0 00-.686-.102h-.102c-.232-.027-.464-.05-.7-.07h-.134l-.71-.036h-.843c-.395 0-.789 0-1.178.028h-.134c-.393.018-.784.043-1.173.074a13.081 13.081 0 00-6.56 2.403l.213.135a12.93 12.93 0 016.365-2.316c.904-.07 1.702-.107 2.448-.107 7.051 0 9.833 3.455 11.311 6.053a56.383 56.383 0 015.021 11.323c1.196 4.043 1.205 6.988.028 8.521-2.17 2.821-8.906 4.789-13.592 4.789a10.134 10.134 0 01-3.083-.394c-3.626-1.185-8.493-4.816-9.462-5.557l-.102.213c1.052.796 5.878 4.381 9.49 5.557.19.06.394.116.607.162l.13.028c.21.043.429.08.658.111h.125c.223.028.464.047.686.06h1.822l.543-.032h.125l.426-.037h.19l.385-.042.19-.023.464-.06h.125l.575-.093.148-.028.436-.083.195-.037.403-.083.19-.042.464-.111.111-.028.575-.148.148-.042.422-.12.195-.06.389-.121.181-.06.463-.157.084-.028.538-.199.148-.056.38-.153.176-.074.353-.153.162-.074.431-.204.06-.027.464-.246.13-.074h.027a.433.433 0 01.208-.518.432.432 0 01.196-.047z" fill="#fff" fill-opacity=".8"/><path d="M197.22 106.932l.366-.023.111-.074.362-.255h.028a7.38 7.38 0 00.361-.282l.102-.088.232-.209.107-.102.208-.208.088-.093c.093-.101.181-.203.26-.305 2.383-3.103-.199-10.805-3.584-17.418a.422.422 0 01-.343-.657 66.427 66.427 0 00-1.103-2.02 13.194 13.194 0 00-.501-.814l-.092-.14a14.53 14.53 0 00-.51-.708l-.102-.125c-.181-.227-.367-.463-.557-.653-.19-.204-.38-.393-.574-.579l-.102-.097a9.992 9.992 0 00-.589-.5l-.111-.088c-.204-.158-.413-.31-.626-.463h-.023a9.997 9.997 0 00-.636-.385l-.102-.06a9.696 9.696 0 00-.644-.324l-.121-.056c-.222-.102-.463-.194-.672-.278h-.037c-.222-.083-.463-.157-.672-.226l-.102-.033a10.218 10.218 0 00-.686-.18l-.125-.028a17.17 17.17 0 00-.7-.144h-.056a18.835 18.835 0 00-.686-.102h-.102c-.232-.027-.464-.05-.7-.07h-.134l-.71-.036h-.843c-.395 0-.789 0-1.178.028h-.134c-.393.018-.784.043-1.173.074a13.081 13.081 0 00-6.56 2.403l.213.135a12.93 12.93 0 016.365-2.316c.904-.07 1.702-.107 2.448-.107 7.051 0 9.833 3.455 11.311 6.053a56.383 56.383 0 015.021 11.323c1.196 4.043 1.205 6.988.028 8.521-2.17 2.821-8.906 4.789-13.592 4.789a10.134 10.134 0 01-3.083-.394c-3.626-1.185-8.493-4.816-9.462-5.557l-.102.213c1.052.796 5.878 4.381 9.49 5.557.19.06.394.116.607.162l.13.028c.21.043.429.08.658.111h.125c.223.028.464.047.686.06h1.822l.543-.032h.125l.426-.037h.19l.385-.042.19-.023.464-.06h.125l.575-.093.148-.028.436-.083.195-.037.403-.083.19-.042.464-.111.111-.028.575-.148.148-.042.422-.12.195-.06.389-.121.181-.06.463-.157.084-.028.538-.199.148-.056.38-.153.176-.074.353-.153.162-.074.431-.204.06-.027.464-.246.13-.074h.027a.433.433 0 01.208-.518.432.432 0 01.196-.047z" stroke="#fff" stroke-opacity=".8" stroke-width="2" mask="url(#c)"/><path d="M200.683 83.819c.288-.062.582-.093.876-.093 1.752 0 3.588 1.2 6.133 4.015 2.754 3.047 11.711 13.513 11.247 20.293a2.87 2.87 0 01-1.391 2.473 5.62 5.62 0 01-2.781.593c-3.904 0-9.175-2.19-10.881-3.033a12.903 12.903 0 00-5.206-1.163l-.301.227h1.02l.588.056h.126l.514.074.195.032.556.111.125.028c.223.051.464.111.677.181l.176.055c.177.056.353.116.529.181l.199.074c.232.093.464.19.682.301l.357.172.092.041.418.19h.046l.436.19.111.046.519.213.093.037.496.195.121.046.593.222.125.047.561.199.107.037.635.287.148.046.635.195h.065l.691.194.162.042.709.176.7.153.163.032.695.125h.079l.626.088h.153c.222.023.463.047.663.061h.806c.246 0 .464 0 .714-.033h.121c.227 0 .463-.055.663-.097h.106c.209-.044.415-.102.617-.171l.069-.028c.199-.072.391-.161.575-.264a3.095 3.095 0 001.521-2.658c.463-6.868-8.539-17.4-11.307-20.465l-.519-.56-.163-.167-.338-.352-.185-.185-.302-.292-.185-.176-.292-.264-.176-.153-.302-.255-.148-.12a11.176 11.176 0 00-.848-.611l-.13-.079-.283-.167-.153-.083-.25-.13-.158-.074-.246-.102-.148-.055-.26-.084-.125-.037a3.666 3.666 0 00-.366-.078c-.125 0-.255-.037-.38-.047h-.807c-.144 0-.292.037-.436.07-1.622.347-3.708 2.82-4.38 3.663l.115.222c.826-1.019 2.847-3.297 4.298-3.607z" fill="#fff" fill-opacity=".8"/><path d="M199.794 84.785c.383-.257.72-.419.993-.477.254-.054.513-.082.772-.082 1.515 0 3.219 1.037 5.762 3.85 1.37 1.516 4.278 4.873 6.783 8.687 1.253 1.906 2.397 3.917 3.198 5.859.804 1.95 1.247 3.793 1.138 5.378l-.001.018v.018c.002.411-.103.815-.305 1.173a2.363 2.363 0 01-.828.86 5.111 5.111 0 01-2.516.532l-.012-.001h-.011c-1.874 0-4.108-.529-6.111-1.176-1.995-.646-3.716-1.395-4.548-1.806l-.007-.003-.007-.003a13.411 13.411 0 00-5.408-1.208l-.17-.002-.137.103-.301.227-1.194.899h2.491l.566.054.023.002h.113l.474.068.181.03.543.109.117.026h.001c.218.05.441.106.632.168l.005.002.176.055c.168.053.337.111.506.173 0 0 0 0 0 0l.192.072c.226.09.439.18.635.28h-.001l.011.005.357.171h0l.012.006.09.04.002.001.416.189.098.045h.051l.34.148h0l.008.004.111.046.002.001.519.213h0l.005.002.092.037.003.001.496.194.004.002.12.046h0l.004.001.594.223h.001l.126.047h0l.006.002.561.199.003.001.085.03.615.278.028.012.029.009.148.047h.003l.635.195.071.022h.071l.624.176h0l.012.003.162.041h0l.004.001.709.176v.001l.014.003.7.152h0l.009.002.162.033h0l.009.001.696.125.044.008h.088l.591.083.035.005h.162c.217.023.454.045.654.059l.017.002h.835c.23 0 .466 0 .734-.033h.09c.261 0 .526-.057.705-.095l.01-.002h.107l.051-.011c.229-.048.455-.111.677-.188l.011-.004.01-.004.063-.025c.221-.081.436-.18.641-.295h.001l.009-.006a3.598 3.598 0 001.766-3.071c.119-1.821-.386-3.843-1.22-5.871-.838-2.041-2.024-4.126-3.304-6.079-2.559-3.905-5.521-7.326-6.912-8.867h0l-.004-.005-.52-.56h.001l-.009-.01-.16-.164-.002-.002-.337-.35h.001l-.008-.007-.185-.185h0l-.006-.006-.301-.291h0l-.004-.004-.185-.176h0l-.009-.008-.292-.264h0l-.008-.007-.176-.153h0l-.005-.004-.301-.254h0l-.008-.007-.148-.12-.001-.001a12.614 12.614 0 00-.445-.339h0l-.006-.004a10.88 10.88 0 00-.444-.302h0l-.008-.005-.13-.079h0l-.005-.003-.283-.166-.007-.005-.008-.004-.153-.083h0l-.009-.005-.25-.13-.009-.004-.009-.004-.157-.074-.011-.005-.01-.005-.246-.102-.008-.003-.008-.003-.149-.055-.011-.005-.011-.003-.26-.084h0l-.011-.003-.125-.037-.008-.003-.008-.002a4.27 4.27 0 00-.416-.089l-.038-.005h-.038a.739.739 0 01-.109-.014l-.023-.003a1.82 1.82 0 00-.211-.028l-.019-.002h-.825c-.191 0-.382.044-.506.073l-.037.008c-.494.107-.989.365-1.447.675-.465.314-.92.702-1.337 1.097a21.137 21.137 0 00-1.88 2.068l-.203.255.15.288.116.222.352.676.48-.592c.404-.5 1.1-1.304 1.866-2.019a9.71 9.71 0 011.154-.937z" stroke="#fff" stroke-opacity=".8"/><mask id="d" maskUnits="userSpaceOnUse" x="-.25" y="43.325" width="42" height="33" fill="#000"><path fill="#fff" d="M-.25 43.325h42v33h-42z"/><path d="M31.557 74.21c-.54.224-1.12.34-1.706.342-2.42 0-4.59-1.945-6.175-3.362a5.664 5.664 0 00-3.782-1.246 7.75 7.75 0 00-3.079.597 39.73 39.73 0 00-1.085.533c-1.543.769-2.874 1.436-4.793 1.436a10.982 10.982 0 01-2.93-.464C2.106 70.416 1.155 61.775.956 55.412c-.111-3.492.63-4.168.858-4.312a.51.51 0 01.255-.065c.11.002.22.03.32.08.214.197.492.312.783.323.116 0 .23-.022.338-.065.677-.259 1.034-1.24 1.127-3.088.083-1.69.52-2.825 1.289-3.377a2.005 2.005 0 011.168-.356h.204c0-.079.023-.153.037-.227h-.552l-.185.037-.135.028a2.246 2.246 0 00-.217.079l-.121.046a2.13 2.13 0 00-.338.194c-.83.593-1.294 1.788-1.391 3.552-.098 1.765-.408 2.668-.978 2.886a.688.688 0 01-.158.037h-.125a.806.806 0 01-.39-.116h-.027l-.12-.088-.043-.037h-.129l-.084-.023h-.055a.881.881 0 00-.181 0 .746.746 0 00-.371.097c-.408.231-1.08 1.125-.974 4.52.2 6.432 1.169 15.18 7.218 16.848.265.074.52.134.77.19l.232.046.491.088.25.037.44.05h.85c.218 0 .431 0 .635-.027h.158c.158-.016.312-.036.463-.06l.158-.028c.19-.037.376-.074.561-.125h.046a8.77 8.77 0 00.496-.153l.153-.05.418-.158.106-.042.506-.222.125-.06.408-.195.148-.07.487-.24c.352-.176.71-.357 1.08-.528l.274-.116.102-.037.208-.07.14-.041.208-.06.158-.037.217-.051.14-.107.227-.042.19-.023.236-.028h1.377l.255.024.222.023.255.041.218.042.255.065.214.055.25.088.2.075c.087.037.17.078.254.12l.181.083c.093.051.18.107.269.162l.144.088c.132.093.26.193.38.302l.333.296.116.102.255.222.14.12.26.218.138.116.325.264.088.07.417.319.125.088.31.218.163.106.301.19.167.102.343.19.13.07c.158.08.312.155.464.226l.11.046c.126.051.256.102.386.144l.171.055.339.098.185.041c.12.028.241.047.366.065h.163c.175.02.351.031.528.033h.042c.155-.003.31-.014.463-.033l.163-.023c.13-.018.26-.045.394-.079l.162-.041c.184-.051.365-.113.542-.186 1.549-.639 6.541-3.037 8.192-7.872-.097.06-.2.12-.297.176-1.678 4.57-6.462 6.858-7.96 7.474z"/></mask><path d="M31.557 74.21c-.54.224-1.12.34-1.706.342-2.42 0-4.59-1.945-6.175-3.362a5.664 5.664 0 00-3.782-1.246 7.75 7.75 0 00-3.079.597 39.73 39.73 0 00-1.085.533c-1.543.769-2.874 1.436-4.793 1.436a10.982 10.982 0 01-2.93-.464C2.106 70.416 1.155 61.775.956 55.412c-.111-3.492.63-4.168.858-4.312a.51.51 0 01.255-.065c.11.002.22.03.32.08.214.197.492.312.783.323.116 0 .23-.022.338-.065.677-.259 1.034-1.24 1.127-3.088.083-1.69.52-2.825 1.289-3.377a2.005 2.005 0 011.168-.356h.204c0-.079.023-.153.037-.227h-.552l-.185.037-.135.028a2.246 2.246 0 00-.217.079l-.121.046a2.13 2.13 0 00-.338.194c-.83.593-1.294 1.788-1.391 3.552-.098 1.765-.408 2.668-.978 2.886a.688.688 0 01-.158.037h-.125a.806.806 0 01-.39-.116h-.027l-.12-.088-.043-.037h-.129l-.084-.023h-.055a.881.881 0 00-.181 0 .746.746 0 00-.371.097c-.408.231-1.08 1.125-.974 4.52.2 6.432 1.169 15.18 7.218 16.848.265.074.52.134.77.19l.232.046.491.088.25.037.44.05h.85c.218 0 .431 0 .635-.027h.158c.158-.016.312-.036.463-.06l.158-.028c.19-.037.376-.074.561-.125h.046a8.77 8.77 0 00.496-.153l.153-.05.418-.158.106-.042.506-.222.125-.06.408-.195.148-.07.487-.24c.352-.176.71-.357 1.08-.528l.274-.116.102-.037.208-.07.14-.041.208-.06.158-.037.217-.051.14-.107.227-.042.19-.023.236-.028h1.377l.255.024.222.023.255.041.218.042.255.065.214.055.25.088.2.075c.087.037.17.078.254.12l.181.083c.093.051.18.107.269.162l.144.088c.132.093.26.193.38.302l.333.296.116.102.255.222.14.12.26.218.138.116.325.264.088.07.417.319.125.088.31.218.163.106.301.19.167.102.343.19.13.07c.158.08.312.155.464.226l.11.046c.126.051.256.102.386.144l.171.055.339.098.185.041c.12.028.241.047.366.065h.163c.175.02.351.031.528.033h.042c.155-.003.31-.014.463-.033l.163-.023c.13-.018.26-.045.394-.079l.162-.041c.184-.051.365-.113.542-.186 1.549-.639 6.541-3.037 8.192-7.872-.097.06-.2.12-.297.176-1.678 4.57-6.462 6.858-7.96 7.474z" fill="#fff" fill-opacity=".8"/><path d="M31.557 74.21c-.54.224-1.12.34-1.706.342-2.42 0-4.59-1.945-6.175-3.362a5.664 5.664 0 00-3.782-1.246 7.75 7.75 0 00-3.079.597 39.73 39.73 0 00-1.085.533c-1.543.769-2.874 1.436-4.793 1.436a10.982 10.982 0 01-2.93-.464C2.106 70.416 1.155 61.775.956 55.412c-.111-3.492.63-4.168.858-4.312a.51.51 0 01.255-.065c.11.002.22.03.32.08.214.197.492.312.783.323.116 0 .23-.022.338-.065.677-.259 1.034-1.24 1.127-3.088.083-1.69.52-2.825 1.289-3.377a2.005 2.005 0 011.168-.356h.204c0-.079.023-.153.037-.227h-.552l-.185.037-.135.028a2.246 2.246 0 00-.217.079l-.121.046a2.13 2.13 0 00-.338.194c-.83.593-1.294 1.788-1.391 3.552-.098 1.765-.408 2.668-.978 2.886a.688.688 0 01-.158.037h-.125a.806.806 0 01-.39-.116h-.027l-.12-.088-.043-.037h-.129l-.084-.023h-.055a.881.881 0 00-.181 0 .746.746 0 00-.371.097c-.408.231-1.08 1.125-.974 4.52.2 6.432 1.169 15.18 7.218 16.848.265.074.52.134.77.19l.232.046.491.088.25.037.44.05h.85c.218 0 .431 0 .635-.027h.158c.158-.016.312-.036.463-.06l.158-.028c.19-.037.376-.074.561-.125h.046a8.77 8.77 0 00.496-.153l.153-.05.418-.158.106-.042.506-.222.125-.06.408-.195.148-.07.487-.24c.352-.176.71-.357 1.08-.528l.274-.116.102-.037.208-.07.14-.041.208-.06.158-.037.217-.051.14-.107.227-.042.19-.023.236-.028h1.377l.255.024.222.023.255.041.218.042.255.065.214.055.25.088.2.075c.087.037.17.078.254.12l.181.083c.093.051.18.107.269.162l.144.088c.132.093.26.193.38.302l.333.296.116.102.255.222.14.12.26.218.138.116.325.264.088.07.417.319.125.088.31.218.163.106.301.19.167.102.343.19.13.07c.158.08.312.155.464.226l.11.046c.126.051.256.102.386.144l.171.055.339.098.185.041c.12.028.241.047.366.065h.163c.175.02.351.031.528.033h.042c.155-.003.31-.014.463-.033l.163-.023c.13-.018.26-.045.394-.079l.162-.041c.184-.051.365-.113.542-.186 1.549-.639 6.541-3.037 8.192-7.872-.097.06-.2.12-.297.176-1.678 4.57-6.462 6.858-7.96 7.474z" stroke="#fff" stroke-opacity=".8" stroke-width="2" mask="url(#d)"/><mask id="e" maskUnits="userSpaceOnUse" x="6.645" y="35.068" width="46" height="33" fill="#000"><path fill="#fff" d="M6.645 35.068h46v33h-46z"/><path d="M7.697 50.202a23.775 23.775 0 002.424 8.753c.093.179.189.353.288.523l.092.157c.065.111.135.227.2.334l.12.185.181.278.13.18.176.246.139.176.176.222.149.167.176.199.148.153.176.18.158.14.176.157.158.125.176.139.162.11.18.121.163.093.18.102.168.079.18.083.167.06.186.06.171.042.186.042.171.028.186.023h.398a19.228 19.228 0 006.027-1.135l.464-.143.13-.042.32-.098.166-.046.278-.079.177-.046.268-.065.181-.037.274-.05.18-.028.302-.033h1.261c2.086.162 4.056.31 7.538 3.214.171.144.343.283.51.412l.162.12.338.25.19.13.302.2.2.115.287.162.199.102.283.13.2.079.282.092.195.056c.097.023.199.042.296.06l.186.032c.111 0 .227 0 .343.024h.588l.172-.028.283-.056.185-.05.278-.089.195-.074.288-.125.194-.097.306-.167.195-.11.172-.117a.43.43 0 01.417-.32h.05c.135-.101.27-.198.409-.31 1.525-1.24 2.943-2.264 4.2-3.172 2.883-2.08 4.849-3.5 5.42-5.525h-.237c-.566 1.922-2.494 3.316-5.313 5.354-1.261.926-2.68 1.936-4.21 3.181-1.284 1.047-2.382 1.533-3.453 1.533-1.168 0-2.318-.555-3.945-1.917-3.542-2.95-5.563-3.103-7.668-3.265h-.626c-1.181.048-2.347.29-3.449.718-1.92.692-3.94 1.07-5.98 1.12h-.084c-1.798 0-3.583-1.528-5.025-4.297a23.53 23.53 0 01-2.397-8.66c-.403-5.664 1.192-11.666 3.51-13.449a2.843 2.843 0 011.798-.574c1.419 0 2.986.783 4.02 1.302.34.18.693.334 1.057.463v-.236a8.96 8.96 0 01-.97-.464l-.342-.153-.12-.06-.344-.153-.12-.055-.464-.2-.065-.027-.38-.143-.14-.051-.384-.13-.111-.037a6.91 6.91 0 00-.496-.13h-.107a5.96 5.96 0 00-.399-.07h-.148c-.142 0-.283-.009-.422-.027h-.083c-.155.001-.31.012-.464.032h-.12a3.204 3.204 0 00-.339.074l-.148.047a2.932 2.932 0 00-.306.125l-.135.065a2.91 2.91 0 00-.412.264c-1.497 1.148-2.689 3.982-3.273 7.335a.421.421 0 01.07.366.426.426 0 01-.163.227 26.286 26.286 0 00-.245 5.599z"/></mask><path d="M7.697 50.202a23.775 23.775 0 002.424 8.753c.093.179.189.353.288.523l.092.157c.065.111.135.227.2.334l.12.185.181.278.13.18.176.246.139.176.176.222.149.167.176.199.148.153.176.18.158.14.176.157.158.125.176.139.162.11.18.121.163.093.18.102.168.079.18.083.167.06.186.06.171.042.186.042.171.028.186.023h.398a19.228 19.228 0 006.027-1.135l.464-.143.13-.042.32-.098.166-.046.278-.079.177-.046.268-.065.181-.037.274-.05.18-.028.302-.033h1.261c2.086.162 4.056.31 7.538 3.214.171.144.343.283.51.412l.162.12.338.25.19.13.302.2.2.115.287.162.199.102.283.13.2.079.282.092.195.056c.097.023.199.042.296.06l.186.032c.111 0 .227 0 .343.024h.588l.172-.028.283-.056.185-.05.278-.089.195-.074.288-.125.194-.097.306-.167.195-.11.172-.117a.43.43 0 01.417-.32h.05c.135-.101.27-.198.409-.31 1.525-1.24 2.943-2.264 4.2-3.172 2.883-2.08 4.849-3.5 5.42-5.525h-.237c-.566 1.922-2.494 3.316-5.313 5.354-1.261.926-2.68 1.936-4.21 3.181-1.284 1.047-2.382 1.533-3.453 1.533-1.168 0-2.318-.555-3.945-1.917-3.542-2.95-5.563-3.103-7.668-3.265h-.626c-1.181.048-2.347.29-3.449.718-1.92.692-3.94 1.07-5.98 1.12h-.084c-1.798 0-3.583-1.528-5.025-4.297a23.53 23.53 0 01-2.397-8.66c-.403-5.664 1.192-11.666 3.51-13.449a2.843 2.843 0 011.798-.574c1.419 0 2.986.783 4.02 1.302.34.18.693.334 1.057.463v-.236a8.96 8.96 0 01-.97-.464l-.342-.153-.12-.06-.344-.153-.12-.055-.464-.2-.065-.027-.38-.143-.14-.051-.384-.13-.111-.037a6.91 6.91 0 00-.496-.13h-.107a5.96 5.96 0 00-.399-.07h-.148c-.142 0-.283-.009-.422-.027h-.083c-.155.001-.31.012-.464.032h-.12a3.204 3.204 0 00-.339.074l-.148.047a2.932 2.932 0 00-.306.125l-.135.065a2.91 2.91 0 00-.412.264c-1.497 1.148-2.689 3.982-3.273 7.335a.421.421 0 01.07.366.426.426 0 01-.163.227 26.286 26.286 0 00-.245 5.599z" fill="#fff" fill-opacity=".8"/><path d="M7.697 50.202a23.775 23.775 0 002.424 8.753c.093.179.189.353.288.523l.092.157c.065.111.135.227.2.334l.12.185.181.278.13.18.176.246.139.176.176.222.149.167.176.199.148.153.176.18.158.14.176.157.158.125.176.139.162.11.18.121.163.093.18.102.168.079.18.083.167.06.186.06.171.042.186.042.171.028.186.023h.398a19.228 19.228 0 006.027-1.135l.464-.143.13-.042.32-.098.166-.046.278-.079.177-.046.268-.065.181-.037.274-.05.18-.028.302-.033h1.261c2.086.162 4.056.31 7.538 3.214.171.144.343.283.51.412l.162.12.338.25.19.13.302.2.2.115.287.162.199.102.283.13.2.079.282.092.195.056c.097.023.199.042.296.06l.186.032c.111 0 .227 0 .343.024h.588l.172-.028.283-.056.185-.05.278-.089.195-.074.288-.125.194-.097.306-.167.195-.11.172-.117a.43.43 0 01.417-.32h.05c.135-.101.27-.198.409-.31 1.525-1.24 2.943-2.264 4.2-3.172 2.883-2.08 4.849-3.5 5.42-5.525h-.237c-.566 1.922-2.494 3.316-5.313 5.354-1.261.926-2.68 1.936-4.21 3.181-1.284 1.047-2.382 1.533-3.453 1.533-1.168 0-2.318-.555-3.945-1.917-3.542-2.95-5.563-3.103-7.668-3.265h-.626c-1.181.048-2.347.29-3.449.718-1.92.692-3.94 1.07-5.98 1.12h-.084c-1.798 0-3.583-1.528-5.025-4.297a23.53 23.53 0 01-2.397-8.66c-.403-5.664 1.192-11.666 3.51-13.449a2.843 2.843 0 011.798-.574c1.419 0 2.986.783 4.02 1.302.34.18.693.334 1.057.463v-.236a8.96 8.96 0 01-.97-.464l-.342-.153-.12-.06-.344-.153-.12-.055-.464-.2-.065-.027-.38-.143-.14-.051-.384-.13-.111-.037a6.91 6.91 0 00-.496-.13h-.107a5.96 5.96 0 00-.399-.07h-.148c-.142 0-.283-.009-.422-.027h-.083c-.155.001-.31.012-.464.032h-.12a3.204 3.204 0 00-.339.074l-.148.047a2.932 2.932 0 00-.306.125l-.135.065a2.91 2.91 0 00-.412.264c-1.497 1.148-2.689 3.982-3.273 7.335a.421.421 0 01.07.366.426.426 0 01-.163.227 26.286 26.286 0 00-.245 5.599z" stroke="#fff" stroke-opacity=".8" stroke-width="2" mask="url(#e)"/><mask id="f" maskUnits="userSpaceOnUse" x="30.223" y="18.285" width="33" height="39" fill="#000"><path fill="#fff" d="M30.223 18.285h33v39h-33z"/><path d="M38.107 27.913a.43.43 0 01-.367.213l-.092.143-.181.283-.232.38-.171.282-.232.407-.153.269c-.084.153-.167.306-.246.463l-.12.232c-.12.234-.237.472-.348.713-2.318 4.913-7.464 15.958-2.944 22.095h.037a.436.436 0 01.431.407.417.417 0 010 .144c.211.254.437.495.677.722.144.125.283.24.422.347l.135.098c.097.07.194.139.292.199l.153.092.278.153.153.079c.102.046.204.093.306.13l.13.05c.148.051.296.098.463.14h.042c.142.033.286.061.431.083h.162l.339.037h1.423l.463-.032h.052l.547-.056h.18l.417-.051.214-.028.463-.06.195-.028.668-.092c.301-.042.588-.08.867-.107h.097l.755-.07h.121l.69-.036h1.693l.723.041h.079l.728.06h.055l.78.075c.51.05 1.033.097 1.594.139a.421.421 0 01.352-.19h.074a.428.428 0 01.279.176c.01.019.02.039.027.06l.877.041h.07l.611.024h2.601l.357-.033h.162l.325-.046.148-.023.394-.084h.056c.148-.037.292-.078.43-.13l.121-.041.306-.12.14-.065.287-.144.125-.07c.125-.069.25-.147.37-.23h.029c.13-.093.264-.19.394-.297l.115-.097.279-.25.134-.13.274-.283.12-.13c.13-.148.26-.3.394-.462l.71-1.158-.154-.195-.746 1.223c-1.766 2.218-3.356 2.621-5.86 2.621-.64 0-1.353-.028-2.109-.056h-.074c-1.229-.046-2.22-.143-3.176-.231-1.098-.107-2.123-.204-3.296-.204a24.023 24.023 0 00-3.375.195 30.485 30.485 0 01-3.912.389 5.15 5.15 0 01-3.802-1.39c-6.332-5.626-.607-17.87 1.855-23.1 3.462-7.45 10.032-11.901 14.408-11.901.31-.002.62.023.927.074h.028c.046 0 4.691.352 9.494 6.697l.385.606.06-.333-.264-.412c-4.905-6.484-9.62-6.785-9.666-6.79a5.785 5.785 0 00-.464-.055h-.899l-.315.028h-.135l-.463.07h-.033l-.463.092-.153.037-.33.088-.19.055-.305.098-.2.088-.296.106-.214.084-.296.12-.218.097-.297.134-.222.107-.297.148-.227.12-.297.167-.227.13-.301.18-.223.14-.306.199-.218.143-.32.223-.204.143-.338.255-.18.139-.418.333-.102.083-.515.464-.116.106-.389.357-.18.171-.32.31-.2.204-.297.306-.208.222-.278.306-.21.236-.268.31-.209.25-.26.324-.199.26-.25.333-.2.269-.185.26a.421.421 0 01-.018.333z"/></mask><path d="M38.107 27.913a.43.43 0 01-.367.213l-.092.143-.181.283-.232.38-.171.282-.232.407-.153.269c-.084.153-.167.306-.246.463l-.12.232c-.12.234-.237.472-.348.713-2.318 4.913-7.464 15.958-2.944 22.095h.037a.436.436 0 01.431.407.417.417 0 010 .144c.211.254.437.495.677.722.144.125.283.24.422.347l.135.098c.097.07.194.139.292.199l.153.092.278.153.153.079c.102.046.204.093.306.13l.13.05c.148.051.296.098.463.14h.042c.142.033.286.061.431.083h.162l.339.037h1.423l.463-.032h.052l.547-.056h.18l.417-.051.214-.028.463-.06.195-.028.668-.092c.301-.042.588-.08.867-.107h.097l.755-.07h.121l.69-.036h1.693l.723.041h.079l.728.06h.055l.78.075c.51.05 1.033.097 1.594.139a.421.421 0 01.352-.19h.074a.428.428 0 01.279.176c.01.019.02.039.027.06l.877.041h.07l.611.024h2.601l.357-.033h.162l.325-.046.148-.023.394-.084h.056c.148-.037.292-.078.43-.13l.121-.041.306-.12.14-.065.287-.144.125-.07c.125-.069.25-.147.37-.23h.029c.13-.093.264-.19.394-.297l.115-.097.279-.25.134-.13.274-.283.12-.13c.13-.148.26-.3.394-.462l.71-1.158-.154-.195-.746 1.223c-1.766 2.218-3.356 2.621-5.86 2.621-.64 0-1.353-.028-2.109-.056h-.074c-1.229-.046-2.22-.143-3.176-.231-1.098-.107-2.123-.204-3.296-.204a24.023 24.023 0 00-3.375.195 30.485 30.485 0 01-3.912.389 5.15 5.15 0 01-3.802-1.39c-6.332-5.626-.607-17.87 1.855-23.1 3.462-7.45 10.032-11.901 14.408-11.901.31-.002.62.023.927.074h.028c.046 0 4.691.352 9.494 6.697l.385.606.06-.333-.264-.412c-4.905-6.484-9.62-6.785-9.666-6.79a5.785 5.785 0 00-.464-.055h-.899l-.315.028h-.135l-.463.07h-.033l-.463.092-.153.037-.33.088-.19.055-.305.098-.2.088-.296.106-.214.084-.296.12-.218.097-.297.134-.222.107-.297.148-.227.12-.297.167-.227.13-.301.18-.223.14-.306.199-.218.143-.32.223-.204.143-.338.255-.18.139-.418.333-.102.083-.515.464-.116.106-.389.357-.18.171-.32.31-.2.204-.297.306-.208.222-.278.306-.21.236-.268.31-.209.25-.26.324-.199.26-.25.333-.2.269-.185.26a.421.421 0 01-.018.333z" fill="#fff" fill-opacity=".8"/><path d="M38.107 27.913a.43.43 0 01-.367.213l-.092.143-.181.283-.232.38-.171.282-.232.407-.153.269c-.084.153-.167.306-.246.463l-.12.232c-.12.234-.237.472-.348.713-2.318 4.913-7.464 15.958-2.944 22.095h.037a.436.436 0 01.431.407.417.417 0 010 .144c.211.254.437.495.677.722.144.125.283.24.422.347l.135.098c.097.07.194.139.292.199l.153.092.278.153.153.079c.102.046.204.093.306.13l.13.05c.148.051.296.098.463.14h.042c.142.033.286.061.431.083h.162l.339.037h1.423l.463-.032h.052l.547-.056h.18l.417-.051.214-.028.463-.06.195-.028.668-.092c.301-.042.588-.08.867-.107h.097l.755-.07h.121l.69-.036h1.693l.723.041h.079l.728.06h.055l.78.075c.51.05 1.033.097 1.594.139a.421.421 0 01.352-.19h.074a.428.428 0 01.279.176c.01.019.02.039.027.06l.877.041h.07l.611.024h2.601l.357-.033h.162l.325-.046.148-.023.394-.084h.056c.148-.037.292-.078.43-.13l.121-.041.306-.12.14-.065.287-.144.125-.07c.125-.069.25-.147.37-.23h.029c.13-.093.264-.19.394-.297l.115-.097.279-.25.134-.13.274-.283.12-.13c.13-.148.26-.3.394-.462l.71-1.158-.154-.195-.746 1.223c-1.766 2.218-3.356 2.621-5.86 2.621-.64 0-1.353-.028-2.109-.056h-.074c-1.229-.046-2.22-.143-3.176-.231-1.098-.107-2.123-.204-3.296-.204a24.023 24.023 0 00-3.375.195 30.485 30.485 0 01-3.912.389 5.15 5.15 0 01-3.802-1.39c-6.332-5.626-.607-17.87 1.855-23.1 3.462-7.45 10.032-11.901 14.408-11.901.31-.002.62.023.927.074h.028c.046 0 4.691.352 9.494 6.697l.385.606.06-.333-.264-.412c-4.905-6.484-9.62-6.785-9.666-6.79a5.785 5.785 0 00-.464-.055h-.899l-.315.028h-.135l-.463.07h-.033l-.463.092-.153.037-.33.088-.19.055-.305.098-.2.088-.296.106-.214.084-.296.12-.218.097-.297.134-.222.107-.297.148-.227.12-.297.167-.227.13-.301.18-.223.14-.306.199-.218.143-.32.223-.204.143-.338.255-.18.139-.418.333-.102.083-.515.464-.116.106-.389.357-.18.171-.32.31-.2.204-.297.306-.208.222-.278.306-.21.236-.268.31-.209.25-.26.324-.199.26-.25.333-.2.269-.185.26a.421.421 0 01-.018.333z" stroke="#fff" stroke-opacity=".8" stroke-width="2" mask="url(#f)"/><mask id="g" maskUnits="userSpaceOnUse" x="58.135" y="10.218" width="52" height="47" fill="#000"><path fill="#fff" d="M58.135 10.218h52v47h-52z"/><path d="M59.813 38.643c-1.484 6.673-.311 10.591 1.39 12.874a.416.416 0 01.376.463 8.261 8.261 0 003.166 2.316l.376.143.13.047.278.092.162.051.273.084.177.05.292.08.18.046.334.078.162.037.464.102h.042l.542.107.153.028.408.074.209.037.38.06.222.037.39.06.227.033.431.06.2.028.593.074h.05l.678.078h.143l.534.056h.227l.463.042h.25l.464.041h.246l.496.037h.222l.64.047h.084l.75.046h.158l.589.032h.246l.51.028h.268l.506.023h1.803l.774.024h11.224l.867-.024h.148l.807-.027h.07l.801-.028h.167l.733-.033h.153l.686-.032h.037l.667-.037h.14l.597-.037h.112l.547-.037h.023l.5-.042h.098l.427-.041h.078l.38-.042.867-.093c2.708-.278 5.744-.588 6.783-5.47a6.399 6.399 0 01-.088-.634.42.42 0 01.273-.43c0-.158.042-.31.06-.463.51-4.7.13-16.83-1.298-25.499a.425.425 0 01-.176-.148.421.421 0 01-.055-.324l.088-.39a49.844 49.844 0 00-.418-2.12c-.639-2.909-2.545-4.631-3.922-5.706-2.855-2.185-8.914-3.283-15.4-3.283-6.379 0-13.175 1.06-17.741 3.19-3.75 1.543-6.092 4.497-6.954 8.8-.172.847-.371 1.903-.589 3.065l.074.116a.43.43 0 01-.13.593l-.078.037c-.149.806-.306 1.653-.464 2.52-.654 3.551-1.298 7.075-1.752 9.104zm3.133-15.25c.849-4.2 3.139-7.1 6.815-8.61 4.27-1.99 10.867-3.176 17.658-3.176 6.912 0 12.614 1.209 15.262 3.242 1.349 1.032 3.217 2.737 3.838 5.557 1.887 8.581 2.429 23.155 1.854 28.402-.667 6.173-3.792 6.484-6.814 6.803l-.872.097c-1.98.246-7.394.505-13.523.505-6.37 0-17.746-.278-22.35-2.14-2.262-.926-7.254-4.246-4.779-15.384.464-2.037 1.099-5.557 1.72-8.975.45-2.422.872-4.719 1.191-6.321z"/></mask><path d="M59.813 38.643c-1.484 6.673-.311 10.591 1.39 12.874a.416.416 0 01.376.463 8.261 8.261 0 003.166 2.316l.376.143.13.047.278.092.162.051.273.084.177.05.292.08.18.046.334.078.162.037.464.102h.042l.542.107.153.028.408.074.209.037.38.06.222.037.39.06.227.033.431.06.2.028.593.074h.05l.678.078h.143l.534.056h.227l.463.042h.25l.464.041h.246l.496.037h.222l.64.047h.084l.75.046h.158l.589.032h.246l.51.028h.268l.506.023h1.803l.774.024h11.224l.867-.024h.148l.807-.027h.07l.801-.028h.167l.733-.033h.153l.686-.032h.037l.667-.037h.14l.597-.037h.112l.547-.037h.023l.5-.042h.098l.427-.041h.078l.38-.042.867-.093c2.708-.278 5.744-.588 6.783-5.47a6.399 6.399 0 01-.088-.634.42.42 0 01.273-.43c0-.158.042-.31.06-.463.51-4.7.13-16.83-1.298-25.499a.425.425 0 01-.176-.148.421.421 0 01-.055-.324l.088-.39a49.844 49.844 0 00-.418-2.12c-.639-2.909-2.545-4.631-3.922-5.706-2.855-2.185-8.914-3.283-15.4-3.283-6.379 0-13.175 1.06-17.741 3.19-3.75 1.543-6.092 4.497-6.954 8.8-.172.847-.371 1.903-.589 3.065l.074.116a.43.43 0 01-.13.593l-.078.037c-.149.806-.306 1.653-.464 2.52-.654 3.551-1.298 7.075-1.752 9.104zm3.133-15.25c.849-4.2 3.139-7.1 6.815-8.61 4.27-1.99 10.867-3.176 17.658-3.176 6.912 0 12.614 1.209 15.262 3.242 1.349 1.032 3.217 2.737 3.838 5.557 1.887 8.581 2.429 23.155 1.854 28.402-.667 6.173-3.792 6.484-6.814 6.803l-.872.097c-1.98.246-7.394.505-13.523.505-6.37 0-17.746-.278-22.35-2.14-2.262-.926-7.254-4.246-4.779-15.384.464-2.037 1.099-5.557 1.72-8.975.45-2.422.872-4.719 1.191-6.321z" fill="#fff" fill-opacity=".8"/><path d="M59.813 38.643c-1.484 6.673-.311 10.591 1.39 12.874a.416.416 0 01.376.463 8.261 8.261 0 003.166 2.316l.376.143.13.047.278.092.162.051.273.084.177.05.292.08.18.046.334.078.162.037.464.102h.042l.542.107.153.028.408.074.209.037.38.06.222.037.39.06.227.033.431.06.2.028.593.074h.05l.678.078h.143l.534.056h.227l.463.042h.25l.464.041h.246l.496.037h.222l.64.047h.084l.75.046h.158l.589.032h.246l.51.028h.268l.506.023h1.803l.774.024h11.224l.867-.024h.148l.807-.027h.07l.801-.028h.167l.733-.033h.153l.686-.032h.037l.667-.037h.14l.597-.037h.112l.547-.037h.023l.5-.042h.098l.427-.041h.078l.38-.042.867-.093c2.708-.278 5.744-.588 6.783-5.47a6.399 6.399 0 01-.088-.634.42.42 0 01.273-.43c0-.158.042-.31.06-.463.51-4.7.13-16.83-1.298-25.499a.425.425 0 01-.176-.148.421.421 0 01-.055-.324l.088-.39a49.844 49.844 0 00-.418-2.12c-.639-2.909-2.545-4.631-3.922-5.706-2.855-2.185-8.914-3.283-15.4-3.283-6.379 0-13.175 1.06-17.741 3.19-3.75 1.543-6.092 4.497-6.954 8.8-.172.847-.371 1.903-.589 3.065l.074.116a.43.43 0 01-.13.593l-.078.037c-.149.806-.306 1.653-.464 2.52-.654 3.551-1.298 7.075-1.752 9.104zm3.133-15.25c.849-4.2 3.139-7.1 6.815-8.61 4.27-1.99 10.867-3.176 17.658-3.176 6.912 0 12.614 1.209 15.262 3.242 1.349 1.032 3.217 2.737 3.838 5.557 1.887 8.581 2.429 23.155 1.854 28.402-.667 6.173-3.792 6.484-6.814 6.803l-.872.097c-1.98.246-7.394.505-13.523.505-6.37 0-17.746-.278-22.35-2.14-2.262-.926-7.254-4.246-4.779-15.384.464-2.037 1.099-5.557 1.72-8.975.45-2.422.872-4.719 1.191-6.321z" stroke="#fff" stroke-opacity=".8" stroke-width="2" mask="url(#g)"/><mask id="h" maskUnits="userSpaceOnUse" x="105.785" y="10.963" width="51" height="51" fill="#000"><path fill="#fff" d="M105.785 10.963h51v51h-51z"/><path d="M107.915 23.055l.848-3.821c1.322-6.289 7.269-6.868 9.81-7.113.44-.042.927-.065 1.502-.065 4.589 0 12.248 1.39 18.214 3.33 6.926 2.236 9.736 6.617 11.562 10.61 2.16 4.705 4.701 20.103 4.886 24.197.195 4.246-.106 7.65-5.72 9.641a12.029 12.029 0 01-3.746.44c-9.304 0-28.469-4.543-30.81-5.413-3.014-1.116-5.072-2.432-5.322-5.196-.037.24-.079.463-.125.699.514 2.427 2.526 3.658 5.368 4.71l.241.083h.042l.31.097h.065l.394.116h.047l.463.125h.061l.533.144.111.027.593.153.107.028.654.162h.041l.728.176.144.032.756.181.153.037.839.195h.037l.871.199.13.028.899.199.181.041.927.204.13.028.927.2.112.022 1.001.209.195.041 1.01.204.176.037 2.165.422.181.032 1.053.194.204.038 1.075.19h.107l1.047.18h.135l1.066.176.204.032 1.052.163.163.023 1.038.153h.065l1.048.143.181.023 1.001.125h.181l1.006.111h.055l.951.093h.143l.927.074h.172l.885.056h.112l.825.032h2.119l.496-.032h.129l.339-.033h.162l.278-.037.162-.028.255-.046.149-.028.25-.06.116-.028.329-.102c5.767-2.042 6.073-5.529 5.874-9.868-.144-3.186-1.715-13.199-3.421-19.733a.427.427 0 01-.199-.257.426.426 0 01.036-.322 27.393 27.393 0 00-1.312-3.83c-1.854-4.038-4.691-8.47-11.701-10.735l-1.066-.333-.139-.042-1.043-.3-.185-.052-1.053-.287-.181-.046-1.094-.278h-.092l-1.113-.264h-.079l-1.117-.245-.172-.038-1.08-.222-.185-.037-1.08-.204-.144-.023a73.524 73.524 0 00-2.216-.366h-.125l-1.015-.143h-.167l-.969-.116h-.153l-.955-.093h-.079l-.927-.07h-.065l-.853-.04h-1.822c-.232 0-.464.022-.663.046-2.591.25-8.655.842-10.013 7.293l-.733 3.307.102.588.028-.143z"/></mask><path d="M107.915 23.055l.848-3.821c1.322-6.289 7.269-6.868 9.81-7.113.44-.042.927-.065 1.502-.065 4.589 0 12.248 1.39 18.214 3.33 6.926 2.236 9.736 6.617 11.562 10.61 2.16 4.705 4.701 20.103 4.886 24.197.195 4.246-.106 7.65-5.72 9.641a12.029 12.029 0 01-3.746.44c-9.304 0-28.469-4.543-30.81-5.413-3.014-1.116-5.072-2.432-5.322-5.196-.037.24-.079.463-.125.699.514 2.427 2.526 3.658 5.368 4.71l.241.083h.042l.31.097h.065l.394.116h.047l.463.125h.061l.533.144.111.027.593.153.107.028.654.162h.041l.728.176.144.032.756.181.153.037.839.195h.037l.871.199.13.028.899.199.181.041.927.204.13.028.927.2.112.022 1.001.209.195.041 1.01.204.176.037 2.165.422.181.032 1.053.194.204.038 1.075.19h.107l1.047.18h.135l1.066.176.204.032 1.052.163.163.023 1.038.153h.065l1.048.143.181.023 1.001.125h.181l1.006.111h.055l.951.093h.143l.927.074h.172l.885.056h.112l.825.032h2.119l.496-.032h.129l.339-.033h.162l.278-.037.162-.028.255-.046.149-.028.25-.06.116-.028.329-.102c5.767-2.042 6.073-5.529 5.874-9.868-.144-3.186-1.715-13.199-3.421-19.733a.427.427 0 01-.199-.257.426.426 0 01.036-.322 27.393 27.393 0 00-1.312-3.83c-1.854-4.038-4.691-8.47-11.701-10.735l-1.066-.333-.139-.042-1.043-.3-.185-.052-1.053-.287-.181-.046-1.094-.278h-.092l-1.113-.264h-.079l-1.117-.245-.172-.038-1.08-.222-.185-.037-1.08-.204-.144-.023a73.524 73.524 0 00-2.216-.366h-.125l-1.015-.143h-.167l-.969-.116h-.153l-.955-.093h-.079l-.927-.07h-.065l-.853-.04h-1.822c-.232 0-.464.022-.663.046-2.591.25-8.655.842-10.013 7.293l-.733 3.307.102.588.028-.143z" fill="#fff" fill-opacity=".8"/><path d="M107.915 23.055l.848-3.821c1.322-6.289 7.269-6.868 9.81-7.113.44-.042.927-.065 1.502-.065 4.589 0 12.248 1.39 18.214 3.33 6.926 2.236 9.736 6.617 11.562 10.61 2.16 4.705 4.701 20.103 4.886 24.197.195 4.246-.106 7.65-5.72 9.641a12.029 12.029 0 01-3.746.44c-9.304 0-28.469-4.543-30.81-5.413-3.014-1.116-5.072-2.432-5.322-5.196-.037.24-.079.463-.125.699.514 2.427 2.526 3.658 5.368 4.71l.241.083h.042l.31.097h.065l.394.116h.047l.463.125h.061l.533.144.111.027.593.153.107.028.654.162h.041l.728.176.144.032.756.181.153.037.839.195h.037l.871.199.13.028.899.199.181.041.927.204.13.028.927.2.112.022 1.001.209.195.041 1.01.204.176.037 2.165.422.181.032 1.053.194.204.038 1.075.19h.107l1.047.18h.135l1.066.176.204.032 1.052.163.163.023 1.038.153h.065l1.048.143.181.023 1.001.125h.181l1.006.111h.055l.951.093h.143l.927.074h.172l.885.056h.112l.825.032h2.119l.496-.032h.129l.339-.033h.162l.278-.037.162-.028.255-.046.149-.028.25-.06.116-.028.329-.102c5.767-2.042 6.073-5.529 5.874-9.868-.144-3.186-1.715-13.199-3.421-19.733a.427.427 0 01-.199-.257.426.426 0 01.036-.322 27.393 27.393 0 00-1.312-3.83c-1.854-4.038-4.691-8.47-11.701-10.735l-1.066-.333-.139-.042-1.043-.3-.185-.052-1.053-.287-.181-.046-1.094-.278h-.092l-1.113-.264h-.079l-1.117-.245-.172-.038-1.08-.222-.185-.037-1.08-.204-.144-.023a73.524 73.524 0 00-2.216-.366h-.125l-1.015-.143h-.167l-.969-.116h-.153l-.955-.093h-.079l-.927-.07h-.065l-.853-.04h-1.822c-.232 0-.464.022-.663.046-2.591.25-8.655.842-10.013 7.293l-.733 3.307.102.588.028-.143z" stroke="#fff" stroke-opacity=".8" stroke-width="2" mask="url(#h)"/><path d="M160.463 18.96a6.493 6.493 0 013.829-1.472c.311 0 .621.029.927.083 3.013.538 6.458 3.682 10.236 9.337 6.611 9.896 8.27 19.107 6.49 23.095a3.19 3.19 0 01-2.494 2.06c-.793.116-1.961.302-3.199.5-4.969.792-12.475 1.992-16.299 1.992a7.81 7.81 0 01-1.669-.134 6.06 6.06 0 01-2.601-1.163.41.41 0 00-.102-.07v.265a6.389 6.389 0 002.675 1.19c.093 0 .199.042.311.056h.106l.26.027h1.84l.733-.037h.148l.802-.055h.088l.825-.074h.126l.894-.093h.181l.927-.106h.135l.927-.112h.125l.983-.13.19-.027.983-.134h.153l.375-.056a.428.428 0 01.302-.12.413.413 0 01.194.055h.176l.992-.148.204-.032.955-.144.167-.028.928-.143h.041l.927-.144.2-.032.857-.135.186-.027.806-.13a209.7 209.7 0 013.199-.496c1.201-.171 2.1-.926 2.675-2.195 1.599-3.584.464-11.318-4.446-19.973a.422.422 0 01-.259-.417v-.023a56.994 56.994 0 00-1.808-2.9c-3.811-5.802-7.316-8.974-10.394-9.526a5.084 5.084 0 00-.463-.06h-.571c-.176 0-.347 0-.514.028h-.088c-.163 0-.325.046-.464.083h-.032c-.163.038-.32.084-.464.135l-.088.027c-.148.05-.294.106-.436.167l-.079.037c-.143.065-.278.13-.417.2-.139.074-.273.152-.408.231l-.074.046-.371.241-.069.046-.362.255c-2.814 2.042-6.027 7.15-8.27 11.175l.083.324c2.197-4.038 5.452-9.267 8.28-11.318z" fill="#fff" fill-opacity=".8"/><path d="M160.769 19.357l-.013.009c-1.343.974-2.824 2.736-4.259 4.795-1.428 2.048-2.781 4.347-3.875 6.357l-.607 1.115-.316-1.23-.084-.323-.049-.194.097-.175c1.126-2.02 2.5-4.32 3.949-6.375 1.442-2.045 2.988-3.889 4.464-4.96l.006-.005h0l.362-.254.01-.008h0l.07-.046.005-.003h0l.371-.241.007-.005h0l.074-.046.006-.004.007-.003.003-.003c.132-.077.274-.16.422-.239l.012-.006h0c.142-.07.281-.138.431-.206l.075-.035.007-.003.007-.003a5.72 5.72 0 01.477-.183l.007-.002h.001l.079-.026c.16-.056.333-.106.511-.147l.055-.013h.023c.128-.034.325-.083.53-.083h.049c.194-.028.383-.028.538-.028h.608l.021.002c.168.015.337.035.509.066 1.667.3 3.396 1.296 5.17 2.917 1.779 1.625 3.633 3.904 5.552 6.826a56.678 56.678 0 011.823 2.923l.068.117v.133l.109.045.085.15c2.477 4.367 4.01 8.514 4.719 12.036.706 3.504.611 6.456-.251 8.388l-.001.003c-.631 1.39-1.657 2.283-3.06 2.483h-.001c-.778.11-1.881.286-3.189.495l-15.614-34.011zm0 0l.011-.01a5.997 5.997 0 013.523-1.359m-3.534 1.369l3.534-1.369m13.532 11.805a.307.307 0 00.014.024l.043.003h0l.079.005a.09.09 0 00-.005-.032h-.131zm0 0h.101-.101zm-13.532-11.805c.278.002.555.027.828.076h0c1.378.245 2.908 1.099 4.582 2.626 1.67 1.523 3.45 3.688 5.326 6.495 3.278 4.907 5.32 9.632 6.323 13.608 1.009 4 .948 7.166.127 9.006l-.008.016-.006.018a2.68 2.68 0 01-2.099 1.736c-.797.117-1.967.302-3.203.501l-.043.007c-4.991.795-12.414 1.978-16.177 1.978v0h-.014a7.305 7.305 0 01-1.562-.126h-.002a5.56 5.56 0 01-2.372-1.055.893.893 0 00-.206-.136l-.716-.343v1.306l.198.15a6.89 6.89 0 002.884 1.283l.046.009h.037a.675.675 0 01.045.01l.016.003c.043.01.12.029.198.039l.031.004h.111l.233.025.026.002h1.893l.719-.037h.171l.784-.055h.094l.022-.002.803-.072h.128l.026-.003.869-.09h.184l.028-.003.899-.103h.136l.029-.004.898-.108h.128l.032-.004.983-.13h.007l.186-.028h.004l.945-.13h.155l.037-.005.375-.055.16-.024.071-.07.058.034h.348l.036-.005.992-.148.005-.001.2-.032h.004l.951-.144h.008l.161-.028h.005l.884-.137h.042l.038-.006.927-.144h.004l.196-.032h.003l.851-.134h.004l.182-.028h.005l.806-.13-12.079-35.38z" stroke="#fff" stroke-opacity=".8"/><mask id="i" maskUnits="userSpaceOnUse" x="167.203" y="16.016" width="35" height="47" fill="#000"><path fill="#fff" d="M167.203 16.016h35v47h-35z"/><path d="M184.737 23.587l.268-.315c1.795-2.13 5.142-6.09 7.881-6.09.295-.001.589.047.867.144 1.391.486 2.592 2.024 3.593 4.566a36.108 36.108 0 011.938 8.054c.065.463.148 1.018.25 1.653v.079c1.043 6.64 3.486 22.192-6.253 27.846-1.706.991-3.009 1.473-3.978 1.473a2.247 2.247 0 01-.612-.079c-.858-.24-1.28-1.023-1.762-1.922a10.883 10.883 0 00-.639-1.088c-1.6-2.283-4.21-3.395-7.979-3.395-.714 0-1.488.042-2.318.12-.89.089-1.696.13-2.396.13a7.686 7.686 0 01-3-.463l-.394.06.121.075h.032c.112.055.226.105.343.148l.093.032c.107.037.222.074.338.102h.07c.144.037.292.065.463.093h.116l.325.041a.422.422 0 01.153-.074h.106a.426.426 0 01.306.14h2.119l.394-.029h.209l.635-.055c.366-.037.718-.06 1.061-.079h2.444l.528.046h.176c.229.028.451.06.668.098l.139.027.491.102.209.056.394.111.213.07.366.13.195.073.38.167.149.07c.171.083.333.175.496.268l.064.042c.136.083.269.171.399.264l.149.11c.097.075.194.15.287.228l.153.134.255.24.144.145c.088.092.171.185.25.277l.116.135c.116.143.232.291.338.463.229.34.438.695.626 1.06.102.185.199.366.301.547.083.031.152.09.195.166.033.066.046.14.037.213a2.45 2.45 0 001.391 1.112c.125.034.252.057.38.07h.58c.106 0 .218-.024.333-.042l.149-.023c.167-.033.338-.075.519-.13h.056c.163-.05.333-.108.51-.176l.194-.079.427-.18.227-.102.463-.232.237-.083c.232-.12.464-.255.714-.394.483-.278.948-.587 1.391-.926a.385.385 0 01.375-.384h.102c6.147-5.233 5.962-15.26 5.141-22.23a.394.394 0 01-.069-.05.421.421 0 010-.524c-.186-1.495-.399-2.838-.57-3.936-.102-.658-.195-1.237-.26-1.723a36.37 36.37 0 00-1.952-8.109c-1.029-2.607-2.285-4.168-3.732-4.7a2.724 2.724 0 00-.417-.107h-.088a2.932 2.932 0 00-.417-.032h-.07a3.393 3.393 0 00-.987.157h-.056a5.436 5.436 0 00-.487.18l-.083.038c-.161.07-.315.15-.464.236l-.088.051a4.137 4.137 0 00-.463.287l-.074.046c-.167.112-.334.223-.501.348-.162.12-.329.25-.487.38l-.065.05c-.157.13-.315.264-.463.403l-.088.074-.464.417-.088.084-.464.435-.069.07-.464.463-.431.463-.051.06-.399.463-.069.079-.371.426-.065.074-.352.412-.051.06-.329.39-.269.314c-1.855 2.21-5.503 5.511-6.351 6.275l.12.204c.7-.723 4.423-4.094 6.347-6.368z"/></mask><path d="M184.737 23.587l.268-.315c1.795-2.13 5.142-6.09 7.881-6.09.295-.001.589.047.867.144 1.391.486 2.592 2.024 3.593 4.566a36.108 36.108 0 011.938 8.054c.065.463.148 1.018.25 1.653v.079c1.043 6.64 3.486 22.192-6.253 27.846-1.706.991-3.009 1.473-3.978 1.473a2.247 2.247 0 01-.612-.079c-.858-.24-1.28-1.023-1.762-1.922a10.883 10.883 0 00-.639-1.088c-1.6-2.283-4.21-3.395-7.979-3.395-.714 0-1.488.042-2.318.12-.89.089-1.696.13-2.396.13a7.686 7.686 0 01-3-.463l-.394.06.121.075h.032c.112.055.226.105.343.148l.093.032c.107.037.222.074.338.102h.07c.144.037.292.065.463.093h.116l.325.041a.422.422 0 01.153-.074h.106a.426.426 0 01.306.14h2.119l.394-.029h.209l.635-.055c.366-.037.718-.06 1.061-.079h2.444l.528.046h.176c.229.028.451.06.668.098l.139.027.491.102.209.056.394.111.213.07.366.13.195.073.38.167.149.07c.171.083.333.175.496.268l.064.042c.136.083.269.171.399.264l.149.11c.097.075.194.15.287.228l.153.134.255.24.144.145c.088.092.171.185.25.277l.116.135c.116.143.232.291.338.463.229.34.438.695.626 1.06.102.185.199.366.301.547.083.031.152.09.195.166.033.066.046.14.037.213a2.45 2.45 0 001.391 1.112c.125.034.252.057.38.07h.58c.106 0 .218-.024.333-.042l.149-.023c.167-.033.338-.075.519-.13h.056c.163-.05.333-.108.51-.176l.194-.079.427-.18.227-.102.463-.232.237-.083c.232-.12.464-.255.714-.394.483-.278.948-.587 1.391-.926a.385.385 0 01.375-.384h.102c6.147-5.233 5.962-15.26 5.141-22.23a.394.394 0 01-.069-.05.421.421 0 010-.524c-.186-1.495-.399-2.838-.57-3.936-.102-.658-.195-1.237-.26-1.723a36.37 36.37 0 00-1.952-8.109c-1.029-2.607-2.285-4.168-3.732-4.7a2.724 2.724 0 00-.417-.107h-.088a2.932 2.932 0 00-.417-.032h-.07a3.393 3.393 0 00-.987.157h-.056a5.436 5.436 0 00-.487.18l-.083.038c-.161.07-.315.15-.464.236l-.088.051a4.137 4.137 0 00-.463.287l-.074.046c-.167.112-.334.223-.501.348-.162.12-.329.25-.487.38l-.065.05c-.157.13-.315.264-.463.403l-.088.074-.464.417-.088.084-.464.435-.069.07-.464.463-.431.463-.051.06-.399.463-.069.079-.371.426-.065.074-.352.412-.051.06-.329.39-.269.314c-1.855 2.21-5.503 5.511-6.351 6.275l.12.204c.7-.723 4.423-4.094 6.347-6.368z" fill="#fff" fill-opacity=".8"/><path d="M184.737 23.587l.268-.315c1.795-2.13 5.142-6.09 7.881-6.09.295-.001.589.047.867.144 1.391.486 2.592 2.024 3.593 4.566a36.108 36.108 0 011.938 8.054c.065.463.148 1.018.25 1.653v.079c1.043 6.64 3.486 22.192-6.253 27.846-1.706.991-3.009 1.473-3.978 1.473a2.247 2.247 0 01-.612-.079c-.858-.24-1.28-1.023-1.762-1.922a10.883 10.883 0 00-.639-1.088c-1.6-2.283-4.21-3.395-7.979-3.395-.714 0-1.488.042-2.318.12-.89.089-1.696.13-2.396.13a7.686 7.686 0 01-3-.463l-.394.06.121.075h.032c.112.055.226.105.343.148l.093.032c.107.037.222.074.338.102h.07c.144.037.292.065.463.093h.116l.325.041a.422.422 0 01.153-.074h.106a.426.426 0 01.306.14h2.119l.394-.029h.209l.635-.055c.366-.037.718-.06 1.061-.079h2.444l.528.046h.176c.229.028.451.06.668.098l.139.027.491.102.209.056.394.111.213.07.366.13.195.073.38.167.149.07c.171.083.333.175.496.268l.064.042c.136.083.269.171.399.264l.149.11c.097.075.194.15.287.228l.153.134.255.24.144.145c.088.092.171.185.25.277l.116.135c.116.143.232.291.338.463.229.34.438.695.626 1.06.102.185.199.366.301.547.083.031.152.09.195.166.033.066.046.14.037.213a2.45 2.45 0 001.391 1.112c.125.034.252.057.38.07h.58c.106 0 .218-.024.333-.042l.149-.023c.167-.033.338-.075.519-.13h.056c.163-.05.333-.108.51-.176l.194-.079.427-.18.227-.102.463-.232.237-.083c.232-.12.464-.255.714-.394.483-.278.948-.587 1.391-.926a.385.385 0 01.375-.384h.102c6.147-5.233 5.962-15.26 5.141-22.23a.394.394 0 01-.069-.05.421.421 0 010-.524c-.186-1.495-.399-2.838-.57-3.936-.102-.658-.195-1.237-.26-1.723a36.37 36.37 0 00-1.952-8.109c-1.029-2.607-2.285-4.168-3.732-4.7a2.724 2.724 0 00-.417-.107h-.088a2.932 2.932 0 00-.417-.032h-.07a3.393 3.393 0 00-.987.157h-.056a5.436 5.436 0 00-.487.18l-.083.038c-.161.07-.315.15-.464.236l-.088.051a4.137 4.137 0 00-.463.287l-.074.046c-.167.112-.334.223-.501.348-.162.12-.329.25-.487.38l-.065.05c-.157.13-.315.264-.463.403l-.088.074-.464.417-.088.084-.464.435-.069.07-.464.463-.431.463-.051.06-.399.463-.069.079-.371.426-.065.074-.352.412-.051.06-.329.39-.269.314c-1.855 2.21-5.503 5.511-6.351 6.275l.12.204c.7-.723 4.423-4.094 6.347-6.368z" stroke="#fff" stroke-opacity=".8" stroke-width="2" mask="url(#i)"/><mask id="j" maskUnits="userSpaceOnUse" x="170.711" y="30.506" width="43" height="36" fill="#000"><path fill="#fff" d="M170.711 30.506h43v36h-43z"/><path d="M207.021 32.039c.421-.165.865-.26 1.317-.283.376-.004.745.11 1.052.33 1.599 1.115 2.499 5.005 2.684 11.577.376 13.346-3.829 16.718-6.611 18.945-.287.232-.551.463-.797.653a3.18 3.18 0 01-2.133.695c-2.47 0-5.363-1.806-5.484-1.885a5.76 5.76 0 00-3.453-1.176 5.873 5.873 0 00-1.345.162 9.963 9.963 0 01-1.618.616c-.526.28-1.019.62-1.469 1.01a8.074 8.074 0 01-8.66 1.472 12.306 12.306 0 01-5.021-3.895l-.116-.115a.382.382 0 01-.088-.158 16.591 16.591 0 01-2.318-4.376h-.25c.464 1.454 2.531 6.655 7.709 8.771l.084.028a.426.426 0 01.589.125l.078.116h.065c.241.074.464.134.71.185h.097c.227.046.464.083.663.111h.107c.213.025.423.04.63.046h.746c.204 0 .399-.037.594-.06l.162-.028.431-.078.148-.033c.181-.041.357-.088.524-.143h.061c.151-.047.306-.098.463-.153l.139-.056.362-.153.102-.046.422-.213.088-.046.31-.176.107-.065.292-.19.056-.037.31-.218.074-.055.204-.162.07-.056.223-.185c.129-.111.264-.222.403-.329l.134-.097.302-.209.167-.106.305-.176.172-.093.343-.166.153-.07c.167-.07.338-.139.515-.194h.041c.161-.053.325-.098.492-.135l.176-.032c.125-.023.25-.046.375-.06h.974l.329.027h.153c.144 0 .292.047.441.084h.041c.158.037.32.088.464.139l.144.05a5.6 5.6 0 01.343.14l.166.078c.112.056.228.116.339.181l.148.083c.162.098.32.2.464.32h.028l.236.143.042.024.436.24.064.033.283.143.302.149.078.037.348.162.357.152.093.038.398.152h.024l.384.135.102.032.427.13h.037l.399.102.106.023.436.083h.042l.398.051h1.164l.167-.028.134-.023.172-.041.125-.033.172-.06.116-.042.176-.083.102-.046.18-.107.084-.05a3.5 3.5 0 00.246-.19c.245-.21.51-.422.792-.65 2.819-2.26 7.075-5.672 6.695-19.135a67.897 67.897 0 00-.116-2.528.387.387 0 01-.214-.299.388.388 0 01.126-.345l.037-.041c-.371-4.706-1.247-7.577-2.62-8.536a2.07 2.07 0 00-.319-.185l-.107-.041a1.983 1.983 0 00-.218-.075l-.125-.027-.2-.033h-.658l-.213.042-.125.028-.227.064-.098.028-.292.093c-1.483.496-5.053 3.302-5.934 4.006l.033.268c.658-.426 4.51-3.487 6.031-3.996z"/></mask><path d="M207.021 32.039c.421-.165.865-.26 1.317-.283.376-.004.745.11 1.052.33 1.599 1.115 2.499 5.005 2.684 11.577.376 13.346-3.829 16.718-6.611 18.945-.287.232-.551.463-.797.653a3.18 3.18 0 01-2.133.695c-2.47 0-5.363-1.806-5.484-1.885a5.76 5.76 0 00-3.453-1.176 5.873 5.873 0 00-1.345.162 9.963 9.963 0 01-1.618.616c-.526.28-1.019.62-1.469 1.01a8.074 8.074 0 01-8.66 1.472 12.306 12.306 0 01-5.021-3.895l-.116-.115a.382.382 0 01-.088-.158 16.591 16.591 0 01-2.318-4.376h-.25c.464 1.454 2.531 6.655 7.709 8.771l.084.028a.426.426 0 01.589.125l.078.116h.065c.241.074.464.134.71.185h.097c.227.046.464.083.663.111h.107c.213.025.423.04.63.046h.746c.204 0 .399-.037.594-.06l.162-.028.431-.078.148-.033c.181-.041.357-.088.524-.143h.061c.151-.047.306-.098.463-.153l.139-.056.362-.153.102-.046.422-.213.088-.046.31-.176.107-.065.292-.19.056-.037.31-.218.074-.055.204-.162.07-.056.223-.185c.129-.111.264-.222.403-.329l.134-.097.302-.209.167-.106.305-.176.172-.093.343-.166.153-.07c.167-.07.338-.139.515-.194h.041c.161-.053.325-.098.492-.135l.176-.032c.125-.023.25-.046.375-.06h.974l.329.027h.153c.144 0 .292.047.441.084h.041c.158.037.32.088.464.139l.144.05a5.6 5.6 0 01.343.14l.166.078c.112.056.228.116.339.181l.148.083c.162.098.32.2.464.32h.028l.236.143.042.024.436.24.064.033.283.143.302.149.078.037.348.162.357.152.093.038.398.152h.024l.384.135.102.032.427.13h.037l.399.102.106.023.436.083h.042l.398.051h1.164l.167-.028.134-.023.172-.041.125-.033.172-.06.116-.042.176-.083.102-.046.18-.107.084-.05a3.5 3.5 0 00.246-.19c.245-.21.51-.422.792-.65 2.819-2.26 7.075-5.672 6.695-19.135a67.897 67.897 0 00-.116-2.528.387.387 0 01-.214-.299.388.388 0 01.126-.345l.037-.041c-.371-4.706-1.247-7.577-2.62-8.536a2.07 2.07 0 00-.319-.185l-.107-.041a1.983 1.983 0 00-.218-.075l-.125-.027-.2-.033h-.658l-.213.042-.125.028-.227.064-.098.028-.292.093c-1.483.496-5.053 3.302-5.934 4.006l.033.268c.658-.426 4.51-3.487 6.031-3.996z" fill="#fff" fill-opacity=".8"/><path d="M207.021 32.039c.421-.165.865-.26 1.317-.283.376-.004.745.11 1.052.33 1.599 1.115 2.499 5.005 2.684 11.577.376 13.346-3.829 16.718-6.611 18.945-.287.232-.551.463-.797.653a3.18 3.18 0 01-2.133.695c-2.47 0-5.363-1.806-5.484-1.885a5.76 5.76 0 00-3.453-1.176 5.873 5.873 0 00-1.345.162 9.963 9.963 0 01-1.618.616c-.526.28-1.019.62-1.469 1.01a8.074 8.074 0 01-8.66 1.472 12.306 12.306 0 01-5.021-3.895l-.116-.115a.382.382 0 01-.088-.158 16.591 16.591 0 01-2.318-4.376h-.25c.464 1.454 2.531 6.655 7.709 8.771l.084.028a.426.426 0 01.589.125l.078.116h.065c.241.074.464.134.71.185h.097c.227.046.464.083.663.111h.107c.213.025.423.04.63.046h.746c.204 0 .399-.037.594-.06l.162-.028.431-.078.148-.033c.181-.041.357-.088.524-.143h.061c.151-.047.306-.098.463-.153l.139-.056.362-.153.102-.046.422-.213.088-.046.31-.176.107-.065.292-.19.056-.037.31-.218.074-.055.204-.162.07-.056.223-.185c.129-.111.264-.222.403-.329l.134-.097.302-.209.167-.106.305-.176.172-.093.343-.166.153-.07c.167-.07.338-.139.515-.194h.041c.161-.053.325-.098.492-.135l.176-.032c.125-.023.25-.046.375-.06h.974l.329.027h.153c.144 0 .292.047.441.084h.041c.158.037.32.088.464.139l.144.05a5.6 5.6 0 01.343.14l.166.078c.112.056.228.116.339.181l.148.083c.162.098.32.2.464.32h.028l.236.143.042.024.436.24.064.033.283.143.302.149.078.037.348.162.357.152.093.038.398.152h.024l.384.135.102.032.427.13h.037l.399.102.106.023.436.083h.042l.398.051h1.164l.167-.028.134-.023.172-.041.125-.033.172-.06.116-.042.176-.083.102-.046.18-.107.084-.05a3.5 3.5 0 00.246-.19c.245-.21.51-.422.792-.65 2.819-2.26 7.075-5.672 6.695-19.135a67.897 67.897 0 00-.116-2.528.387.387 0 01-.214-.299.388.388 0 01.126-.345l.037-.041c-.371-4.706-1.247-7.577-2.62-8.536a2.07 2.07 0 00-.319-.185l-.107-.041a1.983 1.983 0 00-.218-.075l-.125-.027-.2-.033h-.658l-.213.042-.125.028-.227.064-.098.028-.292.093c-1.483.496-5.053 3.302-5.934 4.006l.033.268c.658-.426 4.51-3.487 6.031-3.996z" stroke="#fff" stroke-opacity=".8" stroke-width="2" mask="url(#j)"/><mask id="k" maskUnits="userSpaceOnUse" x="191.436" y="39.097" width="30" height="36" fill="#000"><path fill="#fff" d="M191.436 39.097h30v36h-30z"/><path d="M212.806 40.972c.347-.36.813-.583 1.312-.63.302.005.592.12.815.325 3.139 2.69 4.108 8.646 4.363 13.17.24 4.13.032 8.275-.621 12.36-.626 3.117-2.782 4.567-6.755 4.567a22.52 22.52 0 01-3.245-.26 25.057 25.057 0 00-3.607-.305 8.856 8.856 0 00-5.187 1.463c-.464.269-.927.546-1.525.815a9.283 9.283 0 01-4.085 1.037 9.488 9.488 0 01-1.414-.11 4.432 4.432 0 01-.421.161h.041l.311.056.246.032.292.037h1.529l.269-.027.232-.028.274-.046.227-.042.273-.065.227-.055.288-.084.218-.065.306-.106.213-.074.348-.14.181-.073.547-.246a19.48 19.48 0 001.543-.824l.292-.167.093-.05.236-.13.084-.047.306-.162.06-.028.26-.12.097-.046.269-.111.07-.028.347-.125.098-.028.287-.083.116-.033.394-.088.44-.074h.135l.371-.042h.129l.529-.027h1.451l.691.05h.111l.774.084h.084l.894.12c.353.051.691.093 1.02.13l.297.028.686.055h.306c.244 0 .484.008.719.023h1.233c.204 0 .398-.032.593-.055l.26-.037.491-.084.246-.05c.171-.037.334-.084.491-.13l.176-.051c.211-.068.413-.144.608-.227l.116-.055c.153-.07.301-.144.463-.223l.176-.106a4.78 4.78 0 00.334-.227l.167-.125a6.08 6.08 0 00.311-.274l.125-.115c.135-.14.262-.286.38-.44l.046-.065c.102-.139.196-.282.283-.43a2.12 2.12 0 00.093-.177c.028-.06.13-.245.185-.375l.088-.204c.056-.134.107-.277.153-.416 0-.065.042-.126.065-.195a8.49 8.49 0 00.162-.658c.661-4.103.874-8.266.636-12.415-.26-4.571-1.243-10.592-4.442-13.333a1.796 1.796 0 00-.236-.171l-.079-.042a1.578 1.578 0 00-.157-.074l-.093-.028-.139-.037h-.306c-.075.002-.149.01-.223.023h-.051a1.85 1.85 0 00-.25.074h-.056l-.19.088-.051.028-.199.12-.037.023-.144.107-.037.032-.051.042c.005.144.014.24.019.338z"/></mask><path d="M212.806 40.972c.347-.36.813-.583 1.312-.63.302.005.592.12.815.325 3.139 2.69 4.108 8.646 4.363 13.17.24 4.13.032 8.275-.621 12.36-.626 3.117-2.782 4.567-6.755 4.567a22.52 22.52 0 01-3.245-.26 25.057 25.057 0 00-3.607-.305 8.856 8.856 0 00-5.187 1.463c-.464.269-.927.546-1.525.815a9.283 9.283 0 01-4.085 1.037 9.488 9.488 0 01-1.414-.11 4.432 4.432 0 01-.421.161h.041l.311.056.246.032.292.037h1.529l.269-.027.232-.028.274-.046.227-.042.273-.065.227-.055.288-.084.218-.065.306-.106.213-.074.348-.14.181-.073.547-.246a19.48 19.48 0 001.543-.824l.292-.167.093-.05.236-.13.084-.047.306-.162.06-.028.26-.12.097-.046.269-.111.07-.028.347-.125.098-.028.287-.083.116-.033.394-.088.44-.074h.135l.371-.042h.129l.529-.027h1.451l.691.05h.111l.774.084h.084l.894.12c.353.051.691.093 1.02.13l.297.028.686.055h.306c.244 0 .484.008.719.023h1.233c.204 0 .398-.032.593-.055l.26-.037.491-.084.246-.05c.171-.037.334-.084.491-.13l.176-.051c.211-.068.413-.144.608-.227l.116-.055c.153-.07.301-.144.463-.223l.176-.106a4.78 4.78 0 00.334-.227l.167-.125a6.08 6.08 0 00.311-.274l.125-.115c.135-.14.262-.286.38-.44l.046-.065c.102-.139.196-.282.283-.43a2.12 2.12 0 00.093-.177c.028-.06.13-.245.185-.375l.088-.204c.056-.134.107-.277.153-.416 0-.065.042-.126.065-.195a8.49 8.49 0 00.162-.658c.661-4.103.874-8.266.636-12.415-.26-4.571-1.243-10.592-4.442-13.333a1.796 1.796 0 00-.236-.171l-.079-.042a1.578 1.578 0 00-.157-.074l-.093-.028-.139-.037h-.306c-.075.002-.149.01-.223.023h-.051a1.85 1.85 0 00-.25.074h-.056l-.19.088-.051.028-.199.12-.037.023-.144.107-.037.032-.051.042c.005.144.014.24.019.338z" fill="#fff" fill-opacity=".8"/><path d="M212.806 40.972c.347-.36.813-.583 1.312-.63.302.005.592.12.815.325 3.139 2.69 4.108 8.646 4.363 13.17.24 4.13.032 8.275-.621 12.36-.626 3.117-2.782 4.567-6.755 4.567a22.52 22.52 0 01-3.245-.26 25.057 25.057 0 00-3.607-.305 8.856 8.856 0 00-5.187 1.463c-.464.269-.927.546-1.525.815a9.283 9.283 0 01-4.085 1.037 9.488 9.488 0 01-1.414-.11 4.432 4.432 0 01-.421.161h.041l.311.056.246.032.292.037h1.529l.269-.027.232-.028.274-.046.227-.042.273-.065.227-.055.288-.084.218-.065.306-.106.213-.074.348-.14.181-.073.547-.246a19.48 19.48 0 001.543-.824l.292-.167.093-.05.236-.13.084-.047.306-.162.06-.028.26-.12.097-.046.269-.111.07-.028.347-.125.098-.028.287-.083.116-.033.394-.088.44-.074h.135l.371-.042h.129l.529-.027h1.451l.691.05h.111l.774.084h.084l.894.12c.353.051.691.093 1.02.13l.297.028.686.055h.306c.244 0 .484.008.719.023h1.233c.204 0 .398-.032.593-.055l.26-.037.491-.084.246-.05c.171-.037.334-.084.491-.13l.176-.051c.211-.068.413-.144.608-.227l.116-.055c.153-.07.301-.144.463-.223l.176-.106a4.78 4.78 0 00.334-.227l.167-.125a6.08 6.08 0 00.311-.274l.125-.115c.135-.14.262-.286.38-.44l.046-.065c.102-.139.196-.282.283-.43a2.12 2.12 0 00.093-.177c.028-.06.13-.245.185-.375l.088-.204c.056-.134.107-.277.153-.416 0-.065.042-.126.065-.195a8.49 8.49 0 00.162-.658c.661-4.103.874-8.266.636-12.415-.26-4.571-1.243-10.592-4.442-13.333a1.796 1.796 0 00-.236-.171l-.079-.042a1.578 1.578 0 00-.157-.074l-.093-.028-.139-.037h-.306c-.075.002-.149.01-.223.023h-.051a1.85 1.85 0 00-.25.074h-.056l-.19.088-.051.028-.199.12-.037.023-.144.107-.037.032-.051.042c.005.144.014.24.019.338z" stroke="#fff" stroke-opacity=".8" stroke-width="2" mask="url(#k)"/><path d="M22.527 60.57a2.906 2.906 0 01-.667-.073c-1.173-.278-2.026-1.306-2.536-3.062-2.629-9.053.347-31.028.38-31.25a4.905 4.905 0 012.35-3.566 6.398 6.398 0 015.1-.662c2.318.773 10.36 5.372 10.7 5.557a.196.196 0 01-.046.362.197.197 0 01-.15-.019c-.083-.046-8.344-4.775-10.63-5.534a6.072 6.072 0 00-4.747.625 4.533 4.533 0 00-2.165 3.284c-.528 3.52-2.72 23.067-.394 31.078.464 1.612 1.224 2.548 2.249 2.78 2.42.569 5.753-2.78 6.717-3.835 2.355-2.547 4.293-2.659 4.377-2.659a.204.204 0 01.204.19.199.199 0 01-.186.204s-1.854.116-4.103 2.533c-1.196 1.292-4.024 4.048-6.453 4.048z" fill="#fff" fill-opacity=".8"/><path d="M26.882 22.801c1.096.368 3.678 1.708 6.049 2.996a266.144 266.144 0 014.412 2.456l.069.039a.698.698 0 001.036-.52h0a.698.698 0 00-.348-.693h0l-.007-.003-.255-.144c-.654-.37-2.438-1.377-4.354-2.415-2.326-1.26-4.962-2.63-6.172-3.034l-.009-.003-.009-.003a6.9 6.9 0 00-5.497.714 5.411 5.411 0 00-2.588 3.926c-.03.206-.775 5.734-1.192 12.35-.21 3.335-.338 6.954-.247 10.31.09 3.35.398 6.472 1.074 8.798h0c.532 1.832 1.473 3.07 2.9 3.408h.003c.256.06.519.09.782.088h-.002v-.417s0 0 0 0L26.883 22.8zm0 0a5.568 5.568 0 00-4.344.577l4.344-.577zm2.465 34.062c1.079-1.16 2.049-1.753 2.73-2.056a4.46 4.46 0 01.794-.274 2.362 2.362 0 01.241-.044h.006s0 0 0 0a.7.7 0 00.65-.716v-.02a.704.704 0 00-.223-.468l-.341.366.34-.366a.704.704 0 00-.48-.189s0 0 0 0v.5h-.006a2.649 2.649 0 00-.007-.105h0-.002 0l-3.702 3.372zm3.719-2.767s0 0 0 0h-.002.002zm4.84-26.674h-.002.001z" stroke="#fff" stroke-opacity=".8"/><path d="M188.765 72.269a6.396 6.396 0 001.803.597l-.816-.25c-3.245-1.051-6.643-5.302-8.025-7.192l-.352-.088c1.117 1.556 4.019 5.303 7.047 6.947a.365.365 0 01.343 0v-.014z" fill="#fff" fill-opacity=".8"/><path d="M188.417 72.849l.176-.092.672.35v-.076c.394.146.802.256 1.218.328l.231-.97-.812-.25c-1.504-.488-3.094-1.742-4.507-3.158-1.403-1.405-2.581-2.918-3.264-3.852l-.107-.146-.176-.044-.352-.088-1.322-.33.795 1.107a36.678 36.678 0 002.847 3.489c1.257 1.352 2.783 2.745 4.367 3.605l.234.127z" stroke="#fff" stroke-opacity=".8"/></svg>