<svg width="220" height="129" fill="none" xmlns="http://www.w3.org/2000/svg"><g stroke="#fff" stroke-opacity=".8" stroke-width="2" stroke-linecap="round" stroke-linejoin="round"><path d="M11.573 97.26c-2.468-.286-7.312 1.801-10.256 18.214-2.944 16.412 2.09 12.898 2.362 12.806.166-.056 2.084-1.469 3.8-2.466a14.945 14.945 0 012.467-1.136"/><path d="M25.151 118.222c-2.565.097-4.465 2.184-6.933 4.932-2.468 2.747-4.08 3.412-6.549 2.844-3.457-.812-4.293-9.388-1.982-21.626 2.31-12.238 7.085-15.207 9.386-15.669a3.865 3.865 0 013.041.568c1.997 1.422 2.944 3.034 4.368 5.121"/><path d="M48.694 87.202c-3.323-3.796-7.038-6.525-10.824-5.786-4.367.854-11.406 10.1-13.574 19.636-1.423 6.262-1.479 16.084 2.09 18.31 3.798 2.374 7.024 1.33 9.876-.379 2.852-1.708 4.654-5.029 9.78-5.029 5.125 0 7.588-2.161 7.588-2.161"/><path d="M53.918 79.993c-2.468.758-4.765 1.534-5.125 5.884-.462 5.69.18 21.589 5.888 26.941 1.922 1.806 4.085 2.771 9.78 2.185 6.747-.675 11.032-4.72 12.34-5.884 1.927-1.708 3.091-2.415 3.66-4.618.462-1.787-.333-17.548-3.9-23.552a4.74 4.74 0 00-3.629-2.429c-6.151-.812-13.602.144-19.014 1.474zm32.49-3.223c-2.468.758-5.601 1.33-5.125 7.306s1.044 19.945 3.036 23.718a14.015 14.015 0 0013.644 7.204c7.122-.665 10.708-3.907 12.247-5.786 1.71-2.088 2.376-5.694 2.182-9.107-.194-3.413-.855-20.393-.855-20.393s.462-5.787-6.078-5.5c-6.54.286-14.61 1.607-19.05 2.558zm35.061-.392c-2.774 0-4.081 1.898-4.368 6.165-.287 4.267-.19 13.854.758 20.49.947 6.636 6.738 12.519 11.296 13.392 4.557.873 10.491.199 13.62-4.618 3.129-4.817 6.738-18.213 7.69-24.286.953-6.073-1.132-9.44-5.12-9.901-3.989-.462-19.222-1.242-23.876-1.242zm39.581 3.782c-5.126-.462-5.944.688-6.702 4.387s-2.08 10.852-4.622 17.317c-1.211 3.081-1.146 5.491 1.313 6.59 2.172.97 3.036 1.991 4.654 4.457 2.352 3.597 9.59 8.16 16.615 5.218 7.025-2.941 9.304-10.243 10.062-17.645.758-7.403 1.964-14.16-3.383-16.163-5.098-1.898-13.856-3.875-17.937-4.161z"/><path d="M182.657 88.241s4.844-4.932 11.092-2.941c6.249 1.99 10.63 11.951 12.345 22.009 1.715 10.058-4.936 17.17-10.917 16.126-6.244-1.09-9.072-7.472-13.005-8.349a19.328 19.328 0 00-5.033-.379"/><path d="M201.551 92.989a4.13 4.13 0 015.486-1.053c2.773 1.533 9.303 7.684 10.727 20.679 1.423 12.995-3.323 13.66-5.033 13.66-1.71 0-5.445-.923-7.395-4.364-1.137-1.99-1.802-2.373-1.802-2.373M39.936 61.79s.614 3.366-2.19 7.028c-2.806 3.662-6.471 5.819-9.707 6.031-3.235.212-4.959-3.88-9.27-3.88-2.372 0-4.35 1.22-7.123 1.682-2.168.36-9.183-.836-10.99-9.869-.925-4.669.462-9.855.864-11.85.43-2.156 2.37-7.97 2.37-7.97s.865-2.587 2.372-2.37"/><path d="M17.026 33.98a16.422 16.422 0 01-5.084-2.31c-1.585-1.122-3.517 1.386-4.377 4.406-.86 3.02-2.588 9.264-1.511 15.512 1.076 6.248 6.47 12.709 9.918 12.709 3.448 0 7.33-3.445 11.86 0 4.529 3.445 6.252 2.369 9.27 0 4.9-3.847 9.387-8.451 10.168-13.439"/><path d="M39.602 51.699s-.333.882-2.722 2.258c-2.39 1.376-2.103 5.93-5.472 7.5-2.417 1.127-4.506.923-10.912-6.641-7.27-8.585-1.511-34.035-1.511-34.035s.924-5.966 6.183-4.465c0 0 3.485.78 10.598 4.659"/><path d="M66.376 24.434c-.66-3.94-2.375-7.389-5.588-9.652-4.991-3.5-8.12-5.823-12.584-6.03-4.465-.209-8.477 2.58-11.13 9.258-2.653 6.678-4.598 21.543-2.662 27.357 1.937 5.815 8.195 7.39 9.923 7.108 2.084-.337 4.84-4.092 9.197-4.309 4.359-.217 8.953 0 10.404-3.445.434-1.026.798-2.08 1.09-3.154"/><path d="M86.684 1.395c-8.915.992-13.445 4.618-16.176 7.753a14.582 14.582 0 00-3.448 8.617s-2.154 20.68-2.154 27.358c0 6.927 5.19 7.532 9.271 7.753 4.081.222 24.265 1.229 30.083-2.216 0 0 3.666-1.293 4.095-8.834.495-8.627-.725-22.2-1.155-29.094-.43-6.895-3.693-8.733-6.697-9.924-2.417-.965-8.213-1.847-13.82-1.413zm40.534-.647c-3.882.43-8.624 2.586-10.348 9.264-1.724 6.678-4.229 30.54-3.887 34.705.356 4.34 1.091 6.197 8.203 7.273 7.113 1.076 26.978 2.484 34.275-.402 6.813-2.697 5.389-10.34 5.389-10.34s-2.995-23.972-6.008-30.65C151.829 3.922 143.107.925 138.204.537a53.04 53.04 0 00-10.986.212v0z"/><path d="M158.66 26.36s4.007-17.24 12.636-18.782c0 0 6.47-1.538 10.015 4.004 3.545 5.542 7.663 16.214 8.782 27.86 1.077 11.236-2.002 11.546-5.546 11.698-4.488.194-17.563.462-21.26-3.233a13.513 13.513 0 01-2.371-3.44"/><path d="M186.39 22.665s4.312-7.541 7.395-9.388c3.082-1.847 6.932-1.695 9.705 6.156 2.773 7.85 9.655 27.708 1.387 39.1-6.471 8.927-12.169.153-12.169.153s-3.508-4.249-8.319-4.004c-6.009.31-8.629-3.542-8.629-3.542"/><path d="M176.684 52.22s.152 6.004 6.623 10.775c4.085 3.015 6.604 4.026 8.471 1.847.925-1.076 1.849-2.31 5.237-2.619m10.137-31.074c2.463.614 2.967-1.714 5.74-1.252 1.386.231 2.463 2.157 2.62 4.004 0 0 2.112 15.47.31 24.475-.615 3.08-1.387 8.003-4.007 9.236-2.621 1.234-4.622-.309-6.933-3.08-2.311-2.77-4.159-2.309-4.159-2.309"/><path d="M183.312 62.995s2.774 7.079 5.856 9.697c3.083 2.619 6.471 2.771 9.091 1.538 2.621-1.233 4.007-3.385 8.319-2.461 4.312.923 7.548 2.923 10.168-2.31 2.621-5.231 3.235-7.698 2.773-13.544a32.729 32.729 0 00-3.082-11.545"/></g></svg>