<svg width="30" height="30" viewBox="0 0 30 30" fill="none" xmlns="http://www.w3.org/2000/svg">
<g>
<path d="M29.1211 12.3626H24.668C24.2529 12.3626 23.8546 12.4354 23.4846 12.5681C24.1747 9.99948 24.9553 9.12514 24.5774 6.90702C24.1656 4.48979 22.2536 2.46643 19.8164 1.95291C18.1139 1.5942 16.3963 1.95344 15 2.93987C13.6038 1.95344 11.8862 1.5942 10.1836 1.95291C7.78939 2.45735 5.84174 4.44678 5.42262 6.90702C5.04346 9.1327 5.83658 10.0415 6.51539 12.5681C6.14537 12.4355 5.74711 12.3626 5.33209 12.3626H0.878906C0.393516 12.3626 0 12.7561 0 13.2415V27.304C0 27.7894 0.393516 28.1829 0.878906 28.1829H29.1211C29.6065 28.1829 30 27.7894 30 27.304V13.2415C30 12.7561 29.6065 12.3626 29.1211 12.3626ZM7.15547 7.20221C7.44832 5.48313 8.84256 4.03188 10.546 3.67293C11.9406 3.37915 13.3496 3.75942 14.4118 4.71625C14.7461 5.01743 15.2539 5.01743 15.5883 4.71625C16.6505 3.75942 18.0594 3.37915 19.4541 3.67293C21.1574 4.03182 22.5517 5.48313 22.8446 7.20221C23.2389 9.51643 21.6098 10.7691 21.2118 15.2388C21.1475 15.5866 21.1448 15.4988 21.1524 18.4756C21.1524 19.629 20.4189 20.6143 19.3939 20.9896C19.3652 17.6829 18.3071 14.1204 15 14.1204C11.693 14.1204 10.6348 17.6826 10.6062 20.9896C9.58113 20.6144 8.84766 19.629 8.84766 18.4756C8.84766 15.6514 8.86746 15.6674 8.7883 15.2387C8.3901 10.7676 6.76107 9.51678 7.15547 7.20221ZM28.2422 26.4251H1.75781V14.1204H5.33203C6.16646 14.1204 6.86648 14.7051 7.0452 15.4861C7.11551 16.3379 7.08023 16.7602 7.08984 18.4756C7.08984 20.9205 9.07887 22.9095 11.5238 22.9095C12.0255 22.9095 12.4266 22.4893 12.4015 21.9868C12.3871 21.6961 12.3633 21.4195 12.3633 21.1517C12.3633 17.8004 13.3243 15.8782 15 15.8782C16.6757 15.8782 17.6367 17.8004 17.6367 21.1517C17.6367 21.4189 17.6129 21.6973 17.5985 21.9868C17.5735 22.4878 17.973 22.9095 18.4762 22.9095C20.9211 22.9095 22.9102 20.9205 22.9102 18.4756C22.9197 16.7695 22.8843 16.3401 22.9548 15.4861C23.1335 14.7051 23.8335 14.1204 24.668 14.1204H28.2422V26.4251Z" fill="#4283D0"/>
</g>
</svg>
