<svg width="30" height="30" xmlns="http://www.w3.org/2000/svg" viewBox="0 0 30 30" >
<g>
	<path fill="#4283D0" d="M25.8,13.4l0.9-2.6c0.2-0.5,0.5-0.9,1-1.2L29,8.9c0.1,0,0.2-0.1,0.2-0.2c0-0.1,0.1-0.2,0.1-0.3c0-0.1,0-0.2-0.1-0.3c0-0.1-0.1-0.2-0.2-0.2l-1.3-0.7c-0.5-0.3-0.8-0.7-1-1.2l-0.9-2.6c0-0.1-0.1-0.2-0.2-0.3s-0.2-0.1-0.3-0.1c-0.1,0-0.2,0-0.3,0.1s-0.2,0.2-0.2,0.3L23.9,6c-0.1,0.3-0.3,0.6-0.5,0.8c-0.2-0.2-0.5-0.4-0.7-0.5c-1.5-1-3.4-1.1-5-0.2c-0.5,0.3-1,0.4-1.6,0.4c-0.5,0-1.1-0.1-1.6-0.4c-1.6-0.9-3.5-0.8-5,0.2C8.3,7.1,7.4,8.2,6.9,9.5c-0.5,1.3-0.7,2.7-0.4,4.1l2.2,11.2c0.1,0.6,0.4,1.1,0.9,1.5c0.4,0.4,1,0.6,1.6,0.6c0.6,0,1.2-0.1,1.6-0.5c0.5-0.3,0.8-0.8,1-1.4l1.3-4.4c0.1-0.2,0.2-0.4,0.4-0.6c0.2-0.1,0.4-0.2,0.6-0.2c0.2,0,0.5,0.1,0.6,0.2c0.2,0.1,0.3,0.3,0.4,0.6l1.3,4.4c0.2,0.6,0.5,1,1,1.4c0.5,0.3,1.1,0.5,1.6,0.5c0.6,0,1.1-0.3,1.6-0.6s0.7-0.9,0.9-1.5L25.8,13.4z M22.5,24.6c-0.1,0.3-0.2,0.6-0.5,0.9c-0.3,0.2-0.6,0.4-0.9,0.4c-0.3,0-0.7-0.1-1-0.3c-0.3-0.2-0.5-0.5-0.6-0.8l-1.3-4.4c-0.1-0.4-0.4-0.8-0.8-1.1c-0.4-0.3-0.8-0.4-1.3-0.4s-0.9,0.1-1.3,0.4c-0.4,0.3-0.6,0.7-0.8,1.1l-1.3,4.4c-0.1,0.3-0.3,0.6-0.6,0.8c-0.3,0.2-0.6,0.3-1,0.3c-0.3,0-0.7-0.1-0.9-0.4c-0.3-0.2-0.4-0.5-0.5-0.9L7.5,13.4C7.3,12.2,7.4,11,7.9,9.9s1.2-2.1,2.2-2.7C11.3,6.4,12.8,6.4,14,7c0.6,0.3,1.4,0.5,2.1,0.5c0.7,0,1.4-0.2,2.1-0.5c1.3-0.7,2.8-0.6,3.9,0.2c0.1,0.1,0.2,0.2,0.4,0.3l-0.9,0.5c-0.1,0-0.2,0.1-0.2,0.2c0,0.1-0.1,0.2-0.1,0.3c0,0.1,0,0.2,0.1,0.3c0,0.1,0.1,0.2,0.2,0.2l1.3,0.7c0.5,0.3,0.8,0.7,1,1.2l0.8,2.4L22.5,24.6z M27.1,8.7c-0.7,0.4-1.2,1-1.5,1.8l-0.4,1.1l-0.4-1.1c-0.3-0.8-0.8-1.4-1.5-1.8L23,8.4l0.4-0.2c0.7-0.4,1.2-1,1.5-1.8l0.4-1.1l0.4,1.1c0.3,0.8,0.8,1.4,1.5,1.8l0,0l0.4,0.2L27.1,8.7z"/>
	<path fill="#4283D0" d="M21,27.1c-0.6,0-1.1-0.2-1.6-0.5c-0.5-0.4-0.9-0.9-1.1-1.5L17,20.7c-0.1-0.2-0.2-0.4-0.3-0.5c-0.3-0.2-0.8-0.2-1.1,0c-0.2,0.1-0.3,0.3-0.3,0.5l-1.3,4.4c-0.2,0.6-0.6,1.1-1.1,1.5c-0.5,0.4-1.1,0.5-1.7,0.5c-0.6,0-1.2-0.3-1.7-0.7c-0.5-0.4-0.8-1-0.9-1.6L6.3,13.7C6,12.2,6.2,10.8,6.7,9.4C7.3,8.1,8.2,7,9.4,6.2c1.5-1,3.5-1.1,5.2-0.2c0.9,0.5,2.1,0.5,3,0c1.7-0.9,3.6-0.8,5.2,0.2c0.2,0.1,0.4,0.3,0.6,0.5c0.2-0.2,0.3-0.4,0.4-0.6l0.9-2.6c0-0.1,0.1-0.3,0.3-0.3c0.2-0.2,0.6-0.2,0.8,0c0.1,0.1,0.2,0.2,0.3,0.3L26.8,6c0.2,0.5,0.5,0.9,0.9,1.1L29,7.8c0.1,0.1,0.2,0.1,0.3,0.3c0.1,0.1,0.1,0.2,0.1,0.4s0,0.2-0.1,0.4C29.2,8.9,29.2,9,29,9l-1.3,0.7c-0.4,0.2-0.8,0.6-0.9,1.1l-0.9,2.6l-2.2,11.4c-0.1,0.6-0.4,1.2-0.9,1.6c-0.5,0.4-1.1,0.6-1.7,0.7C21.1,27.1,21,27.1,21,27.1z M16.1,19.7c0.3,0,0.5,0.1,0.7,0.2c0.2,0.2,0.4,0.4,0.4,0.6l1.3,4.4c0.2,0.5,0.5,1,0.9,1.3c0.4,0.3,1,0.5,1.5,0.4c0.5,0,1.1-0.2,1.5-0.6s0.7-0.9,0.8-1.4l2.2-11.4l0.9-2.6c0.2-0.5,0.6-1,1.1-1.3l1.3-0.7C29,8.7,29,8.7,29,8.6c0-0.1,0.1-0.1,0.1-0.2s0-0.1-0.1-0.2c0-0.1-0.1-0.1-0.1-0.1l-1.3-0.7c-0.5-0.3-0.9-0.7-1.1-1.3l-0.9-2.6c0-0.1-0.1-0.1-0.1-0.2c-0.1-0.1-0.3-0.1-0.5,0c-0.1,0-0.1,0.1-0.1,0.2L24,6.1c-0.1,0.3-0.3,0.6-0.5,0.9l-0.1,0.1L23.3,7c-0.2-0.2-0.4-0.4-0.7-0.5c-1.4-1-3.3-1-4.9-0.2c-1,0.5-2.3,0.5-3.3,0C12.9,5.4,11,5.5,9.6,6.4C8.4,7.2,7.6,8.3,7,9.6c-0.5,1.3-0.7,2.7-0.4,4l2.2,11.2c0.1,0.5,0.4,1,0.8,1.4c0.4,0.4,0.9,0.6,1.5,0.6c0.6,0,1.1-0.1,1.5-0.4c0.4-0.3,0.8-0.8,0.9-1.3l1.3-4.4c0.1-0.3,0.2-0.5,0.4-0.6C15.6,19.8,15.8,19.7,16.1,19.7z M21,26c-0.3,0-0.7-0.1-1-0.3c-0.3-0.2-0.5-0.5-0.6-0.9L18,20.4c-0.1-0.4-0.4-0.8-0.7-1c-0.7-0.5-1.7-0.5-2.4,0c-0.3,0.3-0.6,0.6-0.7,1l-1.3,4.4c-0.1,0.4-0.3,0.7-0.6,0.9c-0.3,0.2-0.7,0.3-1.1,0.3c-0.4,0-0.7-0.2-1-0.4s-0.5-0.6-0.5-1L7.4,13.4C7.2,12.2,7.3,11,7.7,9.9C8.2,8.7,9,7.8,10,7.1c1.2-0.8,2.8-0.9,4.1-0.2c1.2,0.6,2.8,0.6,4,0c1.3-0.7,2.9-0.6,4.1,0.2c0.1,0.1,0.3,0.2,0.4,0.3l0.2,0.1l-1.1,0.6c-0.1,0-0.1,0.1-0.1,0.1c0,0.1-0.1,0.1-0.1,0.2s0,0.1,0.1,0.2c0,0.1,0.1,0.1,0.1,0.1L23,9.5c0.5,0.3,0.9,0.7,1.1,1.3l0.8,2.5l0,0l-2.2,11.4c-0.1,0.4-0.3,0.7-0.5,1C21.8,25.8,21.4,26,21,26C21,26,21,26,21,26z M16.1,18.7c0.5,0,1,0.2,1.4,0.5c0.4,0.3,0.7,0.7,0.8,1.2l1.3,4.4c0.1,0.3,0.3,0.6,0.5,0.7c0.3,0.2,0.6,0.3,0.9,0.3c0.3,0,0.6-0.1,0.8-0.3c0.2-0.2,0.4-0.5,0.5-0.8l2.2-11.3l-0.8-2.4c-0.2-0.5-0.5-0.9-0.9-1.1L21.5,9c-0.1-0.1-0.2-0.1-0.3-0.3c-0.1-0.1-0.1-0.2-0.1-0.4s0-0.2,0.1-0.4c0.1-0.1,0.2-0.2,0.3-0.3l0.7-0.4c-0.1,0-0.1-0.1-0.2-0.1c-1.1-0.7-2.5-0.8-3.8-0.2c-1.3,0.7-3,0.7-4.3,0c-1.2-0.6-2.7-0.6-3.8,0.2C9.2,8,8.5,8.9,8,10c-0.5,1.1-0.6,2.3-0.3,3.4l2.2,11.2c0.1,0.3,0.2,0.6,0.5,0.8c0.2,0.2,0.5,0.3,0.8,0.3c0.3,0,0.6-0.1,0.9-0.3c0.3-0.2,0.4-0.4,0.5-0.7l1.3-4.4c0.1-0.5,0.4-0.9,0.8-1.2C15.1,18.8,15.6,18.7,16.1,18.7z M25.3,12l-0.5-1.5c-0.2-0.7-0.8-1.3-1.4-1.7l-0.7-0.4l0.7-0.4c0.7-0.4,1.2-1,1.4-1.7l0.5-1.5l0.5,1.5c0.2,0.7,0.8,1.3,1.4,1.7l0.7,0.4l-0.7,0.4c-0.7,0.4-1.2,1-1.4,1.7L25.3,12z M23.3,8.4l0.2,0.1c0.7,0.4,1.3,1.1,1.6,1.9l0.2,0.7l0.2-0.7c0.3-0.8,0.8-1.5,1.6-1.9l0.2-0.1l-0.2-0.1c-0.7-0.4-1.3-1.1-1.6-1.9l-0.2-0.7L25,6.4c-0.3,0.8-0.8,1.5-1.6,1.9L23.3,8.4z"/>
	<path fill="#4283D0" d="M7.1,20l-1.1-0.6c-0.4-0.2-0.6-0.5-0.8-0.9l-0.7-2.1c0-0.1-0.1-0.2-0.2-0.3c-0.1-0.1-0.2-0.1-0.3-0.1c-0.1,0-0.2,0-0.3,0.1c-0.1,0.1-0.2,0.2-0.2,0.3l-0.7,2.1c-0.1,0.4-0.4,0.7-0.8,0.9L1,20c-0.1,0-0.2,0.1-0.2,0.2c0,0.1-0.1,0.2-0.1,0.3s0,0.2,0.1,0.3c0,0.1,0.1,0.2,0.2,0.2l1.1,0.6c0.4,0.2,0.6,0.5,0.8,0.9l0.7,2.1c0,0.1,0.1,0.2,0.2,0.3S4,25,4.1,25c0.1,0,0.2,0,0.3-0.1s0.2-0.2,0.2-0.3l0.7-2.1c0.1-0.4,0.4-0.7,0.8-0.9L7.1,21c0.1,0,0.2-0.1,0.2-0.2c0-0.1,0.1-0.2,0.1-0.3c0-0.1,0-0.2-0.1-0.3C7.3,20.2,7.2,20.1,7.1,20L7.1,20z M5.6,20.6c-0.6,0.3-1.1,0.9-1.3,1.5l-0.2,0.6l-0.2-0.6c-0.2-0.6-0.7-1.2-1.3-1.5l-0.2-0.1l0.2-0.1c0.6-0.3,1.1-0.9,1.3-1.5l0.2-0.6l0.2,0.6c0.2,0.6,0.7,1.2,1.3,1.5l0.2,0.1L5.6,20.6z"/>
	<path fill="#4283D0" d="M4.1,25.1c-0.1,0-0.3,0-0.4-0.1c-0.1-0.1-0.2-0.2-0.3-0.3l-0.7-2.1c-0.1-0.4-0.4-0.6-0.7-0.8L1,21.1c-0.1-0.1-0.2-0.1-0.3-0.3c-0.1-0.1-0.1-0.2-0.1-0.4c0-0.1,0-0.2,0.1-0.4C0.8,20.1,0.8,20,1,19.9L2,19.3c0.3-0.2,0.6-0.5,0.7-0.8l0.7-2.1c0-0.1,0.1-0.3,0.3-0.3c0.2-0.2,0.6-0.2,0.8,0c0.1,0.1,0.2,0.2,0.3,0.3l0.7,2.1c0.1,0.4,0.4,0.6,0.7,0.8l1.1,0.6c0.1,0.1,0.2,0.1,0.3,0.3c0.1,0.1,0.1,0.2,0.1,0.4c0,0.1,0,0.2-0.1,0.4c-0.1,0.1-0.2,0.2-0.3,0.3l-1.1,0.6c-0.3,0.2-0.6,0.5-0.7,0.8l-0.7,2.1c0,0.1-0.1,0.3-0.3,0.3C4.4,25.1,4.2,25.1,4.1,25.1z M4.1,16.2c-0.1,0-0.2,0-0.2,0.1c-0.1,0-0.1,0.1-0.1,0.2L3,18.6c-0.1,0.4-0.4,0.8-0.8,1l-1.1,0.6C1,20.2,1,20.3,1,20.3c0,0.1-0.1,0.1-0.1,0.2s0,0.1,0.1,0.2c0,0.1,0.1,0.1,0.1,0.1l1.1,0.6c0.4,0.2,0.7,0.6,0.8,1l0.7,2.1c0,0.1,0.1,0.1,0.1,0.2c0.1,0.1,0.3,0.1,0.5,0c0.1,0,0.1-0.1,0.1-0.2l0.7-2.1c0.1-0.4,0.4-0.8,0.8-1l1.1-0.6c0.1,0,0.1-0.1,0.1-0.1c0-0.1,0.1-0.1,0.1-0.2c0-0.1,0-0.1-0.1-0.2c0-0.1-0.1-0.1-0.1-0.1L6,19.6c-0.4-0.2-0.7-0.6-0.8-1l-0.7-2.1c0-0.1-0.1-0.1-0.1-0.2C4.2,16.2,4.2,16.2,4.1,16.2z M4.1,23.2l-0.3-1c-0.2-0.6-0.6-1.1-1.2-1.4l-0.4-0.2l0.4-0.2c0.6-0.3,1-0.8,1.2-1.4l0.3-1l0.3,1c0.2,0.6,0.6,1.1,1.2,1.4l0.4,0.2l-0.4,0.2c-0.6,0.3-1,0.8-1.2,1.4L4.1,23.2z M2.7,20.5c0.6,0.3,1.1,0.9,1.3,1.6l0.1,0.2l0.1-0.2c0.2-0.7,0.7-1.2,1.3-1.6c-0.6-0.3-1.1-0.9-1.3-1.6l-0.1-0.2L4,18.9C3.8,19.6,3.3,20.2,2.7,20.5z"/>
</g>
</svg>
