<svg width="30" height="30" viewBox="0 0 30 30" fill="none" xmlns="http://www.w3.org/2000/svg">
<path d="M28.9743 7.94966C29.0595 7.99624 29.1305 8.06488 29.18 8.14837C29.2295 8.23187 29.2556 8.32714 29.2556 8.4242C29.2556 8.52127 29.2295 8.61654 29.18 8.70004C29.1305 8.78353 29.0595 8.85217 28.9743 8.89875M28.9743 7.94966L26.671 10.8001C26.8415 10.2937 27.1967 9.87031 27.6657 9.61442L28.9743 8.89875M28.9743 7.94966L27.6657 7.23403L28.9743 7.94966ZM28.9743 8.89875L29.0463 9.03035C29.1551 8.97085 29.2458 8.88318 29.3091 8.77653C29.3723 8.66988 29.4056 8.54819 29.4056 8.4242C29.4056 8.30022 29.3723 8.17852 29.3091 8.07188C29.2458 7.96523 29.1551 7.87756 29.0463 7.81806L29.0463 7.81805L27.7377 7.10243L27.7376 7.10236C27.3017 6.86453 26.9716 6.47105 26.8131 6.00048L26.8131 6.00034L25.9309 3.38943C25.8847 3.25251 25.7967 3.13355 25.6792 3.04929M28.9743 8.89875L29.0463 9.03035L27.7377 9.74602L27.7376 9.74609C27.3017 9.9839 26.9716 10.3774 26.8131 10.8479L26.8131 10.8481L25.9341 13.4496M25.6792 3.04929L25.936 13.4398L25.9341 13.4496M25.6792 3.04929C25.5618 2.96502 25.4209 2.9197 25.2764 2.9197C25.1319 2.9197 24.991 2.96502 24.8736 3.04929M25.6792 3.04929H24.8736M25.9341 13.4496L23.7005 24.8418M25.9341 13.4496L23.7005 24.8418M23.7005 24.8418C23.7005 24.8419 23.7005 24.8419 23.7005 24.8419L23.7005 24.8418ZM24.8736 3.04929C24.7562 3.13355 24.6682 3.25251 24.6219 3.38943L23.7398 6.00034L23.7398 6.00037C23.661 6.23374 23.5394 6.44989 23.3816 6.63791C23.1871 6.47486 22.9842 6.32201 22.7738 6.18L22.7735 6.17979C21.2464 5.15462 19.2638 5.06896 17.5998 5.95128C17.1373 6.19051 16.6242 6.31536 16.1035 6.31536C15.5828 6.31536 15.0697 6.1905 14.6072 5.95126C12.9433 5.06898 10.9607 5.15462 9.43372 6.17963C8.2363 6.98012 7.30236 8.11686 6.7494 9.44684C6.19644 10.7768 6.04915 12.2406 6.32607 13.6541L24.8736 3.04929C24.8736 3.04929 24.8736 3.04929 24.8736 3.04929ZM7.68223 13.3894L7.68226 13.3895L9.86268 24.5775C9.92185 24.8812 10.0809 25.1563 10.3145 25.3591C10.5481 25.5618 10.8428 25.6806 11.1518 25.6965C11.4607 25.7124 11.7661 25.6245 12.0193 25.4468C12.2725 25.2691 12.4589 25.0118 12.5489 24.7158L13.8914 20.303C14.0357 19.8287 14.3285 19.4133 14.7268 19.1182C15.1251 18.823 15.6077 18.6636 16.1035 18.6636C16.5992 18.6636 17.0818 18.823 17.4801 19.1182C17.8784 19.4133 18.1713 19.8287 18.3155 20.303L19.658 24.7158C19.748 25.0118 19.9345 25.2691 20.1877 25.4468C20.4409 25.6245 20.7463 25.7124 21.0552 25.6965C21.3641 25.6806 21.6589 25.5618 21.8925 25.359C22.1261 25.1563 22.2851 24.8811 22.3443 24.5775L24.5496 13.2449L23.7398 10.8481L23.7398 10.8479C23.5813 10.3774 23.2512 9.98387 22.8152 9.7461L22.8151 9.74602L21.5066 9.03036L21.5066 9.03035L21.5785 8.89875C21.4934 8.85218 21.4223 8.78354 21.3728 8.70005C21.3233 8.61655 21.2972 8.52127 21.2972 8.4242C21.2972 8.32714 21.3233 8.23186 21.3728 8.14836C21.4223 8.06487 21.4934 7.99623 21.5785 7.94966L7.68223 13.3894ZM7.68223 13.3894C7.45774 12.2429 7.57731 11.0557 8.02591 9.97699C8.47451 8.8983 9.2321 7.97637 10.2034 7.32718L10.2036 7.32702C11.3039 6.58841 12.7431 6.52665 13.9604 7.17231L13.9614 7.17283C14.6229 7.51727 15.3577 7.69711 16.1035 7.69711C16.8493 7.69711 17.5841 7.51727 18.2456 7.17284L18.2466 7.1723C19.4637 6.52666 20.9029 6.58834 22.0034 7.32702C22.0629 7.36696 22.1214 7.40809 22.179 7.45027L21.5066 7.81805M7.68223 13.3894L21.5066 7.81805M21.5066 7.81805C21.5066 7.81805 21.5066 7.81805 21.5066 7.81806L21.5066 7.81805ZM25.2764 11.0795L25.504 10.406L25.2764 11.0795ZM25.2764 11.0795L25.0489 10.406C24.7797 9.60637 24.2187 8.93772 23.478 8.53365M25.2764 11.0795L23.478 8.53365M23.478 8.53365L23.2779 8.42422L23.478 8.31478C23.4781 8.31476 23.4781 8.31474 23.4781 8.31471C23.4781 8.31471 23.4781 8.31471 23.4781 8.3147C24.2188 7.91062 24.7797 7.24203 25.0489 6.44245L25.2764 5.76897L25.504 6.44244C25.7732 7.24201 26.3341 7.9106 27.0747 8.31467L23.478 8.53365ZM27.0747 8.53377C26.3341 8.93783 25.7733 9.60636 25.504 10.4059L27.0747 8.53377ZM27.275 8.4242L27.0748 8.53369L27.0748 8.31474L27.275 8.4242Z" fill="#4283D0" stroke="#4283D0" stroke-width="0.3"/>
<path d="M3.57032 16.4254L2.85307 18.5483C2.72253 18.936 2.45054 19.2602 2.09142 19.4561L1.02742 20.0381L5.3124 18.5483L4.59514 16.4254C4.55892 16.3182 4.49 16.225 4.39808 16.1591C4.30616 16.0931 4.19587 16.0576 4.08273 16.0576C3.96958 16.0576 3.85929 16.0931 3.76737 16.1591C3.67545 16.225 3.60653 16.3182 3.57032 16.4254ZM3.57032 16.4254L3.42821 16.3773L2.71096 18.5003L2.71091 18.5004C2.59243 18.8523 2.34555 19.1466 2.01959 19.3244L2.01944 19.3245L0.955439 19.9065L0.955434 19.9065C0.846662 19.966 0.755904 20.0536 0.69268 20.1603L0.82171 20.2368M3.57032 16.4254L3.42821 16.3773C3.47447 16.2404 3.5625 16.1215 3.67991 16.0372C3.79733 15.9529 3.93821 15.9076 4.08273 15.9076C4.22725 15.9076 4.36813 15.9529 4.48554 16.0372C4.60295 16.1215 4.69098 16.2404 4.73724 16.3773L5.45451 18.5003L5.45456 18.5005C5.57304 18.8524 5.81992 19.1466 6.14588 19.3244L6.14603 19.3245L6.84084 19.7045M0.82171 20.2368L6.93001 19.9243L6.84084 19.7045M0.82171 20.2368L0.69268 20.1603C0.629455 20.2669 0.596094 20.3886 0.596094 20.5126C0.596094 20.6366 0.629456 20.7583 0.69268 20.8649C0.755904 20.9716 0.846662 21.0593 0.955434 21.1188L0.955442 21.1188L2.01945 21.7007L2.01959 21.7008C2.34554 21.8786 2.59242 22.1728 2.71091 22.5247L2.71096 22.5249L3.42821 24.6478L3.57032 24.5998L3.42821 24.6478C3.47447 24.7847 3.5625 24.9037 3.67991 24.988C3.79733 25.0722 3.93821 25.1175 4.08273 25.1175C4.22725 25.1175 4.36813 25.0722 4.48554 24.988C4.60295 24.9037 4.69098 24.7847 4.73724 24.6478L5.45453 22.5248L5.45458 22.5247C5.57305 22.1728 5.81993 21.8785 6.14588 21.7007L6.14603 21.7007L7.21003 21.1187L7.21004 21.1187C7.31881 21.0592 7.40957 20.9716 7.47279 20.8649C7.53602 20.7583 7.56938 20.6366 7.56938 20.5126C7.56938 20.3886 7.53602 20.2669 7.47279 20.1603C7.40957 20.0536 7.31881 19.9659 7.21004 19.9064L6.84082 19.7045L6.84084 19.7045M0.82171 20.2368L6.84084 19.7045M5.43958 20.5126C4.83042 20.1663 4.36939 19.6076 4.14542 18.9424L4.08273 18.7569L4.02003 18.9424L5.43958 20.5126ZM5.43958 20.5126C4.83047 20.8588 4.36947 21.4175 4.14549 22.0826L5.43958 20.5126ZM4.08275 22.2683L4.14544 22.0828L4.08275 22.2683ZM4.08275 22.2683L4.02005 22.0827M4.08275 22.2683L4.02005 22.0827M4.02005 22.0827C3.79607 21.4176 3.33505 20.8589 2.72592 20.5126M4.02005 22.0827L2.72592 20.5126M2.72592 20.5126C3.335 20.1663 3.79599 19.6077 4.01998 18.9426L2.72592 20.5126ZM2.09142 21.5691C2.45054 21.765 2.72253 22.0892 2.85307 22.4768L2.09142 21.5691Z" fill="#4283D0" stroke="#4283D0" stroke-width="0.3"/>
</svg>
