<svg width="70" height="70" viewBox="0 0 70 70" fill="none" xmlns="http://www.w3.org/2000/svg">
<path d="M38.8072 22.5176L43.3495 16.4609C43.8157 15.8398 43.8905 15.0083 43.5433 14.3135C43.1961 13.6187 42.4858 13.1797 41.7088 13.1797H29.6273C28.4951 13.1797 27.5766 14.0983 27.5766 15.2305C27.5766 16.3632 28.4951 17.2813 29.6273 17.2813H37.6073L33.4784 22.7869C33.0122 23.408 32.9375 24.2395 33.2845 24.9344C33.6322 25.6291 34.342 26.068 35.119 26.068H35.6701C38.4751 26.068 40.7565 28.3496 40.7565 31.1561C40.7565 33.962 38.474 36.2446 35.6659 36.2446C32.8616 36.2446 30.58 33.9631 30.58 31.1583C30.58 30.026 29.6615 29.1074 28.5294 29.1074C27.3966 29.1074 26.4785 30.026 26.4785 31.1583C26.4785 36.2243 30.5998 40.3462 35.6681 40.3462C40.7352 40.3462 44.8582 36.2238 44.8582 31.1539C44.8582 27.1891 42.3331 23.8027 38.8072 22.5176Z" fill="#4283D0"/>
<path d="M65.5086 58.2454L56.8303 40.8868C59.6709 36.6973 61.3324 31.6461 61.3324 26.2138C61.3324 11.7594 49.5729 0 35.1186 0C20.6644 0 8.90495 11.7594 8.90495 26.2138C8.90495 31.6461 10.5664 36.6977 13.4076 40.8879L4.7281 58.2454C4.41033 58.8815 4.4445 59.6361 4.81781 60.2406C5.19165 60.8452 5.85175 61.2138 6.56258 61.2138H16.5201L22.4945 69.1798C22.8845 69.6988 23.4933 70 24.1352 70C24.9859 70 25.6562 69.4926 25.9696 68.8662L34.1985 52.4092C34.5039 52.4199 34.8105 52.4274 35.1186 52.4274C35.4268 52.4274 35.7334 52.4199 36.0389 52.4092L44.2676 68.8662C44.58 69.4916 45.2507 70 46.1021 70C46.7435 70 47.3528 69.6988 47.7421 69.1798L53.7172 61.2138H63.6747C64.3855 61.2138 65.0457 60.8452 65.419 60.2406C65.7928 59.6361 65.827 58.8815 65.5086 58.2454ZM23.7855 64.064L19.1862 57.9325C18.799 57.416 18.1911 57.1121 17.5455 57.1121H9.88067L16.2444 44.3856C19.858 48.1368 24.5748 50.8183 29.8679 51.8986L23.7855 64.064ZM35.1186 48.3258C22.9262 48.3258 13.0065 38.4062 13.0065 26.2138C13.0065 14.0212 22.9262 4.10156 35.1186 4.10156C47.3112 4.10156 57.2307 14.0212 57.2307 26.2138C57.2307 38.4062 47.3112 48.3258 35.1186 48.3258ZM52.6913 57.1121C52.0462 57.1121 51.4384 57.416 51.0506 57.9325L46.4519 64.064L40.3689 51.8986C45.6625 50.8177 50.3799 48.1368 53.9933 44.3845L60.3561 57.1116H52.6913V57.1121Z" fill="#4283D0"/>
</svg>
