<svg width="24" height="24" viewBox="0 0 24 24" fill="none" xmlns="http://www.w3.org/2000/svg">
  <path d="M10.6852 9.34511V11.4722C10.5916 11.494 10.4958 11.505 10.3996 11.505C10.2011 11.506 10.0053 11.4585 9.82928 11.3667C9.46616 11.1703 9.05651 11.0763 8.6441 11.0947C8.23169 11.113 7.83203 11.2431 7.48781 11.471C6.95626 11.8264 6.54167 12.331 6.29621 12.9215C6.05076 13.5119 5.9854 14.1617 6.10835 14.7892L7.03485 19.5433C7.09101 19.8314 7.24195 20.0925 7.46364 20.2849C7.68532 20.4773 7.96501 20.59 8.25817 20.6051C8.55133 20.6202 8.8411 20.5368 9.08137 20.3681C9.32163 20.1995 9.49856 19.9553 9.584 19.6744L10.1545 17.7993C10.1705 17.7467 10.203 17.7007 10.2471 17.668C10.2912 17.6353 10.3447 17.6176 10.3997 17.6176C10.4546 17.6176 10.5081 17.6353 10.5522 17.668C10.5964 17.7007 10.6288 17.7467 10.6448 17.7993L11.2153 19.6745C11.3007 19.9553 11.4776 20.1995 11.7179 20.3681C11.9582 20.5368 12.248 20.6202 12.5411 20.6051C12.8343 20.59 13.114 20.4773 13.3356 20.2848C13.5573 20.0924 13.7082 19.8313 13.7644 19.5432L14.6909 14.7892C14.7136 14.6726 14.73 14.5548 14.7398 14.4364H15.7764C15.8912 14.4364 16.0012 14.3908 16.0824 14.3096C16.1635 14.2285 16.2091 14.1184 16.2091 14.0037V12.6924H17.5205C17.6352 12.6924 17.7453 12.6468 17.8264 12.5656C17.9076 12.4845 17.9531 12.3744 17.9531 12.2597V9.34511C17.9531 9.23035 17.9076 9.12029 17.8264 9.03915C17.7453 8.958 17.6352 8.91241 17.5205 8.91241H16.2091V7.60103C16.2091 7.48627 16.1635 7.37621 16.0824 7.29507C16.0013 7.21392 15.8912 7.16833 15.7764 7.16833H12.8619C12.7472 7.16833 12.6371 7.21392 12.5559 7.29507C12.4748 7.37621 12.4292 7.48627 12.4292 7.60103V8.91241H11.1179C11.0031 8.91241 10.8931 8.958 10.8119 9.03915C10.7308 9.12029 10.6852 9.23035 10.6852 9.34511ZM13.8415 14.6236L12.915 19.3777C12.8958 19.4762 12.8442 19.5655 12.7683 19.6313C12.6925 19.6971 12.5969 19.7357 12.4966 19.7408C12.3963 19.746 12.2972 19.7175 12.2151 19.6598C12.1329 19.6021 12.0724 19.5186 12.0431 19.4226L11.4727 17.5474C11.4027 17.3173 11.2606 17.1158 11.0674 16.9727C10.8742 16.8295 10.6401 16.7522 10.3997 16.7522C10.1592 16.7522 9.92508 16.8295 9.73188 16.9727C9.53868 17.1158 9.3966 17.3173 9.32662 17.5474L8.75607 19.4226C8.72686 19.5186 8.66634 19.6021 8.58417 19.6598C8.502 19.7175 8.4029 19.746 8.30264 19.7409C8.20238 19.7357 8.10673 19.6971 8.03092 19.6313C7.95511 19.5655 7.90349 19.4762 7.8843 19.3777L6.95775 14.6235C6.86762 14.1632 6.91565 13.6865 7.0958 13.2534C7.27595 12.8203 7.58017 12.4502 7.97018 12.1896C8.18448 12.0491 8.43291 11.9695 8.68894 11.9592C8.94497 11.9489 9.19899 12.0084 9.42386 12.1312C9.72513 12.2883 10.0599 12.3704 10.3997 12.3704C10.7395 12.3704 11.0742 12.2883 11.3755 12.1312C11.6004 12.0083 11.8544 11.9489 12.1104 11.9592C12.3664 11.9694 12.6149 12.0491 12.8291 12.1896C13.2191 12.4502 13.5234 12.8203 13.7035 13.2535C13.8836 13.6866 13.9317 14.1633 13.8415 14.6236ZM12.8619 9.7778C12.9767 9.7778 13.0867 9.73221 13.1679 9.65107C13.249 9.56992 13.2946 9.45986 13.2946 9.34511V8.03372H15.3438V9.34511C15.3438 9.45986 15.3893 9.56992 15.4705 9.65107C15.5516 9.73221 15.6617 9.7778 15.7765 9.7778H17.0878V11.827H15.7764C15.6617 11.827 15.5516 11.8726 15.4705 11.9537C15.3893 12.0349 15.3437 12.1449 15.3437 12.2597V13.571H14.6961C14.6167 13.1464 14.4533 12.742 14.2156 12.3814C13.9778 12.0208 13.6704 11.7113 13.3115 11.471C13.0554 11.3003 12.767 11.1838 12.4641 11.1287C12.1613 11.0736 11.8504 11.0811 11.5505 11.1508V9.7778H12.8619Z"/>
  <path d="M23.4427 10.0222L12.2824 0.42709C12.2039 0.359613 12.1038 0.32251 12.0003 0.32251C11.8968 0.32251 11.7967 0.359613 11.7182 0.42709L0.557961 10.0222C0.42128 10.135 0.32275 10.2872 0.27583 10.4581C0.22891 10.6289 0.235888 10.8101 0.295811 10.9769C0.355734 11.1437 0.46568 11.2879 0.610631 11.3898C0.755581 11.4918 0.928468 11.5465 1.10567 11.5465H3.18021V22.5822C3.18053 22.8726 3.29604 23.151 3.50139 23.3564C3.70674 23.5617 3.98515 23.6772 4.27556 23.6775H19.7251C20.0155 23.6772 20.2939 23.5617 20.4993 23.3564C20.7046 23.151 20.8201 22.8726 20.8204 22.5822V11.5465H22.895C23.0722 11.5465 23.2451 11.4918 23.39 11.3898C23.535 11.2879 23.6449 11.1437 23.7049 10.9769C23.7648 10.8102 23.7718 10.629 23.7248 10.4581C23.6779 10.2872 23.5794 10.135 23.4427 10.0222H23.4427ZM20.3878 10.6811C20.273 10.6811 20.1629 10.7267 20.0818 10.8078C20.0006 10.889 19.9551 10.999 19.9551 11.1138V22.5822C19.955 22.6432 19.9307 22.7016 19.8876 22.7447C19.8445 22.7878 19.7861 22.8121 19.7251 22.8122H4.27556C4.21459 22.8121 4.15613 22.7878 4.11302 22.7447C4.06991 22.7016 4.04566 22.6432 4.04559 22.5822V11.1138C4.04559 10.999 4 10.889 3.91886 10.8078C3.83771 10.7267 3.72766 10.6811 3.6129 10.6811L1.11927 10.6808L12.0003 1.3258L22.8817 10.6811H20.3878Z"/>
</svg>
