<svg width="24" height="24" viewBox="0 0 24 24" fill="none" xmlns="http://www.w3.org/2000/svg">
<path d="M10.2377 12.4062C10.2026 12.3561 10.1579 12.3133 10.1063 12.2804C10.0546 12.2475 9.99702 12.2251 9.93673 12.2145C9.87643 12.2039 9.81462 12.2052 9.75485 12.2185C9.69507 12.2317 9.63849 12.2566 9.58833 12.2917L8.99477 12.7073L6.56223 9.23337C7.08828 8.72192 7.40244 8.03113 7.44216 7.29852C7.48189 6.56591 7.24427 5.8452 6.77662 5.27987C6.30896 4.71454 5.64556 4.34605 4.91848 4.24776C4.1914 4.14947 3.45398 4.32858 2.853 4.74945C2.25202 5.17031 1.83157 5.80206 1.67535 6.51892C1.51912 7.23579 1.63858 7.9852 2.00995 8.61796C2.38131 9.25072 2.97735 9.72043 3.67939 9.93359C4.38144 10.1467 5.13801 10.0877 5.79849 9.76822L8.23097 13.2422L7.6374 13.6578C7.58724 13.6929 7.54449 13.7375 7.51159 13.7892C7.47869 13.8408 7.45629 13.8984 7.44566 13.9587C7.43504 14.019 7.43639 14.0808 7.44965 14.1406C7.46291 14.2004 7.48782 14.257 7.52295 14.3071L13.8617 23.3597C13.9543 23.4928 14.0725 23.6062 14.2092 23.6933C14.346 23.7804 14.4987 23.8396 14.6584 23.8673C14.7301 23.88 14.8027 23.8863 14.8754 23.8864C15.128 23.8863 15.3743 23.8082 15.5807 23.6628L16.2732 23.178H16.2733C16.5414 22.9902 16.724 22.7036 16.7809 22.3812C16.8377 22.0588 16.7642 21.727 16.5764 21.4588L10.2377 12.4062ZM2.89086 8.27806C2.68203 7.97958 2.55896 7.6296 2.535 7.26611C2.51104 6.90262 2.5871 6.53952 2.75494 6.21621C2.92278 5.8929 3.17597 5.62175 3.48704 5.43218C3.7981 5.24261 4.15515 5.14188 4.51943 5.14091C4.63688 5.14097 4.75411 5.15128 4.86977 5.17173C5.12778 5.2165 5.37435 5.312 5.5952 5.4527C5.81605 5.5934 6.0068 5.77651 6.15641 5.99142H6.15647C6.45935 6.42448 6.57786 6.96009 6.48595 7.4805C6.39404 8.00091 6.09924 8.46353 5.66634 8.76664C5.23345 9.06976 4.6979 9.18856 4.17744 9.09693C3.65698 9.00531 3.19421 8.71075 2.89086 8.27803V8.27806ZM9.14754 13.7387L9.14772 13.7386L9.14798 13.7384L9.74124 13.3229L10.3425 14.1816L9.15536 15.0128L8.55414 14.1542L9.14754 13.7387ZM15.8626 22.2193C15.8558 22.2584 15.8414 22.2957 15.82 22.3292C15.7987 22.3626 15.771 22.3915 15.7384 22.4142L15.0459 22.8991C15.0135 22.9218 14.9768 22.9379 14.9381 22.9465C14.8994 22.9551 14.8594 22.956 14.8203 22.9491C14.7813 22.9422 14.744 22.9277 14.7106 22.9064C14.6771 22.8851 14.6482 22.8574 14.6255 22.8249L9.69019 15.7766L10.8773 14.9454L15.8126 21.9937C15.8354 22.0261 15.8516 22.0628 15.8602 22.1015C15.8688 22.1402 15.8696 22.1803 15.8626 22.2193Z" fill="#313943" fill-opacity="0.8"/>
<path d="M5.86974 6.19188C5.79883 6.09059 5.69057 6.02161 5.5688 6.00013C5.44703 5.97865 5.32171 6.00643 5.22042 6.07734C5.11912 6.14826 5.05015 6.25651 5.02867 6.37829C5.00719 6.50006 5.03497 6.62538 5.10588 6.72667C5.21388 6.88125 5.25614 7.07236 5.22339 7.25806C5.19065 7.44376 5.08557 7.60889 4.93122 7.71721C4.88107 7.75233 4.83833 7.79698 4.80543 7.84862C4.77253 7.90026 4.75013 7.95787 4.7395 8.01817C4.72887 8.07846 4.73022 8.14026 4.74348 8.20004C4.75673 8.25981 4.78163 8.31639 4.81675 8.36654C4.85186 8.4167 4.89652 8.45944 4.94816 8.49233C4.99979 8.52523 5.05741 8.54763 5.1177 8.55826C5.178 8.56889 5.2398 8.56754 5.29957 8.55429C5.35935 8.54104 5.41592 8.51614 5.46608 8.48102C5.82276 8.23067 6.06557 7.84906 6.14124 7.41992C6.21692 6.99077 6.11928 6.54913 5.86974 6.19188Z" fill="#313943" fill-opacity="0.8"/>
<path d="M22.1788 17.536L15.84 8.4834C15.7691 8.38212 15.6608 8.31316 15.5391 8.29169C15.4173 8.27022 15.292 8.298 15.1907 8.36892L14.5972 8.78451L11.047 3.71436C10.9761 3.61307 10.8679 3.54411 10.7461 3.52263C10.6243 3.50116 10.499 3.52894 10.3977 3.59985L9.7923 4.02378C9.67899 4.10331 9.55111 4.15973 9.41597 4.18981C9.28084 4.21988 9.1411 4.22303 9.00475 4.19907C8.8684 4.1751 8.73811 4.1245 8.62133 4.05015C8.50455 3.9758 8.40357 3.87916 8.32416 3.76576C8.24475 3.65235 8.18848 3.52441 8.15855 3.38924C8.12862 3.25408 8.12562 3.11434 8.14974 2.97801C8.17385 2.84169 8.2246 2.71145 8.29908 2.59475C8.37355 2.47805 8.4703 2.37718 8.58379 2.2979L10.4916 0.962024C10.5929 0.891098 10.6619 0.782841 10.6833 0.661069C10.7048 0.539296 10.677 0.413982 10.6061 0.312695C10.5352 0.211408 10.4269 0.142444 10.3052 0.120975C10.1834 0.0995058 10.0581 0.12729 9.95678 0.198215L8.04897 1.53408C7.61753 1.83619 7.32377 2.29732 7.23232 2.81602C7.14087 3.33471 7.25922 3.8685 7.56133 4.29994C7.86344 4.73138 8.32456 5.02513 8.84326 5.11658C9.36196 5.20803 9.89574 5.08969 10.3272 4.78758L10.5507 4.63107L13.8334 9.31934L13.2399 9.73495C13.1897 9.77006 13.147 9.81471 13.1141 9.86635C13.0812 9.91799 13.0588 9.9756 13.0482 10.0359C13.0375 10.0962 13.0389 10.158 13.0521 10.2178C13.0654 10.2775 13.0903 10.3341 13.1254 10.3842L14.2613 12.0063L14.2615 12.0067L14.2617 12.0069L19.4642 19.4369C19.6521 19.7048 19.9387 19.8872 20.261 19.9441C20.5833 20.0009 20.915 19.9275 21.1833 19.74L21.8757 19.2552C22.1436 19.0671 22.3259 18.7806 22.3827 18.4583C22.4395 18.136 22.3662 17.8043 22.1788 17.536ZM14.7498 9.81596L14.7502 9.81575L14.7507 9.81535L15.3437 9.40015L15.9449 10.2588L14.7578 11.09L14.1566 10.2313L14.7498 9.81596ZM21.3409 18.4914L20.6484 18.9763C20.5828 19.0221 20.5017 19.04 20.4229 19.0261C20.344 19.0122 20.2739 18.9676 20.228 18.9021L15.2927 11.8538L16.4797 11.0226L21.415 18.0709C21.4608 18.1365 21.4788 18.2176 21.4649 18.2965C21.451 18.3753 21.4064 18.4454 21.3409 18.4914Z" fill="#313943" fill-opacity="0.8"/>
</svg>
