<svg width="24" height="24" viewBox="0 0 24 24" fill="none" xmlns="http://www.w3.org/2000/svg">
<path d="M21.7818 12.3609L22.6777 6.92226C22.6932 6.82854 22.6808 6.73234 22.642 6.6456C22.6033 6.55886 22.54 6.48539 22.4599 6.4343C19.5944 4.60568 15.8797 3.59863 12.0003 3.59863C8.12085 3.59863 4.4062 4.60568 1.54064 6.4343C1.46056 6.48539 1.39724 6.55886 1.35853 6.6456C1.31982 6.73234 1.30742 6.82854 1.32287 6.92226L2.21884 12.3609L1.32495 17.0662C1.30685 17.1615 1.31773 17.26 1.35617 17.3491C1.39462 17.4382 1.45887 17.5137 1.54064 17.5659C4.4062 19.3945 8.12085 20.4015 12.0003 20.4015C15.8797 20.4015 19.5944 19.3945 22.4599 17.5659C22.5417 17.5137 22.606 17.4382 22.6444 17.3491C22.6829 17.26 22.6937 17.1615 22.6756 17.0662L21.7818 12.3609ZM12.0003 19.4309C8.42847 19.4309 5.01311 18.5413 2.34056 16.9205L2.72321 14.9062C2.85849 15.2668 3.08023 15.5887 3.36897 15.8435C3.65771 16.0984 4.00461 16.2784 4.3792 16.3679C4.75379 16.4574 5.14462 16.4535 5.51736 16.3566C5.8901 16.2597 6.23334 16.0727 6.51695 15.8122C6.71874 16.3319 7.0603 16.7858 7.5039 17.1236C7.94749 17.4614 8.47584 17.6699 9.03056 17.7262C9.58527 17.7825 10.1447 17.6843 10.6471 17.4425C11.1495 17.2007 11.5753 16.8247 11.8774 16.3561C12.1806 16.8265 12.6085 17.2036 13.1134 17.4452C13.6182 17.6869 14.1802 17.7837 14.7369 17.7249C15.2935 17.6661 15.8228 17.454 16.266 17.1121C16.7092 16.7702 17.0488 16.3121 17.2471 15.7887C17.5588 16.0835 17.9452 16.2876 18.3645 16.3786C18.7837 16.4697 19.22 16.4444 19.6259 16.3054C20.0318 16.1664 20.392 15.919 20.6674 15.59C20.9429 15.261 21.1231 14.863 21.1886 14.4389L21.66 16.9205C18.9875 18.5413 15.5721 19.4309 12.0003 19.4309ZM12.3966 9.89264C12.3989 9.34898 12.6165 8.82837 13.0017 8.44475C13.3869 8.06113 13.9085 7.84575 14.4521 7.84575C14.9958 7.84575 15.5173 8.06113 15.9026 8.44475C16.2878 8.82837 16.5054 9.34898 16.5077 9.89264V11.7659C16.5073 11.7798 16.5016 11.7931 16.4918 11.8029C16.4819 11.8127 16.4687 11.8184 16.4548 11.8188H12.4495C12.4356 11.8184 12.4223 11.8127 12.4125 11.8029C12.4026 11.7931 12.397 11.7798 12.3966 11.7659V9.89264ZM17.4782 10.5302C17.4779 10.3483 17.5134 10.168 17.5827 9.99983C17.6521 9.83161 17.754 9.67873 17.8825 9.54993C18.011 9.42113 18.1637 9.31895 18.3318 9.24923C18.4998 9.17951 18.68 9.14362 18.862 9.14362C19.0439 9.14362 19.2241 9.17951 19.3922 9.24923C19.5602 9.31895 19.7129 9.42113 19.8414 9.54993C19.97 9.67873 20.0718 9.83161 20.1412 9.99983C20.2106 10.168 20.2461 10.3483 20.2457 10.5302V11.8188H17.4783V10.5302H17.4782ZM11.3921 14.7155C11.3932 14.9862 11.3409 15.2544 11.2381 15.5048C11.1353 15.7552 10.9841 15.9828 10.7931 16.1746C10.6021 16.3664 10.3751 16.5186 10.1251 16.6224C9.87519 16.7263 9.60719 16.7797 9.33653 16.7797C9.06586 16.7797 8.79786 16.7263 8.54791 16.6224C8.29796 16.5186 8.07097 16.3664 7.87998 16.1746C7.689 15.9828 7.53777 15.7552 7.43498 15.5048C7.33219 15.2544 7.27986 14.9862 7.281 14.7155V12.8423C7.28136 12.8284 7.28704 12.8151 7.29689 12.8053C7.30674 12.7954 7.31999 12.7898 7.33391 12.7894H11.3392C11.3531 12.7898 11.3664 12.7954 11.3762 12.8053C11.386 12.8151 11.3917 12.8284 11.3921 12.8423L11.3921 14.7155ZM6.31042 14.0779C6.30965 14.4444 6.16352 14.7956 5.90411 15.0545C5.64469 15.3134 5.29317 15.4588 4.92669 15.4588C4.5602 15.4588 4.20868 15.3134 3.94927 15.0545C3.68985 14.7956 3.54373 14.4444 3.54296 14.0779V12.7894H6.31042V14.0779ZM12.3626 12.8422C12.363 12.8283 12.3687 12.8151 12.3785 12.8052C12.3884 12.7954 12.4016 12.7897 12.4155 12.7894H16.4209C16.4348 12.7897 16.448 12.7954 16.4579 12.8053C16.4677 12.8151 16.4734 12.8283 16.4737 12.8422V14.7155C16.4742 14.9857 16.4214 15.2534 16.3183 15.5032C16.2152 15.753 16.0639 15.98 15.8729 16.1712C15.682 16.3625 15.4553 16.5142 15.2056 16.6177C14.956 16.7213 14.6884 16.7746 14.4182 16.7746C14.148 16.7746 13.8804 16.7213 13.6308 16.6177C13.3811 16.5142 13.1544 16.3625 12.9635 16.1712C12.7725 15.98 12.6212 15.753 12.5181 15.5032C12.415 15.2534 12.3622 14.9857 12.3627 14.7155L12.3626 12.8422ZM17.4782 12.7894H20.2457V14.0779C20.2449 14.4444 20.0988 14.7956 19.8394 15.0545C19.58 15.3134 19.2285 15.4587 18.862 15.4587C18.4955 15.4587 18.144 15.3134 17.8846 15.0545C17.6251 14.7956 17.479 14.4444 17.4782 14.0779V12.7894ZM11.426 11.7659C11.4257 11.7798 11.42 11.7931 11.4101 11.8029C11.4003 11.8128 11.387 11.8184 11.3731 11.8188H7.36779C7.35387 11.8184 7.34061 11.8128 7.33077 11.8029C7.32092 11.7931 7.31523 11.7798 7.31488 11.7659V9.89265C7.31582 9.34809 7.5328 8.82615 7.91819 8.44142C8.30358 8.05669 8.82589 7.84061 9.37045 7.84061C9.91501 7.84061 10.4373 8.05669 10.8227 8.44142C11.2081 8.82615 11.4251 9.34809 11.426 9.89265V11.7659ZM6.31042 11.8188H3.54295V10.5302C3.54257 10.3483 3.57808 10.168 3.64745 9.99983C3.71682 9.83161 3.81868 9.67873 3.94721 9.54993C4.07574 9.42113 4.22841 9.31895 4.39648 9.24923C4.56455 9.17951 4.74472 9.14362 4.92668 9.14362C5.10864 9.14362 5.28881 9.17951 5.45688 9.24923C5.62495 9.31895 5.77762 9.42113 5.90615 9.54993C6.03468 9.67873 6.13654 9.83161 6.20591 9.99983C6.27528 10.168 6.31079 10.3483 6.31041 10.5302L6.31042 11.8188ZM21.1733 10.0835C21.0941 9.6723 20.9066 9.28968 20.6301 8.97516C20.3536 8.66064 19.9982 8.42563 19.6005 8.2944C19.2028 8.16316 18.7773 8.14046 18.3679 8.22863C17.9585 8.3168 17.5801 8.51266 17.2717 8.79597C17.07 8.2762 16.7284 7.82235 16.2848 7.48457C15.8412 7.14678 15.3129 6.93823 14.7581 6.88194C14.2034 6.82566 13.644 6.92384 13.1416 7.16564C12.6392 7.40744 12.2134 7.78344 11.9113 8.25208C11.6081 7.78164 11.1802 7.4046 10.6753 7.16293C10.1705 6.92125 9.60846 6.82443 9.05184 6.88324C8.49522 6.94205 7.96585 7.15419 7.52265 7.49603C7.07946 7.83787 6.73983 8.29601 6.54157 8.81944C6.26462 8.55736 5.92809 8.36656 5.56099 8.26348C5.19389 8.1604 4.80723 8.14812 4.43433 8.22772C4.06144 8.30731 3.71348 8.47638 3.42046 8.72037C3.12745 8.96435 2.89815 9.27592 2.75233 9.62824L2.33322 7.08408C5.0069 5.46034 8.42511 4.5692 12.0003 4.5692C15.5754 4.5692 18.9937 5.46032 21.6673 7.08408L21.1733 10.0835Z" fill="#313943" fill-opacity="0.8"/>
</svg>
