<svg width="24" height="24" viewBox="0 0 24 24" fill="none" xmlns="http://www.w3.org/2000/svg">
<path fill-rule="evenodd" clip-rule="evenodd" d="M21.3293 7.00521C21.3521 7.54779 21.3453 8.09631 21.2723 8.46435L21.2708 8.47362C21.0807 9.78482 20.6095 11.0394 19.8895 12.1516L19.7868 12.3102L19.8257 12.4952C20.1673 14.1171 20.1383 15.7953 19.7408 17.4045C19.3295 19.0095 18.5407 20.4931 17.4403 21.7318L17.439 21.7332L17.4339 21.7393C17.2418 21.9652 16.9976 22.141 16.7225 22.2515L16.7143 22.2547L16.7023 22.2602C16.5183 22.3445 16.3211 22.3966 16.1195 22.4141C15.7629 22.4104 15.4165 22.293 15.1309 22.0788L15.1258 22.075C14.8636 21.884 14.6527 21.6312 14.5116 21.3391C14.3726 21.051 14.3057 20.7335 14.3168 20.414C14.4486 19.1359 14.1207 17.8524 13.3917 16.7939L13.3779 16.7724L13.3521 16.7442C13.2549 16.6382 13.0893 16.4578 12.8859 16.3049C12.6882 16.1563 12.3992 15.9905 12.0533 15.9905H12.0131L11.9735 15.9975C11.4873 16.0835 11.0505 16.3472 10.748 16.7375L10.7431 16.7436L10.7364 16.7531C9.99022 17.8053 9.64502 19.0894 9.76279 20.3735C9.77072 20.6957 9.69953 21.0149 9.55535 21.3033C9.4092 21.5956 9.19253 21.8468 8.92501 22.0346L8.91506 22.042C8.68821 22.2106 8.42262 22.3195 8.1427 22.3586C7.86309 22.3977 7.57815 22.3659 7.31403 22.2662C7.0415 22.1618 6.79987 21.9901 6.61151 21.7671L6.60629 21.7611C5.95887 21.0211 5.4199 20.1928 5.00555 19.3011L5.00471 19.2991L4.99983 19.287L4.98093 19.2396C4.9645 19.198 4.94073 19.1369 4.91151 19.0594C4.85305 18.9043 4.77281 18.6833 4.68586 18.4205C4.51175 17.8942 4.31163 17.2027 4.20487 16.5361C3.99089 15.2002 4.02276 13.8365 4.29892 12.512L4.3376 12.3265L4.23396 12.1678C3.94639 11.7276 3.70028 11.2607 3.49948 10.7747L3.49819 10.7716C3.06378 9.7466 2.81404 8.65285 2.76048 7.5409L2.7607 7.4412L2.75937 7.42214C2.69277 6.46434 2.87752 5.50576 3.29533 4.64132C3.71306 3.77705 4.34928 3.03687 5.14099 2.49405C5.76686 2.0675 6.49334 1.81193 7.24842 1.75265C8.00142 1.69353 8.7568 1.83169 9.44007 2.15344L9.83089 2.35319C10.1869 2.54208 10.5294 2.75543 10.8559 2.99168C11.2001 3.24971 11.6186 3.38923 12.0489 3.38923C12.4782 3.38923 12.8959 3.2503 13.2396 2.99332C13.5701 2.7598 13.9138 2.54568 14.2691 2.35203L14.6584 2.15309C15.2399 1.87677 15.8757 1.7334 16.5196 1.7334C17.1656 1.7334 17.8038 1.87788 18.3869 2.15593L18.3886 2.15674C19.0901 2.48683 19.7085 2.97037 20.1979 3.5716C20.6864 4.17154 21.034 4.87337 21.2153 5.6254C21.2557 5.94437 21.3068 6.46766 21.3293 7.00521ZM13.9301 16.1054C14.8785 17.3079 15.316 18.8353 15.1477 20.3577L15.1467 20.3665L15.1458 20.3796C15.1344 20.5631 15.1681 20.7466 15.244 20.914C15.3192 21.08 15.4336 21.2253 15.5774 21.3373C15.6913 21.4282 15.8267 21.4882 15.9707 21.5117C16.1163 21.5354 16.2656 21.5208 16.4038 21.4693L16.4105 21.4667C16.5564 21.4098 16.6868 21.319 16.7909 21.2021C17.8082 20.0585 18.5333 18.6853 18.9039 17.2003C19.3028 15.6004 19.3029 13.9269 18.9043 12.3269C18.8899 12.2668 18.8886 12.2043 18.9004 12.1437C18.9123 12.0827 18.9373 12.0249 18.9736 11.9744L18.9767 11.97C19.5136 11.2051 19.9178 10.3553 20.1725 9.4561L20.3376 8.87288H17.7695V11.1106C17.7695 11.225 17.7241 11.3348 17.6432 11.4157C17.5623 11.4966 17.4526 11.542 17.3382 11.542H13.7793C13.6649 11.542 13.5552 11.4966 13.4743 11.4157C13.3934 11.3348 13.348 11.225 13.348 11.1106V8.87288H10.6519V11.1106C10.6519 11.225 10.6065 11.3348 10.5256 11.4157C10.4447 11.4966 10.3349 11.542 10.2205 11.542H6.6617C6.5473 11.542 6.43757 11.4966 6.35668 11.4157C6.27578 11.3348 6.23033 11.225 6.23033 11.1106V8.87288H3.76892L3.93418 9.45616C4.02496 9.77656 4.13507 10.0912 4.26391 10.3982L4.26499 10.4008C4.50571 10.965 4.80812 11.5008 5.1667 11.9984C5.20149 12.0488 5.22518 12.1059 5.23619 12.1661C5.24736 12.2271 5.24521 12.2899 5.22991 12.35L5.22882 12.3545C4.90591 13.6802 4.84895 15.0567 5.06122 16.4045C5.16747 17.0792 5.34977 17.7111 5.50517 18.1737C5.58294 18.4053 5.65411 18.5948 5.70591 18.7267C5.73182 18.7926 5.75289 18.8442 5.76754 18.8793L5.78449 18.9195L5.78898 18.93L5.79016 18.9327L5.7906 18.9337L5.79111 18.9349C6.16095 19.75 6.65103 20.505 7.24496 21.1747C7.34826 21.3025 7.48364 21.401 7.63757 21.4595L7.65116 21.4642C7.78674 21.5109 7.93177 21.5233 8.0733 21.5002C8.21483 21.4772 8.34864 21.4193 8.46239 21.332L8.46333 21.3313C8.60879 21.2189 8.72452 21.0726 8.80039 20.9051C8.87626 20.7377 8.90997 20.5542 8.89857 20.3707L8.89822 20.3643L8.89727 20.3546C8.74903 18.8382 9.19551 17.3236 10.1425 16.1301C10.3783 15.8377 10.6724 15.5975 11.006 15.4248C11.3311 15.2565 11.6868 15.1559 12.0517 15.129C12.4097 15.1579 12.7586 15.2573 13.0783 15.4216C13.4054 15.5898 13.6952 15.8224 13.9301 16.1054ZM19.5576 4.1512C19.1571 3.64924 18.6505 3.24206 18.0741 2.95883L18.0719 2.95776C17.6019 2.72993 17.0864 2.61157 16.5641 2.61157C16.0418 2.61157 15.5263 2.72982 15.0563 2.95765L14.7177 3.13143L14.71 3.13555C14.3858 3.30988 14.0726 3.50397 13.7723 3.71685L13.765 3.72225C13.2759 4.08371 12.6837 4.27877 12.0756 4.27877C11.4674 4.27877 10.8753 4.08364 10.3862 3.72218L10.3788 3.71693C10.0785 3.50405 9.76538 3.30982 9.44115 3.13548L9.10432 2.96236L9.09406 2.9574C8.53737 2.68877 7.91962 2.5719 7.30328 2.61862C6.68694 2.66534 6.09385 2.87396 5.58401 3.22344L5.5795 3.22662C4.9178 3.692 4.38817 4.32112 4.04238 5.05246C3.7011 5.77426 3.55042 6.57127 3.60445 7.3675C3.60077 7.43967 3.60147 7.512 3.60657 7.5841L3.63667 8.01014H6.23033V6.6621C6.23033 6.54769 6.27578 6.43797 6.35668 6.35707C6.43757 6.27617 6.5473 6.23073 6.6617 6.23073H10.2205C10.3349 6.23073 10.4447 6.27617 10.5256 6.35707C10.6065 6.43797 10.6519 6.54769 10.6519 6.6621V8.01014H13.348V6.6621C13.348 6.54769 13.3934 6.43797 13.4743 6.35707C13.5552 6.27618 13.6649 6.23073 13.7793 6.23073H17.3382C17.4526 6.23073 17.5623 6.27618 17.6432 6.35707C17.7241 6.43797 17.7695 6.54769 17.7695 6.6621V8.01014H20.4637L20.4722 7.92788C20.5002 7.65652 20.5961 6.64801 20.3905 5.86033C20.2037 5.145 19.9584 4.65347 19.5576 4.1512ZM7.09308 10.6793H9.78915V7.09347H7.09308V10.6793ZM14.2107 10.6793H16.9068V7.09347H14.2107V10.6793Z" fill="#313943" fill-opacity="0.8"/>
</svg>
