<svg width="24" height="24" viewBox="0 0 24 24" fill="none" xmlns="http://www.w3.org/2000/svg">
<path fill-rule="evenodd" clip-rule="evenodd" d="M20.6857 17.5456C21.1561 17.5431 21.6083 17.364 21.9528 17.0437L21.9546 17.042C22.2106 16.807 22.3995 16.5082 22.5019 16.1762C22.604 15.8452 22.6166 15.4931 22.5383 15.1557C22.4637 14.8593 22.3217 14.5842 22.1233 14.3517C21.9246 14.1188 21.6747 13.9351 21.3933 13.8149C20.5505 13.4644 19.7884 13.2008 19.0408 12.9422L18.5098 12.7582V1.00531C18.5098 0.887095 18.4629 0.773719 18.3793 0.690126C18.2957 0.606533 18.1823 0.55957 18.0641 0.55957H15.5275C15.4422 0.559875 15.3588 0.584624 15.2872 0.630888L15.2849 0.632362L13.2018 1.95797L12.984 1.8093C12.3813 1.39789 11.6624 1.19094 10.9332 1.21895C10.4865 1.23653 10.0479 1.34317 9.6431 1.53261C9.23823 1.72207 8.8753 1.99052 8.57563 2.3222L8.57337 2.3247L8.28954 2.63355C8.21498 2.72024 8.17655 2.83232 8.1823 2.94663C8.1881 3.06166 8.23819 3.16996 8.32204 3.24885L12.692 7.23847C12.7735 7.31237 12.8797 7.35383 12.9897 7.35435C13.0516 7.35407 13.1127 7.34091 13.1692 7.31571C13.226 7.29038 13.2769 7.25344 13.3185 7.20726L13.3246 7.20054L13.609 6.89954C14.0467 6.41327 14.3374 5.81274 14.4473 5.16776C14.4665 5.05155 14.4388 4.93249 14.3704 4.83659C14.302 4.74065 14.1984 4.6757 14.0823 4.65594C13.966 4.63674 13.8468 4.66437 13.7508 4.7328C13.6551 4.80108 13.5902 4.90443 13.5703 5.02031C13.5203 5.32945 13.4099 5.62574 13.2455 5.89228L12.9922 6.30296L9.2073 2.85266L9.61176 2.56526C10.0922 2.22385 10.6765 2.06019 11.2644 2.10231C11.8512 2.14436 12.4052 2.38885 12.8318 2.79397C12.9141 2.86953 13.0217 2.91148 13.1334 2.91148C13.2458 2.91148 13.3541 2.869 13.4365 2.79256L13.5663 2.67222L13.7195 2.68533L15.6555 1.45106H17.6183V12.4555L17.0748 12.2465C17.0147 12.2234 16.9515 12.1998 16.8858 12.1753C16.7295 12.117 16.5595 12.0536 16.3874 11.98C15.6957 11.6976 14.9554 11.553 14.2082 11.5543L9.13062 11.5543C8.82922 11.5524 8.53439 11.466 8.2797 11.3048C8.02557 11.144 7.8216 10.9152 7.69089 10.6444L5.76231 6.72804C5.62879 6.45291 5.44151 6.20731 5.21151 6.00576C4.98151 5.8042 4.71347 5.65076 4.42319 5.55451L4.42 5.55345C4.13581 5.45655 3.83497 5.41803 3.53553 5.44021C3.2362 5.46238 2.94442 5.54475 2.67768 5.68237C2.13026 5.96547 1.71549 6.4517 1.52222 7.0369C1.32896 7.6221 1.37257 8.25972 1.64372 8.81316L2.88893 11.3456L4.39309 14.4219C4.63658 14.9239 5.04201 15.3293 5.54403 15.5728L5.69477 15.6459L7.1537 19.9632L6.64971 20.01C5.90732 20.0789 5.21768 20.4234 4.71663 20.9755C4.21558 21.5277 3.93946 22.2474 3.94265 22.993L3.94266 22.9947C3.94266 23.1129 3.98962 23.2263 4.07321 23.3099C4.1568 23.3935 4.27018 23.4404 4.3884 23.4404H12.3553H14.9348H17.9203C18.0385 23.4404 18.1519 23.3935 18.2355 23.3099C18.3189 23.2264 18.3659 23.1133 18.3661 22.9954C18.3644 22.3025 18.1217 21.6318 17.6795 21.0984C17.2372 20.565 16.623 20.2022 15.9424 20.0723L15.7115 20.0282L14.3025 15.7698L14.9152 15.8307C15.2786 15.8668 15.6373 15.9403 15.9855 16.0502L15.9943 16.053L20.0623 17.4401C20.2627 17.5089 20.4738 17.5447 20.6857 17.5456ZM14.9348 22.5489H17.539L17.1926 21.9489C17.0092 21.6313 16.7456 21.3675 16.428 21.1839C16.1105 21.0004 15.7499 20.9036 15.3831 20.9032H6.92522C6.55846 20.9036 6.19823 21.0004 5.8807 21.1839C5.56316 21.3675 5.29947 21.6313 5.11609 21.9489L4.76968 22.5489H12.3553H14.9348ZM3.68466 10.9539L5.19514 14.0258C5.32336 14.2968 5.5255 14.5261 5.77834 14.6874C6.03222 14.8493 6.32681 14.936 6.62793 14.9372L14.4189 14.9372L14.4225 14.9372C15.0445 14.9317 15.6632 15.0276 16.2544 15.2211L16.2564 15.2218L20.3244 16.6059C20.4876 16.6652 20.6635 16.6809 20.8347 16.6516C21.0079 16.6219 21.1703 16.5472 21.3054 16.4349L21.3132 16.4281C21.4618 16.2979 21.5703 16.1282 21.6262 15.9387C21.6807 15.7538 21.6829 15.5574 21.6325 15.3715C21.5966 15.2113 21.5231 15.062 21.4179 14.9358C21.3104 14.8067 21.173 14.7058 21.0177 14.6418C20.2313 14.308 19.4508 14.0381 18.7726 13.8034C18.665 13.7662 18.5599 13.7299 18.4578 13.6943C18.303 13.6404 18.1456 13.5866 17.9864 13.5321L17.9854 13.5317C17.3582 13.3171 16.7006 13.092 16.0401 12.808L16.0303 12.8041C15.4456 12.5708 14.8223 12.4493 14.1928 12.4457H9.11562C8.6484 12.4463 8.19056 12.3147 7.79501 12.066C7.39946 11.8173 7.08238 11.4618 6.88037 11.0405L4.96104 7.12574C4.88354 6.95871 4.77342 6.80884 4.63712 6.68497C4.49947 6.55986 4.33795 6.46384 4.16228 6.40269C3.9866 6.34154 3.80038 6.3165 3.61479 6.32909C3.4292 6.34168 3.24803 6.39158 3.08222 6.47589L3.07617 6.47911C2.73944 6.65766 2.48551 6.96037 2.36825 7.32303C2.25106 7.68544 2.27956 8.07924 2.44771 8.42099L3.68466 10.9539ZM6.70094 15.8287L8.09178 20.0117H14.762L13.3712 15.8287H6.70094Z" fill="#313943" fill-opacity="0.8"/>
</svg>
