<svg width="24" height="24" viewBox="0 0 24 24" fill="none" xmlns="http://www.w3.org/2000/svg">
  <path d="M21.054 10.6665L21.7943 8.47521C21.9374 8.05022 22.2356 7.69486 22.6292 7.48009L23.7275 6.87943C23.799 6.84034 23.8587 6.78273 23.9002 6.71265C23.9417 6.64258 23.9637 6.56261 23.9637 6.48115C23.9637 6.39968 23.9417 6.31972 23.9002 6.24964C23.8587 6.17956 23.799 6.12196 23.7275 6.08286L22.6292 5.48224C22.2356 5.26745 21.9374 4.91208 21.7943 4.48709L21.054 2.29577C21.0236 2.2058 20.9657 2.12763 20.8886 2.07227C20.8114 2.0169 20.7189 1.98712 20.6239 1.98712C20.5289 1.98712 20.4364 2.0169 20.3592 2.07227C20.2821 2.12763 20.2242 2.2058 20.1938 2.29577L19.4535 4.48709C19.3688 4.73808 19.2292 4.96701 19.0448 5.15723C18.8572 4.99337 18.6595 4.84131 18.453 4.70194C17.211 3.86813 15.5965 3.79731 14.2393 4.51713C13.8331 4.72737 13.3825 4.83709 12.9251 4.83709C12.4677 4.83709 12.017 4.72737 11.6108 4.51713C10.2537 3.79728 8.6391 3.86813 7.39712 4.70194C6.41277 5.35999 5.64502 6.29445 5.19046 7.38777C4.73589 8.48109 4.61481 9.68442 4.84246 10.8464L6.67243 20.2364C6.76623 20.7177 7.01836 21.1538 7.38868 21.4752C7.759 21.7967 8.22622 21.985 8.71594 22.0102C9.20567 22.0354 9.68975 21.896 10.0911 21.6143C10.4925 21.3326 10.788 20.9247 10.9308 20.4555L12.0575 16.7518C12.1141 16.5658 12.2289 16.4029 12.3851 16.2872C12.5414 16.1714 12.7306 16.1089 12.925 16.1089C13.1195 16.1089 13.3087 16.1714 13.4649 16.2872C13.6211 16.4029 13.736 16.5658 13.7926 16.7518L14.9193 20.4555C15.062 20.9247 15.3576 21.3326 15.759 21.6143C16.1604 21.8961 16.6444 22.0354 17.1342 22.0102C17.6239 21.985 18.0911 21.7967 18.4614 21.4752C18.8317 21.1538 19.0839 20.7177 19.1777 20.2364L21.054 10.6665ZM18.2866 20.0627C18.2315 20.3451 18.0836 20.601 17.8663 20.7896C17.649 20.9782 17.3749 21.0887 17.0875 21.1035C16.8002 21.1183 16.5161 21.0365 16.2806 20.8712C16.0451 20.7059 15.8717 20.4666 15.7879 20.1913L14.6612 16.4876C14.548 16.1154 14.3181 15.7894 14.0055 15.5577C13.6929 15.326 13.3141 15.201 12.9251 15.201C12.536 15.201 12.1572 15.326 11.8446 15.5577C11.532 15.7894 11.3021 16.1154 11.1889 16.4876L10.0622 20.1913C9.97846 20.4666 9.80503 20.7059 9.56953 20.8712C9.33403 21.0365 9.04999 21.1183 8.76264 21.1035C8.47529 21.0887 8.20115 20.9782 7.98387 20.7896C7.76658 20.601 7.61865 20.3451 7.56361 20.0627L5.73358 10.6726C5.5404 9.68602 5.6433 8.66432 6.02934 7.73605C6.41538 6.80778 7.06733 6.01441 7.90316 5.45575C8.8668 4.80887 10.1245 4.75651 11.1854 5.31921C11.7226 5.59894 12.3194 5.74501 12.9251 5.74501C13.5308 5.74501 14.1276 5.59894 14.6648 5.31921C15.7255 4.75651 16.9832 4.80882 17.947 5.45575C18.0534 5.52715 18.1556 5.60272 18.2551 5.68098L17.5203 6.08286C17.4488 6.12195 17.3892 6.17955 17.3476 6.24963C17.3061 6.31971 17.2841 6.39968 17.2841 6.48115C17.2841 6.56261 17.3061 6.64258 17.3476 6.71266C17.3892 6.78274 17.4488 6.84034 17.5203 6.87943L18.6185 7.48009C19.0122 7.69483 19.3104 8.0502 19.4535 8.47521L20.1438 10.5185L18.2866 20.0627ZM22.1936 6.68355C21.5998 7.00752 21.1501 7.54357 20.9342 8.18465L20.6239 9.10304L20.3136 8.18465C20.0978 7.54355 19.6481 7.00747 19.0542 6.68352L18.6842 6.48115L19.0542 6.27878C19.648 5.95483 20.0978 5.41877 20.3136 4.77769L20.6239 3.85929L20.9342 4.77769C21.1501 5.41876 21.5998 5.95481 22.1936 6.27876L22.5637 6.48113L22.1936 6.68355Z"/>
  <path d="M5.40091 16.2286L4.50788 15.7402C4.20647 15.5757 3.97819 15.3037 3.86863 14.9783L3.26663 13.1965C3.23623 13.1065 3.17839 13.0283 3.10124 12.973C3.02409 12.9176 2.93152 12.8878 2.83656 12.8878C2.7416 12.8878 2.64903 12.9176 2.57189 12.973C2.49474 13.0283 2.43689 13.1065 2.4065 13.1965L1.80451 14.9783C1.69495 15.3036 1.46667 15.5757 1.16526 15.7402L0.272248 16.2286C0.200776 16.2677 0.141141 16.3253 0.0995977 16.3954C0.0580541 16.4655 0.0361328 16.5454 0.0361328 16.6269C0.0361328 16.7084 0.0580541 16.7883 0.0995977 16.8584C0.141141 16.9285 0.200776 16.9861 0.272248 17.0252L1.16526 17.5136C1.46667 17.678 1.69495 17.9501 1.80451 18.2755L2.4065 20.0573C2.43689 20.1472 2.49474 20.2254 2.57189 20.2808C2.64903 20.3361 2.7416 20.3659 2.83656 20.3659C2.93152 20.3659 3.02409 20.3361 3.10124 20.2808C3.17839 20.2254 3.23623 20.1472 3.26663 20.0573L3.86864 18.2754C3.97819 17.9501 4.20647 17.678 4.50788 17.5136L5.40089 17.0251C5.47237 16.986 5.532 16.9284 5.57354 16.8584C5.61509 16.7883 5.63701 16.7083 5.63701 16.6269C5.63701 16.5454 5.61509 16.4654 5.57354 16.3954C5.532 16.3253 5.47237 16.2677 5.40089 16.2286L5.40091 16.2286ZM4.07223 16.717C3.57069 16.9907 3.19082 17.4434 3.00851 17.9849L2.83658 18.4938L2.66465 17.9849C2.48232 17.4434 2.10245 16.9906 1.60091 16.717L1.43608 16.6269L1.60091 16.5367C2.10245 16.2631 2.48231 15.8103 2.66463 15.2689L2.83656 14.76L3.0085 15.2689C3.19081 15.8103 3.57068 16.2631 4.07223 16.5367L4.23706 16.6269L4.07223 16.717Z"/>
</svg>
