<svg width="24" height="24" viewBox="0 0 24 24" fill="none" xmlns="http://www.w3.org/2000/svg">
<path d="M17.8826 0.853469C16.561 -0.0337329 14.8428 -0.109119 13.3988 0.656818C12.9666 0.880547 12.487 0.997316 12.0003 0.997321C11.5136 0.997326 11.034 0.880568 10.6017 0.656849C9.15758 -0.109179 7.43949 -0.0337932 6.11788 0.853469C5.07116 1.55322 4.25459 2.5467 3.77075 3.7091C3.28691 4.87149 3.15738 6.15095 3.39845 7.38673L4.32695 12.7542C4.34636 12.8664 4.40475 12.9681 4.49184 13.0414C4.57892 13.1147 4.68909 13.1549 4.80293 13.1549H6.45822L6.97413 15.3377C6.99915 15.4436 7.05918 15.5379 7.1445 15.6054C7.22982 15.6729 7.33544 15.7097 7.44423 15.7097H8.73096L9.50195 21.7075C9.50222 21.7097 9.50255 21.7119 9.50284 21.7142C9.58813 22.3117 9.88613 22.8585 10.3421 23.2541C10.7981 23.6496 11.3815 23.8674 11.9852 23.8674C12.5888 23.8674 13.1722 23.6496 13.6282 23.2541C14.0842 22.8585 14.3822 22.3117 14.4675 21.7142C14.4678 21.7119 14.4681 21.7097 14.4684 21.7075L15.2394 15.7097H16.5261C16.6349 15.7097 16.7405 15.6729 16.8258 15.6054C16.9111 15.5379 16.9712 15.4436 16.9962 15.3377L17.5121 13.1549H19.1976C19.3114 13.1549 19.4216 13.1147 19.5087 13.0414C19.5958 12.9681 19.6542 12.8664 19.6736 12.7542L20.6021 7.38673C20.8431 6.15095 20.7136 4.87149 20.2298 3.70909C19.7459 2.5467 18.9293 1.55322 17.8826 0.853469ZM13.5106 21.5808C13.4575 21.9475 13.2741 22.2828 12.994 22.5253C12.7138 22.7678 12.3557 22.9013 11.9852 22.9013C11.6147 22.9013 11.2565 22.7678 10.9764 22.5253C10.6962 22.2828 10.5128 21.9475 10.4597 21.5808L9.70502 15.7096H14.2653L13.5106 21.5808ZM16.1439 14.7435H7.82645L7.45098 13.1549H16.5194L16.1439 14.7435ZM8.96685 9.96716H15.0035L14.7179 12.1888H9.25244L8.96685 9.96716ZM19.6528 7.20692C19.6522 7.21032 19.6516 7.21367 19.651 7.21707L18.7909 12.1888H15.692L16.0318 9.5457C16.0405 9.47762 16.0346 9.40846 16.0146 9.34283C15.9945 9.2772 15.9607 9.21659 15.9153 9.16506C15.87 9.11353 15.8142 9.07224 15.7517 9.04396C15.6891 9.01569 15.6213 9.00106 15.5527 9.00106H8.41773C8.34909 9.00106 8.28125 9.01569 8.21871 9.04396C8.15617 9.07224 8.10038 9.11353 8.05504 9.16506C8.00971 9.21659 7.97588 9.2772 7.95581 9.34283C7.93573 9.40846 7.92988 9.47762 7.93863 9.5457L8.27839 12.1888H5.20961L4.34957 7.21707C4.34896 7.21367 4.34836 7.21032 4.34771 7.20692C4.14213 6.15706 4.25163 5.06985 4.66243 4.08207C5.07322 3.09429 5.76696 2.25006 6.65638 1.65558C7.68183 0.967233 9.02012 0.911519 10.1491 1.51032C10.7207 1.808 11.3558 1.96342 12.0003 1.96342C12.6448 1.96341 13.2798 1.80798 13.8515 1.51029C14.9804 0.911519 16.3187 0.967178 17.3442 1.65558C18.2336 2.25006 18.9273 3.09429 19.3381 4.08207C19.7489 5.06985 19.8584 6.15706 19.6528 7.20692Z"/>
</svg>
