<svg width="24" height="24" viewBox="0 0 24 24" fill="none" xmlns="http://www.w3.org/2000/svg">
  <path d="M23.3265 13.9628C21.9821 13.4005 20.5979 12.9388 19.1851 12.5817L19.8223 10.9311C20.2211 9.92261 20.3121 8.81855 20.0839 7.75835C19.8556 6.69815 19.3183 5.72936 18.5399 4.97429C17.5685 4.0281 16.123 3.69939 14.7675 4.11679C14.3768 4.23285 13.9643 4.25472 13.5636 4.18061C13.1629 4.10649 12.7854 3.9385 12.4621 3.6904C11.3455 2.81594 9.87816 2.60578 8.63255 3.14188C7.63593 3.56824 6.78794 4.28028 6.19561 5.18813C5.60327 6.09597 5.29314 7.15894 5.30436 8.24287L5.31555 12.4595C3.75328 12.8256 2.22363 13.3191 0.741932 13.935L0.67587 13.9624C0.622814 13.9845 0.57462 14.0168 0.53404 14.0575C0.49346 14.0981 0.461288 14.1464 0.439362 14.1995C0.417436 14.2526 0.406185 14.3095 0.40625 14.367C0.406316 14.4244 0.417698 14.4813 0.439746 14.5344C0.461793 14.5874 0.494075 14.6356 0.534748 14.6762C0.575421 14.7168 0.623689 14.7489 0.676795 14.7709C0.729902 14.7928 0.786807 14.804 0.844261 14.804C0.901716 14.8039 0.958595 14.7925 1.01165 14.7705L1.07764 14.7431C2.45273 14.1714 3.87048 13.7083 5.31788 13.3579L5.33453 19.6343C5.33481 19.9099 5.41081 20.1801 5.55423 20.4154C5.69765 20.6507 5.90298 20.8421 6.14778 20.9687C6.39259 21.0952 6.66746 21.1521 6.94238 21.133C7.2173 21.1139 7.48169 21.0197 7.70668 20.8605C8.72819 20.1413 9.42638 19.0496 9.65092 17.8207L9.89712 16.4897C10.06 15.5987 10.503 14.7828 11.1615 14.1609C11.2389 14.0875 11.3325 14.0334 11.4348 14.0031C11.5371 13.9728 11.6451 13.9671 11.75 13.9865C11.8548 14.0059 11.9537 14.0498 12.0383 14.1147C12.123 14.1796 12.1911 14.2636 12.2371 14.3598V14.3598C12.6296 15.1761 12.7514 16.0964 12.5849 16.9867L12.3387 18.3178C12.1089 19.5457 12.3704 20.8149 13.0671 21.8519C13.2039 22.0575 13.3894 22.2261 13.6071 22.3426C13.8249 22.4592 14.068 22.5201 14.315 22.52C14.3715 22.52 14.428 22.5168 14.4841 22.5105C14.7581 22.4805 15.0184 22.3755 15.2366 22.2071C15.4547 22.0387 15.6222 21.8134 15.7206 21.556L18.8675 13.4043C20.274 13.7542 21.6518 14.2108 22.9888 14.7701C23.0418 14.7922 23.0987 14.8038 23.1562 14.804C23.2136 14.8042 23.2705 14.793 23.3237 14.7712C23.3769 14.7494 23.4252 14.7174 23.466 14.6769C23.5067 14.6364 23.5391 14.5883 23.5613 14.5353C23.5835 14.4822 23.595 14.4254 23.5952 14.3679C23.5954 14.3105 23.5842 14.2535 23.5624 14.2004C23.5406 14.1472 23.5086 14.0989 23.4681 14.0581C23.4276 14.0174 23.3795 13.985 23.3265 13.9628ZM14.904 21.2415C14.8627 21.3491 14.7927 21.4432 14.7015 21.5137C14.6103 21.5841 14.5015 21.6281 14.387 21.6409C14.2725 21.6537 14.1566 21.6348 14.0521 21.5863C13.9476 21.5377 13.8585 21.4614 13.7944 21.3656C13.225 20.518 13.0112 19.4806 13.1991 18.4769L13.4453 17.1459C13.6458 16.0737 13.4991 14.9654 13.0265 13.9823V13.9822C12.922 13.7608 12.766 13.5675 12.5716 13.4186C12.3772 13.2696 12.15 13.1694 11.909 13.1261C11.8139 13.1084 11.7174 13.0995 11.6206 13.0995C11.2251 13.0995 10.8449 13.2523 10.5594 13.526C9.76631 14.275 9.23289 15.2575 9.0367 16.3306L8.79053 17.6615C8.60702 18.666 8.03636 19.5583 7.20145 20.1462C7.10732 20.2128 6.9967 20.2522 6.88168 20.2601C6.76666 20.2681 6.65167 20.2442 6.54928 20.1912C6.44689 20.1382 6.36105 20.0581 6.30114 19.9596C6.24122 19.8611 6.20954 19.748 6.20957 19.6327L6.17931 8.23743C6.16958 7.32551 6.43028 6.43115 6.92847 5.66728C7.42667 4.90341 8.14004 4.30429 8.97849 3.94556C9.92992 3.53615 11.058 3.70224 11.9226 4.37927C12.357 4.71436 12.8649 4.94119 13.4044 5.04097C13.9439 5.14075 14.4994 5.11062 15.0249 4.95306C16.0742 4.62986 17.1873 4.87824 17.9293 5.60103C18.5843 6.23636 19.0362 7.05157 19.228 7.94364C19.4199 8.83572 19.343 9.76465 19.0071 10.6131L14.904 21.2415Z"/>
  <path d="M19.467 17.5169C19.476 17.4019 19.4391 17.288 19.3645 17.2C19.2899 17.112 19.1836 17.0571 19.0686 17.0471C18.9537 17.0371 18.8395 17.073 18.7509 17.1468C18.6622 17.2206 18.6063 17.3265 18.5953 17.4413L18.5941 17.4545C18.4583 19.0398 17.8725 20.5532 16.9056 21.8168C16.8701 21.8624 16.8441 21.9145 16.8289 21.9703C16.8137 22.026 16.8097 22.0842 16.8171 22.1414C16.8245 22.1987 16.8432 22.254 16.872 22.304C16.9009 22.354 16.9394 22.3978 16.9853 22.4329C17.0312 22.468 17.0835 22.4936 17.1394 22.5083C17.1952 22.5231 17.2534 22.5266 17.3106 22.5187C17.3678 22.5108 17.4229 22.4917 17.4727 22.4624C17.5225 22.4332 17.566 22.3943 17.6007 22.3482C18.6687 20.9525 19.3158 19.2808 19.4659 17.5299L19.467 17.5169Z"/>
  <path d="M20.6323 18.7468C20.5751 18.7418 20.5174 18.7481 20.4627 18.7655C20.4079 18.7828 20.357 18.8107 20.3131 18.8477C20.2691 18.8846 20.2328 18.9299 20.2063 18.9809C20.1799 19.0319 20.1637 19.0876 20.1587 19.1448L20.1581 19.1518C20.0906 19.9399 19.7993 20.6923 19.3187 21.3204C19.2832 21.366 19.2571 21.4181 19.242 21.4739C19.2268 21.5296 19.2228 21.5878 19.2302 21.645C19.2376 21.7023 19.2563 21.7575 19.2851 21.8076C19.314 21.8576 19.3525 21.9014 19.3984 21.9365C19.4442 21.9715 19.4966 21.9972 19.5525 22.0119C19.6083 22.0267 19.6665 22.0302 19.7237 22.0223C19.7809 22.0144 19.836 21.9953 19.8858 21.966C19.9356 21.9368 19.9791 21.8979 20.0138 21.8518C20.5956 21.0916 20.9481 20.1809 21.0298 19.2271L21.0304 19.2204C21.0354 19.1631 21.029 19.1055 21.0117 19.0507C20.9944 18.9959 20.9664 18.9451 20.9295 18.9011C20.8925 18.8571 20.8472 18.8209 20.7963 18.7944C20.7453 18.7679 20.6896 18.7517 20.6323 18.7468Z"/>
  <path d="M3.12549 5.76649C3.07962 5.87307 3.07796 5.99351 3.12088 6.10131C3.1638 6.20911 3.24779 6.29545 3.35436 6.34133C3.46094 6.3872 3.58138 6.38887 3.68918 6.34594C3.79698 6.30302 3.88332 6.21903 3.9292 6.11246L3.9343 6.1006C4.56292 4.639 5.59595 3.38736 6.91183 2.49299C6.95965 2.46081 7.00065 2.4195 7.03245 2.37143C7.06426 2.32335 7.08626 2.26947 7.09718 2.21287C7.10809 2.15627 7.10772 2.09807 7.09607 2.04162C7.08443 1.98516 7.06174 1.93157 7.02932 1.88391C6.99689 1.83625 6.95537 1.79547 6.90713 1.76391C6.8589 1.73235 6.8049 1.71063 6.74825 1.7C6.69159 1.68938 6.63339 1.69005 6.577 1.70199C6.52061 1.71392 6.46713 1.73689 6.41964 1.76956C4.96608 2.75748 3.82498 4.14006 3.13062 5.75459L3.12549 5.76649Z"/>
  <path d="M2.67467 4.11012C2.72738 4.133 2.78408 4.14526 2.84154 4.14621C2.89899 4.14716 2.95607 4.13677 3.00951 4.11564C3.06295 4.09451 3.1117 4.06306 3.15297 4.02307C3.19424 3.98309 3.22722 3.93536 3.25003 3.88262L3.25287 3.8761C3.53113 3.22906 3.98844 2.67497 4.57096 2.27905C4.61905 2.24698 4.66031 2.20571 4.69235 2.15761C4.7244 2.10952 4.7466 2.05555 4.75767 1.99882C4.76873 1.94209 4.76845 1.88374 4.75684 1.82712C4.74522 1.7705 4.72251 1.71675 4.69 1.66896C4.65749 1.62118 4.61584 1.5803 4.56744 1.54871C4.51905 1.51711 4.46487 1.49542 4.40805 1.48488C4.35122 1.47434 4.29287 1.47516 4.23636 1.4873C4.17986 1.49944 4.12631 1.52266 4.07883 1.55561C3.35886 2.04482 2.79362 2.72952 2.44964 3.52912L2.44721 3.53472C2.42436 3.58744 2.41212 3.64414 2.41119 3.70158C2.41026 3.75903 2.42065 3.8161 2.44177 3.86953C2.46289 3.92296 2.49433 3.9717 2.53429 4.01298C2.57425 4.05426 2.62195 4.08727 2.67467 4.11012Z"/>
</svg>
