<svg width="24" height="24" viewBox="0 0 24 24" fill="none" xmlns="http://www.w3.org/2000/svg">
<path d="M19.6278 19.5167H18.4443C18.3283 19.5167 18.217 19.5628 18.135 19.6449C18.0529 19.7269 18.0068 19.8382 18.0068 19.9542C18.0068 20.0703 18.0529 20.1815 18.135 20.2636C18.217 20.3456 18.3283 20.3917 18.4443 20.3917H19.6278C19.7438 20.3917 19.8551 20.3456 19.9372 20.2636C20.0192 20.1815 20.0653 20.0703 20.0653 19.9542C20.0653 19.8382 20.0192 19.7269 19.9372 19.6449C19.8551 19.5628 19.7438 19.5167 19.6278 19.5167Z" fill="#313943" fill-opacity="0.8"/>
<path d="M22.5927 19.5167H21.4092C21.2931 19.5167 21.1819 19.5628 21.0998 19.6449C21.0178 19.7269 20.9717 19.8382 20.9717 19.9542C20.9717 20.0703 21.0178 20.1815 21.0998 20.2636C21.1819 20.3456 21.2931 20.3917 21.4092 20.3917H22.5927C22.7087 20.3917 22.82 20.3456 22.902 20.2636C22.9841 20.1815 23.0302 20.0703 23.0302 19.9542C23.0302 19.8382 22.9841 19.7269 22.902 19.6449C22.82 19.5628 22.7087 19.5167 22.5927 19.5167Z" fill="#313943" fill-opacity="0.8"/>
<path d="M20.5176 17.4425C20.4015 17.4425 20.2903 17.4886 20.2082 17.5706C20.1262 17.6527 20.0801 17.764 20.0801 17.88V19.0634C20.0801 19.1795 20.1262 19.2908 20.2082 19.3728C20.2903 19.4548 20.4015 19.5009 20.5176 19.5009C20.6336 19.5009 20.7449 19.4548 20.8269 19.3728C20.909 19.2908 20.9551 19.1795 20.9551 19.0634V17.88C20.9551 17.764 20.909 17.6527 20.8269 17.5706C20.7449 17.4886 20.6336 17.4425 20.5176 17.4425Z" fill="#313943" fill-opacity="0.8"/>
<path d="M20.5176 20.4073C20.4015 20.4073 20.2903 20.4534 20.2082 20.5355C20.1262 20.6175 20.0801 20.7288 20.0801 20.8448V22.0283C20.0801 22.1444 20.1262 22.2556 20.2082 22.3377C20.2903 22.4197 20.4015 22.4658 20.5176 22.4658C20.6336 22.4658 20.7449 22.4197 20.8269 22.3377C20.909 22.2556 20.9551 22.1444 20.9551 22.0283V20.8448C20.9551 20.7288 20.909 20.6175 20.8269 20.5355C20.7449 20.4534 20.6336 20.4073 20.5176 20.4073Z" fill="#313943" fill-opacity="0.8"/>
<path d="M0.760743 4.48328H1.94421C2.06025 4.48328 2.17153 4.43718 2.25357 4.35514C2.33562 4.27309 2.38171 4.16181 2.38171 4.04578C2.38171 3.92974 2.33562 3.81846 2.25357 3.73642C2.17153 3.65437 2.06025 3.60828 1.94421 3.60828H0.760743C0.64471 3.60828 0.53343 3.65437 0.451383 3.73642C0.369336 3.81846 0.323242 3.92974 0.323242 4.04578C0.323242 4.16181 0.369336 4.27309 0.451383 4.35514C0.53343 4.43718 0.64471 4.48328 0.760743 4.48328Z" fill="#313943" fill-opacity="0.8"/>
<path d="M3.72559 4.48328H4.90909C5.02512 4.48328 5.1364 4.43718 5.21845 4.35514C5.30049 4.27309 5.34659 4.16181 5.34659 4.04578C5.34659 3.92974 5.30049 3.81846 5.21845 3.73642C5.1364 3.65437 5.02512 3.60828 4.90909 3.60828H3.72559C3.60955 3.60828 3.49827 3.65437 3.41623 3.73642C3.33418 3.81846 3.28809 3.92974 3.28809 4.04578C3.28809 4.16181 3.33418 4.27309 3.41623 4.35514C3.49827 4.43718 3.60955 4.48328 3.72559 4.48328Z" fill="#313943" fill-opacity="0.8"/>
<path d="M2.83496 3.59241C2.95099 3.59241 3.06227 3.54631 3.14432 3.46426C3.22637 3.38222 3.27246 3.27094 3.27246 3.15491V1.97144C3.27246 1.8554 3.22637 1.74412 3.14432 1.66208C3.06227 1.58003 2.95099 1.53394 2.83496 1.53394C2.71893 1.53394 2.60765 1.58003 2.5256 1.66208C2.44355 1.74412 2.39746 1.8554 2.39746 1.97144V3.15491C2.39746 3.27094 2.44355 3.38222 2.5256 3.46426C2.60765 3.54631 2.71893 3.59241 2.83496 3.59241Z" fill="#313943" fill-opacity="0.8"/>
<path d="M2.83496 6.55761C2.95099 6.55761 3.06227 6.51152 3.14432 6.42947C3.22637 6.34742 3.27246 6.23614 3.27246 6.12011V4.93665C3.27246 4.82061 3.22637 4.70933 3.14432 4.62729C3.06227 4.54524 2.95099 4.49915 2.83496 4.49915C2.71893 4.49915 2.60765 4.54524 2.5256 4.62729C2.44355 4.70933 2.39746 4.82061 2.39746 4.93665V6.12012C2.39746 6.23615 2.44356 6.34743 2.52561 6.42947C2.60765 6.51152 2.71893 6.55761 2.83496 6.55761Z" fill="#313943" fill-opacity="0.8"/>
<path d="M23.3255 13.2628C21.8719 12.6544 20.3718 12.1638 18.8395 11.7959L19.3818 8.90645C19.5906 7.84223 19.4793 6.74002 19.062 5.73901C18.6447 4.738 17.9402 3.88307 17.0374 3.28217C15.9101 2.52843 14.429 2.46821 13.172 3.12507C12.8089 3.31021 12.4072 3.40674 11.9997 3.40674C11.5923 3.40674 11.1906 3.31021 10.8275 3.12507C9.57051 2.46824 8.08934 2.52843 6.96209 3.28217C6.05963 3.88267 5.35528 4.73705 4.93793 5.73748C4.52058 6.73791 4.40894 7.83955 4.61709 8.90337L5.15998 11.7957C3.6513 12.1581 2.17368 12.6393 0.740956 13.2349L0.674893 13.2624C0.567742 13.3069 0.482667 13.3922 0.438385 13.4994C0.394104 13.6067 0.394242 13.7271 0.438769 13.8343C0.483296 13.9414 0.568566 14.0265 0.675819 14.0708C0.783072 14.1151 0.903523 14.1149 1.01067 14.0704L1.07666 14.043C2.45325 13.4707 3.87257 13.0072 5.3216 12.6567L6.71855 20.0994C6.76894 20.3703 6.89282 20.6222 7.07665 20.8275C7.26048 21.0328 7.49719 21.1837 7.76094 21.2636C8.02468 21.3435 8.30531 21.3494 8.57218 21.2806C8.83904 21.2119 9.08188 21.0711 9.27417 20.8737C10.1478 19.9806 10.6358 18.7802 10.6331 17.5309V16.1773C10.6312 15.2716 10.9184 14.3888 11.4528 13.6575C11.5156 13.5712 11.5978 13.501 11.6929 13.4526C11.7879 13.4042 11.8931 13.379 11.9998 13.379C12.1064 13.379 12.2116 13.4042 12.3066 13.4526C12.4017 13.501 12.484 13.5712 12.5467 13.6575C13.0811 14.3888 13.3682 15.2716 13.3664 16.1773V17.5309C13.3637 18.7802 13.8517 19.9806 14.7254 20.8737C14.9176 21.071 15.1604 21.2118 15.4272 21.2806C15.694 21.3493 15.9746 21.3435 16.2383 21.2637C16.502 21.1838 16.7387 21.0331 16.9225 20.8279C17.1064 20.6227 17.2303 20.3709 17.2808 20.1001L18.6779 12.6569C20.1498 13.0128 21.591 13.4853 22.9879 14.07C23.041 14.0927 23.0981 14.1047 23.1559 14.1053C23.2137 14.1059 23.271 14.095 23.3245 14.0733C23.378 14.0516 23.4268 14.0195 23.4678 13.9789C23.5089 13.9383 23.5415 13.8899 23.5638 13.8366C23.5861 13.7833 23.5976 13.7262 23.5977 13.6684C23.5978 13.6106 23.5864 13.5534 23.5642 13.5001C23.5421 13.4467 23.5096 13.3983 23.4686 13.3575C23.4276 13.3168 23.379 13.2846 23.3255 13.2628ZM18.5224 8.74198L16.4207 19.9394C16.3996 20.0527 16.3478 20.158 16.271 20.2438C16.1941 20.3297 16.0951 20.3927 15.9849 20.4261C15.8746 20.4596 15.7572 20.462 15.6457 20.4333C15.5341 20.4045 15.4325 20.3457 15.3521 20.2631C14.6381 19.5332 14.2392 18.5521 14.2414 17.5309V16.1773C14.2436 15.0865 13.8978 14.0234 13.2542 13.1427C13.1112 12.9439 12.9227 12.7822 12.7045 12.6711C12.4863 12.56 12.2446 12.5027 11.9998 12.504C11.7549 12.5027 11.5133 12.5601 11.295 12.6711C11.0768 12.7822 10.8883 12.9439 10.7453 13.1427C10.1017 14.0234 9.75588 15.0865 9.75811 16.1773V17.5309C9.76031 18.5521 9.36142 19.5332 8.64732 20.2631C8.56688 20.3457 8.46528 20.4046 8.35363 20.4333C8.24198 20.4621 8.12459 20.4595 8.01427 20.4261C7.90396 20.3926 7.80498 20.3294 7.72816 20.2434C7.65133 20.1575 7.59962 20.052 7.57867 19.9387L5.4765 8.73891C5.30108 7.84396 5.39477 6.9171 5.74574 6.07537C6.09671 5.23363 6.68922 4.51476 7.44846 4.00953C8.30955 3.43376 9.44904 3.392 10.4223 3.90055C10.9104 4.15105 11.4511 4.28171 11.9997 4.28171C12.5484 4.28171 13.0891 4.15105 13.5772 3.90055C14.5504 3.392 15.69 3.43374 16.551 4.00953C17.3106 4.51516 17.9033 5.23458 18.2542 6.07689C18.605 6.91921 18.6984 7.84663 18.5224 8.74197L18.5224 8.74198Z" fill="#313943" fill-opacity="0.8"/>
<path d="M15.5444 6.28993C15.3825 6.18464 15.1929 6.12986 14.9998 6.13254C14.7962 6.13434 14.596 6.18514 14.4162 6.28063C13.6692 6.66641 12.8407 6.86771 12 6.86771C11.1593 6.86771 10.3307 6.66641 9.58375 6.28063C9.40389 6.18513 9.20368 6.13434 9.00004 6.13254C8.8069 6.12985 8.61731 6.18462 8.45536 6.2899C7.99335 6.59703 7.63271 7.03415 7.41894 7.54608C7.20517 8.05802 7.14787 8.62181 7.25426 9.16628L8.0444 13.3756C8.06092 13.4637 8.10408 13.5445 8.16804 13.6073C8.232 13.67 8.31368 13.7116 8.40204 13.7264C8.49039 13.7412 8.58117 13.7286 8.66209 13.6901C8.74302 13.6517 8.8102 13.5893 8.85454 13.5115C8.98435 13.2839 9.12665 13.0637 9.2808 12.8518C9.59277 12.423 10.0017 12.0741 10.4743 11.8335C10.9468 11.5929 11.4696 11.4675 11.9999 11.4675C12.5301 11.4675 13.0529 11.5929 13.5254 11.8335C13.998 12.074 14.407 12.423 14.7189 12.8517C14.8731 13.0636 15.0154 13.2839 15.1452 13.5115C15.1896 13.5894 15.2568 13.6517 15.3377 13.6901C15.4186 13.7286 15.5094 13.7412 15.5978 13.7264C15.6861 13.7116 15.7678 13.67 15.8317 13.6073C15.8957 13.5445 15.9389 13.4637 15.9554 13.3756L16.7424 9.18271L16.7455 9.16685C16.8519 8.6223 16.7947 8.05841 16.5809 7.54638C16.3672 7.03434 16.0065 6.59712 15.5444 6.28993ZM15.8865 8.9999L15.2928 12.1629C14.8955 11.6724 14.3937 11.2769 13.824 11.0052C13.2543 10.7335 12.6311 10.5925 11.9999 10.5925C11.3688 10.5925 10.7456 10.7335 10.1759 11.0052C9.60616 11.2769 9.10435 11.6724 8.70709 12.1629L8.11735 9.02099L8.11321 8.99934C8.04001 8.62409 8.07963 8.23558 8.22706 7.88283C8.3745 7.53009 8.62314 7.22894 8.94159 7.01739C8.96003 7.00955 8.98006 7.00618 9.00004 7.00755C9.0625 7.00951 9.12362 7.02615 9.17845 7.05612C10.0505 7.50727 11.0181 7.74272 12 7.74271C12.9818 7.74271 13.9494 7.50725 14.8215 7.0561C14.8763 7.02613 14.9374 7.00949 14.9998 7.00752C15.0197 7.00616 15.0397 7.0095 15.0581 7.0173C15.3767 7.2289 15.6254 7.53016 15.7728 7.88303C15.9203 8.2359 15.9598 8.62455 15.8865 8.9999Z" fill="#313943" fill-opacity="0.8"/>
</svg>
