<svg width="24" height="24" viewBox="0 0 24 24" fill="none" xmlns="http://www.w3.org/2000/svg">
  <path d="M20.8499 9.05365H20.6619C20.0679 7.32441 18.9738 5.81051 17.5183 4.70396C15.9295 3.50251 13.992 2.85242 12.0002 2.85242C10.0083 2.85242 8.0708 3.50251 6.48204 4.70396C5.02652 5.81051 3.93242 7.32441 3.33851 9.05365H3.15038C2.36898 9.05365 1.61958 9.36407 1.06705 9.9166C0.514512 10.4691 0.204102 11.2185 0.204102 11.9999C0.204102 12.7813 0.514512 13.5307 1.06705 14.0833C1.61958 14.6358 2.36898 14.9462 3.15038 14.9462H3.33851C3.93243 16.6754 5.02653 18.1893 6.48204 19.2959C8.07079 20.4973 10.0083 21.1474 12.0002 21.1474C13.9921 21.1474 15.9295 20.4973 17.5183 19.2959C18.9738 18.1893 20.0679 16.6754 20.6619 14.9462H20.8499C21.6313 14.9462 22.3807 14.6358 22.9333 14.0833C23.4858 13.5307 23.7962 12.7813 23.7962 11.9999C23.7962 11.2185 23.4858 10.4691 22.9333 9.9166C22.3807 9.36407 21.6313 9.05365 20.8499 9.05365ZM20.8499 14.0039H20.3177C20.2162 14.0039 20.1173 14.0367 20.0359 14.0974C19.9546 14.1581 19.895 14.2435 19.866 14.3408C19.3626 16.0153 18.3415 17.487 16.9492 18.5448C15.5242 19.6222 13.7866 20.2051 12.0002 20.2051C10.2137 20.2051 8.47607 19.6222 7.05109 18.5448C5.65886 17.487 4.63772 16.0152 4.13433 14.3408C4.1054 14.2435 4.0458 14.1581 3.96442 14.0974C3.88303 14.0367 3.78421 14.0039 3.68267 14.0039H3.15038C2.61889 14.0039 2.10918 13.7927 1.73336 13.4169C1.35754 13.0411 1.14641 12.5314 1.14641 11.9999C1.14641 11.4684 1.35754 10.9587 1.73336 10.5829C2.10918 10.2071 2.61889 9.99593 3.15038 9.99593H3.68267C3.78421 9.99593 3.88303 9.96313 3.96442 9.90241C4.0458 9.8417 4.1054 9.75632 4.13433 9.65899C4.6377 7.98456 5.65885 6.51276 7.05109 5.45504C8.42199 4.41164 10.0891 3.83099 11.8115 3.79697C11.871 3.82306 11.9352 3.83653 12.0002 3.83651C12.3013 3.83652 12.5957 3.92582 12.8461 4.09314C13.0965 4.26045 13.2916 4.49826 13.4069 4.77649C13.5221 5.05472 13.5523 5.36087 13.4935 5.65623C13.4348 5.9516 13.2897 6.22291 13.0768 6.43585C12.8638 6.64879 12.5925 6.79381 12.2972 6.85256C12.0018 6.91131 11.6957 6.88115 11.4174 6.76591C11.1392 6.65066 10.9014 6.4555 10.7341 6.2051C10.5668 5.9547 10.4775 5.66031 10.4775 5.35916C10.4775 5.2342 10.4278 5.11436 10.3395 5.02601C10.2511 4.93765 10.1313 4.88801 10.0063 4.88801C9.88136 4.88801 9.76153 4.93765 9.67317 5.02601C9.58481 5.11436 9.53517 5.2342 9.53517 5.35916C9.53485 5.74056 9.62305 6.11683 9.79281 6.45837C9.96258 6.7999 10.2093 7.09738 10.5135 7.32741C10.8177 7.55743 11.1712 7.71372 11.5461 7.78398C11.9209 7.85425 12.307 7.83656 12.6739 7.73232C13.0408 7.62808 13.3784 7.44012 13.6604 7.18324C13.9423 6.92637 14.1607 6.60757 14.2986 6.25195C14.4364 5.89632 14.4898 5.51356 14.4546 5.13379C14.4195 4.75402 14.2966 4.38759 14.0958 4.06334C15.1291 4.33537 16.0987 4.80829 16.9492 5.45508C18.3415 6.51282 19.3626 7.9846 19.8661 9.65902C19.895 9.75635 19.9546 9.84173 20.036 9.90245C20.1174 9.96317 20.2162 9.99597 20.3177 9.99596H20.85C21.3814 9.99596 21.8912 10.2071 22.267 10.5829C22.6428 10.9587 22.8539 11.4684 22.8539 11.9999C22.8539 12.5314 22.6428 13.0411 22.267 13.417C21.8912 13.7928 21.3814 14.0039 20.85 14.0039H20.8499Z"/>
  <path d="M17.8264 12.7476C15.9518 12.1043 13.9824 11.7806 12.0005 11.7902C10.0187 11.7806 8.04929 12.1042 6.17472 12.7476C6.06604 12.7854 5.97495 12.8617 5.91865 12.962C5.86234 13.0624 5.84472 13.1799 5.86909 13.2923C6.17377 14.6919 6.94812 15.9452 8.0635 16.8439C9.17888 17.7425 10.5682 18.2326 12.0005 18.2326C13.4329 18.2326 14.8222 17.7425 15.9376 16.8439C17.0529 15.9452 17.8273 14.6919 18.132 13.2923C18.1563 13.1799 18.1387 13.0624 18.0824 12.962C18.0261 12.8617 17.935 12.7854 17.8264 12.7476ZM12.9829 12.7592V14.1101H11.0182V12.7592C11.3432 12.7415 11.6706 12.7327 12.0005 12.7326C12.3303 12.7326 12.6578 12.7414 12.9829 12.7592ZM12.0005 17.2941C10.8564 17.2888 9.74381 16.9179 8.82541 16.2355C7.90701 15.553 7.23086 14.5948 6.89572 13.5008C7.9311 13.1743 8.9964 12.9517 10.0759 12.8361V14.5813C10.0759 14.7062 10.1255 14.8261 10.2139 14.9144C10.3022 15.0028 10.4221 15.0524 10.547 15.0524H13.454C13.579 15.0524 13.6988 15.0028 13.7872 14.9144C13.8756 14.8261 13.9252 14.7062 13.9252 14.5813V12.8361C15.0047 12.9517 16.07 13.1743 17.1054 13.5008C16.7702 14.5948 16.0941 15.553 15.1757 16.2355C14.2573 16.9179 13.1447 17.2888 12.0005 17.2941Z"/>
</svg>
