<svg width="24" height="24" viewBox="0 0 24 24" fill="none" xmlns="http://www.w3.org/2000/svg">
<path d="M23.5278 13.2853C22.0482 12.666 20.5213 12.1667 18.9617 11.7922L19.5137 8.85116C19.7261 7.76793 19.6128 6.64605 19.1881 5.62716C18.7634 4.60827 18.0463 3.73808 17.1274 3.12645C15.98 2.35925 14.4724 2.29796 13.1929 2.96655C12.8234 3.15499 12.4145 3.25324 11.9998 3.25324C11.585 3.25324 11.1761 3.15499 10.8066 2.96655C9.52714 2.29798 8.01953 2.35925 6.87214 3.12645C5.95357 3.73767 5.23664 4.60731 4.81184 5.6256C4.38703 6.6439 4.2734 7.76521 4.48527 8.84802L5.03785 11.7921C3.50224 12.1609 1.99823 12.6507 0.539919 13.2569L0.472676 13.2849C0.363612 13.3302 0.277018 13.417 0.231946 13.5261C0.186873 13.6353 0.187013 13.7579 0.232336 13.867C0.277658 13.9761 0.36445 14.0626 0.473619 14.1077C0.582787 14.1528 0.705389 14.1526 0.814454 14.1073L0.881618 14.0794C2.28279 13.4969 3.72746 13.0251 5.20236 12.6684L6.62426 20.244C6.67555 20.5197 6.80164 20.7761 6.98875 20.9851C7.17586 21.1941 7.4168 21.3476 7.68526 21.4289C7.95371 21.5103 8.23935 21.5163 8.51098 21.4463C8.78261 21.3763 9.02979 21.233 9.22552 21.0321C10.1147 20.1231 10.6115 18.9013 10.6087 17.6297V16.2519C10.6068 15.3299 10.8991 14.4314 11.443 13.687C11.5069 13.5992 11.5907 13.5278 11.6874 13.4785C11.7842 13.4293 11.8912 13.4036 11.9998 13.4036C12.1083 13.4036 12.2154 13.4293 12.3121 13.4785C12.4089 13.5278 12.4926 13.5992 12.5565 13.687C13.1004 14.4314 13.3927 15.3299 13.3908 16.2519V17.6297C13.3881 18.9013 13.8848 20.1231 14.7741 21.0321C14.9697 21.233 15.2169 21.3762 15.4884 21.4462C15.76 21.5162 16.0456 21.5103 16.314 21.429C16.5824 21.3478 16.8233 21.1943 17.0104 20.9855C17.1976 20.7766 17.3237 20.5204 17.3752 20.2447L18.7971 12.6686C20.2953 13.0308 21.7623 13.5118 23.1842 14.1069C23.2382 14.1301 23.2963 14.1423 23.3551 14.1429C23.4139 14.1434 23.4722 14.1324 23.5267 14.1103C23.5812 14.0882 23.6308 14.0555 23.6726 14.0142C23.7144 13.9729 23.7476 13.9236 23.7703 13.8694C23.793 13.8151 23.8047 13.7569 23.8048 13.6981C23.8049 13.6393 23.7933 13.5811 23.7708 13.5268C23.7482 13.4725 23.7151 13.4232 23.6734 13.3817C23.6317 13.3403 23.5822 13.3075 23.5278 13.2853ZM16.4996 20.0811C16.4782 20.1964 16.4255 20.3036 16.3472 20.391C16.269 20.4784 16.1683 20.5426 16.056 20.5766C15.9438 20.6106 15.8244 20.6131 15.7108 20.5838C15.5972 20.5546 15.4939 20.4946 15.412 20.4106C14.6852 19.6677 14.2792 18.669 14.2814 17.6297V16.2519C14.2837 15.1416 13.9317 14.0595 13.2766 13.163C13.131 12.9607 12.9392 12.7962 12.7171 12.6831C12.495 12.57 12.249 12.5117 11.9998 12.513C11.7505 12.5117 11.5046 12.57 11.2825 12.6831C11.0604 12.7962 10.8685 12.9607 10.7229 13.163C10.0678 14.0595 9.71582 15.1416 9.71809 16.2519V17.6297C9.72033 18.669 9.31431 19.6677 8.58747 20.4107C8.50559 20.4947 8.40217 20.5546 8.28853 20.5839C8.17489 20.6131 8.0554 20.6106 7.94312 20.5765C7.83084 20.5424 7.73009 20.4781 7.65189 20.3906C7.57369 20.3031 7.52106 20.1958 7.49973 20.0804L5.36003 8.68063C5.18148 7.7697 5.27684 6.82629 5.63407 5.96952C5.99131 5.11276 6.5944 4.38105 7.3672 3.8668C8.24366 3.28075 9.4035 3.23824 10.3941 3.75588C10.891 4.01085 11.4413 4.14384 11.9998 4.14384C12.5582 4.14384 13.1086 4.01085 13.6054 3.75588C14.5959 3.23824 15.7559 3.28072 16.6323 3.8668C17.4055 4.38145 18.0087 5.11371 18.3659 5.97106C18.723 6.82842 18.818 7.77239 18.6389 8.68372L16.4996 20.0811Z" fill="#313943" fill-opacity="0.8"/>
<path d="M15.6075 6.18795C15.4427 6.08078 15.2497 6.02502 15.0531 6.02775C14.8459 6.02958 14.6421 6.08128 14.4591 6.17848C13.6988 6.57115 12.8555 6.77605 11.9997 6.77605C11.144 6.77605 10.3007 6.57115 9.54034 6.17848C9.35727 6.08128 9.15348 6.02957 8.94621 6.02775C8.74962 6.02501 8.55664 6.08076 8.3918 6.18792C7.92155 6.50053 7.55446 6.94546 7.33687 7.46653C7.11929 7.9876 7.06096 8.56146 7.16926 9.11566L7.9735 13.4002C7.99032 13.4898 8.03425 13.5721 8.09935 13.6359C8.16445 13.6998 8.24759 13.7421 8.33752 13.7572C8.42746 13.7723 8.51986 13.7594 8.60223 13.7203C8.6846 13.6812 8.75297 13.6177 8.79811 13.5385C8.93024 13.3068 9.07508 13.0826 9.23198 12.867C9.54952 12.4305 9.96578 12.0754 10.4468 11.8305C10.9278 11.5856 11.4598 11.458 11.9996 11.458C12.5393 11.4579 13.0714 11.5856 13.5524 11.8305C14.0334 12.0753 14.4497 12.4305 14.7672 12.8669C14.9241 13.0826 15.069 13.3068 15.2011 13.5385C15.2463 13.6177 15.3147 13.6812 15.397 13.7203C15.4794 13.7594 15.5718 13.7723 15.6617 13.7572C15.7517 13.7421 15.8348 13.6998 15.8999 13.636C15.965 13.5721 16.0089 13.4898 16.0257 13.4002L16.8269 9.13238L16.8299 9.11624C16.9383 8.56197 16.8801 7.98801 16.6625 7.46683C16.4449 6.94565 16.0778 6.50062 15.6075 6.18795ZM15.9557 8.94631L15.3513 12.1658C14.947 11.6666 14.4362 11.264 13.8563 10.9874C13.2764 10.7109 12.6421 10.5674 11.9997 10.5674C11.3572 10.5674 10.7229 10.7109 10.143 10.9874C9.56315 11.264 9.05238 11.6666 8.64802 12.1658L8.04776 8.96778L8.04355 8.94573C7.96904 8.56379 8.00936 8.16834 8.15943 7.80929C8.30949 7.45025 8.56257 7.14372 8.88672 6.9284C8.90548 6.92042 8.92587 6.91698 8.94621 6.91838C9.00978 6.92038 9.07199 6.93732 9.1278 6.96782C10.0155 7.42702 11.0003 7.66667 11.9997 7.66667C12.9991 7.66666 13.984 7.427 14.8716 6.96779C14.9274 6.93729 14.9896 6.92035 15.0531 6.91835C15.0734 6.91696 15.0937 6.92037 15.1125 6.9283C15.4367 7.14368 15.6899 7.45032 15.8399 7.80949C15.99 8.16867 16.0303 8.56426 15.9557 8.94631Z" fill="#313943" fill-opacity="0.8"/>
</svg>
