<svg width="24" height="24" viewBox="0 0 24 24" fill="none" xmlns="http://www.w3.org/2000/svg">
<path d="M19.3645 10.0747C18.9711 9.09749 18.316 8.24765 17.4712 7.61851C17.3968 7.56308 17.3065 7.53316 17.2137 7.5332C17.1209 7.53325 17.0307 7.56327 16.9563 7.61878L15.2912 8.43427C14.8722 8.6393 14.5107 8.94516 14.2391 9.32439C13.6427 10.1603 12.8474 10.6206 11.9997 10.6206C11.1521 10.6206 10.3568 10.1603 9.7605 9.32444C9.48889 8.94521 9.12739 8.63934 8.70842 8.43427L7.04317 7.61873C6.96882 7.56325 6.87855 7.53326 6.78579 7.53322C6.69302 7.53318 6.60272 7.5631 6.52834 7.61852C5.68347 8.24766 5.02836 9.09749 4.63497 10.0747C4.22613 11.0927 4.12143 12.2075 4.33358 13.2838L6.06928 22.19C6.15826 22.6465 6.3974 23.0601 6.74864 23.365C7.09988 23.6699 7.54303 23.8485 8.00751 23.8724C8.472 23.8963 8.93114 23.7641 9.31181 23.4969C9.69249 23.2297 9.97283 22.8428 10.1082 22.3978L11.1768 18.885C11.2305 18.7085 11.3395 18.554 11.4876 18.4443C11.6358 18.3345 11.8153 18.2752 11.9997 18.2752C12.1841 18.2752 12.3636 18.3345 12.5118 18.4443C12.6599 18.554 12.7689 18.7085 12.8225 18.885L13.8912 22.3978C14.0266 22.8428 14.3069 23.2297 14.6876 23.4969C15.0682 23.7641 15.5274 23.8963 15.9919 23.8724C16.4564 23.8485 16.8995 23.6699 17.2507 23.365C17.602 23.0601 17.8411 22.6465 17.9301 22.19L19.6658 13.2839C19.878 12.2075 19.7733 11.0927 19.3645 10.0747ZM18.8207 13.1191L17.085 22.0253C17.0327 22.2931 16.8924 22.5358 16.6863 22.7147C16.4802 22.8936 16.2202 22.9984 15.9477 23.0124C15.6752 23.0264 15.4058 22.9489 15.1824 22.7921C14.959 22.6353 14.7946 22.4083 14.7151 22.1472L13.6465 18.6344C13.5391 18.2813 13.3211 17.9721 13.0246 17.7524C12.7281 17.5327 12.3688 17.4141 11.9998 17.4141C11.6307 17.4141 11.2715 17.5327 10.975 17.7524C10.6785 17.9721 10.4605 18.2813 10.3531 18.6344L9.28442 22.1472C9.20499 22.4083 9.0405 22.6353 8.81714 22.7921C8.59377 22.9489 8.32437 23.0264 8.05183 23.0124C7.77929 22.9984 7.51927 22.8936 7.31317 22.7147C7.10708 22.5358 6.96676 22.2931 6.91455 22.0253L5.17884 13.119C5.00895 12.2677 5.07303 11.3862 5.36426 10.5683C5.65549 9.75045 6.16299 9.02685 6.83274 8.47447L8.3297 9.20761C8.62031 9.34967 8.87109 9.56166 9.05955 9.82456C9.81094 10.8777 10.8826 11.4817 11.9998 11.4817C13.117 11.4817 14.1887 10.8777 14.9401 9.82453C15.1285 9.56165 15.3793 9.34967 15.6699 9.20761L17.1668 8.47453C17.8366 9.0269 18.3441 9.7505 18.6353 10.5684C18.9265 11.3862 18.9906 12.2677 18.8207 13.1191Z" fill="#313943" fill-opacity="0.8"/>
<path d="M6.42238 5.8816C6.46513 5.9534 6.52787 6.0112 6.60292 6.04795L8.3294 6.89345C8.61998 7.03554 8.87075 7.24752 9.05922 7.5104C9.81061 8.56359 10.8823 9.16759 11.9994 9.16759C13.1166 9.16759 14.1884 8.56353 14.9398 7.51038C15.1282 7.24749 15.379 7.03551 15.6696 6.89345L17.396 6.04795C17.471 6.0112 17.5338 5.9534 17.5765 5.8816L17.5886 5.86126C17.6431 5.76985 17.6618 5.6615 17.6411 5.55713C17.6203 5.45275 17.5617 5.35975 17.4765 5.29605C17.3863 5.22862 17.3092 5.1738 17.2338 5.1234C16.2458 4.46274 15.0095 4.31048 13.8376 4.70409C13.8288 4.70645 13.8201 4.70919 13.8114 4.71213C13.6124 4.78051 13.4189 4.86375 13.2324 4.96115C12.8506 5.15592 12.4281 5.25747 11.9995 5.25747C11.5709 5.25748 11.1483 5.15595 10.7665 4.9612C10.6148 4.88188 10.4583 4.81197 10.298 4.75185C10.2959 4.75101 10.2937 4.75023 10.2915 4.74943L10.2021 4.71758C9.0183 4.30652 7.76561 4.45447 6.76506 5.12338C6.68959 5.17389 6.61248 5.2287 6.52243 5.29603C6.43719 5.35973 6.37856 5.45273 6.35784 5.5571C6.33713 5.66148 6.35581 5.76982 6.41027 5.86124L6.42238 5.8816ZM9.91634 5.52993L9.99909 5.55942C10.1252 5.60686 10.2483 5.66196 10.3677 5.7244C10.8726 5.98346 11.432 6.11858 11.9995 6.11858C12.5669 6.11858 13.1263 5.98346 13.6312 5.7244C13.7721 5.65078 13.9181 5.58735 14.068 5.53461C14.0758 5.5324 14.0835 5.52999 14.0912 5.52736C14.8227 5.26639 15.6264 5.29508 16.3374 5.60755L15.2909 6.1201C14.8719 6.32514 14.5104 6.63099 14.2388 7.01022C13.6424 7.8461 12.8471 8.30646 11.9995 8.30646C11.1518 8.30646 10.3566 7.84616 9.76022 7.01028C9.48861 6.63104 9.12711 6.32517 8.70814 6.1201L7.66144 5.60751C8.37524 5.29314 9.18262 5.26536 9.91633 5.52993H9.91634Z" fill="#313943" fill-opacity="0.8"/>
<path d="M11.676 3.88345C11.7165 3.92964 11.7663 3.96666 11.8222 3.99203C11.8781 4.01739 11.9387 4.03051 12.0001 4.03051C12.0615 4.03051 12.1222 4.01739 12.1781 3.99203C12.2339 3.96666 12.2838 3.92964 12.3242 3.88345L13.4894 2.55142C13.5646 2.46547 13.6026 2.35317 13.595 2.23923C13.5874 2.12529 13.5348 2.01904 13.4488 1.94385C13.3629 1.86866 13.2506 1.8307 13.1367 1.83831C13.0227 1.84592 12.9165 1.89848 12.8413 1.98443L12.4307 2.45381V0.555311C12.4307 0.441121 12.3853 0.331607 12.3046 0.250863C12.2238 0.170118 12.1143 0.124756 12.0001 0.124756C11.8859 0.124756 11.7764 0.170118 11.6957 0.250863C11.6149 0.331607 11.5696 0.441121 11.5696 0.555311V2.45381L11.1589 1.98442C11.0838 1.89847 10.9775 1.84591 10.8636 1.8383C10.7496 1.83069 10.6373 1.86866 10.5514 1.94384C10.4654 2.01903 10.4129 2.12529 10.4053 2.23923C10.3976 2.35317 10.4356 2.46547 10.5108 2.55142L11.676 3.88345Z" fill="#313943" fill-opacity="0.8"/>
</svg>
