<svg width="550" height="494" viewBox="0 0 550 494" fill="none" xmlns="http://www.w3.org/2000/svg">
<g>
<path d="M1076.64 -20.0298C905.412 -61.7754 739.037 -118.006 520.244 187.086C321.895 463.669 -0.22238 416.688 -106.231 412.337" stroke="white" stroke-opacity="0.2"/>
<path d="M1056.47 -45.7499C838.931 -184.934 732.72 -115.605 510.8 172.243C306.037 437.837 92.7312 396.878 -55.0569 357.281" stroke="white" stroke-opacity="0.2"/>
<path d="M1313.89 345.353C990.024 11.5542 794.259 -77.7039 518.987 225.35C234.038 539.055 132.769 608.497 -185.6 485.784" stroke="white" stroke-opacity="0.2"/>
<path fill-rule="evenodd" clip-rule="evenodd" d="M457.653 312.876C491.248 315.768 472.259 270.228 498.551 266.614C470.799 325.888 500.742 373.595 519 421.303C500.012 430.7 488.326 385.161 469.338 394.558C459.844 414.075 486.136 432.869 486.136 456C421.867 450.217 404.339 328.779 437.204 263C448.159 276.011 432.822 313.599 457.653 312.876Z" fill="#1661BA"/>
<path fill-rule="evenodd" clip-rule="evenodd" d="M305 501.748V498.151C318.142 449.95 367.06 421.892 342.236 360.022C360.489 367.216 353.187 398.871 370.71 406.065C405.025 407.504 393.344 365.777 395.534 337C430.579 408.942 397.724 525.489 342.236 537C340.776 512.54 368.52 498.871 354.648 475.13C322.523 469.374 333.474 503.906 305 501.748" fill="white"/>
<path fill-rule="evenodd" clip-rule="evenodd" d="M469.671 271.377C475.443 277.888 475.443 299.592 469.671 306.103C433.593 314.061 442.973 266.313 469.671 271.377Z" fill="#1661BA"/>
<path fill-rule="evenodd" clip-rule="evenodd" d="M375.01 360C391.052 362.146 394.698 380.747 387.406 394.34C373.552 397.202 369.906 390.047 362.614 386.47C359.698 371.447 367.719 365.723 375.01 360Z" fill="white"/>
</g>
</svg>
