<svg width="487" height="457" viewBox="0 0 487 457" fill="none" xmlns="http://www.w3.org/2000/svg">
<g>
<path d="M817.815 58.7669C692.507 28.2164 570.749 -12.9346 410.63 210.34C265.473 412.751 29.7383 378.369 -47.8421 375.185" stroke="white" stroke-opacity="0.2"/>
<path d="M803.056 39.9444C643.854 -61.9145 566.127 -11.1772 403.719 199.478C253.868 393.847 97.7649 363.872 -10.3904 334.894" stroke="white" stroke-opacity="0.2"/>
<path d="M991.44 326.164C754.428 81.8809 611.162 16.5594 409.71 238.342C201.177 467.921 127.066 518.74 -105.926 428.935" stroke="white" stroke-opacity="0.2"/>
<path fill-rule="evenodd" clip-rule="evenodd" d="M389.653 273.876C423.248 276.768 404.259 231.228 430.551 227.614C402.799 286.888 432.742 334.595 451 382.303C432.012 391.7 420.326 346.161 401.338 355.558C391.844 375.075 418.136 393.869 418.136 417C353.867 411.217 336.339 289.779 369.204 224C380.159 237.011 364.822 274.599 389.653 273.876Z" fill="#1661BA"/>
<path fill-rule="evenodd" clip-rule="evenodd" d="M237 462.748V459.151C250.142 410.95 299.06 382.892 274.236 321.022C292.489 328.216 285.187 359.871 302.71 367.065C337.025 368.504 325.344 326.777 327.534 298C362.579 369.942 329.724 486.489 274.236 498C272.776 473.54 300.52 459.871 286.648 436.13C254.523 430.374 265.474 464.906 237 462.748" fill="white"/>
<path fill-rule="evenodd" clip-rule="evenodd" d="M401.671 232.377C407.443 238.888 407.443 260.592 401.671 267.103C365.593 275.061 374.973 227.313 401.671 232.377Z" fill="#1661BA"/>
<path fill-rule="evenodd" clip-rule="evenodd" d="M307.01 321C323.052 323.146 326.698 341.747 319.406 355.34C305.552 358.202 301.906 351.047 294.614 347.47C291.698 332.447 299.719 326.723 307.01 321Z" fill="white"/>
</g>
</svg>
