<svg width="335" height="433" viewBox="0 0 335 433" fill="none" xmlns="http://www.w3.org/2000/svg">
<g>
<path d="M697.507 37.863C591.584 12.0386 488.662 -22.7462 353.314 165.988C230.613 337.085 31.347 308.022 -34.2315 305.331" stroke="white" stroke-opacity="0.2"/>
<path d="M685.031 21.9521C550.458 -64.1491 484.755 -21.261 347.472 156.805C220.803 321.105 88.8495 295.767 -2.57404 271.272" stroke="white" stroke-opacity="0.2"/>
<path d="M844.271 263.894C643.926 57.4013 522.823 2.18519 352.536 189.658C176.263 383.72 113.617 426.678 -83.3304 350.766" stroke="white" stroke-opacity="0.2"/>
<path fill-rule="evenodd" clip-rule="evenodd" d="M188.921 266.831C216.345 269.199 200.844 231.918 222.307 228.959C199.652 277.483 224.095 316.539 239 355.596C223.499 363.288 213.96 326.007 198.46 333.7C190.709 349.678 212.172 365.064 212.172 384C159.708 379.266 145.4 279.85 172.228 226C181.17 236.652 168.651 267.423 188.921 266.831Z" fill="#1661BA"/>
<path fill-rule="evenodd" clip-rule="evenodd" d="M65 420.27V417.338C75.5136 378.054 114.648 355.187 94.7886 304.763C109.391 310.626 103.55 336.424 117.568 342.288C145.02 343.46 135.675 309.453 137.427 286C165.463 344.633 139.179 439.619 94.7886 449C93.6204 429.065 115.816 417.924 104.718 398.576C79.0182 393.885 87.7795 422.029 65 420.27" fill="white"/>
<path fill-rule="evenodd" clip-rule="evenodd" d="M198.444 233.293C203.185 238.358 203.185 255.238 198.444 260.302C168.809 266.492 176.514 229.355 198.444 233.293Z" fill="#1661BA"/>
<path fill-rule="evenodd" clip-rule="evenodd" d="M122.216 306C136.045 307.778 139.188 323.19 132.902 334.453C120.959 336.824 117.816 330.896 111.53 327.933C109.015 315.484 115.93 310.742 122.216 306Z" fill="white"/>
</g>
</svg>
