<svg width="15" height="9" viewBox="0 0 15 9" fill="none" xmlns="http://www.w3.org/2000/svg">
  <path d="M0.171855 4.08524C0.172031 4.08506 0.172178 4.08486 0.172383 4.08468L3.23402 1.03781C3.46339 0.809559 3.83438 0.810408 4.06269 1.0398C4.29097 1.26917 4.29009 1.64015 4.06072 1.86843L2.00514 3.91406H14.4141C14.7377 3.91406 15 4.17638 15 4.49999C15 4.82361 14.7377 5.08593 14.4141 5.08593H2.00517L4.06069 7.13155C4.29006 7.35984 4.29094 7.73082 4.06266 7.96019C3.83435 8.18961 3.46333 8.1904 3.23399 7.96218L0.172354 4.91531C0.172177 4.91513 0.172031 4.91493 0.171825 4.91475C-0.0576563 4.68571 -0.0569239 4.31352 0.171855 4.08524Z"/>
</svg>
