<svg width="24" height="24" viewBox="0 0 24 24" fill="none" xmlns="http://www.w3.org/2000/svg">
<path d="M17.5997 0.804465L14.695 0.799805C11.4316 0.799805 9.32265 2.96353 9.32265 6.31247V8.85418H6.40206C6.14968 8.85418 5.94531 9.05879 5.94531 9.31116V12.9938C5.94531 13.2462 6.14992 13.4506 6.40206 13.4506H9.32265V22.7431C9.32265 22.9954 9.52702 23.1998 9.77939 23.1998H13.5899C13.8423 23.1998 14.0467 22.9952 14.0467 22.7431V13.4506H17.4615C17.7139 13.4506 17.9183 13.2462 17.9183 12.9938L17.9197 9.31116C17.9197 9.18999 17.8714 9.07394 17.7859 8.98818C17.7004 8.90242 17.5839 8.85418 17.4627 8.85418H14.0467V6.69955C14.0467 5.66394 14.2935 5.13821 15.6425 5.13821L17.5993 5.13751C17.8514 5.13751 18.0558 4.93291 18.0558 4.68077V1.26121C18.0558 1.0093 17.8516 0.804931 17.5997 0.804465Z"/>
</svg>
