<svg width="24" height="24" viewBox="0 0 24 24" fill="none" xmlns="http://www.w3.org/2000/svg">
<path d="M17.019 0.799805H6.9822C3.57377 0.799805 0.800781 3.57292 0.800781 6.98136V17.0181C0.800781 20.4267 3.57377 23.1997 6.9822 23.1997H17.019C20.4277 23.1997 23.2006 20.4266 23.2006 17.0181V6.98136C23.2008 3.57292 20.4277 0.799805 17.019 0.799805ZM21.2134 17.0181C21.2134 19.3308 19.3318 21.2122 17.0191 21.2122H6.9822C4.66963 21.2124 2.78821 19.3308 2.78821 17.0181V6.98136C2.78821 4.66879 4.66963 2.78723 6.9822 2.78723H17.019C19.3317 2.78723 21.2132 4.66879 21.2132 6.98136V17.0181H21.2134Z"/>
<path d="M12.0004 6.22852C8.81773 6.22852 6.22852 8.81773 6.22852 12.0004C6.22852 15.1829 8.81773 17.772 12.0004 17.772C15.1831 17.772 17.7723 15.1829 17.7723 12.0004C17.7723 8.81773 15.1831 6.22852 12.0004 6.22852ZM12.0004 15.7845C9.91373 15.7845 8.21594 14.0869 8.21594 12.0003C8.21594 9.91347 9.9136 8.21581 12.0004 8.21581C14.0872 8.21581 15.7848 9.91347 15.7848 12.0003C15.7848 14.0869 14.0871 15.7845 12.0004 15.7845Z"/>
<path d="M18.0141 4.54297C17.6312 4.54297 17.255 4.69799 16.9846 4.9696C16.7129 5.23989 16.5566 5.61618 16.5566 6.00041C16.5566 6.38346 16.713 6.75961 16.9846 7.03122C17.2549 7.30151 17.6312 7.45786 18.0141 7.45786C18.3983 7.45786 18.7733 7.30151 19.0449 7.03122C19.3165 6.75961 19.4715 6.38332 19.4715 6.00041C19.4715 5.61618 19.3165 5.23989 19.0449 4.9696C18.7746 4.69799 18.3983 4.54297 18.0141 4.54297Z"/>
</svg>
