<svg width="18" height="18" viewBox="0 0 18 18" fill="none" xmlns="http://www.w3.org/2000/svg">
  <path d="M12.4526 8.8875L10.5919 4.1925L9.02287 6.9375L7.45387 4.1925L5.59312 8.889H5.05537V9.59475H7.85737V8.889H7.44263L7.84613 7.72275L9.02287 9.65025L10.1996 7.72275L10.6031 8.889H10.1884V9.59475H13.0016V8.889L12.4526 8.8875ZM16.4539 7.4535C16.4544 6.47455 16.2619 5.50511 15.8875 4.60059C15.5131 3.69606 14.9641 2.8742 14.2719 2.18198C13.5797 1.48976 12.7578 0.94076 11.8533 0.566361C10.9488 0.191962 9.97932 -0.000491954 9.00037 9.44386e-07C4.88737 9.44386e-07 1.54688 3.33975 1.54688 7.4535C1.54688 9.516 2.38762 11.376 3.73237 12.7208C3.81658 12.8057 3.92415 12.8637 4.04141 12.8873C4.15866 12.911 4.2803 12.8992 4.39085 12.8536C4.5014 12.8079 4.59588 12.7304 4.66226 12.6309C4.72863 12.5314 4.76392 12.4144 4.76362 12.2948C4.76388 12.1313 4.69944 11.9744 4.58438 11.8582C3.41946 10.6886 2.76663 9.10428 2.76937 7.4535C2.76937 4.0125 5.55937 1.2105 9.00037 1.2105C12.4414 1.2105 15.2434 4.0125 15.2434 7.4535C15.2452 8.27371 15.0847 9.08617 14.7712 9.84407C14.4576 10.602 13.9972 11.2903 13.4164 11.8695L8.14838 17.1368L9.00037 18L14.2796 12.7208C14.9713 12.0294 15.5195 11.2082 15.8927 10.3042C16.2658 9.40026 16.4565 8.43144 16.4539 7.4535Z" fill="white"/>
</svg>
