<svg width="18" height="18" viewBox="0 0 18 18" fill="none" xmlns="http://www.w3.org/2000/svg">
  <g>
    <path d="M11.6803 12.392L13.0663 11.006C13.2518 10.8204 13.4877 10.6934 13.7447 10.6406C14.0017 10.5878 14.2686 10.6116 14.5123 10.709L16.2002 11.3847C16.449 11.4842 16.6623 11.656 16.8125 11.8779C16.9627 12.0998 17.043 12.3616 17.043 12.6296V15.6992C17.0434 15.8817 17.0066 16.0623 16.9348 16.23C16.863 16.3977 16.7578 16.549 16.6255 16.6747C16.4932 16.8003 16.3366 16.8976 16.1654 16.9607C15.9942 17.0237 15.8119 17.0511 15.6297 17.0413C3.798 16.305 1.40839 6.2837 0.964743 2.44621C0.943256 2.2586 0.961732 2.06857 1.01895 1.88861C1.07618 1.70866 1.17085 1.54286 1.29675 1.40212C1.42264 1.26137 1.57691 1.14888 1.7494 1.07203C1.92189 0.995187 2.1087 0.955731 2.29753 0.956258H5.3127C5.58066 0.95625 5.84248 1.03653 6.06438 1.18674C6.28628 1.33695 6.45808 1.55021 6.55762 1.799L7.23268 3.48695C7.3301 3.73059 7.35389 3.99747 7.30109 4.25451C7.2483 4.51154 7.12125 4.74744 6.93568 4.93296L5.54968 6.31896C5.54968 6.31896 6.31817 11.7219 11.6803 12.392Z"/>
    <path d="M15.8064 7.14375V5.90625H12.9689L17.0439 1.83117L16.169 0.956253L12.0939 5.03134V2.19375H10.8564V7.14375H15.8064Z"/>
  </g>
</svg>
