<svg width="24" height="24" viewBox="0 0 24 24" fill="none" xmlns="http://www.w3.org/2000/svg">
  <path d="M11.9994 0C7.12783 0 3.16406 3.96377 3.16406 8.83583C3.16406 10.1067 3.42417 11.32 3.93677 12.4425C6.14586 17.2765 10.3813 22.3802 11.6271 23.829C11.7204 23.9374 11.8565 23.9998 11.9997 23.9998C12.1428 23.9998 12.2789 23.9374 12.3723 23.829C13.6175 22.3804 17.853 17.277 20.0628 12.4425C20.5756 11.32 20.8355 10.1067 20.8355 8.83583C20.835 3.96377 16.8712 0 11.9994 0ZM11.9994 13.4252C9.46881 13.4252 7.4098 11.3662 7.4098 8.83559C7.4098 6.30475 9.46881 4.24574 11.9994 4.24574C14.53 4.24574 16.589 6.30475 16.589 8.83559C16.5893 11.3662 14.5302 13.4252 11.9994 13.4252Z"/>
</svg>
