<svg width="16" height="16" viewBox="0 0 16 16" fill="none" xmlns="http://www.w3.org/2000/svg">
  <path fill-rule="evenodd" clip-rule="evenodd" d="M15.3425 14.0078L12.0487 10.7141C12.8518 9.63608 13.3284 8.29996 13.3284 6.85482C13.3284 3.28474 10.4246 0.380859 6.85466 0.380859C3.28464 0.380859 0.380859 3.28474 0.380859 6.85482C0.380859 10.4247 3.28467 13.3283 6.85466 13.3283C8.29973 13.3283 9.63591 12.8518 10.714 12.0487L14.0077 15.3424C14.192 15.5268 14.4343 15.619 14.6752 15.619C14.9161 15.619 15.1583 15.5268 15.3426 15.3425C15.7111 14.9739 15.7111 14.3764 15.3425 14.0078ZM2.26842 6.85482C2.26842 4.32619 4.32613 2.26842 6.85466 2.26842C9.38311 2.26842 11.4408 4.32618 11.4408 6.85482C11.4408 9.3832 9.38314 11.4408 6.85466 11.4408C4.3261 11.4408 2.26842 9.38319 2.26842 6.85482Z"/>
</svg>
