<svg width="24" height="24" viewBox="0 0 24 24" fill="none" xmlns="http://www.w3.org/2000/svg">
<path d="M21.1596 7.19548C21.1752 7.40548 21.1752 7.61428 21.1752 7.82308C21.1752 14.2131 16.3116 21.5763 7.4232 21.5763C4.6848 21.5763 2.1408 20.7831 0 19.4055C0.3888 19.4499 0.7632 19.4655 1.1676 19.4655C3.34319 19.4707 5.45717 18.7432 7.1688 17.4003C6.16011 17.382 5.18229 17.0492 4.37189 16.4484C3.56148 15.8475 2.95894 15.0086 2.6484 14.0487C2.9472 14.0931 3.2472 14.1231 3.5616 14.1231C3.9948 14.1231 4.4304 14.0631 4.8348 13.9587C3.74011 13.7377 2.75577 13.1443 2.04914 12.2795C1.34252 11.4147 0.957232 10.3319 0.9588 9.21508V9.15508C1.6032 9.51388 2.3508 9.73828 3.1428 9.76827C2.47931 9.32738 1.93526 8.7291 1.55921 8.02682C1.18315 7.32455 0.986776 6.5401 0.9876 5.74348C0.9876 4.84588 1.2264 4.02268 1.6452 3.30508C2.85977 4.7991 4.3746 6.02135 6.0916 6.89267C7.8086 7.76398 9.68947 8.26493 11.6124 8.36308C11.538 8.00308 11.4924 7.62988 11.4924 7.25548C11.4921 6.62063 11.6169 5.99195 11.8597 5.40536C12.1025 4.81878 12.4585 4.2858 12.9074 3.8369C13.3563 3.388 13.8893 3.03197 14.4759 2.78917C15.0625 2.54637 15.6912 2.42156 16.326 2.42188C17.718 2.42188 18.9744 3.00508 19.8576 3.94828C20.9397 3.73902 21.9775 3.34398 22.9248 2.78068C22.5641 3.89765 21.8085 4.8448 20.7996 5.44468C21.7593 5.33521 22.6973 5.08282 23.5824 4.69588C22.9214 5.65959 22.1022 6.50469 21.1596 7.19548Z"/>
</svg>
