<svg width="24" height="24" viewBox="0 0 24 24" fill="none" xmlns="http://www.w3.org/2000/svg">
<path fill-rule="evenodd" clip-rule="evenodd" d="M20.7677 13.7223C21.5373 14.4478 22.3495 15.1303 23.0397 15.9289C23.3446 16.2838 23.6333 16.65 23.8541 17.0619C24.167 17.6473 23.8836 18.2916 23.3399 18.3265L19.9601 18.3251C19.0884 18.3949 18.393 18.0561 17.8082 17.4806C17.3403 17.0204 16.9069 16.5306 16.457 16.0549C16.2725 15.8605 16.0794 15.6775 15.8488 15.5329C15.3874 15.2437 14.9869 15.3323 14.7232 15.7969C14.4547 16.2694 14.3938 16.7927 14.3674 17.3194C14.3312 18.0878 14.0906 18.2898 13.2912 18.325C11.5827 18.4028 9.96119 18.1532 8.4549 17.3211C7.1269 16.5874 6.09709 15.5518 5.20076 14.3793C3.45557 12.0963 2.11911 9.58756 0.917949 7.00857C0.647577 6.42752 0.845306 6.11561 1.50931 6.10458C2.61191 6.08389 3.71436 6.08537 4.81826 6.1031C5.26639 6.10943 5.56306 6.3576 5.73609 6.76636C6.33263 8.18259 7.06256 9.53 7.9788 10.7789C8.22279 11.1115 8.47159 11.444 8.82589 11.678C9.21784 11.9371 9.51626 11.8513 9.70065 11.4297C9.81766 11.1624 9.86888 10.8745 9.89526 10.5882C9.98261 9.60323 9.99412 8.61998 9.84091 7.63849C9.74685 7.02594 9.3895 6.6294 8.75645 6.51348C8.43341 6.45438 8.4815 6.33832 8.63792 6.16029C8.90959 5.85324 9.16509 5.66211 9.67443 5.66211H13.4942C14.0955 5.7767 14.2291 6.03753 14.3114 6.62174L14.3147 10.7184C14.3081 10.9445 14.4317 11.6157 14.8536 11.7654C15.1913 11.8719 15.4138 11.6111 15.6164 11.4044C16.531 10.4672 17.1837 9.35963 17.7668 8.21276C18.0256 7.70848 18.2481 7.18476 18.4638 6.66148C18.6235 6.27319 18.8742 6.08213 19.3273 6.09059L23.0035 6.09376C23.1125 6.09376 23.2228 6.0953 23.3284 6.11274C23.9479 6.21468 24.1176 6.47197 23.9263 7.05604C23.6248 7.9724 23.0383 8.73604 22.4648 9.50321C21.8517 10.3223 21.196 11.1133 20.588 11.9372C20.0294 12.6896 20.0738 13.0688 20.7677 13.7223Z"/>
</svg>
