<svg width="24" height="24" viewBox="0 0 24 24" fill="none" xmlns="http://www.w3.org/2000/svg">
  <path d="M23.2444 6.50983C23.1108 6.01323 22.8489 5.56037 22.4848 5.19655C22.1207 4.83274 21.6672 4.57074 21.1698 4.43678C19.3388 3.94531 11.999 3.94531 11.999 3.94531C11.999 3.94531 4.65917 3.94531 2.82815 4.43416C2.3305 4.56769 1.87682 4.82955 1.51266 5.19343C1.1485 5.55731 0.886688 6.0104 0.753516 6.50721C0.263672 8.33714 0.263672 12.1538 0.263672 12.1538C0.263672 12.1538 0.263672 15.9706 0.753516 17.7979C1.02332 18.8069 1.81965 19.6017 2.82815 19.8709C4.65917 20.3624 11.999 20.3624 11.999 20.3624C11.999 20.3624 19.3388 20.3624 21.1698 19.8709C22.1809 19.6017 22.9746 18.8069 23.2444 17.7979C23.7343 15.9706 23.7343 12.1538 23.7343 12.1538C23.7343 12.1538 23.7343 8.33714 23.2444 6.50983ZM9.66762 15.6569V8.65084L15.7448 12.1277L9.66762 15.6569Z"/>
</svg>
