<?xml version="1.0" standalone="no"?>
<!DOCTYPE svg PUBLIC "-//W3C//DTD SVG 20010904//EN"
 "http://www.w3.org/TR/2001/REC-SVG-20010904/DTD/svg10.dtd">
<svg version="1.0" xmlns="http://www.w3.org/2000/svg"
 width="1280.000000pt" height="1280.000000pt" viewBox="0 0 1280.000000 1280.000000"
 preserveAspectRatio="xMidYMid meet">
<metadata>
Created by potrace 1.11, written by Peter Selinger 2001-2013
</metadata>
<g transform="translate(0.000000,1280.000000) scale(0.100000,-0.100000)"
fill="#000000" stroke="none">
<path d="M7417 12742 c-14 -28 -23 -52 -20 -56 4 -3 1 -6 -5 -6 -7 0 -12 -4
-12 -9 0 -5 -12 -35 -27 -67 -14 -33 -28 -63 -29 -69 -1 -5 -25 -63 -52 -127
-28 -65 -48 -118 -46 -118 3 0 -2 -13 -11 -30 -8 -16 -15 -31 -14 -32 0 -2 -5
-16 -11 -33 -7 -16 -13 -38 -16 -49 -2 -10 -8 -23 -13 -30 -5 -6 -10 -15 -11
-21 -2 -21 -13 -60 -19 -70 -3 -5 -6 -13 -7 -17 -1 -5 -3 -10 -4 -13 -4 -7 -5
-15 -14 -57 -5 -21 -13 -38 -19 -38 -6 0 -8 -3 -4 -6 3 -3 2 -17 -4 -31 -13
-34 -109 -388 -114 -421 -3 -15 -12 -52 -20 -82 -9 -30 -18 -66 -20 -80 -4
-25 -10 -51 -20 -100 -12 -52 -17 -76 -18 -92 -1 -10 -4 -18 -7 -18 -3 0 -6
-12 -6 -27 -2 -33 -20 -138 -24 -138 -1 0 -3 -13 -5 -30 -1 -16 -3 -30 -5 -30
-1 0 -3 -13 -5 -30 -1 -16 -6 -46 -10 -65 -4 -19 -9 -48 -10 -65 -2 -16 -4
-30 -5 -30 -1 0 -3 -16 -5 -35 -3 -34 -13 -112 -20 -158 -2 -13 -7 -53 -11
-90 -3 -37 -8 -76 -11 -87 -2 -11 -6 -47 -8 -80 -3 -33 -7 -78 -10 -101 -3
-22 -8 -79 -10 -125 -3 -46 -8 -111 -10 -144 -24 -349 -24 -853 0 -1265 4 -74
19 -259 31 -370 17 -168 25 -237 39 -335 3 -22 8 -57 11 -79 3 -21 9 -59 14
-84 4 -26 6 -50 4 -54 -3 -5 -2 -8 3 -8 4 0 7 -15 7 -32 -1 -18 1 -37 5 -43 6
-11 6 -11 16 -75 4 -25 11 -67 16 -95 6 -27 12 -61 15 -75 2 -14 9 -45 14 -70
5 -25 12 -56 14 -70 3 -14 12 -54 21 -90 9 -36 18 -74 20 -85 5 -34 75 -299
85 -325 6 -14 12 -34 14 -45 3 -11 14 -51 26 -90 13 -38 23 -74 24 -80 1 -5 7
-23 13 -40 24 -63 26 -71 30 -90 2 -11 8 -24 13 -29 4 -4 6 -15 3 -22 -3 -8
-1 -14 4 -14 5 0 10 -6 10 -12 1 -24 110 -303 173 -443 112 -250 297 -588 407
-742 24 -35 42 -63 39 -63 -2 0 4 -10 14 -22 11 -13 54 -69 97 -124 220 -286
456 -511 713 -679 134 -87 155 -100 240 -140 41 -20 98 -48 127 -62 28 -13 57
-26 65 -27 7 -2 29 -9 48 -17 19 -7 38 -12 43 -11 4 1 7 -2 7 -8 0 -6 3 -9 8
-8 4 1 23 -3 42 -9 19 -6 55 -16 80 -23 25 -7 52 -15 60 -18 8 -2 24 -6 35 -8
55 -10 72 -13 95 -18 31 -7 89 -15 156 -22 l52 -6 4 41 c2 23 1 44 -2 47 -3 3
-6 22 -6 42 -1 20 -3 37 -4 37 -1 0 -8 54 -13 113 -1 12 -4 22 -7 22 -4 0 -6
10 -7 23 -1 27 -12 78 -19 89 -3 5 -8 21 -10 36 -11 59 -80 246 -147 397 -28
64 -158 320 -228 450 -29 55 -68 129 -87 165 -18 36 -37 69 -43 74 -5 6 -9 18
-9 28 0 10 -4 18 -8 18 -10 0 -42 65 -42 85 0 7 -3 15 -7 17 -11 4 -43 67 -43
84 0 8 -5 14 -12 14 -6 0 -9 3 -5 6 3 4 -5 28 -18 55 -14 27 -25 52 -25 57 0
5 -8 27 -17 48 -9 22 -18 44 -19 49 -1 6 -9 30 -17 55 -17 51 -38 125 -42 155
-2 11 -8 45 -14 75 -9 53 -8 290 2 340 22 105 77 249 96 251 16 2 23 4 54 17
47 20 79 24 167 24 73 0 105 -3 130 -12 3 -1 9 -2 13 -1 14 2 198 -90 217
-109 3 -3 21 -17 40 -31 19 -15 51 -41 70 -58 19 -17 38 -31 43 -31 4 0 7 -7
7 -15 0 -8 4 -15 9 -15 5 0 22 -13 38 -29 70 -72 151 -160 184 -201 20 -25 46
-55 57 -68 11 -13 35 -41 52 -62 30 -37 45 -55 93 -110 12 -14 46 -54 76 -90
110 -129 237 -260 315 -323 21 -18 50 -43 64 -57 15 -14 26 -23 27 -21 0 3 19
-8 43 -22 87 -56 193 -94 270 -99 19 -1 36 -6 38 -10 2 -4 17 -3 32 2 15 5 43
11 62 13 19 3 44 8 55 12 11 4 34 12 50 18 53 19 57 0 -66 312 -32 83 -59 156
-59 162 0 6 -7 16 -15 23 -9 7 -13 15 -11 17 3 3 -10 40 -29 83 -18 44 -30 81
-27 84 3 4 1 6 -4 6 -6 0 -16 17 -23 38 -7 20 -16 46 -21 57 -5 11 -52 126
-105 255 -53 129 -104 253 -113 275 -9 21 -15 40 -12 41 3 1 -4 11 -14 23 -11
12 -16 21 -11 21 4 0 2 7 -5 15 -7 8 -9 15 -6 15 4 0 1 10 -6 23 -7 12 -13 24
-13 27 -2 5 -21 53 -32 80 -3 8 -7 17 -8 20 -1 3 -7 19 -15 35 -32 73 -40 93
-40 100 0 3 -9 25 -19 49 -11 23 -26 60 -34 82 -24 66 -117 308 -126 329 -8
19 -62 168 -81 225 -4 14 -11 34 -16 45 -4 11 -8 25 -10 30 -1 6 -14 41 -27
78 -14 37 -25 69 -26 70 0 1 -2 9 -5 17 -35 97 -94 295 -90 301 3 5 1 9 -4 9
-5 0 -13 15 -17 33 -9 39 -8 34 -35 127 -19 69 -25 89 -35 130 -2 8 -4 17 -5
20 -1 3 -3 10 -4 15 -1 6 -5 17 -8 25 -7 14 -29 121 -30 137 0 5 -4 14 -10 21
-6 6 -8 12 -5 12 3 0 0 21 -8 48 -8 26 -15 59 -15 73 0 14 -3 29 -7 33 -4 3
-8 12 -9 19 -3 18 -15 89 -20 112 -5 24 -7 37 -33 185 -12 63 -23 135 -26 160
-3 25 -8 56 -10 70 -5 29 -13 91 -21 175 -3 33 -7 76 -9 95 -25 234 -25 763
-1 995 5 44 16 134 22 180 8 56 10 73 18 135 4 30 9 62 11 70 2 8 7 31 10 50
5 35 11 64 21 110 3 14 7 36 10 50 3 14 18 82 35 152 17 70 29 129 27 131 -1
2 3 11 11 20 7 10 11 17 8 17 -3 0 2 24 12 53 10 28 18 56 18 60 1 14 96 302
102 307 3 3 8 14 9 25 3 18 42 118 77 200 7 17 27 64 45 105 18 41 38 87 45
103 16 33 15 33 -85 8 -82 -20 -180 -60 -180 -73 0 -4 -4 -8 -9 -8 -31 0 -201
-151 -201 -178 0 -5 -7 -12 -15 -15 -8 -4 -21 -21 -29 -39 -9 -18 -26 -51 -39
-73 -13 -22 -32 -61 -42 -87 -10 -27 -21 -48 -25 -48 -4 0 -7 -6 -8 -12 -1
-21 -9 -51 -25 -93 -14 -36 -68 -232 -81 -295 -3 -14 -10 -43 -15 -65 -6 -22
-17 -71 -26 -109 -9 -38 -19 -79 -22 -90 -3 -12 -5 -31 -6 -43 -1 -13 -4 -23
-8 -23 -4 0 -6 -8 -4 -17 1 -10 -1 -23 -6 -28 -4 -6 -10 -24 -13 -41 -3 -17
-12 -50 -21 -73 -8 -24 -13 -47 -10 -51 3 -5 1 -11 -4 -14 -5 -3 -12 -18 -15
-32 -4 -14 -15 -45 -25 -68 -10 -22 -24 -56 -32 -75 -13 -35 -95 -175 -120
-205 -39 -48 -137 -139 -164 -153 -16 -9 -32 -19 -35 -22 -5 -7 -97 -53 -112
-57 -5 -1 -9 -2 -10 -4 -2 -1 -10 -3 -18 -5 -8 -1 -33 -7 -55 -13 -22 -6 -53
-14 -70 -18 -36 -8 -426 -13 -440 -5 -5 2 -25 6 -45 8 -34 3 -75 10 -75 13 0
1 -10 3 -23 6 -57 10 -211 106 -212 132 0 6 -6 12 -13 12 -13 0 -77 91 -77
109 0 6 -4 11 -9 11 -5 0 -24 39 -41 88 -70 189 -93 370 -105 787 -7 275 -16
493 -21 517 -2 13 -6 50 -9 83 -7 80 -23 169 -40 229 -8 27 -12 52 -9 57 3 5
1 9 -4 9 -5 0 -12 13 -15 29 -6 27 -55 141 -67 151 -3 3 -13 18 -22 35 -9 16
-21 31 -26 33 -5 1 -21 -19 -35 -46z"/>
<path d="M8600 12428 c-47 -10 -92 -20 -100 -22 -25 -7 -145 -60 -150 -66 -3
-3 -21 -15 -41 -27 -20 -11 -46 -29 -60 -39 -37 -30 -172 -168 -189 -193 -8
-13 -22 -33 -31 -45 -45 -59 -130 -247 -143 -316 -3 -14 -12 -59 -20 -100 -17
-85 -15 -284 2 -317 6 -11 9 -23 6 -26 -3 -2 2 -22 11 -43 9 -22 16 -40 15
-42 -2 -7 53 -116 65 -129 8 -8 15 -18 15 -22 0 -15 98 -110 150 -144 54 -35
170 -91 170 -82 0 3 17 -2 38 -10 21 -9 56 -17 78 -19 22 -1 45 -5 50 -8 11
-7 275 -2 329 7 22 4 51 8 65 10 14 2 25 4 25 5 0 1 14 4 30 6 29 5 74 47 75
71 0 6 3 13 8 15 13 6 97 212 91 226 -1 5 13 67 18 76 3 4 7 27 9 50 2 22 6
51 8 64 25 121 25 472 1 632 -10 61 -17 99 -31 155 -8 33 -16 69 -19 80 -8 35
-48 130 -58 136 -5 3 -9 9 -9 12 0 19 -12 47 -19 47 -5 0 -9 6 -9 13 0 21 -32
45 -70 53 -74 14 -225 10 -310 -8z"/>
<path d="M5578 9344 c-5 -8 -10 -108 -11 -256 -1 -33 -5 -54 -11 -51 -5 4 -6
1 0 -8 12 -20 12 -129 -1 -129 -7 0 -7 -3 0 -8 6 -4 11 -72 12 -162 1 -85 5
-240 8 -345 8 -246 13 -907 7 -919 -3 -5 -6 -38 -8 -75 -3 -81 -12 -179 -18
-207 -2 -12 -7 -45 -11 -74 -8 -63 -8 -65 -30 -155 -9 -38 -18 -77 -20 -85
-15 -71 -123 -325 -145 -340 -4 -3 -13 -15 -19 -28 -23 -43 -102 -129 -173
-185 -52 -43 -237 -139 -250 -131 -5 3 -14 1 -21 -4 -11 -9 -83 -27 -157 -39
-14 -2 -84 -7 -156 -10 l-131 -5 -59 32 c-33 17 -73 43 -91 56 -64 48 -183
174 -183 193 0 5 -3 11 -7 13 -10 4 -33 44 -70 118 -16 30 -32 58 -36 61 -5 3
-9 10 -9 15 0 9 -12 44 -25 74 -3 8 -7 17 -8 20 -1 3 -5 12 -8 20 -21 49 -113
353 -123 407 -2 12 -9 34 -14 48 -5 14 -7 25 -4 25 4 0 2 6 -4 13 -5 6 -11 26
-13 42 -2 17 -7 36 -12 43 -5 6 -6 12 -3 12 4 0 2 8 -3 18 -6 11 -13 32 -16
48 -8 39 -13 59 -15 59 -1 0 -3 10 -5 21 -3 12 -10 34 -16 50 -15 34 -14 31
-24 69 -4 17 -17 50 -27 75 -11 25 -21 52 -23 60 -9 43 -123 253 -170 310 -60
74 -189 190 -212 190 -7 0 -13 4 -13 10 0 10 -90 53 -97 46 -5 -5 32 -117 49
-149 5 -10 12 -29 14 -43 2 -13 9 -36 16 -51 6 -16 12 -30 13 -33 0 -3 9 -32
19 -65 10 -33 18 -61 17 -62 0 -2 7 -22 15 -45 24 -70 72 -270 97 -413 3 -16
8 -39 10 -50 2 -11 7 -40 11 -65 19 -132 17 -113 32 -280 9 -98 10 -454 1
-550 -12 -141 -16 -170 -33 -285 -9 -55 -11 -64 -14 -67 -1 -2 -3 -14 -4 -28
-4 -34 -12 -70 -42 -196 -31 -133 -28 -122 -58 -219 -21 -68 -35 -110 -82
-245 -3 -8 -4 -15 -2 -16 2 0 -3 -8 -11 -18 -8 -9 -11 -19 -8 -22 3 -4 -1 -13
-9 -21 -8 -8 -12 -19 -9 -24 4 -5 2 -9 -3 -9 -5 0 -9 -6 -9 -12 0 -12 -36
-100 -84 -205 -10 -24 -19 -45 -19 -48 0 -6 -205 -409 -249 -490 -78 -142
-105 -190 -110 -195 -3 -3 -15 -23 -26 -45 -11 -22 -26 -46 -32 -53 -7 -7 -13
-18 -13 -23 0 -5 -8 -22 -19 -37 -22 -33 -127 -211 -160 -272 -13 -25 -27 -47
-32 -50 -4 -3 -13 -17 -18 -30 -6 -14 -20 -38 -30 -55 -21 -34 -143 -241 -174
-295 -10 -19 -24 -38 -31 -42 -6 -4 -8 -8 -3 -8 4 0 -4 -18 -18 -40 -14 -22
-25 -41 -25 -43 0 -2 -23 -44 -51 -93 -144 -250 -407 -785 -423 -859 -1 -5 -8
-20 -15 -33 -7 -13 -14 -31 -16 -40 -7 -31 -30 -87 -38 -93 -5 -3 -8 -8 -6
-10 1 -2 -17 -62 -41 -134 -24 -71 -45 -134 -46 -140 -1 -5 -11 -42 -23 -81
-14 -49 -21 -99 -21 -158 l0 -86 28 -1 c118 -4 227 3 312 21 30 7 61 12 68 13
6 0 12 4 12 9 0 5 4 7 8 4 4 -2 27 4 50 14 23 11 42 16 42 12 0 -4 4 -2 8 4 4
6 26 21 49 33 90 45 235 182 303 283 14 21 28 38 33 38 4 0 7 5 7 10 0 6 17
36 39 68 50 75 111 171 111 176 0 19 173 258 222 309 21 21 38 43 38 48 0 5 7
9 15 9 8 0 15 4 15 8 0 25 208 153 270 167 8 2 28 8 43 14 15 6 31 10 35 10 4
-1 9 0 12 1 6 2 36 8 80 16 51 9 301 11 330 2 14 -4 45 -9 70 -12 25 -2 47 -5
50 -6 3 -1 8 -2 12 -1 4 0 26 -35 48 -79 22 -44 37 -80 34 -80 -4 0 0 -7 7
-16 7 -9 14 -22 15 -29 1 -7 11 -39 22 -71 61 -178 72 -345 37 -569 -2 -16
-11 -51 -19 -77 -8 -27 -12 -48 -10 -48 3 0 -2 -13 -11 -30 -9 -16 -13 -30
-10 -30 5 0 -25 -81 -50 -137 -8 -17 -15 -34 -15 -38 0 -9 -115 -240 -167
-335 -22 -41 -60 -111 -83 -155 -23 -44 -47 -86 -54 -94 -6 -8 -10 -17 -10
-20 2 -9 -9 -35 -16 -41 -14 -10 -104 -209 -102 -222 1 -5 -2 -8 -6 -8 -5 0
-15 -19 -22 -42 -8 -24 -17 -47 -20 -53 -13 -19 -78 -220 -83 -255 -2 -8 -5
-19 -8 -25 -3 -5 -5 -17 -4 -25 1 -8 -5 -32 -12 -52 -7 -23 -8 -38 -2 -38 6 0
6 -6 0 -18 -14 -27 -26 -187 -20 -279 2 -30 4 -32 28 -27 53 12 139 37 221 65
93 32 90 31 203 83 43 20 82 36 87 36 4 0 10 3 12 8 2 4 21 16 43 27 103 51
382 243 457 315 14 14 52 48 84 75 98 85 263 255 350 361 21 26 47 56 57 66 9
10 17 22 17 28 0 5 6 13 13 17 17 11 187 239 187 252 0 5 4 11 8 13 5 2 27 32
50 68 23 36 45 70 50 75 12 15 131 213 165 275 16 30 45 81 63 112 18 32 30
58 26 58 -4 0 -2 4 3 8 6 4 26 39 45 77 19 39 38 73 43 76 5 3 8 9 8 13 -1 3
10 31 24 61 14 31 25 60 25 65 0 6 5 10 10 10 6 0 10 6 10 13 0 6 22 60 49
119 27 59 46 109 43 112 -3 4 0 6 6 6 7 0 12 6 12 14 0 7 11 38 23 67 26 59
39 91 42 99 20 66 30 90 38 90 6 0 8 2 5 5 -3 4 8 43 24 88 57 154 184 546
203 627 2 8 20 78 41 155 20 77 37 146 37 153 0 6 4 12 9 12 5 0 7 4 4 8 -3 5
1 33 8 63 33 134 48 196 51 219 4 24 18 98 30 150 7 35 75 427 80 470 3 19 8
58 12 85 4 28 8 67 8 88 0 20 2 37 5 37 3 0 7 15 8 33 2 17 5 50 7 72 17 147
26 235 30 310 2 33 4 60 5 60 5 0 22 388 24 552 0 79 5 143 9 143 5 0 5 5 1
12 -4 6 -8 102 -10 212 -1 111 -5 242 -9 291 -3 50 -8 124 -11 165 -9 150 -13
205 -14 205 -1 0 -3 20 -5 45 -2 25 -6 63 -10 85 -3 22 -7 58 -9 80 -6 57 -19
152 -31 230 -3 22 -8 54 -10 70 -12 89 -16 108 -24 147 -6 24 -13 66 -17 93
-3 28 -8 53 -10 56 -2 3 -6 20 -9 37 -5 32 -33 161 -41 195 -2 9 -6 25 -8 36
-2 10 -9 35 -14 55 -6 20 -8 36 -6 36 3 0 0 8 -5 18 -5 9 -12 34 -15 56 -4 21
-8 41 -11 45 -6 10 -47 164 -48 179 0 6 -3 12 -7 12 -4 0 -7 6 -8 13 -2 22 -7
42 -15 55 -5 6 -6 12 -3 12 3 0 -17 66 -45 148 -46 135 -58 170 -94 257 -7 17
-18 46 -25 65 -7 19 -24 59 -37 88 -12 29 -23 55 -23 59 0 3 -11 29 -24 57
-13 28 -33 71 -43 95 -11 24 -23 40 -25 35z"/>
<path d="M4620 8268 c-14 -11 -34 -27 -45 -36 -11 -9 -45 -37 -75 -61 -88 -71
-243 -234 -294 -310 -48 -73 -98 -175 -113 -231 -2 -8 -5 -22 -8 -30 -2 -8 -4
-16 -5 -17 -3 -4 -5 -13 -14 -66 -4 -27 -10 -59 -12 -70 -4 -20 -5 -190 -1
-279 1 -21 6 -38 11 -38 4 0 6 -6 3 -14 -8 -19 11 -86 24 -86 6 0 30 -13 54
-30 24 -16 48 -30 54 -30 6 0 11 -4 11 -8 0 -5 12 -15 28 -23 15 -8 29 -16 32
-19 3 -4 28 -22 55 -41 28 -18 55 -39 60 -45 6 -6 39 -29 75 -50 36 -21 67
-42 68 -46 2 -5 12 -8 22 -8 10 0 21 -4 25 -9 11 -19 200 -74 258 -74 20 -1
37 -4 37 -7 0 -3 15 -5 33 -4 61 5 112 7 122 4 6 -1 12 -2 15 0 9 3 55 11 90
15 19 2 35 4 35 5 0 1 8 3 18 5 22 4 50 26 42 33 -3 3 2 14 12 24 9 10 13 18
8 18 -4 0 -3 6 2 13 9 11 47 104 48 117 0 3 3 10 7 15 3 6 12 38 19 73 7 34
16 62 19 62 3 0 6 12 6 28 1 15 5 43 8 62 14 71 16 98 17 220 1 114 -1 145
-16 220 -3 14 -7 39 -9 55 -5 38 -55 186 -68 203 -6 6 -7 12 -4 12 4 0 -2 13
-13 29 -12 16 -21 32 -21 36 0 16 -91 133 -142 183 -92 90 -247 179 -343 196
-16 2 -40 7 -52 10 -13 3 -31 8 -41 10 -9 2 -29 -5 -42 -16z"/>
</g>
</svg>
