<svg width="550" height="494" fill="none" xmlns="http://www.w3.org/2000/svg"><path d="M1076.64-20.03c-171.228-41.745-337.603-97.976-556.396 207.116C321.895 463.669-.222 416.688-106.231 412.337" stroke="#fff" stroke-opacity=".2"/><path d="M1056.47-45.75C838.931-184.934 732.72-115.605 510.8 172.243 306.037 437.837 92.731 396.878-55.057 357.281" stroke="#fff" stroke-opacity=".2"/><path d="M1313.89 345.353C990.024 11.554 794.259-77.704 518.987 225.35 234.038 539.055 132.769 608.497-185.6 485.784" stroke="#fff" stroke-opacity=".2"/><path fill-rule="evenodd" clip-rule="evenodd" d="M457.653 312.876c33.595 2.892 14.606-42.648 40.898-46.262-27.752 59.274 2.191 106.981 20.449 154.689-18.988 9.397-30.674-36.142-49.662-26.745-9.494 19.517 16.798 38.311 16.798 61.442-64.269-5.783-81.797-127.221-48.932-193 10.955 13.011-4.382 50.599 20.449 49.876z" fill="#1661BA"/><path fill-rule="evenodd" clip-rule="evenodd" d="M305 501.748v-3.597c13.142-48.201 62.06-76.259 37.236-138.129 18.253 7.194 10.951 38.849 28.474 46.043 34.315 1.439 22.634-40.288 24.824-69.065 35.045 71.942 2.19 188.489-53.298 200-1.46-24.46 26.284-38.129 12.412-61.87-32.125-5.756-21.174 28.776-49.648 26.618" fill="#fff"/><path fill-rule="evenodd" clip-rule="evenodd" d="M469.671 271.377c5.772 6.511 5.772 28.215 0 34.726-36.078 7.958-26.698-39.79 0-34.726z" fill="#1661BA"/><path fill-rule="evenodd" clip-rule="evenodd" d="M375.01 360c16.042 2.146 19.688 20.747 12.396 34.34-13.854 2.862-17.5-4.293-24.792-7.87-2.916-15.023 5.105-20.747 12.396-26.47z" fill="#fff"/></svg>