<svg width="335" height="433" fill="none" xmlns="http://www.w3.org/2000/svg"><path d="M697.507 37.863c-105.923-25.824-208.845-60.61-344.193 128.125C230.613 337.085 31.347 308.022-34.232 305.331" stroke="#fff" stroke-opacity=".2"/><path d="M685.031 21.952C550.458-64.149 484.755-21.26 347.472 156.805 220.803 321.105 88.85 295.767-2.574 271.272" stroke="#fff" stroke-opacity=".2"/><path d="M844.271 263.894C643.926 57.401 522.823 2.185 352.536 189.658 176.263 383.72 113.617 426.678-83.33 350.766" stroke="#fff" stroke-opacity=".2"/><path fill-rule="evenodd" clip-rule="evenodd" d="M188.921 266.831c27.424 2.368 11.923-34.913 33.386-37.872-22.655 48.524 1.788 87.58 16.693 126.637-15.501 7.692-25.04-29.589-40.54-21.896-7.751 15.978 13.712 31.364 13.712 50.3-52.464-4.734-66.772-104.15-39.944-158 8.942 10.652-3.577 41.423 16.693 40.831z" fill="#1661BA"/><path fill-rule="evenodd" clip-rule="evenodd" d="M65 420.27v-2.932c10.514-39.284 49.648-62.151 29.789-112.575 14.602 5.863 8.761 31.661 22.779 37.525 27.452 1.172 18.107-32.835 19.859-56.288 28.036 58.633 1.752 153.619-42.638 163-1.169-19.935 21.027-31.076 9.929-50.424-25.7-4.691-16.939 23.453-39.718 21.694" fill="#fff"/><path fill-rule="evenodd" clip-rule="evenodd" d="M198.444 233.293c4.741 5.065 4.741 21.945 0 27.009-29.635 6.19-21.93-30.947 0-27.009z" fill="#1661BA"/><path fill-rule="evenodd" clip-rule="evenodd" d="M122.216 306c13.829 1.778 16.972 17.19 10.686 28.453-11.943 2.371-15.086-3.557-21.372-6.52-2.515-12.449 4.4-17.191 10.686-21.933z" fill="#fff"/></svg>