<svg width="487" height="457" fill="none" xmlns="http://www.w3.org/2000/svg"><path d="M817.815 58.767C692.507 28.217 570.749-12.935 410.63 210.34 265.473 412.751 29.738 378.369-47.842 375.185" stroke="#fff" stroke-opacity=".2"/><path d="M803.056 39.944C643.854-61.915 566.127-11.177 403.719 199.478 253.868 393.847 97.765 363.872-10.391 334.894" stroke="#fff" stroke-opacity=".2"/><path d="M991.44 326.164C754.428 81.881 611.162 16.559 409.71 238.342 201.177 467.921 127.066 518.74-105.926 428.935" stroke="#fff" stroke-opacity=".2"/><path fill-rule="evenodd" clip-rule="evenodd" d="M389.653 273.876c33.595 2.892 14.606-42.648 40.898-46.262-27.752 59.274 2.191 106.981 20.449 154.689-18.988 9.397-30.674-36.142-49.662-26.745-9.494 19.517 16.798 38.311 16.798 61.442-64.269-5.783-81.797-127.221-48.932-193 10.955 13.011-4.382 50.599 20.449 49.876z" fill="#1661BA"/><path fill-rule="evenodd" clip-rule="evenodd" d="M237 462.748v-3.597c13.142-48.201 62.06-76.259 37.236-138.129 18.253 7.194 10.951 38.849 28.474 46.043 34.315 1.439 22.634-40.288 24.824-69.065 35.045 71.942 2.19 188.489-53.298 200-1.46-24.46 26.284-38.129 12.412-61.87-32.125-5.756-21.174 28.776-49.648 26.618" fill="#fff"/><path fill-rule="evenodd" clip-rule="evenodd" d="M401.671 232.377c5.772 6.511 5.772 28.215 0 34.726-36.078 7.958-26.698-39.79 0-34.726z" fill="#1661BA"/><path fill-rule="evenodd" clip-rule="evenodd" d="M307.01 321c16.042 2.146 19.688 20.747 12.396 34.34-13.854 2.862-17.5-4.293-24.792-7.87-2.916-15.023 5.105-20.747 12.396-26.47z" fill="#fff"/></svg>