<svg width="31" height="40" fill="none" xmlns="http://www.w3.org/2000/svg"><g fill-rule="evenodd" clip-rule="evenodd"><path d="M21.686 7.263c4.795.421 2.085-6.21 5.838-6.737-3.962 8.632.313 15.58 2.92 22.527-2.712 1.368-4.38-5.264-7.09-3.895-1.356 2.842 2.398 5.579 2.398 8.947C16.576 27.263 14.075 9.58 18.765 0c1.564 1.895-.625 7.368 2.92 7.263z" fill="#2164B4"/><path d="M23.457 1.158c.834.947.834 4.105 0 5.053-5.213 1.157-3.857-5.79 0-5.053z" fill="#2164B4"/><path d="M0 34.842v-.526c1.877-7.053 8.862-11.158 5.317-20.21 2.607 1.052 1.564 5.684 4.066 6.736 4.9.21 3.232-5.894 3.545-10.105 5.004 10.526.313 27.579-7.61 29.263-.21-3.579 3.752-5.579 1.771-9.052-4.587-.843-3.023 4.21-7.089 3.894" fill="#8BB87B"/><path d="M10.009 14.105c2.293.316 2.815 3.053 1.772 5.053-1.98.42-2.502-.632-3.545-1.158-.417-2.21.73-3.053 1.773-3.895z" fill="#8BB87B"/></g></svg>