<svg width="230" height="33" fill="none" xmlns="http://www.w3.org/2000/svg"><path fill-rule="evenodd" clip-rule="evenodd" d="M18.329 5.992C22.382 6.34 20.09.868 23.264.434c-3.349 7.121.264 12.853 2.467 18.584-2.291 1.13-3.701-4.342-5.992-3.213-1.146 2.345 2.027 4.603 2.027 7.382C14.01 22.492 11.896 7.903 15.862 0c1.321 1.563-.53 6.079 2.467 5.992z" fill="#2164B4"/><path fill-rule="evenodd" clip-rule="evenodd" d="M19.828.955c.705.782.705 3.387 0 4.169-4.406.955-3.26-4.777 0-4.169z" fill="#2164B4"/><path fill-rule="evenodd" clip-rule="evenodd" d="M0 28.745v-.434c1.586-5.819 7.49-9.206 4.494-16.674 2.203.868 1.322 4.69 3.437 5.558 4.142.173 2.732-4.863 2.996-8.337 4.23 8.684.265 22.752-6.433 24.142-.176-2.953 3.173-4.603 1.498-7.468-3.877-.695-2.555 3.473-5.992 3.213" fill="#8BB87B"/><path fill-rule="evenodd" clip-rule="evenodd" d="M8.46 11.637c1.938.26 2.378 2.518 1.497 4.168-1.674.348-2.115-.52-2.996-.955-.353-1.824.617-2.518 1.498-3.213z" fill="#8BB87B"/><path d="M36.042 11.203c-.265.087-.705.173-1.322.173-2.291 0-3.349-1.91-3.349-4.429 0-3.386 1.85-4.689 3.613-4.689.617 0 1.058.087 1.234.26l-.265 1.477a1.781 1.781 0 00-.793-.174c-.969 0-1.85.869-1.85 3.04 0 2.17.793 2.952 1.85 2.952.265 0 .617-.087.794-.173l.088 1.563zm2.114-7.208H36.57V2.432h4.847v1.65h-1.586v7.381h-1.763V3.995h.089zm8.989 2.692c0 3.387-1.146 4.776-2.82 4.776-2.027 0-2.82-2.17-2.82-4.602 0-2.432.97-4.603 2.908-4.603 2.115 0 2.732 2.432 2.732 4.429zm-3.877.174c0 1.997.352 3.04 1.057 3.04s.97-1.304.97-3.127c0-1.563-.265-3.04-1.058-3.04-.617.087-.97 1.216-.97 3.127zM53.49 8.25c-.088-.87-.088-1.998-.088-2.954-.177.956-.353 2.085-.529 2.78l-.881 3.126h-1.234l-.705-3.127c-.176-.694-.44-1.823-.529-2.779 0 .956-.088 2.085-.176 3.04l-.176 3.126h-1.498l.617-8.945h1.85l.705 3.214c.265 1.129.44 2.17.617 3.126.088-.955.352-1.997.529-3.126l.705-3.214h1.938l.53 8.945h-1.499L53.49 8.25zm4.142 1.041l-.353 2.084h-1.674l1.939-8.944h2.026l1.763 8.944h-1.675l-.352-2.084h-1.674zM59.13 7.99l-.353-1.911c-.088-.521-.176-1.476-.264-1.997-.088.52-.264 1.476-.353 1.997l-.352 1.91h1.322zm3.348-3.995h-1.586V2.432h4.847v1.65h-1.586v7.381h-1.675V3.995zm8.989 2.692c0 3.387-1.146 4.776-2.82 4.776-2.027 0-2.82-2.17-2.82-4.602 0-2.432.97-4.603 2.908-4.603 2.115 0 2.732 2.432 2.732 4.429zm-3.877.174c0 1.997.352 3.04 1.057 3.04s.97-1.304.97-3.127c0-1.563-.265-3.04-1.058-3.04-.617.087-.97 1.216-.97 3.127zm9.693-4.43v8.945H75.52V3.908H74.2v2.345c0 2.084-.088 3.908-1.234 4.776-.353.26-.705.434-1.234.434l-.352-1.476c.176-.087.44-.174.617-.347.528-.522.617-1.564.617-3.3V2.432h4.67zm6.61 4.256c0 3.387-1.146 4.776-2.82 4.776-2.028 0-2.82-2.17-2.82-4.602 0-2.432.969-4.603 2.907-4.603 2.115 0 2.732 2.432 2.732 4.429zm-3.878.174c0 1.997.352 3.04 1.057 3.04s.97-1.304.97-3.127c0-1.563-.265-3.04-1.058-3.04-.617.087-.97 1.216-.97 3.127zm8.9-4.43v1.564h-2.38v7.468h-1.762V2.432h4.142zm2.291 0v1.911a48.7 48.7 0 01-.176 4.169c.264-.782.705-1.998.97-2.606l1.321-3.473h1.587v8.944h-1.499V9.38c0-1.824.088-3.126.088-4.082-.176.782-.616 1.911-.88 2.606l-1.323 3.387h-1.586v-8.86h1.498zm6.61 0v3.04c0 .695.264 1.216.969 1.216.264 0 .529-.087.705-.174V2.432h1.674v9.118H99.49V7.816h-.088c-.44.174-.793.347-1.234.347-1.498 0-2.115-1.042-2.115-2.518V2.432h1.763zm8.459 5.037h-2.027V9.9h2.292v1.563h-3.966V2.432h3.878v1.563h-2.115v2.084h2.026v1.39h-.088zm5.552 3.735c-.264.087-.705.173-1.322.173-2.291 0-3.348-1.91-3.348-4.429 0-3.386 1.85-4.689 3.613-4.689.616 0 1.057.087 1.233.26l-.264 1.477a1.781 1.781 0 00-.793-.174c-.97 0-1.851.869-1.851 3.04 0 2.17.793 2.952 1.851 2.952.264 0 .617-.087.793-.173l.088 1.563zm2.467-8.771V6.34h.177l1.41-3.908h1.85L115.704 6.6c.882.347 1.234 1.216 1.499 2.258.176.868.352 1.737.616 2.518h-1.674c-.264-.607-.352-1.39-.529-2.084-.264-1.042-.44-1.737-1.145-1.737h-.177v3.821h-1.674V2.432h1.674zm5.728 0v1.91c0 1.65-.088 3.213-.176 4.169.265-.782.705-1.998.97-2.606l1.321-3.473h1.587v8.944h-1.498V9.38c0-1.824.088-3.126.088-4.082-.177.782-.617 1.911-.882 2.606l-1.321 3.387h-1.587v-8.86h1.498zm6.522 0v1.91c0 1.65-.089 3.213-.177 4.169.265-.782.705-1.998.97-2.606l1.321-3.473h1.587v8.944h-1.498V9.38c0-1.824.088-3.126.088-4.082-.177.782-.617 1.911-.882 2.606l-1.321 3.387h-1.587v-8.86h1.499zm.528-1.91c0 .52.176.78.617.78.353 0 .529-.26.617-.78h1.057c-.176 1.128-.705 1.562-1.674 1.562-.881 0-1.586-.347-1.674-1.563h1.057zm-93.145 16.5v11.723h3.965V17.02h1.763v11.724h.969l-.088 3.994h-1.322l-.088-2.692h-6.874V17.021h1.675zm13.747 6.86h-3.701v4.863h4.23v1.302h-5.905V17.021h5.64v1.303h-3.965v4.255h3.7v1.303zm3.877-6.86v5.557h4.142v-5.558h1.674v13.026h-1.674v-6.079H51.55v6.08h-1.674V17.02h1.674zm9.782 1.302H58.6V17.02h7.138v1.303h-2.732v11.723h-1.674V18.324zm5.904-1.13c.705-.173 1.498-.26 2.467-.26 1.322 0 2.556.26 3.261.956.705.607 1.057 1.563 1.057 2.692 0 1.215-.352 1.997-.88 2.692-.794.955-2.204 1.476-3.526 1.476h-.705v5.297h-1.674V17.195zm1.674 6.253h.705c1.675 0 2.732-.955 2.732-2.778 0-1.303-.617-2.519-2.467-2.519-.353 0-.705 0-.97.087v5.21zm15.862-6.426v1.303h-4.141v11.723h-1.675V17.021h5.816zm8.46 6.426c0 4.864-1.85 6.774-4.318 6.774-2.467 0-4.142-2.345-4.142-6.687 0-4.342 1.763-6.687 4.318-6.687 2.556 0 4.142 2.432 4.142 6.6zm-6.697.087c0 2.692.617 5.385 2.467 5.385s2.38-2.866 2.38-5.385c0-2.431-.53-5.297-2.38-5.297-1.85-.087-2.467 2.605-2.467 5.297zm8.46-6.34c.705-.173 1.498-.26 2.467-.26 1.322 0 2.556.26 3.261.956.705.607 1.057 1.563 1.057 2.692 0 1.215-.352 1.997-.881 2.692-.793.955-2.203 1.476-3.525 1.476h-.705v5.297h-1.674V17.195zm1.674 6.253h.705c1.674 0 2.732-.955 2.732-2.778 0-1.303-.617-2.519-2.468-2.519-.352 0-.705 0-.97.087v5.21zm14.628 0c0 4.864-1.85 6.774-4.318 6.774-2.467 0-4.141-2.345-4.141-6.687 0-4.342 1.762-6.687 4.318-6.687 2.643 0 4.141 2.432 4.141 6.6zm-6.609.087c0 2.692.617 5.385 2.468 5.385 1.85 0 2.379-2.866 2.379-5.385 0-2.431-.529-5.297-2.379-5.297-1.851-.087-2.468 2.605-2.468 5.297zm15.422-6.513v11.724h.969l-.088 3.908h-1.322l-.088-2.692h-6.521l-.088 2.692h-1.322l-.088-3.908h.969c.529-1.216.969-2.345 1.234-3.474.352-1.65.44-3.387.44-5.297V17.02h5.905zm-4.407 3.213c0 1.824-.088 3.56-.44 5.21a20.66 20.66 0 01-1.058 3.3h4.23v-10.42h-2.732v1.91zm8.989 5.905l-.969 3.908h-1.675l3.349-13.026h1.85l3.261 13.026h-1.674l-.97-3.907h-3.172zm2.996-1.215l-.793-3.3c-.176-.955-.441-1.998-.617-2.953h-.088c-.176.955-.441 2.084-.617 2.953l-.793 3.3h2.908zm100.636-3.3h-28.728c-.352 0-.793.173-1.057.347a.89.89 0 00-.441.521c-.088.174-.176.348-.176.521l-.353 1.042-3.436-21.97c-.089-.435-.265-.782-.617-1.043a1.373 1.373 0 00-.705-.52c-.882-.261-1.851.346-2.115 1.389l-3.966 15.979-3.084-13.548c-.264-.695-.881-1.129-1.586-1.042-.705 0-1.41.434-1.586 1.042l-3.79 17.282h-36.218c-.881 0-1.674.695-1.674 1.65s.705 1.65 1.674 1.65h37.893c.44 0 .881 0 1.233-.174.353-.174.617-.521.793-.868l2.38-9.9 2.643 9.9c.089.26.265.52.441.694h.088c.088 0 .088.087.088.087.088 0 .088.087.177.087.088 0 .088.087.176.087s.264.087.352.087c.265 0 .441 0 .705-.087.617-.174.97-.695 1.058-1.303l3.172-10.768 3.349 18.237c0 .26.088.52.176.781.264.434.793.782 1.322.782.793.173 1.41-.174 1.674-.695l2.556-6.947h27.494c.969 0 1.674-.695 1.674-1.65.088-.869-.617-1.65-1.586-1.65z" fill="#2164B4"/><path d="M145.138 18.324h-4.935V3.387h7.314c4.318 0 6.433 1.997 6.433 5.037 0 3.213-1.938 5.21-6.256 5.21h-2.468v4.69h-.088zm0-8.164h2.027c1.145 0 2.027-.434 2.027-1.736 0-1.39-1.587-1.564-2.644-1.564h-1.41v3.3zm14.452 8.164h-4.935V3.387h7.138c5.023 0 6.697 1.39 6.697 4.255 0 1.737-.793 3.126-2.555 3.647 1.586.608 2.555.956 2.555 3.908 0 2.171.089 2.605.529 2.605v.435h-5.023c-.088-.348-.264-1.303-.264-2.605 0-1.911-.353-2.606-2.644-2.606h-1.498v5.298zm0-8.511h1.939c1.498 0 2.379-.347 2.379-1.39 0-1.042-.881-1.563-2.027-1.563h-2.291v2.953zm10.31-6.426h4.935v14.937H169.9V3.387z" fill="#8BB87B"/><path d="M212.023 3.387V6.86h-7.755v2.171h6.521v3.561h-6.521v2.345h8.019v3.473h-13.13V3.387h12.866zm8.46 0h-6.962v5.905h4.583v-3.3h3.436v3.3h3.437v3.213h-3.437v3.3h-3.436v-3.3h-4.583v5.905h6.786c5.023 0 8.371-2.17 8.371-7.815 0-4.95-3.172-7.208-8.195-7.208zm-77.724 29.092c-.177.087-.441.087-.705.087-1.234 0-1.851-.956-1.851-2.345 0-1.737.969-2.432 1.939-2.432.352 0 .529.087.617.087l-.177.782c-.088-.087-.264-.087-.44-.087-.529 0-.97.434-.97 1.65 0 1.129.441 1.563.97 1.563.176 0 .352 0 .44-.087l.177.782zm1.057-3.734h-.881v-.869h2.644v.869h-.882v3.908h-.969v-3.908h.088zm4.847 1.39c0 1.736-.617 2.518-1.586 2.518-1.058 0-1.498-1.13-1.498-2.432 0-1.303.528-2.432 1.586-2.432 1.145 0 1.498 1.303 1.498 2.345zm-2.115.086c0 1.042.176 1.65.617 1.65.352 0 .529-.695.529-1.65 0-.869-.089-1.563-.529-1.563-.353-.087-.617.52-.617 1.563zm5.464.695c0-.434-.089-1.042 0-1.564-.089.522-.177 1.13-.265 1.477l-.44 1.65h-.705l-.441-1.65c-.088-.348-.176-.955-.264-1.477 0 .522 0 1.13-.089 1.564l-.088 1.65h-.793l.353-4.69h.969l.353 1.737c.176.608.264 1.129.352 1.65.088-.521.176-1.042.264-1.65l.353-1.737h.969l.265 4.69h-.793v-1.65zm2.203.608l-.177 1.042h-.881l1.058-4.69h1.145l.97 4.69h-.882l-.176-1.042h-1.057zm.793-.695l-.177-.955c-.088-.261-.088-.782-.176-1.043-.088.348-.088.782-.176 1.043l-.176.955h.705zm1.762-2.084h-.881v-.869h2.644v.869h-.882v3.908h-.969v-3.908h.088zm4.759 1.39c0 1.736-.617 2.518-1.586 2.518-1.058 0-1.499-1.13-1.499-2.432 0-1.303.529-2.432 1.587-2.432 1.145 0 1.498 1.303 1.498 2.345zm-2.115.086c0 1.042.176 1.65.617 1.65.352 0 .528-.695.528-1.65 0-.869-.088-1.563-.528-1.563-.353-.087-.617.52-.617 1.563zm5.199-2.345v4.69h-.969v-3.908h-.705v1.216c0 1.129-.088 1.997-.705 2.518a.96.96 0 01-.617.26l-.176-.781c.088 0 .264-.087.352-.174.265-.26.353-.781.353-1.737v-2.17h2.467v.086zm3.525 2.258c0 1.737-.617 2.519-1.586 2.519-1.058 0-1.498-1.13-1.498-2.432 0-1.303.528-2.432 1.586-2.432 1.145 0 1.498 1.303 1.498 2.345zm-2.115.087c0 1.042.176 1.65.617 1.65.352 0 .529-.695.529-1.65 0-.869-.088-1.563-.529-1.563-.441-.087-.617.52-.617 1.563zm4.759-2.345v.782h-1.322v3.908h-.97v-4.69h2.292zm1.145 0v1.042c0 .869-.088 1.65-.088 2.171.176-.434.353-1.042.529-1.39l.705-1.823h.881v4.69h-.793v-1.042c0-.956 0-1.65.088-2.085-.088.435-.352.956-.441 1.39l-.704 1.824h-.882v-4.69h.705v-.087zm3.525 0v1.563c0 .348.176.695.529.695.176 0 .264 0 .352-.087v-2.17h.882v4.689h-.882v-1.91a1.69 1.69 0 01-.705.173c-.793 0-1.145-.521-1.145-1.303v-1.65h.969zm4.494 2.605h-1.057v1.303h1.234v.782h-2.203v-4.69h2.115v.782h-1.146v1.129h1.057v.695zm2.997 1.998c-.177.087-.441.087-.705.087-1.234 0-1.763-.956-1.763-2.345 0-1.737.969-2.432 1.939-2.432.352 0 .529.087.617.087l-.177.782c-.088-.087-.264-.087-.44-.087-.529 0-.97.434-.97 1.65 0 1.129.441 1.563.97 1.563.176 0 .352 0 .44-.087l.089.782zm1.233-4.603v2.084h.088l.794-2.084h1.057l-1.146 2.171c.529.174.617.608.794 1.216.088.434.176.869.352 1.303h-.969c-.088-.348-.177-.695-.265-1.13-.088-.52-.264-.868-.617-.868h-.088v1.998h-.881v-4.69h.881zm2.996 0v1.042c0 .869-.088 1.65-.088 2.171.177-.434.353-1.042.529-1.39l.705-1.823h.881v4.69h-.793v-1.042c0-.956 0-1.65.088-2.085-.088.435-.352.956-.44 1.39l-.705 1.824h-.882v-4.69h.705v-.087zm4.671 2.605h-1.058v1.303h1.234v.782h-2.203v-4.69h2.115v.782h-1.146v1.129h1.058v.695zm12.778-2.605v2.084h.088l.793-2.084h1.057l-1.145 2.171c.529.174.617.608.793 1.216.088.434.176.869.352 1.303h-.969c-.088-.348-.176-.695-.264-1.13-.088-.52-.265-.868-.617-.868h-.088v1.998h-.881v-4.69h.881zm5.287 0v4.69h-.969v-3.908h-.705v1.216c0 1.042-.088 1.997-.705 2.518a.96.96 0 01-.617.26l-.176-.781c.088 0 .264-.087.352-.174.265-.26.353-.781.353-1.737v-2.17h2.467v.086zm1.851 0v1.042c0 .869-.088 1.65-.088 2.171.176-.434.352-1.042.528-1.39l.705-1.823h.881v4.69h-.793v-1.042c0-.956 0-1.65.089-2.085-.089.435-.353.956-.441 1.39l-.705 1.824h-.881v-4.69h.705v-.087zm3.877 0v1.91h.969v-1.91h.97v4.69h-.97v-1.998h-.969v1.998h-.969v-4.69h.969zm3.701 0v1.042c0 .869-.088 1.65-.088 2.171.176-.434.353-1.042.529-1.39l.705-1.823h.881v4.69h-.793v-1.042c0-.956 0-1.65.088-2.085-.088.435-.352.956-.441 1.39l-.705 1.824h-.881v-4.69h.705v-.087zm3.878 0v2.084h.088l.793-2.084h1.057l-1.145 2.171c.528.174.617.608.793 1.216.088.434.176.869.352 1.303h-.969c-.088-.348-.176-.695-.264-1.13-.089-.52-.265-.868-.617-.868h-.088v1.998h-.882v-4.69h.882zm3.26 0v1.042c0 .869-.088 1.65-.088 2.171.176-.434.353-1.042.529-1.39l.705-1.823h.881v4.69h-.793v-1.042c0-.956 0-1.65.088-2.085-.088.435-.353.956-.441 1.39l-.705 1.824h-.881v-4.69h.705v-.087z" fill="#2164B4"/></svg>